<svg xmlns="http://www.w3.org/2000/svg" xmlns:xlink="http://www.w3.org/1999/xlink" width="113" height="113" viewBox="0 0 113 113">
  <defs>
    <filter id="Trazado_982547" x="0" y="0" width="113" height="113" filterUnits="userSpaceOnUse">
      <feOffset dy="3" input="SourceAlpha"/>
      <feGaussianBlur stdDeviation="3" result="blur"/>
      <feFlood flood-opacity="0.161"/>
      <feComposite operator="in" in2="blur"/>
      <feComposite in="SourceGraphic"/>
    </filter>
  </defs>
  <g id="Grupo_1166119" data-name="Grupo 1166119" transform="translate(-324 -972.674)">
    <g id="Grupo_1164543" data-name="Grupo 1164543" transform="translate(126 300.674)">
      <g id="Grupo_1164460" data-name="Grupo 1164460" transform="translate(207 678)">
        <g id="Grupo_1164237" data-name="Grupo 1164237" transform="translate(0)">
          <g id="Grupo_1163948" data-name="Grupo 1163948">
            <g id="Grupo_1158168" data-name="Grupo 1158168">
              <g id="Grupo_1152576" data-name="Grupo 1152576">
                <g id="Grupo_1148633" data-name="Grupo 1148633">
                  <g id="Grupo_1148525" data-name="Grupo 1148525">
                    <g transform="matrix(1, 0, 0, 1, -9, -6)" filter="url(#Trazado_982547)">
                      <g id="Trazado_982547-2" data-name="Trazado 982547" transform="translate(9 6)" fill="#e8e7f2">
                        <path d="M 47.5 93.5 C 41.28937149047852 93.5 35.26533508300781 92.28397369384766 29.59518623352051 89.88570404052734 C 24.11771965026855 87.56893157958984 19.19813346862793 84.25196075439453 14.97309303283691 80.02691650390625 C 10.74804019927979 75.80186462402344 7.431066513061523 70.88229370117188 5.114293098449707 65.40481567382812 C 2.716026782989502 59.73468017578125 1.5 53.71062850952148 1.5 47.5 C 1.5 41.28937149047852 2.716026782989502 35.26533508300781 5.114293098449707 29.59518623352051 C 7.431066513061523 24.11771965026855 10.74804019927979 19.19813346862793 14.97309303283691 14.97309303283691 C 19.19813346862793 10.74804019927979 24.11771965026855 7.431066513061523 29.59518623352051 5.114293098449707 C 35.26533508300781 2.716026782989502 41.28937149047852 1.5 47.5 1.5 C 53.71062850952148 1.5 59.73468017578125 2.716026782989502 65.40481567382812 5.114293098449707 C 70.88229370117188 7.431066513061523 75.80186462402344 10.74804019927979 80.02691650390625 14.97309303283691 C 84.25196075439453 19.19813346862793 87.56893157958984 24.11771965026855 89.88570404052734 29.59518623352051 C 92.28397369384766 35.26533508300781 93.5 41.28937149047852 93.5 47.5 C 93.5 53.71062850952148 92.28397369384766 59.73468017578125 89.88570404052734 65.40481567382812 C 87.56893157958984 70.88229370117188 84.25196075439453 75.80186462402344 80.02691650390625 80.02691650390625 C 75.80186462402344 84.25196075439453 70.88229370117188 87.56893157958984 65.40481567382812 89.88570404052734 C 59.73468017578125 92.28397369384766 53.71062850952148 93.5 47.5 93.5 Z" stroke="none"/>
                        <path d="M 47.5 3 C 41.49121475219727 3 35.66376876831055 4.176155090332031 30.17950439453125 6.495796203613281 C 24.88084411621094 8.736953735351562 20.12152099609375 11.94598388671875 16.03375244140625 16.03375244140625 C 11.94598388671875 20.12152099609375 8.736953735351562 24.88084411621094 6.495796203613281 30.17950439453125 C 4.176155090332031 35.66376876831055 3 41.49121475219727 3 47.5 C 3 53.50878524780273 4.176155090332031 59.33623123168945 6.495796203613281 64.82049560546875 C 8.736953735351562 70.11915588378906 11.94598388671875 74.87847900390625 16.03375244140625 78.96624755859375 C 20.12152099609375 83.05401611328125 24.88084411621094 86.26304626464844 30.17950439453125 88.50419616699219 C 35.66376876831055 90.82384490966797 41.49121475219727 92 47.5 92 C 53.50878524780273 92 59.33623123168945 90.82384490966797 64.82049560546875 88.50419616699219 C 70.11915588378906 86.26304626464844 74.87847900390625 83.05401611328125 78.96624755859375 78.96624755859375 C 83.05401611328125 74.87847900390625 86.26304626464844 70.11915588378906 88.50419616699219 64.82049560546875 C 90.82384490966797 59.33623123168945 92 53.50878524780273 92 47.5 C 92 41.49121475219727 90.82384490966797 35.66376876831055 88.50419616699219 30.17950439453125 C 86.26304626464844 24.88084411621094 83.05401611328125 20.12152099609375 78.96624755859375 16.03375244140625 C 74.87847900390625 11.94598388671875 70.11915588378906 8.736953735351562 64.82049560546875 6.495796203613281 C 59.33623123168945 4.176155090332031 53.50878524780273 3 47.5 3 M 47.5 0 C 73.7335205078125 0 95 21.2664794921875 95 47.5 C 95 73.7335205078125 73.7335205078125 95 47.5 95 C 21.2664794921875 95 0 73.7335205078125 0 47.5 C 0 21.2664794921875 21.2664794921875 0 47.5 0 Z" stroke="none" fill="#292584"/>
                      </g>
                    </g>
                  </g>
                </g>
              </g>
            </g>
          </g>
        </g>
      </g>
    </g>
    <g id="_x33_1_Ambulance_driver" transform="translate(352 994)">
      <g id="Grupo_1166118" data-name="Grupo 1166118">
        <path id="Trazado_1022241" data-name="Trazado 1022241" d="M49.535,41.593,33,37l-7,6-7-6L2.465,41.593A2,2,0,0,0,1,43.52V63H51V43.52a2,2,0,0,0-1.465-1.927Z" fill="#e0e0e2"/>
        <path id="Trazado_1022242" data-name="Trazado 1022242" d="M26,35a12.007,12.007,0,0,1-6.365-1.811L19,37l7,6,7-6-.635-3.811A12.007,12.007,0,0,1,26,35Z" fill="#fd9477"/>
        <path id="Trazado_1022243" data-name="Trazado 1022243" d="M42,15H40V7a6,6,0,0,0-6-6H18a6,6,0,0,0-6,6v8H10a2,2,0,0,0-2,2v2a4,4,0,0,0,4,4h.834C14.773,30.667,19.927,35,26,35s11.227-4.333,13.166-12H40a4,4,0,0,0,4-4V17A2,2,0,0,0,42,15Z" fill="#fd9477"/>
        <path id="Trazado_1022244" data-name="Trazado 1022244" d="M19,37l-3,4,4,6,6-4Z" fill="#88878f"/>
        <path id="Trazado_1022245" data-name="Trazado 1022245" d="M33,37l3,4-4,6-6-4Z" fill="#88878f"/>
        <path id="Trazado_1022246" data-name="Trazado 1022246" d="M34,1H18a6,6,0,0,0-6,6v8h2a2,2,0,0,0,2-2V11H36v2a2,2,0,0,0,2,2h2V7A6,6,0,0,0,34,1Z" fill="#88878f"/>
        <path id="Trazado_1022247" data-name="Trazado 1022247" d="M45,33H63v4H45Z" fill="#e0e0e2"/>
        <path id="Trazado_1022248" data-name="Trazado 1022248" d="M61,33H47V26a7,7,0,0,1,14,0Z" fill="#ff3d62"/>
        <g id="Grupo_1166117" data-name="Grupo 1166117">
          <path id="Trazado_1022249" data-name="Trazado 1022249" d="M49.8,40.629,33.882,36.207l-.424-2.542A17.324,17.324,0,0,0,39.932,24H40a5.006,5.006,0,0,0,5-5V17a3,3,0,0,0-3-3H41V7a7.008,7.008,0,0,0-7-7H18a7.008,7.008,0,0,0-7,7v7H10a3,3,0,0,0-3,3v2a5.006,5.006,0,0,0,5,5h.068a17.329,17.329,0,0,0,6.474,9.664l-.424,2.542L2.2,40.63A3.01,3.01,0,0,0,0,43.521V63a1,1,0,0,0,1,1H51a1,1,0,0,0,1-1V43.521a3.012,3.012,0,0,0-2.2-2.892ZM32.84,38.454l1.935,2.58-3.053,4.579L27.652,42.9ZM18,2H34a5.006,5.006,0,0,1,5,5v7H38a1,1,0,0,1-1-1V11a1,1,0,0,0-1-1H16a1,1,0,0,0-1,1v2a1,1,0,0,1-1,1H13V7A5.006,5.006,0,0,1,18,2ZM13.8,22.755a1,1,0,0,0-.97-.755H12a3,3,0,0,1-3-3V17a1,1,0,0,1,1-1h4a3,3,0,0,0,3-3V12H35v1a3,3,0,0,0,3,3h4a1,1,0,0,1,1,1v2a3,3,0,0,1-3,3h-.833a1,1,0,0,0-.969.755C36.442,29.691,31.769,34,26,34S15.558,29.691,13.8,22.755ZM26,36a12.952,12.952,0,0,0,5.611-1.255l.31,1.863L26,41.683l-5.921-5.075.31-1.863A12.952,12.952,0,0,0,26,36Zm-6.84,2.454L24.348,42.9l-4.07,2.713-3.053-4.579ZM50,62H42V59a1,1,0,0,0-2,0v3H12V59a1,1,0,0,0-2,0v3H2V43.521a1,1,0,0,1,.732-.964L16.438,38.75,15.2,40.4a1,1,0,0,0-.032,1.154l4,6a1,1,0,0,0,1.387.278L26,44.2l5.445,3.63a1,1,0,0,0,1.387-.277l4-6A1,1,0,0,0,36.8,40.4L35.562,38.75l13.705,3.806a1.006,1.006,0,0,1,.733.965Z" fill="#002d4e"/>
          <circle id="Elipse_11867" data-name="Elipse 11867" cx="1" cy="1" r="1" transform="translate(25 47)" fill="#002d4e"/>
          <circle id="Elipse_11868" data-name="Elipse 11868" cx="1" cy="1" r="1" transform="translate(25 52)" fill="#002d4e"/>
          <circle id="Elipse_11869" data-name="Elipse 11869" cx="1" cy="1" r="1" transform="translate(25 57)" fill="#002d4e"/>
          <path id="Trazado_1022250" data-name="Trazado 1022250" d="M63,32H62V26a8,8,0,0,0-16,0v6H45a1,1,0,0,0-1,1v4a1,1,0,0,0,1,1H63a1,1,0,0,0,1-1V33A1,1,0,0,0,63,32ZM48,26a6,6,0,0,1,12,0v6H48ZM62,36H46V34H62Z" fill="#002d4e"/>
          <path id="Trazado_1022251" data-name="Trazado 1022251" d="M54,16a1,1,0,0,0,1-1V11a1,1,0,0,0-2,0v4A1,1,0,0,0,54,16Z" fill="#002d4e"/>
          <path id="Trazado_1022252" data-name="Trazado 1022252" d="M47.369,16.773a1,1,0,0,0,1.8-.883L47.842,13.2a1,1,0,0,0-1.8.883Z" fill="#002d4e"/>
          <path id="Trazado_1022253" data-name="Trazado 1022253" d="M59.292,17.229a1,1,0,0,0,1.339-.456l1.323-2.692a1,1,0,0,0-1.8-.883L58.836,15.89a1,1,0,0,0,.456,1.339Z" fill="#002d4e"/>
        </g>
      </g>
    </g>
  </g>
</svg>
