<svg xmlns="http://www.w3.org/2000/svg" xmlns:xlink="http://www.w3.org/1999/xlink" width="113" height="113" viewBox="0 0 113 113">
  <defs>
    <filter id="Trazado_982547" x="0" y="0" width="113" height="113" filterUnits="userSpaceOnUse">
      <feOffset dy="3" input="SourceAlpha"/>
      <feGaussianBlur stdDeviation="3" result="blur"/>
      <feFlood flood-opacity="0.161"/>
      <feComposite operator="in" in2="blur"/>
      <feComposite in="SourceGraphic"/>
    </filter>
  </defs>
  <g id="Grupo_1166249" data-name="Grupo 1166249" transform="translate(-743.5 -972.674)">
    <g id="Grupo_1164544" data-name="Grupo 1164544" transform="translate(545.5 300.674)">
      <g id="Grupo_1164460" data-name="Grupo 1164460" transform="translate(207 678)">
        <g id="Grupo_1164237" data-name="Grupo 1164237" transform="translate(0)">
          <g id="Grupo_1163948" data-name="Grupo 1163948">
            <g id="Grupo_1158168" data-name="Grupo 1158168">
              <g id="Grupo_1152576" data-name="Grupo 1152576">
                <g id="Grupo_1148633" data-name="Grupo 1148633">
                  <g id="Grupo_1148525" data-name="Grupo 1148525">
                    <g transform="matrix(1, 0, 0, 1, -9, -6)" filter="url(#Trazado_982547)">
                      <g id="Trazado_982547-2" data-name="Trazado 982547" transform="translate(9 6)" fill="#e8e7f2">
                        <path d="M 47.5 93.5 C 41.28937149047852 93.5 35.26533508300781 92.28397369384766 29.59518623352051 89.88570404052734 C 24.11771965026855 87.56893157958984 19.19813346862793 84.25196075439453 14.97309303283691 80.02691650390625 C 10.74804019927979 75.80186462402344 7.431066513061523 70.88229370117188 5.114293098449707 65.40481567382812 C 2.716026782989502 59.73468017578125 1.5 53.71062850952148 1.5 47.5 C 1.5 41.28937149047852 2.716026782989502 35.26533508300781 5.114293098449707 29.59518623352051 C 7.431066513061523 24.11771965026855 10.74804019927979 19.19813346862793 14.97309303283691 14.97309303283691 C 19.19813346862793 10.74804019927979 24.11771965026855 7.431066513061523 29.59518623352051 5.114293098449707 C 35.26533508300781 2.716026782989502 41.28937149047852 1.5 47.5 1.5 C 53.71062850952148 1.5 59.73468017578125 2.716026782989502 65.40481567382812 5.114293098449707 C 70.88229370117188 7.431066513061523 75.80186462402344 10.74804019927979 80.02691650390625 14.97309303283691 C 84.25196075439453 19.19813346862793 87.56893157958984 24.11771965026855 89.88570404052734 29.59518623352051 C 92.28397369384766 35.26533508300781 93.5 41.28937149047852 93.5 47.5 C 93.5 53.71062850952148 92.28397369384766 59.73468017578125 89.88570404052734 65.40481567382812 C 87.56893157958984 70.88229370117188 84.25196075439453 75.80186462402344 80.02691650390625 80.02691650390625 C 75.80186462402344 84.25196075439453 70.88229370117188 87.56893157958984 65.40481567382812 89.88570404052734 C 59.73468017578125 92.28397369384766 53.71062850952148 93.5 47.5 93.5 Z" stroke="none"/>
                        <path d="M 47.5 3 C 41.49121475219727 3 35.66376876831055 4.176155090332031 30.17950439453125 6.495796203613281 C 24.88084411621094 8.736953735351562 20.12152099609375 11.94598388671875 16.03375244140625 16.03375244140625 C 11.94598388671875 20.12152099609375 8.736953735351562 24.88084411621094 6.495796203613281 30.17950439453125 C 4.176155090332031 35.66376876831055 3 41.49121475219727 3 47.5 C 3 53.50878524780273 4.176155090332031 59.33623123168945 6.495796203613281 64.82049560546875 C 8.736953735351562 70.11915588378906 11.94598388671875 74.87847900390625 16.03375244140625 78.96624755859375 C 20.12152099609375 83.05401611328125 24.88084411621094 86.26304626464844 30.17950439453125 88.50419616699219 C 35.66376876831055 90.82384490966797 41.49121475219727 92 47.5 92 C 53.50878524780273 92 59.33623123168945 90.82384490966797 64.82049560546875 88.50419616699219 C 70.11915588378906 86.26304626464844 74.87847900390625 83.05401611328125 78.96624755859375 78.96624755859375 C 83.05401611328125 74.87847900390625 86.26304626464844 70.11915588378906 88.50419616699219 64.82049560546875 C 90.82384490966797 59.33623123168945 92 53.50878524780273 92 47.5 C 92 41.49121475219727 90.82384490966797 35.66376876831055 88.50419616699219 30.17950439453125 C 86.26304626464844 24.88084411621094 83.05401611328125 20.12152099609375 78.96624755859375 16.03375244140625 C 74.87847900390625 11.94598388671875 70.11915588378906 8.736953735351562 64.82049560546875 6.495796203613281 C 59.33623123168945 4.176155090332031 53.50878524780273 3 47.5 3 M 47.5 0 C 73.7335205078125 0 95 21.2664794921875 95 47.5 C 95 73.7335205078125 73.7335205078125 95 47.5 95 C 21.2664794921875 95 0 73.7335205078125 0 47.5 C 0 21.2664794921875 21.2664794921875 0 47.5 0 Z" stroke="none" fill="#292584"/>
                      </g>
                    </g>
                  </g>
                </g>
              </g>
            </g>
          </g>
        </g>
      </g>
    </g>
    <g id="Layer_x0020_1" transform="translate(768.577 835.286)">
      <path id="Trazado_1022254" data-name="Trazado 1022254" d="M28.909,213.162H.988A1.014,1.014,0,0,1,0,212.136v-36.62a.981.981,0,0,1,.988-.988H4.141v-4.6a1,1,0,0,1,1.064-.988c.722,0,17.322.646,23.7,5.28,6.344-4.634,22.945-5.28,23.7-5.28a.967.967,0,0,1,1.026.988v4.559H57.02a1.021,1.021,0,0,1,1.026,1.026v21.121A12.94,12.94,0,1,1,40,213.162Zm-4.6-2.013A51.988,51.988,0,0,0,5.2,207.5a1.023,1.023,0,0,1-1.064-.988V176.5H2.013v34.645ZM53.639,176.5v18.69a12.911,12.911,0,0,1,2.393.57V176.5ZM39.355,211.148a14.062,14.062,0,0,1-.342-1.823,52.628,52.628,0,0,0-5.546,1.823Zm17.322-12.954a.288.288,0,0,0-.152-.076,10.525,10.525,0,0,0-4.065-1.026h-.874a10.781,10.781,0,0,0-6.382,2.279c-.076.038-.114.076-.19.114a10.966,10.966,0,1,0,11.662-1.292ZM51.625,175.82a.942.942,0,0,1,0-.646V171c-3.8.228-16.9,1.216-21.729,4.976v34.569a48.681,48.681,0,0,1,9.079-3.267,12.916,12.916,0,0,1,2.279-6.648c-3.609,1.064-8.661,2.507-8.927,2.507a1.01,1.01,0,0,1-.3-1.975l12-3.419a14.321,14.321,0,0,1,2.963-1.709.288.288,0,0,0,.152-.076h.038a1.854,1.854,0,0,0,.266-.114h.038a.549.549,0,0,1,.266-.076v-.038a13.146,13.146,0,0,1,3.875-.646ZM25.794,203.133c-.38,0-15.423-4.369-17.133-4.862a1,1,0,1,1,.532-1.937l16.9,4.824A1.01,1.01,0,0,1,25.794,203.133Zm0-6.686c-.38,0-15.423-4.369-17.133-4.862a1,1,0,1,1,.532-1.937l16.9,4.824A1.012,1.012,0,0,1,25.794,196.447Zm0-6.686c-.38,0-15.423-4.369-17.133-4.862a1,1,0,1,1,.532-1.937l16.9,4.824A1.01,1.01,0,0,1,25.794,189.761Zm0-6.686c-.38,0-15.423-4.369-17.133-4.9a.986.986,0,1,1,.532-1.9L26.1,181.1A1.013,1.013,0,0,1,25.794,183.075Zm6.534,13.372a1.01,1.01,0,0,1-.3-1.975l16.9-4.824a1,1,0,1,1,.532,1.937C47.713,192.079,32.708,196.447,32.328,196.447Zm0-6.686a1.01,1.01,0,0,1-.3-1.975l16.9-4.824a1,1,0,0,1,.532,1.937C47.713,185.393,32.708,189.761,32.328,189.761Zm0-6.686a1.01,1.01,0,0,1-.3-1.975l16.9-4.824a1,1,0,0,1,.532,1.937C47.713,178.707,32.708,183.075,32.328,183.075Zm17.36,29.82a1.021,1.021,0,0,1-.684-.3l-3.419-3.381a1.008,1.008,0,0,1,1.444-1.406l2.659,2.659,7.066-7.028a.994.994,0,1,1,1.406,1.406l-7.75,7.75A1.038,1.038,0,0,1,49.688,212.9ZM6.154,205.488a54.109,54.109,0,0,1,21.729,5.052V175.972C23.1,172.211,9.953,171.223,6.154,171Z" fill="#333" fill-rule="evenodd"/>
      <path id="Trazado_1022255" data-name="Trazado 1022255" d="M789.127,233.1l16.9-4.824a1,1,0,0,1,.532,1.937c-1.747.494-16.753,4.862-17.133,4.862A1.01,1.01,0,0,1,789.127,233.1Zm0,6.686,16.9-4.824a1,1,0,0,1,.532,1.937c-1.747.494-16.753,4.862-17.133,4.862A1.01,1.01,0,0,1,789.127,239.791Zm0,6.686,16.9-4.824a1,1,0,1,1,.532,1.937c-1.747.494-16.753,4.862-17.133,4.862A1.01,1.01,0,0,1,789.127,246.476ZM787,227.976v34.569a48.679,48.679,0,0,1,9.079-3.267,12.916,12.916,0,0,1,2.279-6.648c-3.609,1.064-8.661,2.507-8.927,2.507a1.01,1.01,0,0,1-.3-1.975l12-3.419a14.32,14.32,0,0,1,2.963-1.709l.152-.076h.038l.266-.114h.038l.266-.076v-.038a13.146,13.146,0,0,1,3.875-.646v-19.26a.942.942,0,0,1,0-.646V223C804.93,223.228,791.824,224.216,787,227.976Z" transform="translate(-757.104 -52.005)" fill="#ffe4af" fill-rule="evenodd"/>
      <path id="Trazado_1022256" data-name="Trazado 1022256" d="M1412,368v18.69a12.907,12.907,0,0,1,2.393.57V368Z" transform="translate(-1358.361 -191.496)" fill="#1a9976" fill-rule="evenodd"/>
      <path id="Trazado_1022257" data-name="Trazado 1022257" d="M886.546,1232a52.638,52.638,0,0,0-5.546,1.824h5.888A14.066,14.066,0,0,1,886.546,1232Z" transform="translate(-847.533 -1022.675)" fill="#1a9976" fill-rule="evenodd"/>
      <path id="Trazado_1022258" data-name="Trazado 1022258" d="M1082.065,912.393a10.966,10.966,0,1,0,11.662-1.292.288.288,0,0,0-.152-.076A10.525,10.525,0,0,0,1089.51,910h-.874a10.781,10.781,0,0,0-6.382,2.279C1082.179,912.317,1082.141,912.355,1082.065,912.393Zm2.013,8.319,2.659,2.659,7.066-7.028a.994.994,0,1,1,1.405,1.406l-7.75,7.75a1.037,1.037,0,0,1-.722.3,1.021,1.021,0,0,1-.684-.3l-3.419-3.381A1.008,1.008,0,0,1,1084.078,920.713Z" transform="translate(-1037.049 -712.907)" fill="#3deb71" fill-rule="evenodd"/>
      <path id="Trazado_1022259" data-name="Trazado 1022259" d="M75.3,402.645A51.987,51.987,0,0,0,56.191,399a1.023,1.023,0,0,1-1.064-.988V368H53v34.645Z" transform="translate(-50.987 -191.496)" fill="#4cd2ad" fill-rule="evenodd"/>
      <path id="Trazado_1022260" data-name="Trazado 1022260" d="M162,257.493a54.108,54.108,0,0,1,21.729,5.052V227.976C178.943,224.216,165.8,223.228,162,223Zm19.64-2.355c-.38,0-15.423-4.369-17.133-4.862a1,1,0,1,1,.532-1.937l16.9,4.824A1.01,1.01,0,0,1,181.64,255.138Zm-17.133-11.548a1,1,0,1,1,.532-1.937l16.9,4.824a1.012,1.012,0,0,1-.3,1.975C181.26,248.452,166.217,244.083,164.507,243.589Zm0-6.686a1,1,0,1,1,.532-1.937l16.9,4.824a1.01,1.01,0,0,1-.3,1.975C181.26,241.766,166.217,237.4,164.507,236.9Zm17.133-1.823c-.38,0-15.423-4.369-17.133-4.9a.986.986,0,1,1,.532-1.9l16.9,4.824A1.013,1.013,0,0,1,181.64,235.08Z" transform="translate(-155.846 -52.005)" fill="#ffe4af" fill-rule="evenodd"/>
    </g>
  </g>
</svg>
