<svg xmlns="http://www.w3.org/2000/svg" xmlns:xlink="http://www.w3.org/1999/xlink" width="113" height="113" viewBox="0 0 113 113">
  <defs>
    <filter id="Trazado_982547" x="0" y="0" width="113" height="113" filterUnits="userSpaceOnUse">
      <feOffset dy="3" input="SourceAlpha"/>
      <feGaussianBlur stdDeviation="3" result="blur"/>
      <feFlood flood-opacity="0.161"/>
      <feComposite operator="in" in2="blur"/>
      <feComposite in="SourceGraphic"/>
    </filter>
  </defs>
  <g id="Grupo_1166134" data-name="Grupo 1166134" transform="translate(-1164 -972.674)">
    <g id="Grupo_1164545" data-name="Grupo 1164545" transform="translate(966 300.674)">
      <g id="Grupo_1164460" data-name="Grupo 1164460" transform="translate(207 678)">
        <g id="Grupo_1164237" data-name="Grupo 1164237" transform="translate(0)">
          <g id="Grupo_1163948" data-name="Grupo 1163948">
            <g id="Grupo_1158168" data-name="Grupo 1158168">
              <g id="Grupo_1152576" data-name="Grupo 1152576">
                <g id="Grupo_1148633" data-name="Grupo 1148633">
                  <g id="Grupo_1148525" data-name="Grupo 1148525">
                    <g transform="matrix(1, 0, 0, 1, -9, -6)" filter="url(#Trazado_982547)">
                      <g id="Trazado_982547-2" data-name="Trazado 982547" transform="translate(9 6)" fill="#e8e7f2">
                        <path d="M 47.5 93.5 C 41.28937149047852 93.5 35.26533508300781 92.28397369384766 29.59518623352051 89.88570404052734 C 24.11771965026855 87.56893157958984 19.19813346862793 84.25196075439453 14.97309303283691 80.02691650390625 C 10.74804019927979 75.80186462402344 7.431066513061523 70.88229370117188 5.114293098449707 65.40481567382812 C 2.716026782989502 59.73468017578125 1.5 53.71062850952148 1.5 47.5 C 1.5 41.28937149047852 2.716026782989502 35.26533508300781 5.114293098449707 29.59518623352051 C 7.431066513061523 24.11771965026855 10.74804019927979 19.19813346862793 14.97309303283691 14.97309303283691 C 19.19813346862793 10.74804019927979 24.11771965026855 7.431066513061523 29.59518623352051 5.114293098449707 C 35.26533508300781 2.716026782989502 41.28937149047852 1.5 47.5 1.5 C 53.71062850952148 1.5 59.73468017578125 2.716026782989502 65.40481567382812 5.114293098449707 C 70.88229370117188 7.431066513061523 75.80186462402344 10.74804019927979 80.02691650390625 14.97309303283691 C 84.25196075439453 19.19813346862793 87.56893157958984 24.11771965026855 89.88570404052734 29.59518623352051 C 92.28397369384766 35.26533508300781 93.5 41.28937149047852 93.5 47.5 C 93.5 53.71062850952148 92.28397369384766 59.73468017578125 89.88570404052734 65.40481567382812 C 87.56893157958984 70.88229370117188 84.25196075439453 75.80186462402344 80.02691650390625 80.02691650390625 C 75.80186462402344 84.25196075439453 70.88229370117188 87.56893157958984 65.40481567382812 89.88570404052734 C 59.73468017578125 92.28397369384766 53.71062850952148 93.5 47.5 93.5 Z" stroke="none"/>
                        <path d="M 47.5 3 C 41.49121475219727 3 35.66376876831055 4.176155090332031 30.17950439453125 6.495796203613281 C 24.88084411621094 8.736953735351562 20.12152099609375 11.94598388671875 16.03375244140625 16.03375244140625 C 11.94598388671875 20.12152099609375 8.736953735351562 24.88084411621094 6.495796203613281 30.17950439453125 C 4.176155090332031 35.66376876831055 3 41.49121475219727 3 47.5 C 3 53.50878524780273 4.176155090332031 59.33623123168945 6.495796203613281 64.82049560546875 C 8.736953735351562 70.11915588378906 11.94598388671875 74.87847900390625 16.03375244140625 78.96624755859375 C 20.12152099609375 83.05401611328125 24.88084411621094 86.26304626464844 30.17950439453125 88.50419616699219 C 35.66376876831055 90.82384490966797 41.49121475219727 92 47.5 92 C 53.50878524780273 92 59.33623123168945 90.82384490966797 64.82049560546875 88.50419616699219 C 70.11915588378906 86.26304626464844 74.87847900390625 83.05401611328125 78.96624755859375 78.96624755859375 C 83.05401611328125 74.87847900390625 86.26304626464844 70.11915588378906 88.50419616699219 64.82049560546875 C 90.82384490966797 59.33623123168945 92 53.50878524780273 92 47.5 C 92 41.49121475219727 90.82384490966797 35.66376876831055 88.50419616699219 30.17950439453125 C 86.26304626464844 24.88084411621094 83.05401611328125 20.12152099609375 78.96624755859375 16.03375244140625 C 74.87847900390625 11.94598388671875 70.11915588378906 8.736953735351562 64.82049560546875 6.495796203613281 C 59.33623123168945 4.176155090332031 53.50878524780273 3 47.5 3 M 47.5 0 C 73.7335205078125 0 95 21.2664794921875 95 47.5 C 95 73.7335205078125 73.7335205078125 95 47.5 95 C 21.2664794921875 95 0 73.7335205078125 0 47.5 C 0 21.2664794921875 21.2664794921875 0 47.5 0 Z" stroke="none" fill="#292584"/>
                      </g>
                    </g>
                  </g>
                </g>
              </g>
            </g>
          </g>
        </g>
      </g>
    </g>
    <g id="compliant_4252310" transform="translate(1188.991 935.72)">
      <path id="Trazado_1022261" data-name="Trazado 1022261" d="M68.056,107H65.248v36.555H10.924V107H8.115a.615.615,0,0,0-.615.615v39.14a.615.615,0,0,0,.615.615H68.056a.615.615,0,0,0,.615-.615v-39.14A.615.615,0,0,0,68.056,107Z" transform="translate(-6.577 -32.884)" fill="#3675bb"/>
      <path id="Trazado_1022262" data-name="Trazado 1022262" d="M12.485,146.755v-3.2H10.924V107H8.115a.615.615,0,0,0-.615.615v39.14a.615.615,0,0,0,.615.615H13.1A.615.615,0,0,1,12.485,146.755Z" transform="translate(-6.577 -32.884)" fill="#2b68b6"/>
      <g id="Grupo_1166133" data-name="Grupo 1166133" transform="translate(0 69.5)">
        <g id="Grupo_1166131" data-name="Grupo 1166131" transform="translate(4.224 0.923)">
          <g id="Grupo_1166120" data-name="Grupo 1166120">
            <path id="Trazado_1022263" data-name="Trazado 1022263" d="M34.316,77H61.6v40.371H34.316Z" transform="translate(-34.316 -77)" fill="#dff6fd"/>
          </g>
          <g id="Grupo_1166121" data-name="Grupo 1166121" transform="translate(0)">
            <path id="Trazado_1022264" data-name="Trazado 1022264" d="M34.316,77h3.161v40.371H34.316Z" transform="translate(-34.316 -77)" fill="#c8effe"/>
          </g>
          <g id="Grupo_1166122" data-name="Grupo 1166122" transform="translate(27.285)">
            <path id="Trazado_1022265" data-name="Trazado 1022265" d="M256,77h27.285v40.371H256Z" transform="translate(-256 -77)" fill="#fff3de"/>
          </g>
          <g id="Grupo_1166123" data-name="Grupo 1166123" transform="translate(27.285)">
            <path id="Trazado_1022266" data-name="Trazado 1022266" d="M256,77h4.224v40.371H256Z" transform="translate(-256 -77)" fill="#ffe5c2"/>
          </g>
          <g id="Grupo_1166126" data-name="Grupo 1166126" transform="translate(5.382 5.293)">
            <g id="Grupo_1166124" data-name="Grupo 1166124" transform="translate(0)">
              <circle id="Elipse_11870" data-name="Elipse 11870" cx="7.639" cy="7.639" r="7.639" fill="#4fc123"/>
            </g>
            <g id="Grupo_1166125" data-name="Grupo 1166125">
              <path id="Trazado_1022267" data-name="Trazado 1022267" d="M82.222,127.639a7.64,7.64,0,0,1,5.549-7.347,7.639,7.639,0,1,0,0,14.694A7.64,7.64,0,0,1,82.222,127.639Z" transform="translate(-78.042 -120)" fill="#47a920"/>
            </g>
          </g>
          <g id="Grupo_1166130" data-name="Grupo 1166130" transform="translate(33.911 4.8)">
            <g id="Grupo_1166128" data-name="Grupo 1166128">
              <g id="Grupo_1166127" data-name="Grupo 1166127">
                <circle id="Elipse_11871" data-name="Elipse 11871" cx="7.639" cy="7.639" r="7.639" fill="#fb2b3a"/>
              </g>
            </g>
            <g id="Grupo_1166129" data-name="Grupo 1166129" transform="translate(0)">
              <path id="Trazado_1022268" data-name="Trazado 1022268" d="M313.914,123.639a7.641,7.641,0,0,1,5.6-7.361,7.639,7.639,0,1,0,0,14.722A7.641,7.641,0,0,1,313.914,123.639Z" transform="translate(-309.832 -116)" fill="#e41f2d"/>
            </g>
          </g>
        </g>
        <g id="Grupo_1166132" data-name="Grupo 1166132" transform="translate(0 0)">
          <path id="Trazado_1022269" data-name="Trazado 1022269" d="M61.479,73.192H59.717V70.423a.923.923,0,0,0-.923-.923H14.154a.923.923,0,1,0,0,1.846H30.586v4.8H29.047a.923.923,0,0,0,0,1.846h1.539V84.68H29.047a.923.923,0,0,0,0,1.846h1.539v6.687H29.047a.923.923,0,0,0,0,1.846h1.539v6.688H29.047a.923.923,0,1,0,0,1.846h1.539v6.277H5.147V71.346h4.7a.923.923,0,1,0,0-1.846H4.224a.923.923,0,0,0-.923.923v2.769H1.539A1.54,1.54,0,0,0,0,74.731v39.14a1.54,1.54,0,0,0,1.539,1.539H61.479a1.54,1.54,0,0,0,1.539-1.539V74.731A1.54,1.54,0,0,0,61.479,73.192Zm-.308,40.371H1.846V75.039H3.3v35.755a.923.923,0,0,0,.923.923H38.4a.923.923,0,1,0,0-1.846H32.432v-6.277h1.539a.923.923,0,1,0,0-1.846H32.432V95.06h1.539a.923.923,0,0,0,0-1.846H32.432V86.526h1.539a.923.923,0,0,0,0-1.846H32.432V77.993h1.539a.923.923,0,0,0,0-1.846H32.432v-4.8H57.871v38.525H42.709a.923.923,0,1,0,0,1.846H58.794a.923.923,0,0,0,.923-.923V75.039h1.454Z" transform="translate(0 -69.5)"/>
          <path id="Trazado_1022270" data-name="Trazado 1022270" d="M79.1,112.5a8.562,8.562,0,1,0,8.562,8.562A8.572,8.572,0,0,0,79.1,112.5Zm0,15.277a6.716,6.716,0,1,1,6.716-6.716A6.723,6.723,0,0,1,79.1,127.777Z" transform="translate(-61.86 -107.207)"/>
          <path id="Trazado_1022271" data-name="Trazado 1022271" d="M115.667,161.022l-3.24,3.24-1.859-1.859a.923.923,0,1,0-1.306,1.305l2.511,2.511a.923.923,0,0,0,1.306,0l3.893-3.893a.923.923,0,0,0-1.306-1.305Z" transform="translate(-95.577 -149.52)"/>
          <path id="Trazado_1022272" data-name="Trazado 1022272" d="M310.895,125.624a8.534,8.534,0,0,0,8.154-5.95.923.923,0,1,0-1.758-.563,6.716,6.716,0,1,1,.091-3.788.923.923,0,0,0,1.784-.477,8.562,8.562,0,1,0-8.271,10.777Z" transform="translate(-265.121 -103.7)"/>
          <path id="Trazado_1022273" data-name="Trazado 1022273" d="M354.923,151.343a.923.923,0,0,0-1.306,0l-1.569,1.569-1.569-1.569a.923.923,0,1,0-1.306,1.305l1.569,1.569-1.569,1.569a.923.923,0,0,0,1.306,1.305l1.569-1.569,1.569,1.569a.923.923,0,1,0,1.306-1.305l-1.569-1.569,1.569-1.569A.923.923,0,0,0,354.923,151.343Z" transform="translate(-305.96 -141.032)"/>
          <path id="Trazado_1022274" data-name="Trazado 1022274" d="M98.475,271.5H87.028a.923.923,0,1,0,0,1.846H98.475a.923.923,0,0,0,0-1.846Z" transform="translate(-75.507 -246.638)"/>
          <path id="Trazado_1022275" data-name="Trazado 1022275" d="M98.475,298.5H87.028a.923.923,0,1,0,0,1.846H98.475a.923.923,0,0,0,0-1.846Z" transform="translate(-75.507 -270.314)"/>
          <path id="Trazado_1022276" data-name="Trazado 1022276" d="M98.475,325.5H87.028a.923.923,0,1,0,0,1.846H98.475a.923.923,0,0,0,0-1.846Z" transform="translate(-75.507 -293.991)"/>
          <path id="Trazado_1022277" data-name="Trazado 1022277" d="M98.475,352.5H87.028a.923.923,0,1,0,0,1.846H98.475a.923.923,0,0,0,0-1.846Z" transform="translate(-75.507 -317.668)"/>
          <path id="Trazado_1022278" data-name="Trazado 1022278" d="M330.265,271.5H318.818a.923.923,0,1,0,0,1.846h11.447a.923.923,0,1,0,0-1.846Z" transform="translate(-278.768 -246.638)"/>
          <path id="Trazado_1022279" data-name="Trazado 1022279" d="M330.265,298.5H318.818a.923.923,0,1,0,0,1.846h11.447a.923.923,0,1,0,0-1.846Z" transform="translate(-278.768 -270.314)"/>
          <path id="Trazado_1022280" data-name="Trazado 1022280" d="M330.265,325.5H318.818a.923.923,0,1,0,0,1.846h11.447a.923.923,0,1,0,0-1.846Z" transform="translate(-278.768 -293.991)"/>
          <path id="Trazado_1022281" data-name="Trazado 1022281" d="M331.188,353.423a.923.923,0,0,0-.923-.923H318.818a.923.923,0,1,0,0,1.846h11.447A.923.923,0,0,0,331.188,353.423Z" transform="translate(-278.768 -317.668)"/>
        </g>
      </g>
    </g>
  </g>
</svg>
