<svg xmlns="http://www.w3.org/2000/svg" xmlns:xlink="http://www.w3.org/1999/xlink" width="108" height="108" viewBox="0 0 108 108">
  <defs>
    <filter id="Trazado_978624" x="0" y="0" width="108" height="108" filterUnits="userSpaceOnUse">
      <feOffset dy="3" input="SourceAlpha"/>
      <feGaussianBlur stdDeviation="3" result="blur"/>
      <feFlood flood-opacity="0.161"/>
      <feComposite operator="in" in2="blur"/>
      <feComposite in="SourceGraphic"/>
    </filter>
    <clipPath id="clip-path">
      <path id="path3673" d="M0-682.665H56.305v56.305H0Z" transform="translate(0 682.665)"/>
    </clipPath>
  </defs>
  <g id="Grupo_1166213" data-name="Grupo 1166213" transform="translate(-199 -626)">
    <g id="Grupo_1164548" data-name="Grupo 1164548" transform="translate(208 632)">
      <g id="Grupo_1164479" data-name="Grupo 1164479">
        <g id="Grupo_1144123" data-name="Grupo 1144123">
          <g transform="matrix(1, 0, 0, 1, -9, -6)" filter="url(#Trazado_978624)">
            <g id="Trazado_978624-2" data-name="Trazado 978624" transform="translate(9 6)" fill="#eaf5f4">
              <path d="M 45 88.5 C 39.12687683105469 88.5 33.43022537231445 87.35007476806641 28.06830024719238 85.08217620849609 C 22.88852500915527 82.89131164550781 18.23629951477051 79.75458526611328 14.2408504486084 75.75914764404297 C 10.24541282653809 71.76370239257812 7.108687400817871 67.11147308349609 4.917825222015381 61.93170166015625 C 2.649924993515015 56.56977462768555 1.5 50.87312316894531 1.5 45 C 1.5 39.12687683105469 2.649924993515015 33.43022537231445 4.917825222015381 28.06830024719238 C 7.108687400817871 22.88852500915527 10.24541282653809 18.23629951477051 14.2408504486084 14.2408504486084 C 18.23629951477051 10.24541282653809 22.88852500915527 7.108687400817871 28.06830024719238 4.917825222015381 C 33.43022537231445 2.649924993515015 39.12687683105469 1.5 45 1.5 C 50.87312316894531 1.5 56.56977462768555 2.649924993515015 61.93170166015625 4.917825222015381 C 67.11147308349609 7.108687400817871 71.76370239257812 10.24541282653809 75.75914764404297 14.2408504486084 C 79.75458526611328 18.23629951477051 82.89131164550781 22.88852500915527 85.08217620849609 28.06830024719238 C 87.35007476806641 33.43022537231445 88.5 39.12687683105469 88.5 45 C 88.5 50.87312316894531 87.35007476806641 56.56977462768555 85.08217620849609 61.93170166015625 C 82.89131164550781 67.11147308349609 79.75458526611328 71.76370239257812 75.75914764404297 75.75914764404297 C 71.76370239257812 79.75458526611328 67.11147308349609 82.89131164550781 61.93170166015625 85.08217620849609 C 56.56977462768555 87.35007476806641 50.87312316894531 88.5 45 88.5 Z" stroke="none"/>
              <path d="M 45 3 C 39.32871246337891 3 33.82865524291992 4.110054016113281 28.65262985229492 6.299339294433594 C 23.65165710449219 8.414573669433594 19.15968322753906 11.44334411621094 15.301513671875 15.301513671875 C 11.44334411621094 19.15968322753906 8.414573669433594 23.65165710449219 6.299339294433594 28.65262985229492 C 4.110054016113281 33.82865524291992 3 39.32871246337891 3 45 C 3 50.67128753662109 4.110054016113281 56.17134475708008 6.299339294433594 61.34737396240234 C 8.414573669433594 66.34834289550781 11.44334411621094 70.84031677246094 15.301513671875 74.698486328125 C 19.15968322753906 78.55665588378906 23.65165710449219 81.58542633056641 28.65262985229492 83.70066070556641 C 33.82865524291992 85.88994598388672 39.32871246337891 87 45 87 C 50.67128753662109 87 56.17134475708008 85.88994598388672 61.34737396240234 83.70066070556641 C 66.34834289550781 81.58542633056641 70.84031677246094 78.55665588378906 74.698486328125 74.698486328125 C 78.55665588378906 70.84031677246094 81.58542633056641 66.34834289550781 83.70066070556641 61.34737396240234 C 85.88994598388672 56.17134475708008 87 50.67128753662109 87 45 C 87 39.32871246337891 85.88994598388672 33.82865524291992 83.70066070556641 28.65262985229492 C 81.58542633056641 23.65165710449219 78.55665588378906 19.15968322753906 74.698486328125 15.301513671875 C 70.84031677246094 11.44334411621094 66.34834289550781 8.414573669433594 61.34737396240234 6.299339294433594 C 56.17134475708008 4.110054016113281 50.67128753662109 3 45 3 M 45 0 C 69.85281372070312 0 90 20.14718627929688 90 45 C 90 69.85281372070312 69.85281372070312 90 45 90 C 20.14718627929688 90 0 69.85281372070312 0 45 C 0 20.14718627929688 20.14718627929688 0 45 0 Z" stroke="none" fill="#41a599"/>
            </g>
          </g>
        </g>
      </g>
    </g>
    <g id="g3663" transform="translate(226.2 1332.865)">
      <g id="g3665" transform="translate(16.226 -681.84)">
        <path id="path3667" d="M-151.865-100.169h4.64l6.6,6.917v4.706h4.884v-12.749l-1.658-.67-5.755-5.5-.466-1.71H-164.63l-.886.94v7.661h13.262Z" transform="translate(165.517 109.173)" fill="#8bcaff"/>
      </g>
      <g id="g3669" transform="translate(0 -682.665)">
        <g id="g3671" clip-path="url(#clip-path)">
          <g id="g3677" transform="translate(12.242 0.825)">
            <path id="path3679" d="M-63.162,0h-4.517A1.161,1.161,0,0,0-68.84,1.161V8.043l1.051.558h4.517l-1.051-.558V1.161A1.161,1.161,0,0,1-63.162,0" transform="translate(68.84 0)" fill="#60b9fe"/>
          </g>
          <g id="g3681" transform="translate(29.487 9.426)">
            <path id="path3683" d="M-83.62-133.783H-79.1v-4.445a1.691,1.691,0,0,0-.483-1.183l-5.767-5.891a1.691,1.691,0,0,0-1.208-.508h-4.576l7.517,7.771Z" transform="translate(91.137 145.809)" fill="#60b9fe"/>
          </g>
          <g id="g3685" transform="translate(38.121 0.825)">
            <path id="path3687" d="M-12.914-87.648H-6.2l-7.879-7.879v6.718a1.161,1.161,0,0,0,1.161,1.161" transform="translate(14.075 95.526)" fill="#60b9fe"/>
          </g>
          <g id="g3689" transform="translate(8.059 8.868)">
            <path id="path3691" d="M-317.572-81.747-323.62-87.8l-.48-1.292h-21.335l-.684.559V-43.3l.991.82h27.746a1.161,1.161,0,0,0,1.161-1.161V-81.217Z" transform="translate(346.119 89.096)" fill="#fff5f5"/>
          </g>
          <g id="g3693" transform="translate(4.199 8.868)">
            <path id="path3695" d="M-50.248-505.626v-44.291a1.161,1.161,0,0,1,1.161-1.161H-53.6a1.161,1.161,0,0,0-1.161,1.161v44.291a1.161,1.161,0,0,0,1.161,1.161h4.517a1.161,1.161,0,0,1-1.161-1.161" transform="translate(54.765 551.079)" fill="#eee1dd"/>
          </g>
          <g id="g3697" transform="translate(30.078 8.867)">
            <path id="path3699" d="M-12.914-87.648H-6.2l-7.879-7.879v6.718a1.161,1.161,0,0,0,1.161,1.161" transform="translate(14.075 95.526)" fill="#eee1dd"/>
          </g>
          <g id="g3701" transform="translate(32.019 21.012)">
            <path id="path3703" d="M-188.051,0h-14.2l-1.02.44-1.686,1.741V19.9l4.628,5.48s4.206,2.575,4.289,2.63c.042.028.544.2,1.029.362a3.825,3.825,0,0,0,.44-.223c3.036-1.8,5.249-3.329,6.9-5.393a13.384,13.384,0,0,0,2.8-8.828V3.185A3.189,3.189,0,0,0-188.051,0" transform="translate(204.956)" fill="#97dc7c"/>
          </g>
          <g id="g3705" transform="translate(28.838 21.012)">
            <path id="path3707" d="M-149.244-313.206c-3.036-1.8-5.249-3.329-6.9-5.393a13.383,13.383,0,0,1-2.8-8.828v-10.749a3.189,3.189,0,0,1,3.185-3.185h-3.712a3.189,3.189,0,0,0-3.185,3.185v10.749a13.383,13.383,0,0,0,2.8,8.828c1.653,2.064,3.866,3.594,6.9,5.393a3.784,3.784,0,0,0,1.931.529,3.784,3.784,0,0,0,1.856-.488c-.025-.014-.05-.026-.075-.041" transform="translate(162.66 341.361)" fill="#83d361"/>
          </g>
          <g id="g3709" transform="translate(35.504 24.312)">
            <path id="path3711" d="M-142.293,0H-154.8l-.282.4V13.868l1.555,3.48,3.052,2.777,1.558.756.583.208c4.113-2.575,6.557-4.959,6.557-10.454V.514A.514.514,0,0,0-142.293,0" transform="translate(155.084)" fill="#6bcb44"/>
          </g>
          <g id="g3713" transform="translate(32.137 24.311)">
            <path id="path3715" d="M-41.288-118.307v-10.121a.514.514,0,0,1,.514-.514h-3.712a.514.514,0,0,0-.514.514v10.121c0,6.146,3.055,8.4,8.087,11.383a.487.487,0,0,0,.5,0c.561-.333,1.1-.656,1.607-.977-4.067-2.557-6.48-4.945-6.48-10.406" transform="translate(45 128.942)" fill="#4dc321"/>
          </g>
          <g id="g3717" transform="translate(37.307 31.249)">
            <path id="path3719" d="M-82.421-5.375a1.65,1.65,0,0,0-2.333,0L-87.219-2.91l-1.246-1.246a1.641,1.641,0,0,0-1.042-.477l-.324.223v1.182L-86.664,0l.6.137h.46l3.182-3.182a1.65,1.65,0,0,0,0-2.333" transform="translate(89.83 5.858)" fill="#dbedff"/>
          </g>
          <g id="g3721" transform="translate(35.856 32.469)">
            <path id="path3723" d="M-50.766-46.313l-2.412-2.412a1.648,1.648,0,0,1-.377-1.746,1.645,1.645,0,0,0-1.291.477,1.65,1.65,0,0,0,0,2.333l2.412,2.413a1.65,1.65,0,0,0,2.333,0l.585-.585a1.643,1.643,0,0,1-1.25-.479" transform="translate(55.33 50.476)" fill="#b5dcff"/>
          </g>
          <g id="g3725" transform="translate(30.077 8.867)">
            <path id="path3727" d="M-12.914-87.648H-6.2l-7.879-7.879v6.718A1.161,1.161,0,0,0-12.914-87.648Z" transform="translate(14.075 95.526)" fill="none" stroke="#000" stroke-linecap="round" stroke-linejoin="round" stroke-miterlimit="10" stroke-width="1"/>
          </g>
          <g id="g3729" transform="translate(38.12 0.825)">
            <path id="path3731" d="M-12.914-87.648H-6.2l-7.879-7.879v6.718A1.161,1.161,0,0,0-12.914-87.648Z" transform="translate(14.075 95.526)" fill="none" stroke="#000" stroke-linecap="round" stroke-linejoin="round" stroke-miterlimit="10" stroke-width="1"/>
          </g>
          <g id="g3733" transform="translate(4.198 8.868)">
            <path id="path3735" d="M-305.266-388.311a13.382,13.382,0,0,1-2.8-8.827v-10.749a3.189,3.189,0,0,1,3.185-3.185h5.934v-4.266l-7.879-7.879h-24.718a1.161,1.161,0,0,0-1.161,1.161v44.291a1.161,1.161,0,0,0,1.161,1.161h31.436a1.161,1.161,0,0,0,1.161-1.161v-5.5A22.726,22.726,0,0,1-305.266-388.311Z" transform="translate(332.707 423.218)" fill="none" stroke="#000" stroke-linecap="round" stroke-linejoin="round" stroke-miterlimit="10" stroke-width="1"/>
          </g>
          <g id="g3737" transform="translate(8.883 30.757)">
            <path id="path3739" d="M0,0H10.488" fill="none" stroke="#000" stroke-linecap="round" stroke-linejoin="round" stroke-miterlimit="10" stroke-width="1"/>
          </g>
          <g id="g3741" transform="translate(8.883 34.475)">
            <path id="path3743" d="M0,0H10.488" fill="none" stroke="#000" stroke-linecap="round" stroke-linejoin="round" stroke-miterlimit="10" stroke-width="1"/>
          </g>
          <g id="g3745" transform="translate(8.883 38.192)">
            <path id="path3747" d="M0,0H10.488" fill="none" stroke="#000" stroke-linecap="round" stroke-linejoin="round" stroke-miterlimit="10" stroke-width="1"/>
          </g>
          <g id="g3749" transform="translate(8.883 41.909)">
            <path id="path3751" d="M0,0H10.488" fill="none" stroke="#000" stroke-linecap="round" stroke-linejoin="round" stroke-miterlimit="10" stroke-width="1"/>
          </g>
          <g id="g3753" transform="translate(15.461 16.216)">
            <path id="path3755" d="M0,0H11.231" fill="none" stroke="#000" stroke-linecap="round" stroke-linejoin="round" stroke-miterlimit="10" stroke-width="1"/>
          </g>
          <g id="g3757" transform="translate(20.492 19.541)">
            <path id="path3759" d="M0,0H1.17" fill="none" stroke="#000" stroke-linecap="round" stroke-linejoin="round" stroke-miterlimit="10" stroke-width="1"/>
          </g>
          <g id="g3761" transform="translate(8.883 23.323)">
            <path id="path3763" d="M0,0H10.488" fill="none" stroke="#000" stroke-linecap="round" stroke-linejoin="round" stroke-miterlimit="10" stroke-width="1"/>
          </g>
          <g id="g3765" transform="translate(8.883 27.04)">
            <path id="path3767" d="M0,0H10.488" fill="none" stroke="#000" stroke-linecap="round" stroke-linejoin="round" stroke-miterlimit="10" stroke-width="1"/>
          </g>
          <g id="g3769" transform="translate(8.883 45.627)">
            <path id="path3771" d="M0,0H10.488" fill="none" stroke="#000" stroke-linecap="round" stroke-linejoin="round" stroke-miterlimit="10" stroke-width="1"/>
          </g>
          <g id="g3773" transform="translate(8.883 49.344)">
            <path id="path3775" d="M0,0H10.488" fill="none" stroke="#000" stroke-linecap="round" stroke-linejoin="round" stroke-miterlimit="10" stroke-width="1"/>
          </g>
          <g id="g3777" transform="translate(22.782 30.757)">
            <path id="path3779" d="M0,0H5.767" fill="none" stroke="#000" stroke-linecap="round" stroke-linejoin="round" stroke-miterlimit="10" stroke-width="1"/>
          </g>
          <g id="g3781" transform="translate(22.782 34.475)">
            <path id="path3783" d="M0,0H5.767" fill="none" stroke="#000" stroke-linecap="round" stroke-linejoin="round" stroke-miterlimit="10" stroke-width="1"/>
          </g>
          <g id="g3785" transform="translate(22.782 38.192)">
            <path id="path3787" d="M0,0H5.767" fill="none" stroke="#000" stroke-linecap="round" stroke-linejoin="round" stroke-miterlimit="10" stroke-width="1"/>
          </g>
          <g id="g3789" transform="translate(22.782 41.909)">
            <path id="path3791" d="M0,0H7.435" fill="none" stroke="#000" stroke-linecap="round" stroke-linejoin="round" stroke-miterlimit="10" stroke-width="1"/>
          </g>
          <g id="g3793" transform="translate(22.782 23.323)">
            <path id="path3795" d="M0,0H5.987" fill="none" stroke="#000" stroke-linecap="round" stroke-linejoin="round" stroke-miterlimit="10" stroke-width="1"/>
          </g>
          <g id="g3797" transform="translate(22.782 27.04)">
            <path id="path3799" d="M0,0H5.767" fill="none" stroke="#000" stroke-linecap="round" stroke-linejoin="round" stroke-miterlimit="10" stroke-width="1"/>
          </g>
          <g id="g3801" transform="translate(22.782 45.627)">
            <path id="path3803" d="M0,0H10.488" fill="none" stroke="#000" stroke-linecap="round" stroke-linejoin="round" stroke-miterlimit="10" stroke-width="1"/>
          </g>
          <g id="g3805" transform="translate(22.782 49.344)">
            <path id="path3807" d="M0,0H10.488" fill="none" stroke="#000" stroke-linecap="round" stroke-linejoin="round" stroke-miterlimit="10" stroke-width="1"/>
          </g>
          <g id="g3809" transform="translate(28.837 21.012)">
            <path id="path3811" d="M-129.434-319.094a3.784,3.784,0,0,1-1.931-.529c-3.036-1.8-5.249-3.329-6.9-5.393a13.383,13.383,0,0,1-2.8-8.828v-10.749a3.189,3.189,0,0,1,3.185-3.185h16.9a3.189,3.189,0,0,1,3.185,3.185v10.749a13.384,13.384,0,0,1-2.8,8.828c-1.653,2.064-3.866,3.594-6.9,5.393A3.784,3.784,0,0,1-129.434-319.094Z" transform="translate(141.069 347.778)" fill="none" stroke="#000" stroke-linecap="round" stroke-linejoin="round" stroke-miterlimit="10" stroke-width="1"/>
          </g>
          <g id="g3813" transform="translate(35.855 31.249)">
            <path id="path3815" d="M-98.56-31.326l-3.631,3.631a1.65,1.65,0,0,1-2.333,0l-2.413-2.413a1.65,1.65,0,0,1,0-2.333,1.65,1.65,0,0,1,2.333,0l1.246,1.246,2.465-2.465a1.65,1.65,0,0,1,2.333,0A1.65,1.65,0,0,1-98.56-31.326Z" transform="translate(107.419 34.142)" fill="none" stroke="#000" stroke-linecap="round" stroke-linejoin="round" stroke-miterlimit="10" stroke-width="1"/>
          </g>
          <g id="g3817" transform="translate(32.136 24.312)">
            <path id="path3819" d="M-71.324,0h-6.412V10.635c0,6.146,3.055,8.4,8.087,11.383a.488.488,0,0,0,.5,0c5.032-2.982,8.087-5.237,8.087-11.383V0h-6.412" transform="translate(77.736)" fill="none" stroke="#000" stroke-linecap="round" stroke-linejoin="round" stroke-miterlimit="10" stroke-width="1"/>
          </g>
          <g id="g3821" transform="translate(12.241 0.825)">
            <path id="path3823" d="M-375.534-134.7v-4.23l-7.879-7.879h-24.718a1.161,1.161,0,0,0-1.161,1.161v6.882h17.836l7.879,7.879v4.266h8.043v-4.23" transform="translate(409.292 146.81)" fill="none" stroke="#000" stroke-linecap="round" stroke-linejoin="round" stroke-miterlimit="10" stroke-width="1"/>
          </g>
        </g>
      </g>
    </g>
  </g>
</svg>
