<svg xmlns="http://www.w3.org/2000/svg" xmlns:xlink="http://www.w3.org/1999/xlink" width="113" height="113" viewBox="0 0 113 113">
  <defs>
    <filter id="Trazado_982547" x="0" y="0" width="113" height="113" filterUnits="userSpaceOnUse">
      <feOffset dy="3" input="SourceAlpha"/>
      <feGaussianBlur stdDeviation="3" result="blur"/>
      <feFlood flood-opacity="0.161"/>
      <feComposite operator="in" in2="blur"/>
      <feComposite in="SourceGraphic"/>
    </filter>
    <clipPath id="clip-path">
      <path id="path1407" d="M59.621-682.665H0v59.621H59.621Z" transform="translate(0 682.665)"/>
    </clipPath>
  </defs>
  <g id="Grupo_1171048" data-name="Grupo 1171048" transform="translate(9 6)">
    <g transform="matrix(1, 0, 0, 1, -9, -6)" filter="url(#Trazado_982547)">
      <g id="Trazado_982547-2" data-name="Trazado 982547" transform="translate(9 6)" fill="#e8e7f2">
        <path d="M 47.5 93.5 C 41.28937149047852 93.5 35.26531982421875 92.28397369384766 29.59518623352051 89.88570404052734 C 24.11770629882812 87.56893157958984 19.19813346862793 84.25196075439453 14.97307968139648 80.02691650390625 C 10.74804019927979 75.80186462402344 7.431066513061523 70.88229370117188 5.114293098449707 65.40481567382812 C 2.716026782989502 59.73468017578125 1.5 53.71062850952148 1.5 47.5 C 1.5 41.28937149047852 2.716026782989502 35.26533508300781 5.114293098449707 29.59518623352051 C 7.431066513061523 24.11771965026855 10.74804019927979 19.19813346862793 14.97307968139648 14.97309303283691 C 19.19813346862793 10.74804019927979 24.11770629882812 7.431066513061523 29.59518623352051 5.114293098449707 C 35.26531982421875 2.716026782989502 41.28937149047852 1.5 47.5 1.5 C 53.71062850952148 1.5 59.73466491699219 2.716026782989502 65.40481567382812 5.114293098449707 C 70.88227844238281 7.431066513061523 75.80186462402344 10.74804019927979 80.02690887451172 14.97309303283691 C 84.25196075439453 19.19813346862793 87.56893157958984 24.11771965026855 89.88570404052734 29.59518623352051 C 92.28397369384766 35.26533508300781 93.5 41.28937149047852 93.5 47.5 C 93.5 53.71062850952148 92.28397369384766 59.73468017578125 89.88570404052734 65.40481567382812 C 87.56893157958984 70.88229370117188 84.25196075439453 75.80186462402344 80.02690887451172 80.02691650390625 C 75.80186462402344 84.25196075439453 70.88227844238281 87.56893157958984 65.40481567382812 89.88570404052734 C 59.73466491699219 92.28397369384766 53.71062850952148 93.5 47.5 93.5 Z" stroke="none"/>
        <path d="M 47.5 3 C 41.49121475219727 3 35.66376876831055 4.176155090332031 30.17950439453125 6.495796203613281 C 24.88084411621094 8.736953735351562 20.12152099609375 11.94598388671875 16.03375244140625 16.03375244140625 C 11.94598388671875 20.12152099609375 8.736953735351562 24.88084411621094 6.495796203613281 30.17950439453125 C 4.176155090332031 35.66376876831055 3 41.49121475219727 3 47.5 C 3 53.50878524780273 4.176155090332031 59.33623123168945 6.495796203613281 64.82049560546875 C 8.736953735351562 70.11915588378906 11.94598388671875 74.87847900390625 16.03375244140625 78.96624755859375 C 20.12152099609375 83.05401611328125 24.88084411621094 86.26304626464844 30.17950439453125 88.50419616699219 C 35.66376876831055 90.82384490966797 41.49121475219727 92 47.5 92 C 53.50878524780273 92 59.33623123168945 90.82384490966797 64.82049560546875 88.50419616699219 C 70.11915588378906 86.26304626464844 74.87847900390625 83.05401611328125 78.96624755859375 78.96624755859375 C 83.05401611328125 74.87847900390625 86.26304626464844 70.11915588378906 88.50419616699219 64.82049560546875 C 90.82384490966797 59.33623123168945 92 53.50878524780273 92 47.5 C 92 41.49121475219727 90.82384490966797 35.66376876831055 88.50419616699219 30.17950439453125 C 86.26304626464844 24.88084411621094 83.05401611328125 20.12152099609375 78.96624755859375 16.03375244140625 C 74.87847900390625 11.94598388671875 70.11915588378906 8.736953735351562 64.82049560546875 6.495796203613281 C 59.33623123168945 4.176155090332031 53.50878524780273 3 47.5 3 M 47.5 0 C 73.7335205078125 0 95 21.2664794921875 95 47.5 C 95 73.7335205078125 73.7335205078125 95 47.5 95 C 21.2664794921875 95 0 73.7335205078125 0 47.5 C 0 21.2664794921875 21.2664794921875 0 47.5 0 Z" stroke="none" fill="#292584"/>
      </g>
    </g>
    <g id="g1401" transform="translate(17.69 17.69)">
      <g id="g1403">
        <g id="g1405" clip-path="url(#clip-path)">
          <g id="g1411" transform="translate(34.925 1.244)">
            <path id="path1413" d="M-198.741-29.839h10.668v-2.855l6.737,5.126-6.737,5.13v-2.855h-10.668a.558.558,0,0,1-.555-.555v-3.436a.558.558,0,0,1,.555-.555" transform="translate(199.296 32.695)" fill="#a7e9a6" fill-rule="evenodd"/>
          </g>
          <g id="g1415" transform="translate(6.739 1.244)">
            <path id="path1417" d="M-121.767-29.839H-111.1a.559.559,0,0,1,.558.555v3.436a.559.559,0,0,1-.558.555h-10.665v2.855l-6.737-5.13,6.737-5.126Z" transform="translate(128.504 32.695)" fill="#a7e9a6" fill-rule="evenodd"/>
          </g>
          <g id="g1419" transform="translate(6.739 4.116)">
            <path id="path1421" d="M-77.14-23.56l2.964-2.255a2.569,2.569,0,0,0-.079.637c0,1.624,1.522,3.063,3.852,3.938v2.809Z" transform="translate(77.14 25.815)" fill="#7fdbae" fill-rule="evenodd"/>
          </g>
          <g id="g1423" transform="translate(34.925 4.099)">
            <path id="path1425" d="M-68.751-41.705v-3.436A.558.558,0,0,1-68.2-45.7h2.086a2.673,2.673,0,0,0-.112.756c0,1.538,1.36,2.908,3.476,3.789H-68.2a.558.558,0,0,1-.555-.555" transform="translate(68.751 45.696)" fill="#7fdbae" fill-rule="evenodd"/>
          </g>
          <g id="g1427" transform="translate(43.098 37.815)">
            <path id="path1429" d="M-179.188-41.878a6.07,6.07,0,0,1,4.568-3.948c1.558-.116,3.981-.033,6.183,0a6.047,6.047,0,0,1,4.9,5.9v3.667a.629.629,0,0,1-.624.621H-173.5c-3.522-.37-5.529-2.621-5.687-6.239" transform="translate(179.188 45.886)" fill="#eb5468" fill-rule="evenodd"/>
          </g>
          <g id="g1431" transform="translate(43.098 37.875)">
            <path id="path1433" d="M-15.614,0a5.979,5.979,0,0,0,1.763.716,7.8,7.8,0,0,0-4.42,4.532c-.482,1.136-.961,1.066-1.261.858-.334-.228-.5-.858-.65-2.159A6.07,6.07,0,0,1-15.614,0" transform="translate(20.183)" fill="#e5384f" fill-rule="evenodd"/>
          </g>
          <g id="g1435" transform="translate(44.768 30.039)">
            <path id="path1437" d="M-137.16-22.927c3.628-.683,9.843-4.575,11.979,0v.518a6,6,0,0,1-2.9,5.123,5.954,5.954,0,0,1-3.093.865,5.942,5.942,0,0,1-3.09-.865,6,6,0,0,1-2.9-5.123Z" transform="translate(137.16 25.121)" fill="#ffe5c1" fill-rule="evenodd"/>
          </g>
          <g id="g1439" transform="translate(44.768 31.556)">
            <path id="path1441" d="M-61.454-11.324a6,6,0,0,0,2.895,5,5.935,5.935,0,0,0,2.66.848,5.959,5.959,0,0,1-1.723.254,6.048,6.048,0,0,1-1.327-.149,5.979,5.979,0,0,1-1.763-.716,6,6,0,0,1-2.9-5.123v-.518c.353-.865,1.69-.674,2.212-.627.221.023-.287,1.036-.056,1.033" transform="translate(63.609 12.408)" fill="#fed1a3" fill-rule="evenodd"/>
          </g>
          <g id="g1443" transform="translate(44.768 25.483)">
            <path id="path1445" d="M-137.16-70.543c0-4.446,2.994-6.7,5.988-6.75,2.994.049,5.991,2.3,5.991,6.75-2.076-2.836-8.269,1.74-11.979,0" transform="translate(137.16 77.293)" fill="#375e7d" fill-rule="evenodd"/>
          </g>
          <g id="g1447" transform="translate(44.768 25.483)">
            <path id="path1449" d="M8.081-4.242c-2.974.079-5.925,2.334-5.925,6.75A4.87,4.87,0,0,1,0,2.1c0-4.446,2.994-6.7,5.988-6.75a6.077,6.077,0,0,1,2.093.406" transform="translate(0 4.648)" fill="#2b4d66" fill-rule="evenodd"/>
          </g>
          <g id="g1451" transform="translate(0.873 37.824)">
            <path id="path1453" d="M-179.188-62.381a6.047,6.047,0,0,1,4.9-5.919c1.74.04,4.119-.132,6.183,0a6.062,6.062,0,0,1,4.565,3.945c-.106,3.783-1.779,6.345-5.687,6.242h-9.335a.631.631,0,0,1-.627-.627Z" transform="translate(179.188 68.35)" fill="#eb5468" fill-rule="evenodd"/>
          </g>
          <g id="g1455" transform="translate(24.577 33.148)">
            <path id="path1457" d="M-119.849-68.128v-6.519a10.411,10.411,0,0,0,2.941,1.723,6.438,6.438,0,0,0,2.294.462,6.452,6.452,0,0,0,2.294-.462,10.274,10.274,0,0,0,2.938-1.723v6.519l-5.232,4.314Z" transform="translate(119.849 74.648)" fill="#f5a96c" fill-rule="evenodd"/>
          </g>
          <g id="g1459" transform="translate(24.577 33.148)">
            <path id="path1461" d="M-26.109-18.006a10.271,10.271,0,0,0,2.938-1.723v3.951c-2.245,1.337-5.826,2.2-8.143.8-1.162-.7-.885-.073-.944.914v.829l-1.38-1.139v-5.354A10.405,10.405,0,0,0-30.7-18.006a6.435,6.435,0,0,0,2.294.462,6.084,6.084,0,0,0,1.848-.307c.145-.046.294-.1.446-.155" transform="translate(33.639 19.729)" fill="#ea9a58" fill-rule="evenodd"/>
          </g>
          <g id="g1463" transform="translate(19.612 39.575)">
            <path id="path1465" d="M-116.788-79.65l1.644-7.622,5.549,4.922,3.007,4.334-3.879,9.546h-2.664l-3.03-5.714,2.245-3.832Z" transform="translate(116.788 87.272)" fill="#b6c4cf" fill-rule="evenodd"/>
          </g>
          <g id="g1467" transform="translate(36.351 39.575)">
            <path id="path1469" d="M-137.212-96.725l2.872-1.634-1.641-7.622a28.873,28.873,0,0,1,4.73,2.248c2.571,1.545,4.809,3.6,5.687,6.239a7.725,7.725,0,0,1,.4,2.449v6.675c.053.951-.172,1.192-1.106,1.192H-138l3.034-5.714Z" transform="translate(137.998 105.981)" fill="#375e7d" fill-rule="evenodd"/>
          </g>
          <g id="g1471" transform="translate(29.812 39.575)">
            <path id="path1473" d="M-116.75-96.725l2.67-4.522,5.885-4.734,1.641,7.622-2.872,1.634,2.248,3.832-3.034,5.714h-2.664Z" transform="translate(116.75 105.981)" fill="#b6c4cf" fill-rule="evenodd"/>
          </g>
          <g id="g1475" transform="translate(10.435 39.575)">
            <path id="path1477" d="M-141.976-88.688c.878-2.641,3.116-4.694,5.687-6.242a29.026,29.026,0,0,1,4.733-2.245l-1.644,7.622,2.872,1.634-2.245,3.832,3.03,5.714h-11.725c-.931,0-1.155-.241-1.1-1.192v-6.675a7.724,7.724,0,0,1,.393-2.449" transform="translate(142.376 97.174)" fill="#375e7d" fill-rule="evenodd"/>
          </g>
          <g id="g1479" transform="translate(25.934 47.665)">
            <path id="path1481" d="M-88.781-111.937l1.73-9.546,2.149-1.165,2.149,1.165,1.726,9.546h-7.754Z" transform="translate(88.781 122.649)" fill="#eb5468" fill-rule="evenodd"/>
          </g>
          <g id="g1483" transform="translate(10.435 39.575)">
            <path id="path1485" d="M-48.111-23.457A29.025,29.025,0,0,1-43.378-25.7l-.845,3.921c-3.251,1.991-5.932,4.8-5.932,8.6V-6.9h-2.934c-.931,0-1.155-.241-1.1-1.192v-6.675a7.724,7.724,0,0,1,.393-2.449c.878-2.641,3.116-4.694,5.687-6.242" transform="translate(54.199 25.701)" fill="#2b4d66" fill-rule="evenodd"/>
          </g>
          <g id="g1487" transform="translate(20.411 39.575)">
            <path id="path1489" d="M-25.664-40.98l.845-3.921,1.4,2.7s-2.03,1.093-2.241,1.218" transform="translate(25.664 44.901)" fill="#9facba" fill-rule="evenodd"/>
          </g>
          <g id="g1491" transform="translate(25.934 47.665)">
            <path id="path1493" d="M-23.977,0l2.149,1.165.284,1.571h-2.928l-1.446,7.975h-1.938l1.73-9.546Z" transform="translate(27.856)" fill="#e5384f" fill-rule="evenodd"/>
          </g>
          <g id="g1495" transform="translate(25.871 42.82)">
            <path id="path1497" d="M-90.254-22.939l3.941-2.2,3.941,2.2-1.792,3.816h-4.3Z" transform="translate(90.254 25.135)" fill="#eb5468" fill-rule="evenodd"/>
          </g>
          <g id="g1499" transform="translate(25.871 42.82)">
            <path id="path1501" d="M-41.187,0l3.941,2.2-.868,1.845-1.439-.8-1.634-.914-1.842,1.027-1.235.687L-45.128,2.2Z" transform="translate(45.128)" fill="#e5384f" fill-rule="evenodd"/>
          </g>
          <g id="g1503" transform="translate(29.812 38.502)">
            <path id="path1505" d="M-97.965-45.12l5.232-4.318c.98.267,2.122.621,3.324,1.073l-3.215,6.222-1.4-.782Z" transform="translate(97.965 49.437)" fill="#eff6ff" fill-rule="evenodd"/>
          </g>
          <g id="g1507" transform="translate(21.256 38.502)">
            <path id="path1509" d="M-97.965-11.211c1.2-.452,2.34-.805,3.321-1.073l5.235,4.318-3.941,2.2-1.4.782Z" transform="translate(97.965 12.284)" fill="#eff6ff" fill-rule="evenodd"/>
          </g>
          <g id="g1511" transform="translate(21.256 38.502)">
            <path id="path1513" d="M-66.406-11.211c1.2-.452,2.34-.805,3.321-1.073l1.38,1.139,1.1.9A34.807,34.807,0,0,0-63.918-9c-.363.155-.73.32-1.093.5Z" transform="translate(66.406 12.284)" fill="#d9eeff" fill-rule="evenodd"/>
          </g>
          <g id="g1515" transform="translate(31.282 13.685)">
            <path id="path1517" d="M-117.345,0h5.215a5.084,5.084,0,0,1,5.07,5.07V8.543C-111.222,13.626-119.768,4.7-117.345,0" transform="translate(117.77)" fill="#375e7d" fill-rule="evenodd"/>
          </g>
          <g id="g1519" transform="translate(17.632 13.685)">
            <path id="path1521" d="M-117.732-52.986a5.084,5.084,0,0,1,5.07-5.07h5.212c-.819,3.691-5.7,14.947-10.282,8.543Z" transform="translate(117.732 58.056)" fill="#375e7d" fill-rule="evenodd"/>
          </g>
          <g id="g1523" transform="translate(17.018 21.277)">
            <path id="path1525" d="M-54.153-21.146a2.02,2.02,0,0,1,.251-.977,2.013,2.013,0,0,1,1.746-1.046h1.717a5.735,5.735,0,0,1-.043,6.579c-1.994-.168-3.671-1.307-3.671-3.294Z" transform="translate(54.153 23.169)" fill="#ea9a58" fill-rule="evenodd"/>
          </g>
          <g id="g1527" transform="translate(37.797 21.278)">
            <path id="path1529" d="M-41.424,0h1.713a2,2,0,0,1,1.746,1.046,2.023,2.023,0,0,1,.254.977V3.285c0,1.987-1.677,3.126-3.671,3.294C-42.972,5.116-42.811,1.816-41.424,0" transform="translate(42.52)" fill="#ea9a58" fill-rule="evenodd"/>
          </g>
          <g id="g1531" transform="translate(20.652 13.319)">
            <path id="path1533" d="M-13.282-205.35a12.444,12.444,0,0,1-1.39,1.343,10.339,10.339,0,0,1-2.938,1.723,6.522,6.522,0,0,1-2.294.462,6.508,6.508,0,0,1-2.294-.462,10.4,10.4,0,0,1-2.941-1.723,12.741,12.741,0,0,1-1.39-1.343l-1.234-1.67a8.633,8.633,0,0,1-1.264-3.443,5.846,5.846,0,0,1-.036-.63v-4.747a9.006,9.006,0,0,1,.079-1.2,9.208,9.208,0,0,1,7.127-7.747A9.086,9.086,0,0,1-19.9-225a9.032,9.032,0,0,1,1.951.211,9.208,9.208,0,0,1,7.13,7.747,9.585,9.585,0,0,1,.079,1.2v4.747a5.875,5.875,0,0,1-.036.63,8.643,8.643,0,0,1-1.268,3.443Z" transform="translate(29.064 225.001)" fill="#ffbc85" fill-rule="evenodd"/>
          </g>
          <g id="g1535" transform="translate(20.652 13.319)">
            <path id="path1537" d="M11.008-238.984a5.994,5.994,0,0,1-1.848.31,6.511,6.511,0,0,1-2.294-.462,10.406,10.406,0,0,1-2.941-1.723,12.727,12.727,0,0,1-1.39-1.343L1.3-243.872a8.636,8.636,0,0,1-1.264-3.443,5.875,5.875,0,0,1-.036-.63v-4.747a8.988,8.988,0,0,1,.079-1.2,9.208,9.208,0,0,1,7.127-7.747,9.086,9.086,0,0,1,1.954-.211c.069,0,.135,0,.2,0a9.21,9.21,0,0,0-6.846,7.678,9.023,9.023,0,0,0-.079,1.2v4.747a5.938,5.938,0,0,0,.036.634,8.612,8.612,0,0,0,1.268,3.44l1.235,1.67a11.63,11.63,0,0,0,1.39,1.344,10.28,10.28,0,0,0,2.938,1.726,7.141,7.141,0,0,0,1.7.426" transform="translate(0 261.853)" fill="#f5a96c" fill-rule="evenodd"/>
          </g>
          <g id="g1539" transform="translate(29.812 28.048)">
            <path id="path1541" d="M-38.768-51.433c-2.687,0-3.9-3.285-4.493-4.922h3.41A5.024,5.024,0,0,1-35.4-53.1c.122.254.225.5.314.733.165.449.2.938-.475.938h-3.2Z" transform="translate(43.26 56.355)" fill="#375e7d" fill-rule="evenodd"/>
          </g>
          <g id="g1543" transform="translate(21.54 28.048)">
            <path id="path1545" d="M-89.578-33.978a5.029,5.029,0,0,1,4.45-3.251h3.41c-.6,1.637-1.806,4.922-4.492,4.922h-3.2c-.677,0-.644-.489-.475-.938.086-.231.191-.479.31-.733" transform="translate(89.99 37.229)" fill="#375e7d" fill-rule="evenodd"/>
          </g>
          <g id="g1547" transform="translate(21.54 28.048)">
            <path id="path1549" d="M-68.866-33.978a6.716,6.716,0,0,1,1.548-2.136,4.257,4.257,0,0,1,2.9-1.116h1.6c-2.522,0-3.608,2.974-4.284,4.922h-1.6c-.677,0-.644-.489-.475-.938.086-.231.191-.479.31-.733" transform="translate(69.278 37.229)" fill="#2b4d66" fill-rule="evenodd"/>
          </g>
          <g id="g1551" transform="translate(29.812 28.048)">
            <path id="path1553" d="M-75.817,0h2.129c.6,1.637,1.806,4.922,4.492,4.922h-2.129c-2.687,0-3.9-3.285-4.493-4.922" transform="translate(75.817)" fill="#2b4d66" fill-rule="evenodd"/>
          </g>
          <g id="g1555" transform="translate(0.873 37.819)">
            <path id="path1557" d="M6.5-7.655A5.056,5.056,0,0,0,2.423-2.413V1.228a.628.628,0,0,0,.624.627H.627A.631.631,0,0,1,0,1.228V-2.413A6.047,6.047,0,0,1,4.9-8.331c1.215-.208,1.5.2,1.6.677" transform="translate(0 8.387)" fill="#e5384f" fill-rule="evenodd"/>
          </g>
          <g id="g1559" transform="translate(2.877 30.102)">
            <path id="path1561" d="M-137.16-27.691v-.518c3.737-.34,9.926-4.621,11.979,0v.518a6,6,0,0,1-2.9,5.123,5.954,5.954,0,0,1-3.093.865,5.942,5.942,0,0,1-3.09-.865,6,6,0,0,1-2.9-5.123" transform="translate(137.16 30.341)" fill="#ffe5c1" fill-rule="evenodd"/>
          </g>
          <g id="g1563" transform="translate(2.877 31.977)">
            <path id="path1565" d="M-58.343-6.885a6.006,6.006,0,0,0,2.9,5.064q.129.079.257.149A5.909,5.909,0,0,0-53.048-1a5.988,5.988,0,0,1-1.588.215,5.942,5.942,0,0,1-3.09-.865,6,6,0,0,1-2.9-5.123v-.518c.96-.383,1.782-.4,2.281.4" transform="translate(60.624 7.544)" fill="#fed1a3" fill-rule="evenodd"/>
          </g>
          <g id="g1567" transform="translate(2.877 25.483)">
            <path id="path1569" d="M-137.16-70.543c0-4.446,2.994-6.7,5.988-6.75,2.994.049,5.991,2.3,5.991,6.75-2.076-2.836-8.269,1.74-11.979,0" transform="translate(137.16 77.293)" fill="#375e7d" fill-rule="evenodd"/>
          </g>
          <g id="g1571" transform="translate(2.877 25.483)">
            <path id="path1573" d="M6.711-.551C4.39.106,2.406,2.172,2.287,5.635c-.007.109-.007.225-.007.337v.578A4.939,4.939,0,0,1,0,6.146C0,1.7,2.994-.555,5.988-.6a5.919,5.919,0,0,1,.723.053" transform="translate(0 0.604)" fill="#2b4d66" fill-rule="evenodd"/>
          </g>
          <g id="g1575" transform="translate(43.098 37.875)">
            <path id="path1577" d="M-58.2-106.453h5.308a.628.628,0,0,0,.624-.627v-3.641a6.047,6.047,0,0,0-4.9-5.919m-6.183,0a6.07,6.07,0,0,0-4.568,3.948" transform="translate(67.918 116.64)" fill="none" stroke="#000" stroke-linecap="round" stroke-linejoin="round" stroke-miterlimit="10" stroke-width="1.5"/>
          </g>
          <g id="g1579" transform="translate(44.768 25.483)">
            <path id="path1581" d="M11.979-70.543c0-4.446-3-6.7-5.991-6.75C2.994-77.244,0-74.989,0-70.543,3.71-68.8,9.9-73.378,11.979-70.543Z" transform="translate(0 77.293)" fill="none" stroke="#000" stroke-linecap="round" stroke-linejoin="round" stroke-miterlimit="10" stroke-width="1.5"/>
          </g>
          <g id="g1583" transform="translate(44.768 32.233)">
            <path id="path1585" d="M11.979,0V.518A5.989,5.989,0,0,1,0,.518V0" fill="none" stroke="#000" stroke-linecap="round" stroke-linejoin="round" stroke-miterlimit="10" stroke-width="1.5"/>
          </g>
          <g id="g1587" transform="translate(2.877 25.483)">
            <path id="path1589" d="M11.979-70.543c0-4.446-3-6.7-5.991-6.75C2.994-77.244,0-74.989,0-70.543,3.71-68.8,9.9-73.378,11.979-70.543Z" transform="translate(0 77.293)" fill="none" stroke="#000" stroke-linecap="round" stroke-linejoin="round" stroke-miterlimit="10" stroke-width="1.5"/>
          </g>
          <g id="g1591" transform="translate(31.961 48.831)">
            <path id="path1593" d="M-19.767,0l1.726,9.546" transform="translate(19.767)" fill="none" stroke="#000" stroke-linecap="round" stroke-linejoin="round" stroke-miterlimit="10" stroke-width="1.5"/>
          </g>
          <g id="g1595" transform="translate(25.871 45.015)">
            <path id="path1597" d="M-90.254,0l1.792,3.816h4.3L-82.372,0" transform="translate(90.254)" fill="none" stroke="#000" stroke-linecap="round" stroke-linejoin="round" stroke-miterlimit="10" stroke-width="1.5"/>
          </g>
          <g id="g1599" transform="translate(25.934 48.831)">
            <path id="path1601" d="M1.73,0,0,9.546" fill="none" stroke="#000" stroke-linecap="round" stroke-linejoin="round" stroke-miterlimit="10" stroke-width="1.5"/>
          </g>
          <g id="g1603" transform="translate(36.351 39.575)">
            <path id="path1605" d="M-16.767,0l1.641,7.622L-18,9.256l2.248,3.832L-18.784,18.8" transform="translate(18.784)" fill="none" stroke="#000" stroke-linecap="round" stroke-linejoin="round" stroke-miterlimit="10" stroke-width="1.5"/>
          </g>
          <g id="g1607" transform="translate(19.612 39.575)">
            <path id="path1609" d="M-21.412,0l-1.644,7.622,2.872,1.634-2.245,3.832L-19.4,18.8" transform="translate(23.056)" fill="none" stroke="#000" stroke-linecap="round" stroke-linejoin="round" stroke-miterlimit="10" stroke-width="1.5"/>
          </g>
          <g id="g1611" transform="translate(34.925 1.244)">
            <path id="path1613" d="M-198.741-29.839a.558.558,0,0,0-.555.555v3.436a.558.558,0,0,0,.555.555h10.668v2.855l6.737-5.13-6.737-5.126v2.855Z" transform="translate(199.296 32.695)" fill="none" stroke="#000" stroke-linecap="round" stroke-linejoin="round" stroke-miterlimit="10" stroke-width="1.5"/>
          </g>
          <g id="g1615" transform="translate(6.739 1.244)">
            <path id="path1617" d="M11.014-29.839a.559.559,0,0,1,.558.555v3.436a.559.559,0,0,1-.558.555H.349v2.855l-6.737-5.13L.349-32.695v2.855Z" transform="translate(6.388 32.695)" fill="none" stroke="#000" stroke-linecap="round" stroke-linejoin="round" stroke-miterlimit="10" stroke-width="1.5"/>
          </g>
          <g id="g1619" transform="translate(0.873 37.875)">
            <path id="path1621" d="M15.649-41.222a6.062,6.062,0,0,0-4.565-3.945m-6.182,0A6.047,6.047,0,0,0,0-39.248v3.641a.631.631,0,0,0,.627.627h5.3" transform="translate(0 45.167)" fill="none" stroke="#000" stroke-linecap="round" stroke-linejoin="round" stroke-miterlimit="10" stroke-width="1.5"/>
          </g>
          <g id="g1623" transform="translate(2.877 32.233)">
            <path id="path1625" d="M11.979,0V.518A5.989,5.989,0,0,1,0,.518V0" fill="none" stroke="#000" stroke-linecap="round" stroke-linejoin="round" stroke-miterlimit="10" stroke-width="1.5"/>
          </g>
          <g id="g1627" transform="translate(29.812 38.502)">
            <path id="path1629" d="M-32.828,0-38.06,4.318-32.719,7.3-29.5,1.073" transform="translate(38.06)" fill="none" stroke="#000" stroke-linecap="round" stroke-linejoin="round" stroke-miterlimit="10" stroke-width="1.5"/>
          </g>
          <g id="g1631" transform="translate(21.256 38.502)">
            <path id="path1633" d="M-56.623,0l5.235,4.318L-56.729,7.3l-3.215-6.222" transform="translate(59.944)" fill="none" stroke="#000" stroke-linecap="round" stroke-linejoin="round" stroke-miterlimit="10" stroke-width="1.5"/>
          </g>
          <g id="g1635" transform="translate(17.632 13.685)">
            <path id="path1637" d="M-95.435,0h4.552a5.084,5.084,0,0,1,5.07,5.07v3.1m-24.36,0V5.07A5.084,5.084,0,0,1-105.1,0h4.552" transform="translate(110.173)" fill="none" stroke="#000" stroke-linecap="round" stroke-linejoin="round" stroke-miterlimit="10" stroke-width="1.5"/>
          </g>
          <g id="g1639" transform="translate(29.812 28.048)">
            <path id="path1641" d="M-52.246,0h-3.41c.6,1.637,1.806,4.922,4.492,4.922h3.2c.677,0,.64-.489.475-.938C-48.084,2.387-49.484,0-52.246,0Z" transform="translate(55.656)" fill="none" stroke="#000" stroke-linecap="round" stroke-linejoin="round" stroke-miterlimit="10" stroke-width="1.5"/>
          </g>
          <g id="g1643" transform="translate(21.54 28.048)">
            <path id="path1645" d="M-34.18,0h3.41c-.6,1.637-1.806,4.922-4.493,4.922h-3.2c-.677,0-.644-.489-.475-.938C-38.343,2.387-36.946,0-34.18,0Z" transform="translate(39.043)" fill="none" stroke="#000" stroke-linecap="round" stroke-linejoin="round" stroke-miterlimit="10" stroke-width="1.5"/>
          </g>
          <g id="g1647" transform="translate(10.435 34.313)">
            <path id="path1649" d="M-13.158-251.471H-10.1c.934,0,1.159-.241,1.106-1.192v-6.675c0-7.021-9.15-10.656-14.138-12.009v-4.189m-10.467,0v4.189c-4.984,1.353-14.134,4.988-14.134,12.009v6.675c-.053.951.172,1.192,1.1,1.192h29.44" transform="translate(47.742 275.535)" fill="none" stroke="#000" stroke-linecap="round" stroke-linejoin="round" stroke-miterlimit="10" stroke-width="1.5"/>
          </g>
          <g id="g1651" transform="translate(38.893 21.278)">
            <path id="path1653" d="M-42.52,0h1.713a2.027,2.027,0,0,1,2,2.024V3.285c0,1.987-1.677,3.126-3.671,3.294" transform="translate(42.52)" fill="none" stroke="#000" stroke-linecap="round" stroke-linejoin="round" stroke-miterlimit="10" stroke-width="1.5"/>
          </g>
          <g id="g1655" transform="translate(17.018 21.278)">
            <path id="path1657" d="M3.714,0H2A2.025,2.025,0,0,0,0,2.024V3.285C0,5.272,1.677,6.41,3.671,6.579" fill="none" stroke="#000" stroke-linecap="round" stroke-linejoin="round" stroke-miterlimit="10" stroke-width="1.5"/>
          </g>
          <g id="g1659" transform="translate(20.652 13.319)">
            <path id="path1661" d="M-193.572-187.9a8.633,8.633,0,0,1-1.264-3.443,5.843,5.843,0,0,1-.036-.63v-4.747a8.99,8.99,0,0,1,.079-1.2,9.208,9.208,0,0,1,7.127-7.747,9.094,9.094,0,0,1,1.954-.211,9.041,9.041,0,0,1,1.951.211,9.208,9.208,0,0,1,7.13,7.747,9.592,9.592,0,0,1,.079,1.2v4.747a5.843,5.843,0,0,1-.036.63,8.643,8.643,0,0,1-1.268,3.443m-1.235,1.67a12.444,12.444,0,0,1-1.39,1.343,10.345,10.345,0,0,1-2.938,1.723,6.524,6.524,0,0,1-2.294.462,6.51,6.51,0,0,1-2.294-.462,10.406,10.406,0,0,1-2.941-1.723,12.732,12.732,0,0,1-1.39-1.343" transform="translate(194.873 205.877)" fill="none" stroke="#000" stroke-linecap="round" stroke-linejoin="round" stroke-miterlimit="10" stroke-width="1.5"/>
          </g>
        </g>
      </g>
    </g>
  </g>
</svg>
