<svg xmlns="http://www.w3.org/2000/svg" xmlns:xlink="http://www.w3.org/1999/xlink" width="113" height="113" viewBox="0 0 113 113">
  <defs>
    <filter id="Trazado_1024111" x="0" y="0" width="113" height="113" filterUnits="userSpaceOnUse">
      <feOffset dy="3" input="SourceAlpha"/>
      <feGaussianBlur stdDeviation="3" result="blur"/>
      <feFlood flood-opacity="0.161"/>
      <feComposite operator="in" in2="blur"/>
      <feComposite in="SourceGraphic"/>
    </filter>
  </defs>
  <g id="Grupo_1171052" data-name="Grupo 1171052" transform="translate(-743.5 -9574.313)">
    <g transform="matrix(1, 0, 0, 1, 743.5, 9574.31)" filter="url(#Trazado_1024111)">
      <g id="Trazado_1024111-2" data-name="Trazado 1024111" transform="translate(9 6)" fill="#e8e7f2">
        <path d="M 47.5 93.5 C 41.28937149047852 93.5 35.26533508300781 92.28397369384766 29.59518623352051 89.88570404052734 C 24.11771965026855 87.56893157958984 19.19813346862793 84.25196075439453 14.97309303283691 80.02691650390625 C 10.74804019927979 75.80186462402344 7.431066513061523 70.88229370117188 5.114293098449707 65.40481567382812 C 2.716026782989502 59.73468017578125 1.5 53.71062850952148 1.5 47.5 C 1.5 41.28937149047852 2.716026782989502 35.26533508300781 5.114293098449707 29.59518623352051 C 7.431066513061523 24.11771965026855 10.74804019927979 19.19813346862793 14.97309303283691 14.97309303283691 C 19.19813346862793 10.74804019927979 24.11771965026855 7.431066513061523 29.59518623352051 5.114293098449707 C 35.26533508300781 2.716026782989502 41.28937149047852 1.5 47.5 1.5 C 53.71062850952148 1.5 59.73468017578125 2.716026782989502 65.40481567382812 5.114293098449707 C 70.88229370117188 7.431066513061523 75.80186462402344 10.74804019927979 80.02691650390625 14.97309303283691 C 84.25196075439453 19.19813346862793 87.56893157958984 24.11771965026855 89.88570404052734 29.59518623352051 C 92.28397369384766 35.26533508300781 93.5 41.28937149047852 93.5 47.5 C 93.5 53.71062850952148 92.28397369384766 59.73468017578125 89.88570404052734 65.40481567382812 C 87.56893157958984 70.88229370117188 84.25196075439453 75.80186462402344 80.02691650390625 80.02691650390625 C 75.80186462402344 84.25196075439453 70.88229370117188 87.56893157958984 65.40481567382812 89.88570404052734 C 59.73468017578125 92.28397369384766 53.71062850952148 93.5 47.5 93.5 Z" stroke="none"/>
        <path d="M 47.5 3 C 41.49121475219727 3 35.66376876831055 4.176155090332031 30.17950439453125 6.495796203613281 C 24.88084411621094 8.736953735351562 20.12152099609375 11.94598388671875 16.03375244140625 16.03375244140625 C 11.94598388671875 20.12152099609375 8.736953735351562 24.88084411621094 6.495796203613281 30.17950439453125 C 4.176155090332031 35.66376876831055 3 41.49121475219727 3 47.5 C 3 53.50878524780273 4.176155090332031 59.33623123168945 6.495796203613281 64.82049560546875 C 8.736953735351562 70.11915588378906 11.94598388671875 74.87847900390625 16.03375244140625 78.96624755859375 C 20.12152099609375 83.05401611328125 24.88084411621094 86.26304626464844 30.17950439453125 88.50419616699219 C 35.66376876831055 90.82384490966797 41.49121475219727 92 47.5 92 C 53.50878524780273 92 59.33623123168945 90.82384490966797 64.82049560546875 88.50419616699219 C 70.11915588378906 86.26304626464844 74.87847900390625 83.05401611328125 78.96624755859375 78.96624755859375 C 83.05401611328125 74.87847900390625 86.26304626464844 70.11915588378906 88.50419616699219 64.82049560546875 C 90.82384490966797 59.33623123168945 92 53.50878524780273 92 47.5 C 92 41.49121475219727 90.82384490966797 35.66376876831055 88.50419616699219 30.17950439453125 C 86.26304626464844 24.88084411621094 83.05401611328125 20.12152099609375 78.96624755859375 16.03375244140625 C 74.87847900390625 11.94598388671875 70.11915588378906 8.736953735351562 64.82049560546875 6.495796203613281 C 59.33623123168945 4.176155090332031 53.50878524780273 3 47.5 3 M 47.5 0 C 73.7335205078125 0 95 21.2664794921875 95 47.5 C 95 73.7335205078125 73.7335205078125 95 47.5 95 C 21.2664794921875 95 0 73.7335205078125 0 47.5 C 0 21.2664794921875 21.2664794921875 0 47.5 0 Z" stroke="none" fill="#292584"/>
      </g>
    </g>
    <g id="Layer_31" data-name="Layer 31" transform="translate(768 9596)">
      <path id="Trazado_1024401" data-name="Trazado 1024401" d="M21.172,38h5.657v4H21.172Z" transform="translate(-21.255 28.686) rotate(-45)" fill="#383838"/>
      <path id="Trazado_1024402" data-name="Trazado 1024402" d="M37.172,22h5.657v4H37.172Z" transform="translate(-5.255 35.314) rotate(-45)" fill="#383838"/>
      <path id="Trazado_1024403" data-name="Trazado 1024403" d="M19.834,19.063h4.243v5.784H19.834Z" transform="translate(-9.094 21.955) rotate(-45)" fill="#383838"/>
      <path id="Trazado_1024404" data-name="Trazado 1024404" d="M38.467,44.533,48,48l-3.467-9.533" fill="#b1dbfc"/>
      <path id="Trazado_1024405" data-name="Trazado 1024405" d="M31.886,33.654H44.614v9.192H31.886Z" transform="translate(-15.844 38.25) rotate(-45)" fill="#4c4c4c"/>
      <path id="Trazado_1024406" data-name="Trazado 1024406" d="M39.5,30.5,32,38l2.119,2.119a4.075,4.075,0,0,0,5.762,0L44.5,35.5Z" fill="#686868"/>
      <path id="Trazado_1024407" data-name="Trazado 1024407" d="M23.515,27.757H40.486v8.485H23.515Z" transform="translate(-13.255 32) rotate(-45)" fill="#b1dbfc"/>
      <path id="Trazado_1024408" data-name="Trazado 1024408" d="M46,62V60A14.015,14.015,0,0,0,60,46h2A16.019,16.019,0,0,1,46,62Z" fill="#86ddfa"/>
      <path id="Trazado_1024409" data-name="Trazado 1024409" d="M46,58V56A10.011,10.011,0,0,0,56,46h2A12.013,12.013,0,0,1,46,58Z" fill="#86ddfa"/>
      <path id="Trazado_1024410" data-name="Trazado 1024410" d="M46,54V52a6.006,6.006,0,0,0,6-6h2A8.009,8.009,0,0,1,46,54Z" fill="#86ddfa"/>
      <g id="Grupo_1171051" data-name="Grupo 1171051">
        <path id="Trazado_1024411" data-name="Trazado 1024411" d="M33,37l1.172,1.172a2.828,2.828,0,0,0,4-4L37,33" fill="#4c4c4c"/>
        <path id="Trazado_1024412" data-name="Trazado 1024412" d="M24,34l-3.293-3.293a2.414,2.414,0,0,1,0-3.414l6.586-6.586a2.414,2.414,0,0,1,3.414,0L34,24Z" fill="#4c4c4c"/>
        <path id="Trazado_1024413" data-name="Trazado 1024413" d="M23,13A10,10,0,0,1,5.93,20.07L20.07,5.93A9.969,9.969,0,0,1,23,13Z" fill="#4c4c4c"/>
        <path id="Trazado_1024414" data-name="Trazado 1024414" d="M26,48a4.828,4.828,0,0,1-1.414,3.414l-9.172,9.172a4.828,4.828,0,0,1-6.828,0L3.414,55.414a4.828,4.828,0,0,1,0-6.828l9.172-9.172a4.828,4.828,0,0,1,6.828,0l5.172,5.172A4.828,4.828,0,0,1,26,48Z" fill="#4c4c4c"/>
      </g>
      <path id="Trazado_1024415" data-name="Trazado 1024415" d="M19.414,39.414a4.828,4.828,0,0,0-6.828,0L3.414,48.586A4.813,4.813,0,0,0,2.449,50a4.813,4.813,0,0,0,.965,1.414l5.172,5.172a4.828,4.828,0,0,0,6.828,0l9.172-9.172A4.813,4.813,0,0,0,25.551,46a4.813,4.813,0,0,0-.965-1.414Z" fill="#686868"/>
      <path id="Trazado_1024416" data-name="Trazado 1024416" d="M5.5,46.5l12,12-2.526,2.474L3.029,49.029Z" fill="#b1dbfc"/>
      <path id="Trazado_1024417" data-name="Trazado 1024417" d="M24.974,50.974,13.026,39.026,10.5,41.5l12,12Z" fill="#b1dbfc"/>
      <path id="Trazado_1024418" data-name="Trazado 1024418" d="M3.029,49.029,12,58a4.828,4.828,0,0,0,3.414-1.414L15.5,56.5l-10-10Z" fill="#dfeafa"/>
      <path id="Trazado_1024419" data-name="Trazado 1024419" d="M13.026,39.026,10.5,41.5l10,10L23,49Z" fill="#dfeafa"/>
      <path id="Trazado_1024420" data-name="Trazado 1024420" d="M62,12a4.828,4.828,0,0,1-1.414,3.414l-9.172,9.172a4.828,4.828,0,0,1-6.828,0l-5.172-5.172a4.828,4.828,0,0,1,0-6.828l9.172-9.172a4.828,4.828,0,0,1,6.828,0l5.172,5.172A4.828,4.828,0,0,1,62,12Z" fill="#4c4c4c"/>
      <path id="Trazado_1024421" data-name="Trazado 1024421" d="M55.414,3.414a4.828,4.828,0,0,0-6.828,0l-9.172,9.172A4.813,4.813,0,0,0,38.449,14a4.813,4.813,0,0,0,.965,1.414l5.172,5.172a4.828,4.828,0,0,0,6.828,0l9.172-9.172A4.813,4.813,0,0,0,61.551,10a4.813,4.813,0,0,0-.965-1.414Z" fill="#686868"/>
      <path id="Trazado_1024422" data-name="Trazado 1024422" d="M41.5,10.5l12,12-2.526,2.474L39.029,13.029Z" fill="#b1dbfc"/>
      <path id="Trazado_1024423" data-name="Trazado 1024423" d="M60.974,14.974,49.026,3.026,46.5,5.5l12,12Z" fill="#b1dbfc"/>
      <path id="Trazado_1024424" data-name="Trazado 1024424" d="M39.029,13.029,48,22a4.828,4.828,0,0,0,3.414-1.414L51.5,20.5l-10-10Z" fill="#dfeafa"/>
      <path id="Trazado_1024425" data-name="Trazado 1024425" d="M49.026,3.026,46.5,5.5l10,10L59,13Z" fill="#dfeafa"/>
      <path id="Trazado_1024426" data-name="Trazado 1024426" d="M39.542,43.458l7.843,2.852-2.852-7.843Z" fill="#dfeafa"/>
      <path id="Trazado_1024427" data-name="Trazado 1024427" d="M35,23,24,34l2.232,2.232a3.914,3.914,0,0,0,5.536,0L40,28Z" fill="#dfeafa"/>
      <path id="Trazado_1024428" data-name="Trazado 1024428" d="M30.707,20.707a2.414,2.414,0,0,0-3.414,0l-6.586,6.586a2.408,2.408,0,0,0-.483.707,2.408,2.408,0,0,0,.483.707L22,30a2.829,2.829,0,0,0,4,0l7-7Z" fill="#686868"/>
      <path id="Trazado_1024429" data-name="Trazado 1024429" d="M7.6,18.4a9.976,9.976,0,0,0,15.279-6.9,9.971,9.971,0,0,0-2.8-5.57Z" fill="#686868"/>
      <path id="Trazado_1024430" data-name="Trazado 1024430" d="M56.121,2.707a5.828,5.828,0,0,0-8.242,0l-9.172,9.172a5.828,5.828,0,0,0,0,8.242l.465.465-2.586,2.586-.879-.879a1,1,0,0,0-1.414,0L34,22.586,31.415,20a3.5,3.5,0,0,0-4.829,0L25.5,21.086,22.664,18.25A10.99,10.99,0,0,0,20.777,5.223a1,1,0,0,0-1.414,0L5.223,19.363a1,1,0,0,0,0,1.414A10.99,10.99,0,0,0,18.25,22.664L21.086,25.5,20,26.586a3.414,3.414,0,0,0,0,4.828L22.586,34l-.293.293a1,1,0,0,0,0,1.414l.879.879-2.586,2.586-.465-.465a5.828,5.828,0,0,0-8.242,0L2.707,47.879a5.828,5.828,0,0,0,0,8.242l5.172,5.172a5.828,5.828,0,0,0,8.242,0l9.172-9.172a5.828,5.828,0,0,0,0-8.242l-.465-.465,2.586-2.586.879.879a1,1,0,0,0,1.414,0l.793-.793,5.793,5.793a1,1,0,0,0,1.414,0l1.017-1.017,8.934,3.249a1,1,0,0,0,1.282-1.281l-3.249-8.935,1.016-1.016a1,1,0,0,0,0-1.414L40.914,30.5l.793-.793a1,1,0,0,0,0-1.414l-.879-.879,2.586-2.586.465.465a5.828,5.828,0,0,0,8.242,0l9.172-9.172a5.828,5.828,0,0,0,0-8.242ZM54.707,4.121l5.172,5.172a3.767,3.767,0,0,1,.868,4.039L50.665,3.25a3.786,3.786,0,0,1,4.042.871ZM40.414,13,41.5,11.914,52.086,22.5,51,23.586Zm2.5-2.5L46.5,6.914,57.086,17.5,53.5,21.086Zm5-5L49,4.414,59.586,15,58.5,16.086ZM7.383,20.031,20.031,7.383A9,9,0,0,1,7.383,20.031Zm12.556,1.494a11.059,11.059,0,0,0,1.586-1.586L24.086,22.5,22.5,24.086ZM21.415,30a1.414,1.414,0,0,1,0-2L28,21.414a1.447,1.447,0,0,1,2,0L32.586,24,24,32.586Zm-17,19L5.5,47.914,16.086,58.5,15,59.586Zm2.5-2.5L10.5,42.914,21.086,53.5,17.5,57.086Zm5-5L13,40.414,23.586,51,22.5,52.086ZM9.293,59.879,4.121,54.707a3.769,3.769,0,0,1-.868-4.04L13.317,60.731a3.92,3.92,0,0,1-4.024-.852ZM24.747,49.332,14.665,39.25a3.786,3.786,0,0,1,4.042.871l5.172,5.172a3.767,3.767,0,0,1,.868,4.039ZM23.414,42,22,40.586,24.586,38,26,39.414ZM29,39.586,24.414,35,35,24.414,39.586,29Zm8.465-4.707a1.829,1.829,0,0,1-2.587,2.586L34.414,37,37,34.414Zm8.863,11.449-6.044-2.2,3.846-3.846ZM44.586,37,37,44.586,31.914,39.5,33,38.414l.465.465a3.828,3.828,0,1,0,5.413-5.414L38.414,33,39.5,31.914ZM39.414,26,38,24.586,40.586,22,42,23.414Zm5.879-2.121-5.172-5.172a3.769,3.769,0,0,1-.868-4.04L49.317,24.731a3.92,3.92,0,0,1-4.024-.852Z"/>
      <path id="Trazado_1024431" data-name="Trazado 1024431" d="M46,60v2A16.019,16.019,0,0,0,62,46H60A14.015,14.015,0,0,1,46,60Z"/>
      <path id="Trazado_1024432" data-name="Trazado 1024432" d="M46,58A12.013,12.013,0,0,0,58,46H56A10.011,10.011,0,0,1,46,56Z"/>
      <path id="Trazado_1024433" data-name="Trazado 1024433" d="M52,46a6.006,6.006,0,0,1-6,6v2a8.009,8.009,0,0,0,8-8Z"/>
    </g>
  </g>
</svg>
