<svg xmlns="http://www.w3.org/2000/svg" xmlns:xlink="http://www.w3.org/1999/xlink" width="113" height="113" viewBox="0 0 113 113">
  <defs>
    <filter id="Trazado_1024112" x="0" y="0" width="113" height="113" filterUnits="userSpaceOnUse">
      <feOffset dy="3" input="SourceAlpha"/>
      <feGaussianBlur stdDeviation="3" result="blur"/>
      <feFlood flood-opacity="0.161"/>
      <feComposite operator="in" in2="blur"/>
      <feComposite in="SourceGraphic"/>
    </filter>
  </defs>
  <g id="Grupo_1171054" data-name="Grupo 1171054" transform="translate(-1164 -9574.313)">
    <g transform="matrix(1, 0, 0, 1, 1164, 9574.31)" filter="url(#Trazado_1024112)">
      <g id="Trazado_1024112-2" data-name="Trazado 1024112" transform="translate(9 6)" fill="#e8e7f2">
        <path d="M 47.5 93.5 C 41.28937149047852 93.5 35.26533508300781 92.28397369384766 29.59518623352051 89.88570404052734 C 24.11771965026855 87.56893157958984 19.19813346862793 84.25196075439453 14.97309303283691 80.02691650390625 C 10.74804019927979 75.80186462402344 7.431066513061523 70.88229370117188 5.114293098449707 65.40481567382812 C 2.716026782989502 59.73468017578125 1.5 53.71062850952148 1.5 47.5 C 1.5 41.28937149047852 2.716026782989502 35.26533508300781 5.114293098449707 29.59518623352051 C 7.431066513061523 24.11771965026855 10.74804019927979 19.19813346862793 14.97309303283691 14.97309303283691 C 19.19813346862793 10.74804019927979 24.11771965026855 7.431066513061523 29.59518623352051 5.114293098449707 C 35.26533508300781 2.716026782989502 41.28937149047852 1.5 47.5 1.5 C 53.71062850952148 1.5 59.73468017578125 2.716026782989502 65.40481567382812 5.114293098449707 C 70.88229370117188 7.431066513061523 75.80186462402344 10.74804019927979 80.02691650390625 14.97309303283691 C 84.25196075439453 19.19813346862793 87.56893157958984 24.11771965026855 89.88570404052734 29.59518623352051 C 92.28397369384766 35.26533508300781 93.5 41.28937149047852 93.5 47.5 C 93.5 53.71062850952148 92.28397369384766 59.73468017578125 89.88570404052734 65.40481567382812 C 87.56893157958984 70.88229370117188 84.25196075439453 75.80186462402344 80.02691650390625 80.02691650390625 C 75.80186462402344 84.25196075439453 70.88229370117188 87.56893157958984 65.40481567382812 89.88570404052734 C 59.73468017578125 92.28397369384766 53.71062850952148 93.5 47.5 93.5 Z" stroke="none"/>
        <path d="M 47.5 3 C 41.49121475219727 3 35.66376876831055 4.176155090332031 30.17950439453125 6.495796203613281 C 24.88084411621094 8.736953735351562 20.12152099609375 11.94598388671875 16.03375244140625 16.03375244140625 C 11.94598388671875 20.12152099609375 8.736953735351562 24.88084411621094 6.495796203613281 30.17950439453125 C 4.176155090332031 35.66376876831055 3 41.49121475219727 3 47.5 C 3 53.50878524780273 4.176155090332031 59.33623123168945 6.495796203613281 64.82049560546875 C 8.736953735351562 70.11915588378906 11.94598388671875 74.87847900390625 16.03375244140625 78.96624755859375 C 20.12152099609375 83.05401611328125 24.88084411621094 86.26304626464844 30.17950439453125 88.50419616699219 C 35.66376876831055 90.82384490966797 41.49121475219727 92 47.5 92 C 53.50878524780273 92 59.33623123168945 90.82384490966797 64.82049560546875 88.50419616699219 C 70.11915588378906 86.26304626464844 74.87847900390625 83.05401611328125 78.96624755859375 78.96624755859375 C 83.05401611328125 74.87847900390625 86.26304626464844 70.11915588378906 88.50419616699219 64.82049560546875 C 90.82384490966797 59.33623123168945 92 53.50878524780273 92 47.5 C 92 41.49121475219727 90.82384490966797 35.66376876831055 88.50419616699219 30.17950439453125 C 86.26304626464844 24.88084411621094 83.05401611328125 20.12152099609375 78.96624755859375 16.03375244140625 C 74.87847900390625 11.94598388671875 70.11915588378906 8.736953735351562 64.82049560546875 6.495796203613281 C 59.33623123168945 4.176155090332031 53.50878524780273 3 47.5 3 M 47.5 0 C 73.7335205078125 0 95 21.2664794921875 95 47.5 C 95 73.7335205078125 73.7335205078125 95 47.5 95 C 21.2664794921875 95 0 73.7335205078125 0 47.5 C 0 21.2664794921875 21.2664794921875 0 47.5 0 Z" stroke="none" fill="#292584"/>
      </g>
    </g>
    <g id="Layer_15" data-name="Layer 15" transform="translate(1189 9599)">
      <rect id="Rectángulo_414380" data-name="Rectángulo 414380" width="22" height="38" rx="2" transform="translate(30 16)" fill="#4d5d7a"/>
      <path id="Trazado_1024434" data-name="Trazado 1024434" d="M30,18V43.59c8-2,14-10.88,14-21.59a27.31,27.31,0,0,0-.66-6H32A2,2,0,0,0,30,18Z" fill="#717d95"/>
      <path id="Trazado_1024435" data-name="Trazado 1024435" d="M34,20H48V30H34Z" fill="#b9e4f9"/>
      <path id="Trazado_1024436" data-name="Trazado 1024436" d="M34,30h8.81A27.29,27.29,0,0,0,44,22a16.555,16.555,0,0,0-.08-2H34Z" fill="#e3f4fd"/>
      <path id="Trazado_1024437" data-name="Trazado 1024437" d="M42,12h8v4H42Z" fill="#4d5d7a"/>
      <path id="Trazado_1024438" data-name="Trazado 1024438" d="M44,2h4V12H44Z" fill="#4d5d7a"/>
      <path id="Trazado_1024439" data-name="Trazado 1024439" d="M38,54l4,4h3l3,4L62,51l-4-5V33a6,6,0,0,0-6-6H48a3,3,0,0,0,0,6h4V52a2,2,0,0,1-2,2Z" fill="#efbe9a"/>
      <rect id="Rectángulo_414381" data-name="Rectángulo 414381" width="8" height="6" rx="3" transform="translate(26 45)" fill="#efbe9a"/>
      <rect id="Rectángulo_414382" data-name="Rectángulo 414382" width="8" height="6" rx="3" transform="translate(26 39)" fill="#efbe9a"/>
      <rect id="Rectángulo_414383" data-name="Rectángulo 414383" width="8" height="6" rx="3" transform="translate(26 33)" fill="#efbe9a"/>
      <rect id="Rectángulo_414384" data-name="Rectángulo 414384" width="8" height="6" rx="3" transform="translate(26 27)" fill="#efbe9a"/>
      <path id="Trazado_1024440" data-name="Trazado 1024440" d="M1,9H14.76a3,3,0,0,1,2.12.88L21,14V11.77A9.764,9.764,0,0,0,11.23,2H1Z" fill="#976947"/>
      <path id="Trazado_1024441" data-name="Trazado 1024441" d="M2,45H8a4.83,4.83,0,0,0,3.41-1.41l1.18-1.18A4.83,4.83,0,0,0,14,39L6,34l8-5V26h6a7.241,7.241,0,0,0-2.121-5.121L14,17V9H2Z" fill="#efbe9a"/>
      <g id="Grupo_1171053" data-name="Grupo 1171053">
        <path id="Trazado_1024442" data-name="Trazado 1024442" d="M52,26V18a2,2,0,0,0-2-2H32a2,2,0,0,0-2,2v9" fill="none" stroke="#000" stroke-linejoin="round" stroke-width="2"/>
        <rect id="Rectángulo_414385" data-name="Rectángulo 414385" width="8" height="6" rx="3" transform="translate(26 45)" fill="none" stroke="#000" stroke-linejoin="round" stroke-width="2"/>
        <rect id="Rectángulo_414386" data-name="Rectángulo 414386" width="8" height="6" rx="3" transform="translate(26 39)" fill="none" stroke="#000" stroke-linejoin="round" stroke-width="2"/>
        <rect id="Rectángulo_414387" data-name="Rectángulo 414387" width="8" height="6" rx="3" transform="translate(26 33)" fill="none" stroke="#000" stroke-linejoin="round" stroke-width="2"/>
        <rect id="Rectángulo_414388" data-name="Rectángulo 414388" width="8" height="6" rx="3" transform="translate(26 27)" fill="none" stroke="#000" stroke-linejoin="round" stroke-width="2"/>
        <path id="Trazado_1024443" data-name="Trazado 1024443" d="M30,51v1a2,2,0,0,0,2,2H50a2,2,0,0,0,2-2V33H48a3,3,0,0,1,0-6h4a6,6,0,0,1,6,6V46l4,5L48,62l-3-4H42l-4-4" fill="none" stroke="#000" stroke-linejoin="round" stroke-width="2"/>
        <path id="Trazado_1024444" data-name="Trazado 1024444" d="M42,16V12h8v4" fill="none" stroke="#000" stroke-linejoin="round" stroke-width="2"/>
        <path id="Trazado_1024445" data-name="Trazado 1024445" d="M44,12V2h4V12" fill="none" stroke="#000" stroke-linejoin="round" stroke-width="2"/>
        <path id="Trazado_1024446" data-name="Trazado 1024446" d="M45,30H34V20H48v7" fill="none" stroke="#000" stroke-linejoin="round" stroke-width="2"/>
        <path id="Trazado_1024447" data-name="Trazado 1024447" d="M37,34h2" fill="none" stroke="#000" stroke-linejoin="round" stroke-width="2"/>
        <path id="Trazado_1024448" data-name="Trazado 1024448" d="M41,34h2" fill="none" stroke="#000" stroke-linejoin="round" stroke-width="2"/>
        <path id="Trazado_1024449" data-name="Trazado 1024449" d="M37,38h2" fill="none" stroke="#000" stroke-linejoin="round" stroke-width="2"/>
        <path id="Trazado_1024450" data-name="Trazado 1024450" d="M41,38h2" fill="none" stroke="#000" stroke-linejoin="round" stroke-width="2"/>
        <path id="Trazado_1024451" data-name="Trazado 1024451" d="M45,38h2" fill="none" stroke="#000" stroke-linejoin="round" stroke-width="2"/>
        <path id="Trazado_1024452" data-name="Trazado 1024452" d="M37,42h2" fill="none" stroke="#000" stroke-linejoin="round" stroke-width="2"/>
        <path id="Trazado_1024453" data-name="Trazado 1024453" d="M41,42h2" fill="none" stroke="#000" stroke-linejoin="round" stroke-width="2"/>
        <path id="Trazado_1024454" data-name="Trazado 1024454" d="M45,42h2" fill="none" stroke="#000" stroke-linejoin="round" stroke-width="2"/>
        <path id="Trazado_1024455" data-name="Trazado 1024455" d="M37,46h2" fill="none" stroke="#000" stroke-linejoin="round" stroke-width="2"/>
        <path id="Trazado_1024456" data-name="Trazado 1024456" d="M41,46h2" fill="none" stroke="#000" stroke-linejoin="round" stroke-width="2"/>
        <path id="Trazado_1024457" data-name="Trazado 1024457" d="M45,46h2" fill="none" stroke="#000" stroke-linejoin="round" stroke-width="2"/>
        <path id="Trazado_1024458" data-name="Trazado 1024458" d="M33.22,50H52" fill="none" stroke="#000" stroke-linejoin="round" stroke-width="2"/>
        <path id="Trazado_1024459" data-name="Trazado 1024459" d="M1,9H14.76a3,3,0,0,1,2.12.88L21,14V11.77A9.764,9.764,0,0,0,11.23,2H1" fill="none" stroke="#000" stroke-linejoin="round" stroke-width="2"/>
        <path id="Trazado_1024460" data-name="Trazado 1024460" d="M1,45H8a4.83,4.83,0,0,0,3.41-1.41l1.18-1.18A4.83,4.83,0,0,0,14,39L6,34l8-5V26h6a7.241,7.241,0,0,0-2.121-5.121L14,17V9" fill="none" stroke="#000" stroke-linejoin="round" stroke-width="2"/>
        <path id="Trazado_1024461" data-name="Trazado 1024461" d="M36,11l-.59-.59a4.828,4.828,0,0,0-6.82,0L28,11" fill="none" stroke="#000" stroke-linejoin="round" stroke-width="2"/>
        <path id="Trazado_1024462" data-name="Trazado 1024462" d="M39,8l-.17-.17a9.657,9.657,0,0,0-13.66,0L25,8" fill="none" stroke="#000" stroke-linejoin="round" stroke-width="2"/>
        <path id="Trazado_1024463" data-name="Trazado 1024463" d="M14,35l3-3,3,3,3-3" fill="none" stroke="#000" stroke-linejoin="round" stroke-width="2"/>
      </g>
    </g>
  </g>
</svg>
