<svg xmlns="http://www.w3.org/2000/svg" xmlns:xlink="http://www.w3.org/1999/xlink" width="108" height="108" viewBox="0 0 108 108">
  <defs>
    <filter id="Trazado_978624" x="0" y="0" width="108" height="108" filterUnits="userSpaceOnUse">
      <feOffset dy="3" input="SourceAlpha"/>
      <feGaussianBlur stdDeviation="3" result="blur"/>
      <feFlood flood-opacity="0.161"/>
      <feComposite operator="in" in2="blur"/>
      <feComposite in="SourceGraphic"/>
    </filter>
  </defs>
  <g id="Grupo_1166160" data-name="Grupo 1166160" transform="translate(-198 -1710)">
    <g id="Grupo_1164551" data-name="Grupo 1164551" transform="translate(207 1716)">
      <g id="Grupo_1164479" data-name="Grupo 1164479">
        <g id="Grupo_1144123" data-name="Grupo 1144123">
          <g transform="matrix(1, 0, 0, 1, -9, -6)" filter="url(#Trazado_978624)">
            <g id="Trazado_978624-2" data-name="Trazado 978624" transform="translate(9 6)" fill="#eaf5f4">
              <path d="M 45 88.5 C 39.12687683105469 88.5 33.43022537231445 87.35007476806641 28.06830024719238 85.08217620849609 C 22.88852500915527 82.89131164550781 18.23629951477051 79.75458526611328 14.2408504486084 75.75914764404297 C 10.24541282653809 71.76370239257812 7.108687400817871 67.11147308349609 4.917825222015381 61.93170166015625 C 2.649924993515015 56.56977462768555 1.5 50.87312316894531 1.5 45 C 1.5 39.12687683105469 2.649924993515015 33.43022537231445 4.917825222015381 28.06830024719238 C 7.108687400817871 22.88852500915527 10.24541282653809 18.23629951477051 14.2408504486084 14.2408504486084 C 18.23629951477051 10.24541282653809 22.88852500915527 7.108687400817871 28.06830024719238 4.917825222015381 C 33.43022537231445 2.649924993515015 39.12687683105469 1.5 45 1.5 C 50.87312316894531 1.5 56.56977462768555 2.649924993515015 61.93170166015625 4.917825222015381 C 67.11147308349609 7.108687400817871 71.76370239257812 10.24541282653809 75.75914764404297 14.2408504486084 C 79.75458526611328 18.23629951477051 82.89131164550781 22.88852500915527 85.08217620849609 28.06830024719238 C 87.35007476806641 33.43022537231445 88.5 39.12687683105469 88.5 45 C 88.5 50.87312316894531 87.35007476806641 56.56977462768555 85.08217620849609 61.93170166015625 C 82.89131164550781 67.11147308349609 79.75458526611328 71.76370239257812 75.75914764404297 75.75914764404297 C 71.76370239257812 79.75458526611328 67.11147308349609 82.89131164550781 61.93170166015625 85.08217620849609 C 56.56977462768555 87.35007476806641 50.87312316894531 88.5 45 88.5 Z" stroke="none"/>
              <path d="M 45 3 C 39.32871246337891 3 33.82865524291992 4.110054016113281 28.65262985229492 6.299339294433594 C 23.65165710449219 8.414573669433594 19.15968322753906 11.44334411621094 15.301513671875 15.301513671875 C 11.44334411621094 19.15968322753906 8.414573669433594 23.65165710449219 6.299339294433594 28.65262985229492 C 4.110054016113281 33.82865524291992 3 39.32871246337891 3 45 C 3 50.67128753662109 4.110054016113281 56.17134475708008 6.299339294433594 61.34737396240234 C 8.414573669433594 66.34834289550781 11.44334411621094 70.84031677246094 15.301513671875 74.698486328125 C 19.15968322753906 78.55665588378906 23.65165710449219 81.58542633056641 28.65262985229492 83.70066070556641 C 33.82865524291992 85.88994598388672 39.32871246337891 87 45 87 C 50.67128753662109 87 56.17134475708008 85.88994598388672 61.34737396240234 83.70066070556641 C 66.34834289550781 81.58542633056641 70.84031677246094 78.55665588378906 74.698486328125 74.698486328125 C 78.55665588378906 70.84031677246094 81.58542633056641 66.34834289550781 83.70066070556641 61.34737396240234 C 85.88994598388672 56.17134475708008 87 50.67128753662109 87 45 C 87 39.32871246337891 85.88994598388672 33.82865524291992 83.70066070556641 28.65262985229492 C 81.58542633056641 23.65165710449219 78.55665588378906 19.15968322753906 74.698486328125 15.301513671875 C 70.84031677246094 11.44334411621094 66.34834289550781 8.414573669433594 61.34737396240234 6.299339294433594 C 56.17134475708008 4.110054016113281 50.67128753662109 3 45 3 M 45 0 C 69.85281372070312 0 90 20.14718627929688 90 45 C 90 69.85281372070312 69.85281372070312 90 45 90 C 20.14718627929688 90 0 69.85281372070312 0 45 C 0 20.14718627929688 20.14718627929688 0 45 0 Z" stroke="none" fill="#41a599"/>
            </g>
          </g>
        </g>
      </g>
    </g>
    <g id="compliant_4252360_2_" data-name="compliant_4252360 (2)" transform="translate(211.451 1733.935)">
      <g id="Grupo_1166136" data-name="Grupo 1166136" transform="translate(25.781 0.793)">
        <path id="Trazado_1022303" data-name="Trazado 1022303" d="M150.511,7.5H116.844a.529.529,0,0,0-.529.529V22.685h3.467a2.591,2.591,0,0,1,.181,5.175v3.214h0a1.057,1.057,0,0,1,.9,1.044V38.68a1.057,1.057,0,0,1-.9,1.044h0v3.214a2.591,2.591,0,0,1-.181,5.175h-3.467v4.339h7.3a1.057,1.057,0,0,1,1.057,1.057v2.106h.805a1.057,1.057,0,0,1,1.057,1.057v3.372H151.04V8.029A.529.529,0,0,0,150.511,7.5Z" transform="translate(-116.315 -7.5)" fill="#fff3de"/>
      </g>
      <g id="Grupo_1166137" data-name="Grupo 1166137" transform="translate(25.781 0.793)">
        <path id="Trazado_1022304" data-name="Trazado 1022304" d="M119.782,22.685l.094,0V8.029A.529.529,0,0,1,120.4,7.5h-3.561a.529.529,0,0,0-.529.529V22.685Z" transform="translate(-116.315 -7.5)" fill="#ffe5c2"/>
        <path id="Trazado_1022305" data-name="Trazado 1022305" d="M119.782,391.629h-3.467v4.339h3.561v-4.341Z" transform="translate(-116.315 -351.016)" fill="#ffe5c2"/>
      </g>
      <g id="Grupo_1166155" data-name="Grupo 1166155" transform="translate(15.871 15.978)">
        <g id="Grupo_1166138" data-name="Grupo 1166138" transform="translate(14.454 10.907)">
          <path id="Trazado_1022306" data-name="Trazado 1022306" d="M159.3,254.29h4.894v3.615H159.3Z" transform="translate(-159.296 -254.29)" fill="#883f2e"/>
          <path id="Trazado_1022307" data-name="Trazado 1022307" d="M237.5,254.29h6.99v3.615H237.5Z" transform="translate(-229.234 -254.29)" fill="#883f2e"/>
        </g>
        <g id="Grupo_1166139" data-name="Grupo 1166139" transform="translate(14.454 12.779)">
          <path id="Trazado_1022308" data-name="Trazado 1022308" d="M159.3,272h4.894v1.743H159.3Z" transform="translate(-159.296 -272)" fill="#6d3326"/>
          <path id="Trazado_1022309" data-name="Trazado 1022309" d="M237.5,272h6.99v1.743H237.5Z" transform="translate(-229.234 -272)" fill="#6d3326"/>
        </g>
        <g id="Grupo_1166140" data-name="Grupo 1166140" transform="translate(29.712 10.063)">
          <path id="Trazado_1022310" data-name="Trazado 1022310" d="M323.26,248.961a2.651,2.651,0,0,1-2.651,2.651h-16.39a.6.6,0,0,1-.6-.6v-4.1a.6.6,0,0,1,.6-.6h16.39A2.652,2.652,0,0,1,323.26,248.961Z" transform="translate(-303.616 -246.31)" fill="#ca6e59"/>
        </g>
        <g id="Grupo_1166141" data-name="Grupo 1166141" transform="translate(29.712 10.063)">
          <path id="Trazado_1022311" data-name="Trazado 1022311" d="M307.219,249.343a.6.6,0,0,1-.6-.6V246.31h-2.4a.6.6,0,0,0-.6.6v4.1a.6.6,0,0,0,.6.6h16.39a2.652,2.652,0,0,0,2.624-2.27Z" transform="translate(-303.616 -246.31)" fill="#bb5d4c"/>
        </g>
        <g id="Grupo_1166142" data-name="Grupo 1166142" transform="translate(19.348 10.063)">
          <path id="Trazado_1022312" data-name="Trazado 1022312" d="M208.959,246.84v4.245a.529.529,0,0,1-.529.529h-2.317a.529.529,0,0,1-.529-.529V246.84a.529.529,0,0,1,.529-.529h2.317A.529.529,0,0,1,208.959,246.84Z" transform="translate(-205.585 -246.311)" fill="#ca6e59"/>
        </g>
        <g id="Grupo_1166143" data-name="Grupo 1166143" transform="translate(19.348 10.063)">
          <path id="Trazado_1022313" data-name="Trazado 1022313" d="M207.118,251.085V246.84a.529.529,0,0,1,.529-.529h-1.533a.529.529,0,0,0-.529.529v4.245a.529.529,0,0,0,.529.529h1.533A.529.529,0,0,1,207.118,251.085Z" transform="translate(-205.585 -246.311)" fill="#bb5d4c"/>
        </g>
        <g id="Grupo_1166144" data-name="Grupo 1166144" transform="translate(6.568 5.175)">
          <path id="Trazado_1022314" data-name="Trazado 1022314" d="M91.532,312.311H84.864a1.064,1.064,0,0,1-.161-.014v3.214c.06,0,.12-.007.181-.007h6.628c.061,0,.121,0,.181.007V312.3A1.048,1.048,0,0,1,91.532,312.311Z" transform="translate(-84.703 -300.433)" fill="#883f2e"/>
          <path id="Trazado_1022315" data-name="Trazado 1022315" d="M84.864,312.311a1.064,1.064,0,0,1-.161-.014v3.214c.06,0,.12-.007.181-.007h2.482V312.31h-2.5Z" transform="translate(-84.703 -300.433)" fill="#6d3326"/>
          <path id="Trazado_1022316" data-name="Trazado 1022316" d="M84.864,203.28h6.668a1.063,1.063,0,0,1,.161.014v-3.214c-.06,0-.12.007-.181.007H84.884c-.061,0-.121,0-.181-.007v3.214A1.064,1.064,0,0,1,84.864,203.28Z" transform="translate(-84.703 -200.079)" fill="#883f2e"/>
          <path id="Trazado_1022317" data-name="Trazado 1022317" d="M84.864,203.279h2.5v-3.194H84.884c-.061,0-.121,0-.181-.007v3.214A1.076,1.076,0,0,1,84.864,203.279Z" transform="translate(-84.703 -200.078)" fill="#6d3326"/>
        </g>
        <g id="Grupo_1166145" data-name="Grupo 1166145" transform="translate(5.672 8.376)">
          <path id="Trazado_1022318" data-name="Trazado 1022318" d="M85.008,231.409v6.563a1.057,1.057,0,0,1-1.057,1.057H77.282a1.057,1.057,0,0,1-1.057-1.057v-6.563a1.057,1.057,0,0,1,1.057-1.057H83.95A1.057,1.057,0,0,1,85.008,231.409Z" transform="translate(-76.225 -230.352)" fill="#ca6e59"/>
        </g>
        <g id="Grupo_1166146" data-name="Grupo 1166146" transform="translate(5.672 8.376)">
          <path id="Trazado_1022319" data-name="Trazado 1022319" d="M79.8,237.972v-6.563a1.057,1.057,0,0,1,1.057-1.057H77.282a1.057,1.057,0,0,0-1.057,1.057v6.563a1.057,1.057,0,0,0,1.057,1.057h3.571A1.057,1.057,0,0,1,79.8,237.972Z" transform="translate(-76.225 -230.352)" fill="#bb5d4c"/>
        </g>
        <g id="Grupo_1166149" data-name="Grupo 1166149" transform="translate(0 29.767)">
          <path id="Trazado_1022320" data-name="Trazado 1022320" d="M56.59,435.954a1.082,1.082,0,0,0,.005-.108v-2.1a1.057,1.057,0,0,0-1.057-1.057H41.252a1.057,1.057,0,0,0-1.057,1.057v2.1a1.081,1.081,0,0,0,.005.108Z" transform="translate(-38.332 -432.685)" fill="#ca6e59"/>
          <path id="Trazado_1022321" data-name="Trazado 1022321" d="M43.774,435.954a1.082,1.082,0,0,1-.005-.108v-2.1a1.057,1.057,0,0,1,1.057-1.057H41.252a1.057,1.057,0,0,0-1.057,1.057v2.1a1.081,1.081,0,0,0,.006.108Z" transform="translate(-38.332 -432.685)" fill="#bb5d4c"/>
          <g id="Grupo_1166147" data-name="Grupo 1166147" transform="translate(0 3.164)">
            <path id="Trazado_1022322" data-name="Trazado 1022322" d="M42.7,467.037h-19.6a.529.529,0,0,1-.529-.529v-2.843a1.057,1.057,0,0,1,1.057-1.057H41.647a1.057,1.057,0,0,1,1.057,1.057Z" transform="translate(-22.578 -462.608)" fill="#883f2e"/>
          </g>
          <g id="Grupo_1166148" data-name="Grupo 1166148" transform="translate(0 3.164)">
            <path id="Trazado_1022323" data-name="Trazado 1022323" d="M26.111,466.508v-2.843a1.057,1.057,0,0,1,1.057-1.057H23.635a1.057,1.057,0,0,0-1.057,1.057v2.843a.529.529,0,0,0,.529.529H26.64A.529.529,0,0,1,26.111,466.508Z" transform="translate(-22.578 -462.608)" fill="#6d3326"/>
          </g>
        </g>
        <g id="Grupo_1166154" data-name="Grupo 1166154" transform="translate(4.158)">
          <g id="Grupo_1166150" data-name="Grupo 1166150" transform="translate(0 20.246)">
            <path id="Trazado_1022324" data-name="Trazado 1022324" d="M73.715,345.224a2.591,2.591,0,0,1-2.591,2.591H64.5a2.591,2.591,0,0,1,0-5.182h6.628A2.591,2.591,0,0,1,73.715,345.224Z" transform="translate(-61.905 -342.633)" fill="#ca6e59"/>
          </g>
          <g id="Grupo_1166151" data-name="Grupo 1166151" transform="translate(0 20.246)">
            <path id="Trazado_1022325" data-name="Trazado 1022325" d="M65.434,345.224a2.591,2.591,0,0,1,2.591-2.591H64.5a2.591,2.591,0,0,0,0,5.182h3.529A2.591,2.591,0,0,1,65.434,345.224Z" transform="translate(-61.905 -342.633)" fill="#bb5d4c"/>
          </g>
          <g id="Grupo_1166152" data-name="Grupo 1166152" transform="translate(0)">
            <path id="Trazado_1022326" data-name="Trazado 1022326" d="M73.715,153.719a2.591,2.591,0,0,1-2.591,2.591H64.5a2.591,2.591,0,1,1,0-5.182h6.628A2.591,2.591,0,0,1,73.715,153.719Z" transform="translate(-61.905 -151.128)" fill="#ca6e59"/>
          </g>
          <g id="Grupo_1166153" data-name="Grupo 1166153">
            <path id="Trazado_1022327" data-name="Trazado 1022327" d="M65.434,153.719a2.591,2.591,0,0,1,2.591-2.591H64.5a2.591,2.591,0,1,0,0,5.182h3.529A2.591,2.591,0,0,1,65.434,153.719Z" transform="translate(-61.905 -151.128)" fill="#bb5d4c"/>
          </g>
        </g>
      </g>
      <g id="Grupo_1166158" data-name="Grupo 1166158" transform="translate(35.725 5.72)">
        <g id="Grupo_1166156" data-name="Grupo 1166156">
          <circle id="Elipse_11872" data-name="Elipse 11872" cx="7.418" cy="7.418" r="7.418" fill="#4fc123"/>
        </g>
        <g id="Grupo_1166157" data-name="Grupo 1166157" transform="translate(0)">
          <path id="Trazado_1022328" data-name="Trazado 1022328" d="M213.927,61.525a7.42,7.42,0,0,1,5.641-7.2,7.418,7.418,0,1,0,0,14.405,7.421,7.421,0,0,1-5.641-7.2Z" transform="translate(-210.372 -54.107)" fill="#47a920"/>
        </g>
      </g>
      <g id="Grupo_1166159" data-name="Grupo 1166159" transform="translate(15.078 0)">
        <path id="Trazado_1022329" data-name="Trazado 1022329" d="M62.576,25.248H61.3V11.524a.793.793,0,0,0-.817-.793.815.815,0,0,0-.769.826V25.248H54.4a.793.793,0,1,0,0,1.586h8.177a1.858,1.858,0,1,1,0,3.717h-16.2V26.834H50.7a.793.793,0,0,0,0-1.586H46.186a1.4,1.4,0,0,0-1.281.844H39.3a1.323,1.323,0,0,0-1.231-.844H35.748a1.323,1.323,0,0,0-1.231.844h-3.4v-.681a1.849,1.849,0,0,0-.9-1.582V21.809a3.384,3.384,0,0,0-.974-6.625H26.574V1.586H59.713V7.824a.793.793,0,0,0,.817.793A.815.815,0,0,0,61.3,7.79V1.322A1.321,1.321,0,0,0,59.977,0H26.31a1.321,1.321,0,0,0-1.322,1.322V15.185H22.62a3.384,3.384,0,0,0-.974,6.624v2.019a1.849,1.849,0,0,0-.9,1.582v6.563a1.849,1.849,0,0,0,.9,1.582v2.019A3.384,3.384,0,0,0,22.62,42.2h2.368v2.753h-6.2a1.852,1.852,0,0,0-1.85,1.85v1.313h-.012a1.852,1.852,0,0,0-1.85,1.85v2.843A1.323,1.323,0,0,0,16.4,54.13H59.977A1.321,1.321,0,0,0,61.3,52.809V32.136h1.277a3.444,3.444,0,0,0,0-6.888ZM39.386,27.677h5.4v2.03h-5.4Zm-3.374-.844H37.8V30.55H36.012Zm-4.894.844h3.308v2.03H31.118Zm-10.3-9.108a1.8,1.8,0,0,1,1.8-1.8h6.628a1.8,1.8,0,0,1,0,3.6H22.62A1.8,1.8,0,0,1,20.822,18.569ZM22.6,32.238a.265.265,0,0,1-.264-.264V25.411a.265.265,0,0,1,.264-.264h6.668a.265.265,0,0,1,.264.264v6.563a.265.265,0,0,1-.264.264Zm6.036,1.586v1.608h-5.4V33.823Zm-5.4-10.263V21.953h5.4v1.608ZM22.62,40.613a1.8,1.8,0,0,1,0-3.6h6.628a1.8,1.8,0,0,1,0,3.6ZM35.2,52.544H16.664V49.966a.265.265,0,0,1,.264-.264h4.908a.793.793,0,0,0,0-1.586h-3.31V46.8a.265.265,0,0,1,.264-.264H33.077a.265.265,0,0,1,.264.264v1.313H25.536a.793.793,0,0,0,0,1.586h9.4a.265.265,0,0,1,.264.264Zm24.509,0H36.79V49.966a1.852,1.852,0,0,0-1.85-1.85h-.012V46.8a1.852,1.852,0,0,0-1.85-1.85h-6.5V42.2h2.674a3.384,3.384,0,0,0,.974-6.625V33.556a1.849,1.849,0,0,0,.9-1.582v-.681h3.4a1.323,1.323,0,0,0,1.231.844h2.317a1.323,1.323,0,0,0,1.231-.844H44.9a1.4,1.4,0,0,0,1.281.844H59.713V52.544Z" transform="translate(-15.078 0)"/>
        <path id="Trazado_1022330" data-name="Trazado 1022330" d="M202.872,54.818a8.211,8.211,0,1,0,8.211-8.211A8.221,8.221,0,0,0,202.872,54.818Zm14.837,0a6.626,6.626,0,1,1-6.626-6.626A6.633,6.633,0,0,1,217.709,54.818Z" transform="translate(-183.018 -41.68)"/>
        <path id="Trazado_1022331" data-name="Trazado 1022331" d="M247.7,102.733a.793.793,0,1,0-1.121,1.121l2.439,2.439a.793.793,0,0,0,1.121,0l3.78-3.78a.793.793,0,0,0-1.121-1.121l-3.22,3.22Z" transform="translate(-221.893 -90.464)"/>
        <path id="Trazado_1022332" data-name="Trazado 1022332" d="M243.681,327.862a.793.793,0,0,0,.793.793h14.582a.793.793,0,0,0,0-1.586H244.474A.793.793,0,0,0,243.681,327.862Z" transform="translate(-219.512 -292.49)"/>
        <path id="Trazado_1022333" data-name="Trazado 1022333" d="M318.811,363.546h-7.518a.793.793,0,0,0,0,1.586h7.518a.793.793,0,1,0,0-1.586Z" transform="translate(-279.267 -325.111)"/>
        <path id="Trazado_1022334" data-name="Trazado 1022334" d="M244.474,365.132h4.316a.793.793,0,0,0,0-1.586h-4.316a.793.793,0,0,0,0,1.586Z" transform="translate(-219.512 -325.111)"/>
        <path id="Trazado_1022335" data-name="Trazado 1022335" d="M259.055,400.023H244.473a.793.793,0,1,0,0,1.586h14.582a.793.793,0,0,0,0-1.586Z" transform="translate(-219.512 -357.731)"/>
        <path id="Trazado_1022336" data-name="Trazado 1022336" d="M350.111,436.5h-3.818a.793.793,0,1,0,0,1.586h3.818a.793.793,0,0,0,0-1.586Z" transform="translate(-310.567 -390.352)"/>
        <path id="Trazado_1022337" data-name="Trazado 1022337" d="M252.807,436.5h-8.333a.793.793,0,1,0,0,1.586h8.333a.793.793,0,1,0,0-1.586Z" transform="translate(-219.512 -390.352)"/>
      </g>
    </g>
  </g>
</svg>
