<svg xmlns="http://www.w3.org/2000/svg" width="36.055" height="36.055" viewBox="0 0 36.055 36.055">
  <path id="recovery_18621342" d="M24.731,21.981A18.025,18.025,0,0,1,54.055,36.027a.606.606,0,0,1-1.212,0A16.818,16.818,0,0,0,25.321,23.059h2.227a.606.606,0,0,1,0,1.212H23.753a.605.605,0,0,1-.584-.769l.967-4.537a.6.6,0,1,1,1.184.251l-.589,2.765Zm9.614,13.267V33.793H33.136a.606.606,0,0,1-.6-.523A5.855,5.855,0,0,0,31.71,31.3a.606.606,0,0,1,.078-.76h0l.855-.856-1.028-1.028-.855.855a.606.606,0,0,1-.782.064,5.9,5.9,0,0,0-1.989-.82.6.6,0,0,1-.481-.592h0V26.953H26.052v1.209a.606.606,0,0,1-.523.6,5.853,5.853,0,0,0-1.972.827.606.606,0,0,1-.76-.078h0l-.856-.855-1.028,1.028.855.855a.606.606,0,0,1,.064.782,5.906,5.906,0,0,0-.821,1.989.6.6,0,0,1-.592.481H19.212v1.454h1.209a.606.606,0,0,1,.6.523,5.851,5.851,0,0,0,.826,1.971.606.606,0,0,1-.078.759h0l-.855.856,1.028,1.028.855-.855a.606.606,0,0,1,.782-.064,5.9,5.9,0,0,0,1.989.82.6.6,0,0,1,.482.592h0v1.209h1.454V40.878a.606.606,0,0,1,.523-.6A5.852,5.852,0,0,0,30,39.451a.606.606,0,0,1,.76.078h0l.855.855,1.028-1.028-.855-.855a.606.606,0,0,1-.064-.782,5.906,5.906,0,0,0,.821-1.989.6.6,0,0,1,.592-.481v0Zm1.212-2.06v2.666a.606.606,0,0,1-.606.606H33.61a7.057,7.057,0,0,1-.63,1.52l.949.949a.606.606,0,0,1,0,.857L32.043,41.67a.606.606,0,0,1-.857,0l-.949-.949a7.06,7.06,0,0,1-1.52.63v1.341a.606.606,0,0,1-.606.606h-.2l-.759,1.315a.323.323,0,0,0,.282.488H52.517a.322.322,0,0,0,.282-.485L40.257,22.892a.323.323,0,0,0-.564,0L34.1,32.581h.852A.606.606,0,0,1,35.557,33.187Zm4.418-11.669a1.53,1.53,0,0,0-1.328.768l-5.387,9.331q-.128-.286-.279-.557l.949-.949a.606.606,0,0,0,0-.857L32.043,27.37a.606.606,0,0,0-.857,0l-.949.949a7.058,7.058,0,0,0-1.52-.63V26.347a.606.606,0,0,0-.606-.606H25.446a.606.606,0,0,0-.606.606v1.342a7.059,7.059,0,0,0-1.52.63l-.949-.948a.606.606,0,0,0-.857,0l-1.885,1.885a.606.606,0,0,0,0,.857l.949.949a7.06,7.06,0,0,0-.63,1.52H18.606a.606.606,0,0,0-.606.606v2.666a.606.606,0,0,0,.606.606h1.341a7.057,7.057,0,0,0,.63,1.52l-.949.949a.606.606,0,0,0,0,.857l1.885,1.885a.606.606,0,0,0,.857,0l.949-.949a7.061,7.061,0,0,0,1.52.63v1.341a.606.606,0,0,0,.606.606h1.071l-.412.714a1.533,1.533,0,0,0,1.328,2.3H52.517a1.535,1.535,0,0,0,1.328-2.3L41.3,22.286A1.534,1.534,0,0,0,39.975,21.518Zm-13.2,8.47A4.532,4.532,0,1,0,31.31,34.52a4.532,4.532,0,0,0-4.532-4.532Zm0,1.212a3.32,3.32,0,1,0,3.32,3.32,3.32,3.32,0,0,0-3.32-3.32Zm13.2-1.821a1.67,1.67,0,0,0-1.666,1.666v5.739a1.666,1.666,0,1,0,3.333,0V31.046a1.67,1.67,0,0,0-1.666-1.666Zm0,1.212a.457.457,0,0,0-.454.454v5.739a.454.454,0,1,0,.909,0V31.046a.458.458,0,0,0-.454-.454Zm0,11.5a.606.606,0,1,1,.606-.606A.606.606,0,0,1,39.975,42.087Zm0,1.212a1.818,1.818,0,1,1,1.818-1.818A1.818,1.818,0,0,1,39.975,43.3Zm7.349,6.775a18.026,18.026,0,0,1-28.331-8.143.6.6,0,1,1,1.141-.393A16.824,16.824,0,0,0,46.734,49H44.507a.606.606,0,0,1,0-1.212H48.3a.605.605,0,0,1,.584.769l-.967,4.536a.6.6,0,0,1-1.184-.251Z" transform="translate(-18 -18)" fill-rule="evenodd"/>
</svg>
