<svg xmlns="http://www.w3.org/2000/svg" xmlns:xlink="http://www.w3.org/1999/xlink" width="108" height="108" viewBox="0 0 108 108">
  <defs>
    <filter id="Trazado_978624" x="0" y="0" width="108" height="108" filterUnits="userSpaceOnUse">
      <feOffset dy="3" input="SourceAlpha"/>
      <feGaussianBlur stdDeviation="3" result="blur"/>
      <feFlood flood-opacity="0.161"/>
      <feComposite operator="in" in2="blur"/>
      <feComposite in="SourceGraphic"/>
    </filter>
  </defs>
  <g id="Grupo_1166161" data-name="Grupo 1166161" transform="translate(-197 -316)">
    <g id="Grupo_1164562" data-name="Grupo 1164562" transform="translate(206 322)">
      <g id="Grupo_1164479" data-name="Grupo 1164479">
        <g id="Grupo_1144123" data-name="Grupo 1144123">
          <g transform="matrix(1, 0, 0, 1, -9, -6)" filter="url(#Trazado_978624)">
            <g id="Trazado_978624-2" data-name="Trazado 978624" transform="translate(9 6)" fill="#eaf5f4">
              <path d="M 45 88.5 C 39.12687683105469 88.5 33.43022537231445 87.35007476806641 28.06830024719238 85.08217620849609 C 22.88852500915527 82.89131164550781 18.23629951477051 79.75458526611328 14.2408504486084 75.75914764404297 C 10.24541282653809 71.76370239257812 7.108687400817871 67.11147308349609 4.917825222015381 61.93170166015625 C 2.649924993515015 56.56977462768555 1.5 50.87312316894531 1.5 45 C 1.5 39.12687683105469 2.649924993515015 33.43022537231445 4.917825222015381 28.06830024719238 C 7.108687400817871 22.88852500915527 10.24541282653809 18.23629951477051 14.2408504486084 14.2408504486084 C 18.23629951477051 10.24541282653809 22.88852500915527 7.108687400817871 28.06830024719238 4.917825222015381 C 33.43022537231445 2.649924993515015 39.12687683105469 1.5 45 1.5 C 50.87312316894531 1.5 56.56977462768555 2.649924993515015 61.93170166015625 4.917825222015381 C 67.11147308349609 7.108687400817871 71.76370239257812 10.24541282653809 75.75914764404297 14.2408504486084 C 79.75458526611328 18.23629951477051 82.89131164550781 22.88852500915527 85.08217620849609 28.06830024719238 C 87.35007476806641 33.43022537231445 88.5 39.12687683105469 88.5 45 C 88.5 50.87312316894531 87.35007476806641 56.56977462768555 85.08217620849609 61.93170166015625 C 82.89131164550781 67.11147308349609 79.75458526611328 71.76370239257812 75.75914764404297 75.75914764404297 C 71.76370239257812 79.75458526611328 67.11147308349609 82.89131164550781 61.93170166015625 85.08217620849609 C 56.56977462768555 87.35007476806641 50.87312316894531 88.5 45 88.5 Z" stroke="none"/>
              <path d="M 45 3 C 39.32871246337891 3 33.82865524291992 4.110054016113281 28.65262985229492 6.299339294433594 C 23.65165710449219 8.414573669433594 19.15968322753906 11.44334411621094 15.301513671875 15.301513671875 C 11.44334411621094 19.15968322753906 8.414573669433594 23.65165710449219 6.299339294433594 28.65262985229492 C 4.110054016113281 33.82865524291992 3 39.32871246337891 3 45 C 3 50.67128753662109 4.110054016113281 56.17134475708008 6.299339294433594 61.34737396240234 C 8.414573669433594 66.34834289550781 11.44334411621094 70.84031677246094 15.301513671875 74.698486328125 C 19.15968322753906 78.55665588378906 23.65165710449219 81.58542633056641 28.65262985229492 83.70066070556641 C 33.82865524291992 85.88994598388672 39.32871246337891 87 45 87 C 50.67128753662109 87 56.17134475708008 85.88994598388672 61.34737396240234 83.70066070556641 C 66.34834289550781 81.58542633056641 70.84031677246094 78.55665588378906 74.698486328125 74.698486328125 C 78.55665588378906 70.84031677246094 81.58542633056641 66.34834289550781 83.70066070556641 61.34737396240234 C 85.88994598388672 56.17134475708008 87 50.67128753662109 87 45 C 87 39.32871246337891 85.88994598388672 33.82865524291992 83.70066070556641 28.65262985229492 C 81.58542633056641 23.65165710449219 78.55665588378906 19.15968322753906 74.698486328125 15.301513671875 C 70.84031677246094 11.44334411621094 66.34834289550781 8.414573669433594 61.34737396240234 6.299339294433594 C 56.17134475708008 4.110054016113281 50.67128753662109 3 45 3 M 45 0 C 69.85281372070312 0 90 20.14718627929688 90 45 C 90 69.85281372070312 69.85281372070312 90 45 90 C 20.14718627929688 90 0 69.85281372070312 0 45 C 0 20.14718627929688 20.14718627929688 0 45 0 Z" stroke="none" fill="#41a599"/>
            </g>
          </g>
        </g>
      </g>
    </g>
    <g id="_6._Paramedic" data-name="6. Paramedic" transform="translate(222.733 335.733)">
      <path id="Trazado_1022338" data-name="Trazado 1022338" d="M52.167,265.291v10.976H8V265.291a7.067,7.067,0,0,1,3.483-6.09l11.533-6.784V248H37.15v4.417L48.684,259.2A7.067,7.067,0,0,1,52.167,265.291Z" transform="translate(-7.117 -220.616)" fill="#cd4f5f"/>
      <path id="Trazado_1022339" data-name="Trazado 1022339" d="M301.25,329.341v10.976H288.369A4.386,4.386,0,0,1,288,338.55V324.417A4.417,4.417,0,0,1,292.246,320l5.521,3.247A7.067,7.067,0,0,1,301.25,329.341Z" transform="translate(-256.2 -284.666)" fill="#b24654"/>
      <path id="Trazado_1022340" data-name="Trazado 1022340" d="M8,480H52.167v2.65H8Z" transform="translate(-7.117 -426.999)" fill="#b24654"/>
      <path id="Trazado_1022341" data-name="Trazado 1022341" d="M.883,339.1A.883.883,0,0,1,0,338.219V327.244a7.979,7.979,0,0,1,3.919-6.851l4.466-2.628a.884.884,0,0,1,.9,1.523l-4.466,2.628a6.206,6.206,0,0,0-3.049,5.329v10.976a.883.883,0,0,1-.883.883Z" transform="translate(0 -282.569)"/>
      <path id="Trazado_1022342" data-name="Trazado 1022342" d="M137.565,270.034a.883.883,0,0,1-.883-.883V258.175a6.205,6.205,0,0,0-3.049-5.329L122.1,246.062a.883.883,0,0,1-.435-.762v-3.533H109.3V245.3a.883.883,0,0,1-.435.762l-3.533,2.078a.884.884,0,0,1-.9-1.523l3.1-1.823v-3.911a.883.883,0,0,1,.883-.883h14.134a.883.883,0,0,1,.883.883v3.911l11.1,6.529a7.979,7.979,0,0,1,3.919,6.851V269.15A.883.883,0,0,1,137.565,270.034Z" transform="translate(-92.514 -213.5)"/>
      <path id="Trazado_1022343" data-name="Trazado 1022343" d="M179.533,227.483A3.533,3.533,0,0,1,176,223.95V216h7.067v7.95A3.533,3.533,0,0,1,179.533,227.483Z" transform="translate(-156.566 -192.15)" fill="#eec0a7"/>
      <path id="Trazado_1022344" data-name="Trazado 1022344" d="M172.417,221.25A4.417,4.417,0,0,1,168,216.833v-7.95a.883.883,0,0,1,.883-.883h7.067a.883.883,0,0,1,.883.883v7.95A4.417,4.417,0,0,1,172.417,221.25Zm-2.65-11.483v7.067a2.65,2.65,0,0,0,5.3,0v-7.067Z" transform="translate(-149.45 -185.033)"/>
      <path id="Trazado_1022345" data-name="Trazado 1022345" d="M136.833,174.134A8.833,8.833,0,0,1,128,165.3V160h17.667v5.3A8.833,8.833,0,0,1,136.833,174.134Z" transform="translate(-113.866 -142.333)" fill="#e0c3aa"/>
      <path id="Trazado_1022346" data-name="Trazado 1022346" d="M136.833,192.833A8.833,8.833,0,0,1,128,184v2.65a8.833,8.833,0,0,0,17.667,0V184A8.833,8.833,0,0,1,136.833,192.833Z" transform="translate(-113.866 -163.683)" fill="#d0a37f"/>
      <path id="Trazado_1022347" data-name="Trazado 1022347" d="M129.717,167.9A9.728,9.728,0,0,1,120,158.183v-5.3a.883.883,0,0,1,.883-.883H138.55a.883.883,0,0,1,.883.883v5.3A9.728,9.728,0,0,1,129.717,167.9Zm-7.95-14.134v4.417a7.95,7.95,0,1,0,15.9,0v-4.417Z" transform="translate(-106.75 -135.216)"/>
      <path id="Trazado_1022348" data-name="Trazado 1022348" d="M104,128h22.967v3.533H104Z" transform="translate(-92.517 -113.866)" fill="#cd4f5f"/>
      <path id="Trazado_1022349" data-name="Trazado 1022349" d="M119.85,125.3H96.883a.883.883,0,0,1-.883-.883v-3.533a.883.883,0,0,1,.883-.883H119.85a.883.883,0,0,1,.883.883v3.533A.883.883,0,0,1,119.85,125.3Zm-22.084-1.767h21.2v-1.767h-21.2Z" transform="translate(-85.4 -106.75)"/>
      <path id="Trazado_1022350" data-name="Trazado 1022350" d="M129.717,32A9.717,9.717,0,0,0,120,41.717V42.6h19.434v-.883A9.717,9.717,0,0,0,129.717,32Z" transform="translate(-106.75 -28.467)" fill="#cd4f5f"/>
      <path id="Trazado_1022351" data-name="Trazado 1022351" d="M132.317,36.367H112.883a.883.883,0,0,1-.883-.883V34.6a10.6,10.6,0,1,1,21.2,0v.883A.883.883,0,0,1,132.317,36.367ZM113.767,34.6h17.667a8.833,8.833,0,1,0-17.667,0Z" transform="translate(-99.633 -21.35)"/>
      <path id="Trazado_1022352" data-name="Trazado 1022352" d="M98.65,165.3h.883V160H98.65a2.65,2.65,0,1,0,0,5.3Z" transform="translate(-85.4 -142.333)" fill="#eec0a7"/>
      <path id="Trazado_1022353" data-name="Trazado 1022353" d="M92.417,159.067h-.883a3.533,3.533,0,1,1,0-7.067h.883a.883.883,0,0,1,.883.883v5.3A.883.883,0,0,1,92.417,159.067Zm-.883-5.3a1.767,1.767,0,1,0,0,3.533Z" transform="translate(-78.283 -135.216)"/>
      <path id="Trazado_1022354" data-name="Trazado 1022354" d="M288.883,165.3H288V160h.883a2.65,2.65,0,0,1,0,5.3Z" transform="translate(-256.2 -142.333)" fill="#eec0a7"/>
      <path id="Trazado_1022355" data-name="Trazado 1022355" d="M281.767,159.067h-.883a.883.883,0,0,1-.883-.883v-5.3a.883.883,0,0,1,.883-.883h.883a3.533,3.533,0,1,1,0,7.067Zm0-5.3V157.3a1.767,1.767,0,1,0,0-3.533Z" transform="translate(-249.083 -135.216)"/>
      <path id="Trazado_1022356" data-name="Trazado 1022356" d="M192,8h3.533v7.067H192Z" transform="translate(-170.8 -7.117)" fill="#cd4f5f"/>
      <path id="Trazado_1022357" data-name="Trazado 1022357" d="M188.417,8.833h-3.533A.883.883,0,0,1,184,7.95V.883A.883.883,0,0,1,184.883,0h3.533a.883.883,0,0,1,.883.883V7.95A.883.883,0,0,1,188.417,8.833Zm-2.65-1.767h1.767v-5.3h-1.767Z" transform="translate(-163.683 0)"/>
      <path id="Trazado_1022358" data-name="Trazado 1022358" d="M52.167,400v3.533l-22.084,3.533L8,403.533V400l22.084,3.533Z" transform="translate(-7.117 -355.833)" fill="#f6f6f6"/>
      <path id="Trazado_1022359" data-name="Trazado 1022359" d="M301.25,400v3.533L288,405.653V402.12Z" transform="translate(-256.2 -355.833)" fill="#dcdcdc"/>
      <path id="Trazado_1022360" data-name="Trazado 1022360" d="M22.967,400.833c-.11,0,1.451.243-22.223-3.544A.883.883,0,0,1,0,396.417v-3.533a.883.883,0,0,1,1.022-.872l21.944,3.511,21.944-3.511a.883.883,0,0,1,1.022.872v3.533a.883.883,0,0,1-.744.872c-23.709,3.794-22.112,3.544-22.223,3.544Zm-21.2-5.17,21.2,3.392,21.2-3.392v-1.745l-21.061,3.37c-.221.034,1.194.235-21.339-3.37Z" transform="translate(0 -348.716)"/>
      <path id="Trazado_1022361" data-name="Trazado 1022361" d="M200.883,334.084A.883.883,0,0,1,200,333.2V312.883a.883.883,0,0,1,1.767,0V333.2A.883.883,0,0,1,200.883,334.084Z" transform="translate(-177.916 -277.55)"/>
      <path id="Trazado_1022362" data-name="Trazado 1022362" d="M72.883,469.3a.883.883,0,0,1-.883-.883v-3.533a.883.883,0,1,1,1.767,0v3.533A.883.883,0,0,1,72.883,469.3Z" transform="translate(-64.05 -412.766)"/>
      <path id="Trazado_1022363" data-name="Trazado 1022363" d="M328.883,469.3a.883.883,0,0,1-.883-.883v-3.533a.883.883,0,1,1,1.767,0v3.533A.883.883,0,0,1,328.883,469.3Z" transform="translate(-291.783 -412.766)"/>
      <rect id="Rectángulo_413374" data-name="Rectángulo 413374" width="21" height="17" rx="2" transform="translate(34.267 38.267)" fill="#cd4f5f"/>
      <path id="Trazado_1022364" data-name="Trazado 1022364" d="M331.434,465.767H313.767A1.767,1.767,0,0,1,312,464v2.65a1.767,1.767,0,0,0,1.767,1.767h17.667a1.767,1.767,0,0,0,1.767-1.767V464A1.767,1.767,0,0,1,331.434,465.767Z" transform="translate(-277.55 -412.766)" fill="#b24654"/>
      <path id="Trazado_1022365" data-name="Trazado 1022365" d="M324.317,355.434H306.65a2.65,2.65,0,0,1-2.65-2.65V338.65a2.65,2.65,0,0,1,2.65-2.65h17.667a2.65,2.65,0,0,1,2.65,2.65v7.95a.883.883,0,1,1-1.767,0v-7.95a.883.883,0,0,0-.883-.883H306.65a.883.883,0,0,0-.883.883v14.134a.883.883,0,0,0,.883.883h17.667a.883.883,0,0,0,.883-.883v-2.65a.883.883,0,1,1,1.767,0v2.65A2.65,2.65,0,0,1,324.317,355.434Z" transform="translate(-270.433 -298.9)"/>
      <path id="Trazado_1022366" data-name="Trazado 1022366" d="M363.483,295.067h-10.6a.883.883,0,0,1-.883-.883V290.65a2.65,2.65,0,0,1,2.65-2.65h7.067a2.65,2.65,0,0,1,2.65,2.65v3.533A.883.883,0,0,1,363.483,295.067Zm-9.717-1.767H362.6v-2.65a.883.883,0,0,0-.883-.883H354.65a.883.883,0,0,0-.883.883Z" transform="translate(-313.133 -256.2)"/>
      <path id="Trazado_1022367" data-name="Trazado 1022367" d="M376.833,386.65h-2.65V384H370.65v2.65H368v3.533h2.65v2.65h3.533v-2.65h2.65Z" transform="translate(-327.366 -341.599)" fill="#f6f6f6"/>
      <path id="Trazado_1022368" data-name="Trazado 1022368" d="M367.067,386.6h-3.533a.883.883,0,0,1-.883-.883V383.95h-1.767a.883.883,0,0,1-.883-.883v-3.533a.883.883,0,0,1,.883-.883h1.767v-1.767a.883.883,0,0,1,.883-.883h3.533a.883.883,0,0,1,.883.883v1.767h1.767a.883.883,0,0,1,.883.883v3.533a.883.883,0,0,1-.883.883H367.95v1.767A.883.883,0,0,1,367.067,386.6Zm-2.65-1.767h1.767v-1.767a.883.883,0,0,1,.883-.883h1.767v-1.767h-1.767a.883.883,0,0,1-.883-.883v-1.767h-1.767v1.767a.883.883,0,0,1-.883.883h-1.767v1.767h1.767a.883.883,0,0,1,.883.883Z" transform="translate(-320.249 -334.483)"/>
      <path id="Trazado_1022369" data-name="Trazado 1022369" d="M184.482,241.668a.884.884,0,0,1,.791-1.581,3.081,3.081,0,0,0,2.743,0,.884.884,0,1,1,.791,1.581A4.858,4.858,0,0,1,184.482,241.668Z" transform="translate(-163.677 -213.494)"/>
    </g>
  </g>
</svg>
