<svg xmlns="http://www.w3.org/2000/svg" xmlns:xlink="http://www.w3.org/1999/xlink" width="108" height="108" viewBox="0 0 108 108">
  <defs>
    <filter id="Trazado_982547" x="0" y="0" width="108" height="108" filterUnits="userSpaceOnUse">
      <feOffset dy="3" input="SourceAlpha"/>
      <feGaussianBlur stdDeviation="3" result="blur"/>
      <feFlood flood-opacity="0.161"/>
      <feComposite operator="in" in2="blur"/>
      <feComposite in="SourceGraphic"/>
    </filter>
  </defs>
  <g id="Grupo_1166212" data-name="Grupo 1166212" transform="translate(-166 -5496)">
    <g id="Grupo_1164729" data-name="Grupo 1164729" transform="translate(-5 1578)">
      <g id="Grupo_1161419" data-name="Grupo 1161419" transform="translate(0 -5495)">
        <g id="Grupo_1160581" data-name="Grupo 1160581" transform="translate(0 7864)">
          <g id="Grupo_1153955" data-name="Grupo 1153955" transform="translate(-83 1036)">
            <g id="Grupo_1149598" data-name="Grupo 1149598" transform="translate(80 315)">
              <g id="Grupo_1148770" data-name="Grupo 1148770" transform="translate(-27 -2583)">
                <g id="Grupo_1146954" data-name="Grupo 1146954" transform="translate(-415 -1202)">
                  <g transform="matrix(1, 0, 0, 1, 616, 3983)" filter="url(#Trazado_982547)">
                    <g id="Trazado_982547-2" data-name="Trazado 982547" transform="translate(9 6)" fill="#fcebe9">
                      <path d="M 45 88.5 C 39.12687683105469 88.5 33.43022537231445 87.35007476806641 28.06830024719238 85.08217620849609 C 22.88852500915527 82.89131164550781 18.23629951477051 79.75458526611328 14.2408504486084 75.75914764404297 C 10.24541282653809 71.76370239257812 7.108687400817871 67.11147308349609 4.917825222015381 61.93170166015625 C 2.649924993515015 56.56977462768555 1.5 50.87312316894531 1.5 45 C 1.5 39.12687683105469 2.649924993515015 33.43022537231445 4.917825222015381 28.06830024719238 C 7.108687400817871 22.88852500915527 10.24541282653809 18.23629951477051 14.2408504486084 14.2408504486084 C 18.23629951477051 10.24541282653809 22.88852500915527 7.108687400817871 28.06830024719238 4.917825222015381 C 33.43022537231445 2.649924993515015 39.12687683105469 1.5 45 1.5 C 50.87312316894531 1.5 56.56977462768555 2.649924993515015 61.93170166015625 4.917825222015381 C 67.11147308349609 7.108687400817871 71.76370239257812 10.24541282653809 75.75914764404297 14.2408504486084 C 79.75458526611328 18.23629951477051 82.89131164550781 22.88852500915527 85.08217620849609 28.06830024719238 C 87.35007476806641 33.43022537231445 88.5 39.12687683105469 88.5 45 C 88.5 50.87312316894531 87.35007476806641 56.56977462768555 85.08217620849609 61.93170166015625 C 82.89131164550781 67.11147308349609 79.75458526611328 71.76370239257812 75.75914764404297 75.75914764404297 C 71.76370239257812 79.75458526611328 67.11147308349609 82.89131164550781 61.93170166015625 85.08217620849609 C 56.56977462768555 87.35007476806641 50.87312316894531 88.5 45 88.5 Z" stroke="none"/>
                      <path d="M 45 3 C 39.32871246337891 3 33.82865524291992 4.110054016113281 28.65262985229492 6.299339294433594 C 23.65165710449219 8.414573669433594 19.15968322753906 11.44334411621094 15.301513671875 15.301513671875 C 11.44334411621094 19.15968322753906 8.414573669433594 23.65165710449219 6.299339294433594 28.65262985229492 C 4.110054016113281 33.82865524291992 3 39.32871246337891 3 45 C 3 50.67128753662109 4.110054016113281 56.17134475708008 6.299339294433594 61.34737396240234 C 8.414573669433594 66.34834289550781 11.44334411621094 70.84031677246094 15.301513671875 74.698486328125 C 19.15968322753906 78.55665588378906 23.65165710449219 81.58542633056641 28.65262985229492 83.70066070556641 C 33.82865524291992 85.88994598388672 39.32871246337891 87 45 87 C 50.67128753662109 87 56.17134475708008 85.88994598388672 61.34737396240234 83.70066070556641 C 66.34834289550781 81.58542633056641 70.84031677246094 78.55665588378906 74.698486328125 74.698486328125 C 78.55665588378906 70.84031677246094 81.58542633056641 66.34834289550781 83.70066070556641 61.34737396240234 C 85.88994598388672 56.17134475708008 87 50.67128753662109 87 45 C 87 39.32871246337891 85.88994598388672 33.82865524291992 83.70066070556641 28.65262985229492 C 81.58542633056641 23.65165710449219 78.55665588378906 19.15968322753906 74.698486328125 15.301513671875 C 70.84031677246094 11.44334411621094 66.34834289550781 8.414573669433594 61.34737396240234 6.299339294433594 C 56.17134475708008 4.110054016113281 50.67128753662109 3 45 3 M 45 0 C 69.85281372070312 0 90 20.14718627929688 90 45 C 90 69.85281372070312 69.85281372070312 90 45 90 C 20.14718627929688 90 0 69.85281372070312 0 45 C 0 20.14718627929688 20.14718627929688 0 45 0 Z" stroke="none" fill="#e44b36"/>
                    </g>
                  </g>
                </g>
              </g>
            </g>
          </g>
        </g>
      </g>
    </g>
    <g id="fire-alarm_5957760" transform="translate(173.099 5496.028)">
      <path id="Trazado_1022580" data-name="Trazado 1022580" d="M0,0H13.11V2.06H0Z" transform="translate(54.406 57.367) rotate(-45)" fill="#54b6cc"/>
      <circle id="Elipse_11889" data-name="Elipse 11889" cx="12.361" cy="12.361" r="12.361" transform="translate(34.541 30.283)" fill="#d15656"/>
      <path id="Trazado_1022581" data-name="Trazado 1022581" d="M216.309,102.462a12.363,12.363,0,0,1-10.991,22.027,12.362,12.362,0,1,0,10.991-22.027Z" transform="translate(-164.942 -71.347)" fill="#c44141"/>
      <circle id="Elipse_11890" data-name="Elipse 11890" cx="8.24" cy="8.24" r="8.24" transform="translate(38.661 34.403)" fill="#dd6b6b"/>
      <rect id="Rectángulo_413381" data-name="Rectángulo 413381" width="18.541" height="14.421" rx="7.21" transform="translate(37.631 55.004)" fill="#d15656"/>
      <path id="Trazado_1022582" data-name="Trazado 1022582" d="M200.577,288h-.1v10.4a1.964,1.964,0,0,1-1.964,1.964H184v.1a1.964,1.964,0,0,0,1.964,1.964h14.612a1.964,1.964,0,0,0,1.964-1.964V289.964A1.964,1.964,0,0,0,200.577,288Z" transform="translate(-146.369 -232.996)" fill="#c44141"/>
      <path id="Trazado_1022583" data-name="Trazado 1022583" d="M226.3,324.12l-5.15,1.03L216,324.12V320h10.3Z" transform="translate(-174.249 -260.875)" fill="#4d4d4d"/>
      <path id="Trazado_1022584" data-name="Trazado 1022584" d="M288,368h2.06v2.06H288Z" transform="translate(-236.978 -302.695)" fill="#96d6e4"/>
      <path id="Trazado_1022585" data-name="Trazado 1022585" d="M240,218.06a2.06,2.06,0,1,0,4.12,0V216H240Z" transform="translate(-195.159 -170.266)" fill="#d8be50"/>
      <path id="Trazado_1022586" data-name="Trazado 1022586" d="M232.24,175.21H224l1.03-2.06v-2.06a3.09,3.09,0,0,1,6.18,0v2.06Z" transform="translate(-181.219 -128.446)" fill="#f4d75d"/>
      <circle id="Elipse_11891" data-name="Elipse 11891" cx="3.09" cy="3.09" r="3.09" transform="translate(63.382 43.674)" fill="#c44141"/>
      <g id="Grupo_1166211" data-name="Grupo 1166211" transform="translate(17.03 20.571)">
        <path id="Trazado_1022587" data-name="Trazado 1022587" d="M0,0H2.06V16.609H0Z" transform="translate(1.547 5.458) rotate(-60.255)" fill="#feac4f"/>
        <path id="Trazado_1022588" data-name="Trazado 1022588" d="M0,0H2.06V8.494H0Z" transform="translate(17.54 0.681) rotate(-14.064)" fill="#feac4f"/>
        <path id="Trazado_1022589" data-name="Trazado 1022589" d="M0,0H9.213V2.06H0Z" transform="translate(37.18 8.236) rotate(-63.435)" fill="#feac4f"/>
        <path id="Trazado_1022590" data-name="Trazado 1022590" d="M0,0H16.286V2.06H0Z" transform="matrix(0.949, -0.316, 0.316, 0.949, 42.948, 11.839)" fill="#feac4f"/>
        <path id="Trazado_1022591" data-name="Trazado 1022591" d="M0,0H13.43V2.06H0Z" transform="translate(0.957 22.073) rotate(-4.416)" fill="#feac4f"/>
        <path id="Trazado_1022592" data-name="Trazado 1022592" d="M0,0H14.01V2.06H0Z" transform="translate(3.509 35.671) rotate(-36.011)" fill="#feac4f"/>
        <path id="Trazado_1022593" data-name="Trazado 1022593" d="M27.09,330.541l-1.633-1.633a4.974,4.974,0,0,1,0-7.034l.177-.177a4.974,4.974,0,0,0,1.457-3.517v-4.12L28.6,315.2a10.427,10.427,0,0,1,3.636,5.045,12.267,12.267,0,0,0,.391-6.284L32.24,312l1.878,1.127a13.1,13.1,0,0,1,6.362,11.237v2.057l-3.09,4.12Z" transform="translate(-24 -274.477)" fill="#feac4f"/>
        <path id="Trazado_1022594" data-name="Trazado 1022594" d="M373.391,330.541l1.633-1.633a4.974,4.974,0,0,0,0-7.034l-.177-.177a4.974,4.974,0,0,1-1.457-3.517v-4.12l-1.514,1.136a10.427,10.427,0,0,0-3.636,5.045,12.266,12.266,0,0,1-.391-6.284L368.24,312l-1.878,1.127A13.1,13.1,0,0,0,360,324.364v2.057l2.06,4.12Z" transform="translate(-316.738 -274.477)" fill="#feac4f"/>
      </g>
      <path id="Trazado_1022595" data-name="Trazado 1022595" d="M104,390.421v-2.263a3.47,3.47,0,0,1,1.545-2.887,3.47,3.47,0,0,0,1.545-2.887V378.06l.787.787a13.8,13.8,0,0,1,3.333,5.393,7.034,7.034,0,0,0,2.06-4.973V376l2.841,2.272a7.73,7.73,0,0,1,1.355,10.674l-1.106,1.474Z" transform="translate(-76.669 -309.665)" fill="#ff931e"/>
      <path id="Trazado_1022596" data-name="Trazado 1022596" d="M306.418,390.421v-2.263a3.47,3.47,0,0,0-1.545-2.887,3.47,3.47,0,0,1-1.545-2.887V378.06l-.787.787a13.8,13.8,0,0,0-3.333,5.393,7.034,7.034,0,0,1-2.06-4.973V376l-2.841,2.272a7.73,7.73,0,0,0-1.355,10.674l1.105,1.474Z" transform="translate(-239.946 -309.665)" fill="#ff931e"/>
      <path id="Trazado_1022597" data-name="Trazado 1022597" d="M193.27,120a9.281,9.281,0,0,0-9.27,9.27h2.06a7.219,7.219,0,0,1,7.21-7.21Z" transform="translate(-146.369 -86.627)"/>
      <path id="Trazado_1022598" data-name="Trazado 1022598" d="M219.331,312h-10.3a1.03,1.03,0,0,0-1.03,1.03v4.12a1.03,1.03,0,0,0,.828,1.01l5.15,1.03a1.032,1.032,0,0,0,.4,0l5.15-1.03a1.03,1.03,0,0,0,.828-1.01v-4.12A1.03,1.03,0,0,0,219.331,312Zm-1.03,4.306-4.12.824-4.12-.824V314.06h8.24Z" transform="translate(-167.279 -253.905)"/>
      <path id="Trazado_1022599" data-name="Trazado 1022599" d="M288,368h2.06v2.06H288Z" transform="translate(-236.978 -302.695)"/>
      <path id="Trazado_1022600" data-name="Trazado 1022600" d="M217.03,169.27h1.03a3.09,3.09,0,0,0,6.18,0h1.03a1.03,1.03,0,0,0,.921-1.491l-.921-1.843V164.12a4.12,4.12,0,1,0-8.24,0v1.817l-.921,1.843a1.03,1.03,0,0,0,.921,1.491Zm4.12,1.03a1.031,1.031,0,0,1-1.03-1.03h2.06A1.031,1.031,0,0,1,221.15,170.3Zm-2.169-3.66a1.029,1.029,0,0,0,.109-.461v-2.06a2.06,2.06,0,0,1,4.12,0v2.06a1.03,1.03,0,0,0,.109.461l.285.569H218.7Z" transform="translate(-174.249 -121.476)"/>
      <path id="Trazado_1022601" data-name="Trazado 1022601" d="M0,0H2.06V16.609H0Z" transform="translate(18.577 26.029) rotate(-60.255)"/>
      <path id="Trazado_1022602" data-name="Trazado 1022602" d="M0,0H2.06V8.494H0Z" transform="translate(34.57 21.253) rotate(-14.064)"/>
      <path id="Trazado_1022603" data-name="Trazado 1022603" d="M0,0H9.213V2.06H0Z" transform="translate(54.21 28.808) rotate(-63.435)"/>
      <path id="Trazado_1022604" data-name="Trazado 1022604" d="M0,0H16.286V2.06H0Z" transform="matrix(0.949, -0.316, 0.316, 0.949, 59.978, 32.41)"/>
      <path id="Trazado_1022605" data-name="Trazado 1022605" d="M0,0H13.43V2.06H0Z" transform="translate(17.988 42.644) rotate(-4.416)"/>
      <path id="Trazado_1022606" data-name="Trazado 1022606" d="M0,0H14.01V2.06H0Z" transform="translate(20.54 56.243) rotate(-36.011)"/>
      <path id="Trazado_1022607" data-name="Trazado 1022607" d="M75.868,125.767a3.918,3.918,0,0,1-1.155-2.788v-4.12a1.03,1.03,0,0,0-1.648-.824l-1.514,1.136a11.436,11.436,0,0,0-2.593,2.71,11.239,11.239,0,0,1,.195-2.923L69.543,117A1.03,1.03,0,0,0,68,115.915l-1.878,1.126a14.135,14.135,0,0,0-6.863,12.121v1.519q-.143.269-.276.544a5.97,5.97,0,0,1-.754-2.919v-3.267a1.026,1.026,0,0,0-1.03-1.028v-7.816l7.179-7.179a4.125,4.125,0,1,0-1.457-1.457l-6.32,6.32a2.992,2.992,0,0,0-2.4-1.2H54.03A13.385,13.385,0,0,0,56.945,92.49L55.4,93.854a11.32,11.32,0,1,1-1.882-1.7l1.2-1.671a13.389,13.389,0,1,0-14.949,22.2H39.6a3,3,0,0,0-2.994,2.994v8.338a1.026,1.026,0,0,0-1.03,1.029v3.267a5.97,5.97,0,0,1-.754,2.919q-.132-.275-.276-.544v-1.519a14.135,14.135,0,0,0-6.863-12.121L25.8,115.915A1.03,1.03,0,0,0,24.26,117l.391,1.956a11.239,11.239,0,0,1,.195,2.923,11.438,11.438,0,0,0-2.594-2.71l-1.514-1.135a1.03,1.03,0,0,0-1.648.824v4.12a3.918,3.918,0,0,1-1.155,2.788l-.177.177a6,6,0,0,0,0,8.49l1.633,1.634,1.457-1.457-1.634-1.633a3.944,3.944,0,0,1,0-5.577l.177-.177a5.964,5.964,0,0,0,1.758-4.245V120.92a9.352,9.352,0,0,1,3.143,4.444,1.03,1.03,0,0,0,1.954,0,13.318,13.318,0,0,0,.485-6.487,12.059,12.059,0,0,1,5.647,8.744q-.217-.237-.444-.464l-.787-.787a1.03,1.03,0,0,0-1.758.728v4.323a2.435,2.435,0,0,1-1.086,2.03,4.491,4.491,0,0,0-2,3.744v2.263h2.06V137.2a2.435,2.435,0,0,1,1.086-2.03,4.491,4.491,0,0,0,2-3.744v-1.717a12.839,12.839,0,0,1,2.113,3.9,1.03,1.03,0,0,0,1.706.4,8.011,8.011,0,0,0,2.362-5.7v-1.124l1.167.934a6.7,6.7,0,0,1,1.175,9.252l-1.106,1.474,1.648,1.236,1.105-1.474a8.755,8.755,0,0,0,.684-9.445H51.5a8.755,8.755,0,0,0,.685,9.445l1.1,1.474,1.648-1.236-1.106-1.474A6.7,6.7,0,0,1,55,128.115l1.167-.934v1.124a8.011,8.011,0,0,0,2.362,5.7,1.03,1.03,0,0,0,1.706-.4,12.839,12.839,0,0,1,2.113-3.9v1.717a4.491,4.491,0,0,0,2,3.744,2.435,2.435,0,0,1,1.086,2.03v2.263H67.5V137.2a4.491,4.491,0,0,0-2-3.744,2.435,2.435,0,0,1-1.086-2.03V127.1a1.03,1.03,0,0,0-1.758-.728l-.787.787q-.227.227-.444.464a12.059,12.059,0,0,1,5.647-8.744,13.318,13.318,0,0,0,.485,6.487,1.03,1.03,0,0,0,1.954,0,9.353,9.353,0,0,1,3.143-4.444v2.058a5.964,5.964,0,0,0,1.758,4.245l.177.177a3.944,3.944,0,0,1,0,5.577l-1.634,1.633,1.457,1.457,1.633-1.634a6,6,0,0,0,0-8.49Zm-9.4-22.359a2.06,2.06,0,1,1-2.06,2.06,2.06,2.06,0,0,1,2.06-2.06Zm-12.754,23.1a8.788,8.788,0,0,0-.665.592h-12.3a8.787,8.787,0,0,0-.665-.592l-1.424-1.139v-9.7a.935.935,0,0,1,.934-.934H54.208a.935.935,0,0,1,.934.934v9.7Z" transform="translate(0 -58.703)"/>
    </g>
  </g>
</svg>
