<svg xmlns="http://www.w3.org/2000/svg" xmlns:xlink="http://www.w3.org/1999/xlink" width="108" height="108" viewBox="0 0 108 108">
  <defs>
    <filter id="Trazado_982547" x="0" y="0" width="108" height="108" filterUnits="userSpaceOnUse">
      <feOffset dy="3" input="SourceAlpha"/>
      <feGaussianBlur stdDeviation="3" result="blur"/>
      <feFlood flood-opacity="0.161"/>
      <feComposite operator="in" in2="blur"/>
      <feComposite in="SourceGraphic"/>
    </filter>
  </defs>
  <g id="Grupo_1166237" data-name="Grupo 1166237" transform="translate(-166 -6748)">
    <g id="Grupo_1164967" data-name="Grupo 1164967" transform="translate(-5 2830)">
      <g id="Grupo_1161419" data-name="Grupo 1161419" transform="translate(0 -5495)">
        <g id="Grupo_1160581" data-name="Grupo 1160581" transform="translate(0 7864)">
          <g id="Grupo_1153955" data-name="Grupo 1153955" transform="translate(-83 1036)">
            <g id="Grupo_1149598" data-name="Grupo 1149598" transform="translate(80 315)">
              <g id="Grupo_1148770" data-name="Grupo 1148770" transform="translate(-27 -2583)">
                <g id="Grupo_1146954" data-name="Grupo 1146954" transform="translate(-415 -1202)">
                  <g transform="matrix(1, 0, 0, 1, 616, 3983)" filter="url(#Trazado_982547)">
                    <g id="Trazado_982547-2" data-name="Trazado 982547" transform="translate(9 6)" fill="#fcebe9">
                      <path d="M 45 88.5 C 39.12687683105469 88.5 33.43022537231445 87.35007476806641 28.06830024719238 85.08217620849609 C 22.88852500915527 82.89131164550781 18.23629951477051 79.75458526611328 14.2408504486084 75.75914764404297 C 10.24541282653809 71.76370239257812 7.108687400817871 67.11147308349609 4.917825222015381 61.93170166015625 C 2.649924993515015 56.56977462768555 1.5 50.87312316894531 1.5 45 C 1.5 39.12687683105469 2.649924993515015 33.43022537231445 4.917825222015381 28.06830024719238 C 7.108687400817871 22.88852500915527 10.24541282653809 18.23629951477051 14.2408504486084 14.2408504486084 C 18.23629951477051 10.24541282653809 22.88852500915527 7.108687400817871 28.06830024719238 4.917825222015381 C 33.43022537231445 2.649924993515015 39.12687683105469 1.5 45 1.5 C 50.87312316894531 1.5 56.56977462768555 2.649924993515015 61.93170166015625 4.917825222015381 C 67.11147308349609 7.108687400817871 71.76370239257812 10.24541282653809 75.75914764404297 14.2408504486084 C 79.75458526611328 18.23629951477051 82.89131164550781 22.88852500915527 85.08217620849609 28.06830024719238 C 87.35007476806641 33.43022537231445 88.5 39.12687683105469 88.5 45 C 88.5 50.87312316894531 87.35007476806641 56.56977462768555 85.08217620849609 61.93170166015625 C 82.89131164550781 67.11147308349609 79.75458526611328 71.76370239257812 75.75914764404297 75.75914764404297 C 71.76370239257812 79.75458526611328 67.11147308349609 82.89131164550781 61.93170166015625 85.08217620849609 C 56.56977462768555 87.35007476806641 50.87312316894531 88.5 45 88.5 Z" stroke="none"/>
                      <path d="M 45 3 C 39.32871246337891 3 33.82865524291992 4.110054016113281 28.65262985229492 6.299339294433594 C 23.65165710449219 8.414573669433594 19.15968322753906 11.44334411621094 15.301513671875 15.301513671875 C 11.44334411621094 19.15968322753906 8.414573669433594 23.65165710449219 6.299339294433594 28.65262985229492 C 4.110054016113281 33.82865524291992 3 39.32871246337891 3 45 C 3 50.67128753662109 4.110054016113281 56.17134475708008 6.299339294433594 61.34737396240234 C 8.414573669433594 66.34834289550781 11.44334411621094 70.84031677246094 15.301513671875 74.698486328125 C 19.15968322753906 78.55665588378906 23.65165710449219 81.58542633056641 28.65262985229492 83.70066070556641 C 33.82865524291992 85.88994598388672 39.32871246337891 87 45 87 C 50.67128753662109 87 56.17134475708008 85.88994598388672 61.34737396240234 83.70066070556641 C 66.34834289550781 81.58542633056641 70.84031677246094 78.55665588378906 74.698486328125 74.698486328125 C 78.55665588378906 70.84031677246094 81.58542633056641 66.34834289550781 83.70066070556641 61.34737396240234 C 85.88994598388672 56.17134475708008 87 50.67128753662109 87 45 C 87 39.32871246337891 85.88994598388672 33.82865524291992 83.70066070556641 28.65262985229492 C 81.58542633056641 23.65165710449219 78.55665588378906 19.15968322753906 74.698486328125 15.301513671875 C 70.84031677246094 11.44334411621094 66.34834289550781 8.414573669433594 61.34737396240234 6.299339294433594 C 56.17134475708008 4.110054016113281 50.67128753662109 3 45 3 M 45 0 C 69.85281372070312 0 90 20.14718627929688 90 45 C 90 69.85281372070312 69.85281372070312 90 45 90 C 20.14718627929688 90 0 69.85281372070312 0 45 C 0 20.14718627929688 20.14718627929688 0 45 0 Z" stroke="none" fill="#e44b36"/>
                    </g>
                  </g>
                </g>
              </g>
            </g>
          </g>
        </g>
      </g>
    </g>
    <g id="_12-Firefighter" data-name="12-Firefighter" transform="translate(188 6764)">
      <path id="Trazado_1022707" data-name="Trazado 1022707" d="M20,54h6v6H18V54Z" fill="#afb4c8"/>
      <path id="Trazado_1022708" data-name="Trazado 1022708" d="M38,54h8v6H38V54Z" fill="#afb4c8"/>
      <path id="Trazado_1022709" data-name="Trazado 1022709" d="M32,50H22V47H42v3Z" fill="#afb4c8"/>
      <path id="Trazado_1022710" data-name="Trazado 1022710" d="M38,55v4H26V55H38Z" fill="#414952"/>
      <path id="Trazado_1022711" data-name="Trazado 1022711" d="M22,47v3H18V39.11l4-.85Z" fill="#414952"/>
      <path id="Trazado_1022712" data-name="Trazado 1022712" d="M46,39.11V50H42V38.26Z" fill="#414952"/>
      <g id="Grupo_1166236" data-name="Grupo 1166236">
        <path id="Trazado_1022713" data-name="Trazado 1022713" d="M32,59v4H20V60h6V59Z" fill="#ff7045"/>
        <path id="Trazado_1022714" data-name="Trazado 1022714" d="M38,60h6v3H32V59h6Z" fill="#ff7045"/>
        <path id="Trazado_1022715" data-name="Trazado 1022715" d="M22,50H32v5H26V54H20V50Z" fill="#ff7045"/>
        <path id="Trazado_1022716" data-name="Trazado 1022716" d="M44,50v4H38v1H32V50H44Z" fill="#ff7045"/>
        <path id="Trazado_1022717" data-name="Trazado 1022717" d="M42,38.26V47H32V41l4-4Z" fill="#ff7045"/>
        <path id="Trazado_1022718" data-name="Trazado 1022718" d="M32,41v6H22V38.26L28,37Z" fill="#ff7045"/>
      </g>
      <path id="Trazado_1022719" data-name="Trazado 1022719" d="M36,37l-4,4v4l4-4,6,1.26v-4Z" fill="#f92814"/>
      <path id="Trazado_1022720" data-name="Trazado 1022720" d="M28,37l-6,1.26v4L28,41l4,4V41Z" fill="#f92814"/>
      <path id="Trazado_1022721" data-name="Trazado 1022721" d="M18,60h2v3H9V41l9-1.89V50h2v4H18Z" fill="#ff7045"/>
      <path id="Trazado_1022722" data-name="Trazado 1022722" d="M46,54H44V50h2V39.11L55,41V63H44V60h2Z" fill="#ff7045"/>
      <path id="Trazado_1022723" data-name="Trazado 1022723" d="M18,39.11,9,41v4l9-1.89Z" fill="#f92814"/>
      <path id="Trazado_1022724" data-name="Trazado 1022724" d="M18,50h2v4H18Z" fill="#f92814"/>
      <path id="Trazado_1022725" data-name="Trazado 1022725" d="M18,60h2v3H18Z" fill="#f92814"/>
      <path id="Trazado_1022726" data-name="Trazado 1022726" d="M44,50h2v4H44Z" fill="#f92814"/>
      <path id="Trazado_1022727" data-name="Trazado 1022727" d="M44,60h2v3H44Z" fill="#f92814"/>
      <path id="Trazado_1022728" data-name="Trazado 1022728" d="M46,39.11v4L55,45V41Z" fill="#f92814"/>
      <path id="Trazado_1022729" data-name="Trazado 1022729" d="M24,14v2a4,4,0,0,0,0,8v1a8.014,8.014,0,0,0,2.34,5.66c.12.12.24.23.37.34H23a7.079,7.079,0,0,1-6.93-8.63l2.02-8.42c2.3-1.31,4.28-2.3,5.88-3.02L24,11Z" fill="#c42f12"/>
      <path id="Trazado_1022730" data-name="Trazado 1022730" d="M40.03,10.93c1.6.72,3.58,1.71,5.88,3.02l2.02,8.42A7.079,7.079,0,0,1,41,31H37.29A7.975,7.975,0,0,0,40,25V24a4,4,0,0,0,0-8V11Z" fill="#c42f12"/>
      <path id="Trazado_1022731" data-name="Trazado 1022731" d="M25,1H39a5,5,0,0,1,5,5l1.91,7.95c-2.3-1.31-4.28-2.3-5.88-3.02A32.656,32.656,0,0,0,35,9V4H29V9a32.656,32.656,0,0,0-5.03,1.93c-1.6.72-3.58,1.71-5.88,3.02L20,6a5,5,0,0,1,5-5Z" fill="#ff7045"/>
      <path id="Trazado_1022732" data-name="Trazado 1022732" d="M20,9a5,5,0,0,1,5-5H39a5,5,0,0,1,5,5l1.078,4.489c.278.153.545.3.832.461L44,6a5,5,0,0,0-5-5H25a5,5,0,0,0-5,5l-1.91,7.95c.287-.164.554-.308.832-.461Z" fill="#f92814"/>
      <path id="Trazado_1022733" data-name="Trazado 1022733" d="M35,4V9l-3,1L29,9V4Z" fill="#ffa426"/>
      <path id="Trazado_1022734" data-name="Trazado 1022734" d="M35,9a32.656,32.656,0,0,1,5.03,1.93L40,11v3H24V11l-.03-.07A32.656,32.656,0,0,1,29,9l3,1Z" fill="#414952"/>
      <path id="Trazado_1022735" data-name="Trazado 1022735" d="M24,16v8a4,4,0,0,1,0-8Z" fill="#eb975d"/>
      <path id="Trazado_1022736" data-name="Trazado 1022736" d="M40,16a4,4,0,0,1,0,8Z" fill="#eb975d"/>
      <path id="Trazado_1022737" data-name="Trazado 1022737" d="M36,32v5l-4,4-4-4V32l.03-.06a7.964,7.964,0,0,0,7.94,0Z" fill="#ffb680"/>
      <path id="Trazado_1022738" data-name="Trazado 1022738" d="M35.97,31.94a7.964,7.964,0,0,1-7.94,0L28,32v3l.03-.06a7.964,7.964,0,0,0,7.94,0L36,35V32Z" fill="#eb975d"/>
      <path id="Trazado_1022739" data-name="Trazado 1022739" d="M26.71,31c-.13-.11-.25-.22-.37-.34A8.014,8.014,0,0,1,24,25V14H40V25a7.975,7.975,0,0,1-2.71,6,7.334,7.334,0,0,1-1.32.94,7.964,7.964,0,0,1-7.94,0A7.334,7.334,0,0,1,26.71,31Z" fill="#ffdaaa"/>
      <path id="Trazado_1022740" data-name="Trazado 1022740" d="M24,14v4H40V14Z" fill="#ffb680"/>
      <path id="Trazado_1022741" data-name="Trazado 1022741" d="M32,34a9.008,9.008,0,0,1-4.467-1.192,8.374,8.374,0,0,1-1.492-1.065c-.128-.107-.267-.235-.407-.374A8.985,8.985,0,0,1,23,25V11h2V25a7,7,0,0,0,2.049,4.956c.1.1.2.189.307.28a6.3,6.3,0,0,0,1.164.832,6.984,6.984,0,0,0,6.954,0,6.3,6.3,0,0,0,1.147-.815A7,7,0,0,0,39,25V11h2V25a8.988,8.988,0,0,1-3.05,6.751,8.369,8.369,0,0,1-1.49,1.061A9,9,0,0,1,32,34Z"/>
      <path id="Trazado_1022742" data-name="Trazado 1022742" d="M40,25V23a3,3,0,0,0,0-6V15a5,5,0,0,1,0,10Z"/>
      <path id="Trazado_1022743" data-name="Trazado 1022743" d="M24,25a5,5,0,0,1,0-10v2a3,3,0,0,0,0,6Z"/>
      <path id="Trazado_1022744" data-name="Trazado 1022744" d="M55,64H9a1,1,0,0,1-1-1V41a1,1,0,0,1,.794-.979L27,36.188V32h2v5a1,1,0,0,1-.794.979L10,41.812V62H54V41.812L35.794,37.979A1,1,0,0,1,35,37V32h2v4.188l18.206,3.833A1,1,0,0,1,56,41V63A1,1,0,0,1,55,64Z"/>
      <path id="Trazado_1022745" data-name="Trazado 1022745" d="M14,50h2V63H14Z"/>
      <path id="Trazado_1022746" data-name="Trazado 1022746" d="M48,50h2V63H48Z"/>
      <path id="Trazado_1022747" data-name="Trazado 1022747" d="M41,32H37V30h4a6.111,6.111,0,0,0,4.821-2.346A5.906,5.906,0,0,0,46.958,22.6L43.028,6.233A.959.959,0,0,1,43,6a4,4,0,0,0-4-4H25a4,4,0,0,0-4,4,.959.959,0,0,1-.028.233L17.042,22.6a5.9,5.9,0,0,0,1.137,5.05A6.111,6.111,0,0,0,23,30h4v2H23a8.1,8.1,0,0,1-6.391-3.106A7.894,7.894,0,0,1,15.1,22.138L19,5.876A6.007,6.007,0,0,1,25,0H39a6.007,6.007,0,0,1,6,5.876l3.9,16.261a7.892,7.892,0,0,1-1.511,6.757A8.1,8.1,0,0,1,41,32Z"/>
      <path id="Trazado_1022748" data-name="Trazado 1022748" d="M32,11a1,1,0,0,1-.316-.051l-3-1A1,1,0,0,1,28,9V4a1,1,0,0,1,1-1h6a1,1,0,0,1,1,1V9a1,1,0,0,1-.684.949l-3,1A1,1,0,0,1,32,11ZM30,8.279l2,.667,2-.667V5H30Z"/>
      <path id="Trazado_1022749" data-name="Trazado 1022749" d="M18.489,14.871l-1.047-1.7.159-.091c2.1-1.2,4.107-2.228,5.959-3.061a33.391,33.391,0,0,1,5.2-1.989l.484,1.941a32.6,32.6,0,0,0-4.857,1.87c-1.8.809-3.75,1.811-5.8,2.979Z"/>
      <path id="Trazado_1022750" data-name="Trazado 1022750" d="M45.444,14.834a.55.55,0,0,1-.091-.054c-1.989-1.129-3.939-2.131-5.733-2.938A32.686,32.686,0,0,0,34.757,9.97l.484-1.941a33.424,33.424,0,0,1,5.2,1.992c1.846.83,3.853,1.861,5.959,3.06a1.328,1.328,0,0,1,.153.089l-1.116,1.66Z"/>
      <path id="Trazado_1022751" data-name="Trazado 1022751" d="M24,13H40v2H24Z"/>
      <path id="Trazado_1022752" data-name="Trazado 1022752" d="M32,42a1,1,0,0,1-.707-.293l-4-4,1.414-1.414L32,39.586l3.293-3.293,1.414,1.414-4,4A1,1,0,0,1,32,42Z"/>
      <path id="Trazado_1022753" data-name="Trazado 1022753" d="M22,51H18a1,1,0,0,1-1-1V39h2V49h2V38h2V50A1,1,0,0,1,22,51Z"/>
      <path id="Trazado_1022754" data-name="Trazado 1022754" d="M46,51H42a1,1,0,0,1-1-1V38h2V49h2V39h2V50A1,1,0,0,1,46,51Z"/>
      <path id="Trazado_1022755" data-name="Trazado 1022755" d="M22,49H42v2H22Z"/>
      <path id="Trazado_1022756" data-name="Trazado 1022756" d="M22,46H42v2H22Z"/>
      <path id="Trazado_1022757" data-name="Trazado 1022757" d="M19,50h2v4H19Z"/>
      <path id="Trazado_1022758" data-name="Trazado 1022758" d="M19,60h2v3H19Z"/>
      <path id="Trazado_1022759" data-name="Trazado 1022759" d="M43,60h2v3H43Z"/>
      <path id="Trazado_1022760" data-name="Trazado 1022760" d="M43,50h2v4H43Z"/>
      <path id="Trazado_1022761" data-name="Trazado 1022761" d="M26,61H18a1,1,0,0,1-1-1V54a1,1,0,0,1,1-1h8a1,1,0,0,1,1,1v6A1,1,0,0,1,26,61Zm-7-2h6V55H19Z"/>
      <path id="Trazado_1022762" data-name="Trazado 1022762" d="M46,61H38a1,1,0,0,1-1-1V54a1,1,0,0,1,1-1h8a1,1,0,0,1,1,1v6A1,1,0,0,1,46,61Zm-7-2h6V55H39Z"/>
      <path id="Trazado_1022763" data-name="Trazado 1022763" d="M26,58H38v2H26Z"/>
      <path id="Trazado_1022764" data-name="Trazado 1022764" d="M26,54H38v2H26Z"/>
      <path id="Trazado_1022765" data-name="Trazado 1022765" d="M31,41h2v6H31Z"/>
      <path id="Trazado_1022766" data-name="Trazado 1022766" d="M31,50h2v5H31Z"/>
      <path id="Trazado_1022767" data-name="Trazado 1022767" d="M31,59h2v4H31Z"/>
      <path id="Trazado_1022768" data-name="Trazado 1022768" d="M21,56h2v2H21Z"/>
      <path id="Trazado_1022769" data-name="Trazado 1022769" d="M41,56h2v2H41Z"/>
    </g>
  </g>
</svg>
