<svg xmlns="http://www.w3.org/2000/svg" xmlns:xlink="http://www.w3.org/1999/xlink" width="108" height="108" viewBox="0 0 108 108">
  <defs>
    <filter id="Trazado_978624" x="0" y="0" width="108" height="108" filterUnits="userSpaceOnUse">
      <feOffset dy="3" input="SourceAlpha"/>
      <feGaussianBlur stdDeviation="3" result="blur"/>
      <feFlood flood-opacity="0.161"/>
      <feComposite operator="in" in2="blur"/>
      <feComposite in="SourceGraphic"/>
    </filter>
  </defs>
  <g id="Grupo_1166246" data-name="Grupo 1166246" transform="translate(-196 -7052)">
    <g id="Grupo_1164524" data-name="Grupo 1164524" transform="translate(205 7058)">
      <g id="Grupo_1144123" data-name="Grupo 1144123">
        <g transform="matrix(1, 0, 0, 1, -9, -6)" filter="url(#Trazado_978624)">
          <g id="Trazado_978624-2" data-name="Trazado 978624" transform="translate(9 6)" fill="#eaf5f4">
            <path d="M 45 88.5 C 39.12687683105469 88.5 33.43022537231445 87.35007476806641 28.06830024719238 85.08217620849609 C 22.88852500915527 82.89131164550781 18.23629951477051 79.75458526611328 14.2408504486084 75.75914764404297 C 10.24541282653809 71.76370239257812 7.108687400817871 67.11147308349609 4.917825222015381 61.93170166015625 C 2.649924993515015 56.56977462768555 1.5 50.87312316894531 1.5 45 C 1.5 39.12687683105469 2.649924993515015 33.43022537231445 4.917825222015381 28.06830024719238 C 7.108687400817871 22.88852500915527 10.24541282653809 18.23629951477051 14.2408504486084 14.2408504486084 C 18.23629951477051 10.24541282653809 22.88852500915527 7.108687400817871 28.06830024719238 4.917825222015381 C 33.43022537231445 2.649924993515015 39.12687683105469 1.5 45 1.5 C 50.87312316894531 1.5 56.56977462768555 2.649924993515015 61.93170166015625 4.917825222015381 C 67.11147308349609 7.108687400817871 71.76370239257812 10.24541282653809 75.75914764404297 14.2408504486084 C 79.75458526611328 18.23629951477051 82.89131164550781 22.88852500915527 85.08217620849609 28.06830024719238 C 87.35007476806641 33.43022537231445 88.5 39.12687683105469 88.5 45 C 88.5 50.87312316894531 87.35007476806641 56.56977462768555 85.08217620849609 61.93170166015625 C 82.89131164550781 67.11147308349609 79.75458526611328 71.76370239257812 75.75914764404297 75.75914764404297 C 71.76370239257812 79.75458526611328 67.11147308349609 82.89131164550781 61.93170166015625 85.08217620849609 C 56.56977462768555 87.35007476806641 50.87312316894531 88.5 45 88.5 Z" stroke="none"/>
            <path d="M 45 3 C 39.32871246337891 3 33.82865524291992 4.110054016113281 28.65262985229492 6.299339294433594 C 23.65165710449219 8.414573669433594 19.15968322753906 11.44334411621094 15.301513671875 15.301513671875 C 11.44334411621094 19.15968322753906 8.414573669433594 23.65165710449219 6.299339294433594 28.65262985229492 C 4.110054016113281 33.82865524291992 3 39.32871246337891 3 45 C 3 50.67128753662109 4.110054016113281 56.17134475708008 6.299339294433594 61.34737396240234 C 8.414573669433594 66.34834289550781 11.44334411621094 70.84031677246094 15.301513671875 74.698486328125 C 19.15968322753906 78.55665588378906 23.65165710449219 81.58542633056641 28.65262985229492 83.70066070556641 C 33.82865524291992 85.88994598388672 39.32871246337891 87 45 87 C 50.67128753662109 87 56.17134475708008 85.88994598388672 61.34737396240234 83.70066070556641 C 66.34834289550781 81.58542633056641 70.84031677246094 78.55665588378906 74.698486328125 74.698486328125 C 78.55665588378906 70.84031677246094 81.58542633056641 66.34834289550781 83.70066070556641 61.34737396240234 C 85.88994598388672 56.17134475708008 87 50.67128753662109 87 45 C 87 39.32871246337891 85.88994598388672 33.82865524291992 83.70066070556641 28.65262985229492 C 81.58542633056641 23.65165710449219 78.55665588378906 19.15968322753906 74.698486328125 15.301513671875 C 70.84031677246094 11.44334411621094 66.34834289550781 8.414573669433594 61.34737396240234 6.299339294433594 C 56.17134475708008 4.110054016113281 50.67128753662109 3 45 3 M 45 0 C 69.85281372070312 0 90 20.14718627929688 90 45 C 90 69.85281372070312 69.85281372070312 90 45 90 C 20.14718627929688 90 0 69.85281372070312 0 45 C 0 20.14718627929688 20.14718627929688 0 45 0 Z" stroke="none" fill="#41a599"/>
          </g>
        </g>
      </g>
    </g>
    <g id="incident_18416158" transform="translate(218.756 7067.306)">
      <g id="Grupo_1166245" data-name="Grupo 1166245" transform="translate(1.85 6.731)">
        <g id="Grupo_1166239" data-name="Grupo 1166239" transform="translate(0 17.625)">
          <g id="Grupo_1166238" data-name="Grupo 1166238">
            <path id="Trazado_1022770" data-name="Trazado 1022770" d="M27.341,194.391l-11.659,3.172a19.463,19.463,0,0,0,.285-2.551,6.434,6.434,0,0,0-.292-2.481,5.921,5.921,0,0,0-1.394-2.258l0,0-4.452-4.753a5.428,5.428,0,0,1-1.592-3.8l-.07-18.33a2.974,2.974,0,0,1,5.948-.023l.049,12.765.06-.063a3.3,3.3,0,0,1,4.652-.036l8.184,8.058a5.2,5.2,0,0,1,1.086,3.978l-.8,6.327Z" transform="translate(-8.164 -160.399)" fill="#ffd6bd" fill-rule="evenodd"/>
            <path id="Trazado_1022771" data-name="Trazado 1022771" d="M53.332,292.476a3.3,3.3,0,0,1-.5-4.064,3.256,3.256,0,0,0-.6.482,3.3,3.3,0,0,0,.036,4.652c1.595,1.568,3.173,3.149,4.76,4.724A.757.757,0,1,0,58.1,297.2c-1.584-1.572-3.165-3.144-4.764-4.72Z" transform="translate(-46.176 -273.229)" fill="#f9c6aa" fill-rule="evenodd"/>
            <path id="Trazado_1022772" data-name="Trazado 1022772" d="M17.429,197.087l-1.747.475a19.483,19.483,0,0,0,.285-2.551,6.435,6.435,0,0,0-.292-2.481,5.921,5.921,0,0,0-1.394-2.258l0,0-4.452-4.753a5.428,5.428,0,0,1-1.592-3.8l-.07-18.33a2.983,2.983,0,0,1,2.963-2.985c.049,0,.1,0,.146,0a2.978,2.978,0,0,0-1.361,2.507l.07,18.33a5.429,5.429,0,0,0,1.592,3.8l4.452,4.753,0,0a5.92,5.92,0,0,1,1.394,2.258,6.437,6.437,0,0,1,.292,2.481,19.484,19.484,0,0,1-.285,2.551Z" transform="translate(-8.164 -160.399)" fill="#f9c6aa" fill-rule="evenodd"/>
          </g>
          <rect id="Rect치ngulo_413382" data-name="Rect치ngulo 413382" width="16.081" height="4.04" rx="2.02" transform="translate(6.001 36.114) rotate(-15.19)" fill="#64b5f6"/>
          <path id="Trazado_1022773" data-name="Trazado 1022773" d="M80.13,430.519l-.166.045.671,2.467a.657.657,0,0,1-.46.8l-14.087,3.832.046.167a.657.657,0,0,0,.8.46l14.253-3.877a.657.657,0,0,0,.46-.8l-.717-2.634a.657.657,0,0,0-.8-.46Z" transform="translate(-59.218 -398.462)" fill="#42a5f5" fill-rule="evenodd"/>
        </g>
        <g id="Grupo_1166241" data-name="Grupo 1166241" transform="translate(35.915 18.105)">
          <g id="Grupo_1166240" data-name="Grupo 1166240" transform="translate(2.595)">
            <path id="Trazado_1022774" data-name="Trazado 1022774" d="M333.706,198.443l11.659,3.172a19.481,19.481,0,0,1-.285-2.551,6.434,6.434,0,0,1,.292-2.481,5.921,5.921,0,0,1,1.394-2.258l0,0,4.452-4.753a5.428,5.428,0,0,0,1.592-3.8l.07-18.33a2.974,2.974,0,0,0-5.948-.023l-.049,12.765-.06-.063a3.3,3.3,0,0,0-4.652-.036l-8.184,8.058a5.2,5.2,0,0,0-1.086,3.978l.8,6.327Z" transform="translate(-332.856 -164.451)" fill="#ffd6bd" fill-rule="evenodd"/>
            <path id="Trazado_1022775" data-name="Trazado 1022775" d="M404.324,296.526a3.3,3.3,0,0,0,.5-4.064,3.258,3.258,0,0,1,.6.482,3.3,3.3,0,0,1-.036,4.652c-1.595,1.568-3.173,3.149-4.76,4.724a.757.757,0,1,1-1.066-1.074c1.584-1.572,3.165-3.144,4.764-4.72Z" transform="translate(-391.452 -277.279)" fill="#f9c6aa" fill-rule="evenodd"/>
            <path id="Trazado_1022776" data-name="Trazado 1022776" d="M421.362,201.139l1.747.475a19.487,19.487,0,0,1-.285-2.551,6.435,6.435,0,0,1,.292-2.481,5.921,5.921,0,0,1,1.394-2.258l0,0,4.452-4.753a5.428,5.428,0,0,0,1.592-3.8l.07-18.33a2.983,2.983,0,0,0-2.963-2.985c-.049,0-.1,0-.146,0a2.978,2.978,0,0,1,1.361,2.507l-.07,18.33a5.429,5.429,0,0,1-1.593,3.8l-4.452,4.753,0,0a5.922,5.922,0,0,0-1.394,2.258,6.434,6.434,0,0,0-.292,2.481,19.476,19.476,0,0,0,.285,2.551Z" transform="translate(-410.6 -164.451)" fill="#f9c6aa" fill-rule="evenodd"/>
          </g>
          <rect id="Rect치ngulo_413383" data-name="Rect치ngulo 413383" width="4.04" height="16.081" rx="2.02" transform="translate(0 35.757) rotate(-74.81)" fill="#64b5f6"/>
          <path id="Trazado_1022777" data-name="Trazado 1022777" d="M313.928,434.57l.166.045-.671,2.467a.657.657,0,0,0,.46.8l14.087,3.832-.046.167a.657.657,0,0,1-.8.46l-14.252-3.877a.657.657,0,0,1-.46-.8l.717-2.634a.657.657,0,0,1,.8-.46Z" transform="translate(-312.218 -402.513)" fill="#42a5f5" fill-rule="evenodd"/>
        </g>
        <g id="Grupo_1166244" data-name="Grupo 1166244" transform="translate(8.702 0)">
          <g id="Grupo_1166242" data-name="Grupo 1166242">
            <path id="Trazado_1022778" data-name="Trazado 1022778" d="M96.7,12.284,109.953,34.4a1.322,1.322,0,0,1-1.136,2H82.861a1.322,1.322,0,0,1-1.136-2L94.98,12.284A1,1,0,0,1,96.7,12.284Z" transform="translate(-81.533 -11.799)" fill="#fc685b" fill-rule="evenodd"/>
            <path id="Trazado_1022779" data-name="Trazado 1022779" d="M109.559,33.748l.394.658a1.322,1.322,0,0,1-1.136,2H82.861a1.322,1.322,0,0,1-1.136-2L94.98,12.285a1,1,0,0,1,1.273-.4l-11.9,19.855a1.322,1.322,0,0,0,1.136,2h24.068Z" transform="translate(-81.533 -11.8)" fill="#fb4737" fill-rule="evenodd"/>
            <path id="Trazado_1022780" data-name="Trazado 1022780" d="M191.632,177.113a1.415,1.415,0,1,1-1.415,1.415A1.415,1.415,0,0,1,191.632,177.113Z" transform="translate(-177.327 -157.506)" fill="#e6f8ff" fill-rule="evenodd"/>
            <path id="Trazado_1022781" data-name="Trazado 1022781" d="M192.969,179.425a1.416,1.416,0,1,1-1.738-1.825,1.416,1.416,0,0,0,1.738,1.825Z" transform="translate(-177.327 -157.935)" fill="#dee8ee" fill-rule="evenodd"/>
            <path id="Trazado_1022782" data-name="Trazado 1022782" d="M190.058,68.308a1.1,1.1,0,0,1-2.2,0l-.675-9.8c0-2.224,3.55-2.224,3.55,0Z" transform="translate(-174.653 -51.494)" fill="#e6f8ff" fill-rule="evenodd"/>
            <path id="Trazado_1022783" data-name="Trazado 1022783" d="M190.051,69.4a1.107,1.107,0,0,1-2.193-.134l-.675-9.8a1.571,1.571,0,0,1,1.053-1.538,1.746,1.746,0,0,0-.117.648l.675,9.8a1.051,1.051,0,0,0,1.257,1.024Z" transform="translate(-174.653 -52.457)" fill="#dee8ee" fill-rule="evenodd"/>
          </g>
          <g id="Grupo_1166243" data-name="Grupo 1166243" transform="translate(17.83 8.931)">
            <path id="Trazado_1022784" data-name="Trazado 1022784" d="M242.046,87.1H245.2a.385.385,0,0,1,.385.385V89.07a9.928,9.928,0,0,1,3.573,1.481l1.122-1.122a.385.385,0,0,1,.544,0l2.232,2.232a.385.385,0,0,1,0,.544l-1.121,1.121a9.932,9.932,0,0,1,1.481,3.573H255a.385.385,0,0,1,.385.385v3.156a.385.385,0,0,1-.385.385h-1.585a9.927,9.927,0,0,1-1.481,3.573l1.121,1.121a.385.385,0,0,1,0,.544l-2.232,2.232a.385.385,0,0,1-.544,0l-1.121-1.121a9.93,9.93,0,0,1-3.573,1.481v1.585a.385.385,0,0,1-.385.385h-3.156a.385.385,0,0,1-.385-.385v-1.585a9.929,9.929,0,0,1-3.573-1.481l-1.121,1.121a.385.385,0,0,1-.544,0l-2.232-2.232a.385.385,0,0,1,0-.544l1.121-1.121a9.929,9.929,0,0,1-1.481-3.573h-1.585a.385.385,0,0,1-.385-.385V97.283a.385.385,0,0,1,.385-.385h1.585a9.929,9.929,0,0,1,1.481-3.573L234.192,92.2a.385.385,0,0,1,0-.544l2.232-2.232a.385.385,0,0,1,.544,0l1.121,1.121a9.932,9.932,0,0,1,3.573-1.481V87.485A.385.385,0,0,1,242.046,87.1Z" transform="translate(-231.863 -87.1)" fill="#ffda2d" fill-rule="evenodd"/>
            <path id="Trazado_1022785" data-name="Trazado 1022785" d="M244.54,87.1h.663a.385.385,0,0,1,.385.385V89.07a9.926,9.926,0,0,0-1.047-.269V87.1Zm-3.528,20.442a6.949,6.949,0,0,1-3.971-1.378l-1.121,1.121a.386.386,0,0,1-.424.081l.927.927a.385.385,0,0,0,.544,0l1.121-1.121a9.935,9.935,0,0,0,3.573,1.481V107.51a6.451,6.451,0,0,1-.649.033ZM252.456,96.9h.96a9.941,9.941,0,0,0-1.481-3.573l1.121-1.121a.385.385,0,0,0,0-.544l-2.232-2.232a.381.381,0,0,0-.12-.081l1.3,1.305a.385.385,0,0,1,0,.544l-1.121,1.121A8.939,8.939,0,0,1,252.456,96.9Zm1.883,0H255a.385.385,0,0,1,.384.385v3.156a.385.385,0,0,1-.384.385h-1.585a9.927,9.927,0,0,1-1.481,3.573l1.121,1.121a.385.385,0,0,1,0,.544l-2.232,2.232a.385.385,0,0,1-.544,0l-.927-.927a.386.386,0,0,0,.424-.081l2.232-2.232a.385.385,0,0,0,0-.544l-1.121-1.121a9.932,9.932,0,0,0,1.481-3.573h1.585a.385.385,0,0,0,.385-.385V96.9Zm-5.2,10.289a9.931,9.931,0,0,1-3.549,1.465v1.585a.385.385,0,0,1-.385.385h-3.156a.385.385,0,0,1-.385-.385v-.624h2.494a.385.385,0,0,0,.385-.385v-1.585a9.93,9.93,0,0,0,3.573-1.481Zm-15.3-6.364h-1.585a.385.385,0,0,1-.385-.385v-.624h1.713a9.894,9.894,0,0,0,.257,1.008Zm3.015-11.477a.381.381,0,0,1,.12.081l.1.1-.023.016-.195-.195Z" transform="translate(-231.863 -87.1)" fill="#ffc700" fill-rule="evenodd"/>
            <path id="Trazado_1022786" data-name="Trazado 1022786" d="M283.41,145.054A6.408,6.408,0,1,0,277,138.646a6.42,6.42,0,0,0,6.408,6.408Z" transform="translate(-271.648 -126.884)" fill="#eff4f7" fill-rule="evenodd"/>
            <path id="Trazado_1022787" data-name="Trazado 1022787" d="M283.41,132.239a6.4,6.4,0,0,1,4.935,2.321,6.408,6.408,0,0,0-8.807,9.193,6.408,6.408,0,0,1,3.872-11.514Z" transform="translate(-271.648 -126.885)" fill="#dee8ee" fill-rule="evenodd"/>
            <path id="Trazado_1022788" data-name="Trazado 1022788" d="M314.143,155.531a2.272,2.272,0,1,0-2.272-2.272A2.277,2.277,0,0,0,314.143,155.531Z" transform="translate(-302.382 -143.41)" fill="#64b5f6" fill-rule="evenodd"/>
            <path id="Trazado_1022789" data-name="Trazado 1022789" d="M314.143,150.987a2.273,2.273,0,0,1,2.087,1.372,2.273,2.273,0,0,0-2.987,2.987,2.272,2.272,0,0,1,.9-4.359Z" transform="translate(-302.382 -143.41)" fill="#2d90f1" fill-rule="evenodd"/>
          </g>
        </g>
      </g>
      <path id="Trazado_1022790" data-name="Trazado 1022790" d="M40.244,25.221a.957.957,0,1,1-.957.957A.957.957,0,0,1,40.244,25.221Zm.949,5.86V28.87a2.855,2.855,0,1,0-1.9,0v2.212a.949.949,0,0,0,1.9,0Zm-6.6-3.4a5.65,5.65,0,1,0,5.65-5.65A5.657,5.657,0,0,0,34.594,27.678Zm13.2,0a7.548,7.548,0,1,0-7.548,7.548A7.557,7.557,0,0,0,47.793,27.678ZM35.236,35.2a8.921,8.921,0,0,0,3.23,1.339.949.949,0,0,1,.764.931v1.02h2.028V37.47a.949.949,0,0,1,.763-.931A8.962,8.962,0,0,0,45.253,35.2a.949.949,0,0,1,1.2.119l.722.722,1.434-1.434-.722-.722a.949.949,0,0,1-.119-1.2,8.913,8.913,0,0,0,1.339-3.232.949.949,0,0,1,.931-.763h1.02V26.664h-1.02a.949.949,0,0,1-.931-.764,8.947,8.947,0,0,0-1.339-3.231.949.949,0,0,1,.119-1.2l.722-.722-1.434-1.434-.722.722a.949.949,0,0,1-1.2.119,8.942,8.942,0,0,0-3.232-1.34.948.948,0,0,1-.763-.93V16.865H39.231v1.021a.948.948,0,0,1-.764.93,8.925,8.925,0,0,0-3.23,1.34.949.949,0,0,1-1.2-.119l-.722-.722-1.434,1.434.722.722a.951.951,0,0,1,.119,1.2,8.939,8.939,0,0,0-1.34,3.231.948.948,0,0,1-.93.764H29.431v2.028h1.021a.948.948,0,0,1,.93.763,8.934,8.934,0,0,0,1.34,3.232.951.951,0,0,1-.119,1.2l-.722.722,1.434,1.434.722-.722a.949.949,0,0,1,1.2-.119ZM11.809,30.661a.374.374,0,0,1-.322-.569L24.742,7.972a.045.045,0,0,1,.045-.025.044.044,0,0,1,.045.025l6.423,10.719-1.115,1.115a1.334,1.334,0,0,0,0,1.886l.591.591A10.8,10.8,0,0,0,29.7,24.766h-.836A1.334,1.334,0,0,0,27.534,26.1v3.156a1.335,1.335,0,0,0,1.333,1.334H29.7c.006.024.013.047.02.071Zm26.857,9.727h3.157a1.335,1.335,0,0,0,1.334-1.333v-.835a10.778,10.778,0,0,0,2.482-1.029l.592.591a1.334,1.334,0,0,0,1.886,0l2.231-2.231a1.335,1.335,0,0,0,0-1.886l-.591-.592a10.79,10.79,0,0,0,1.029-2.482h.835a1.335,1.335,0,0,0,1.333-1.334V26.1a1.334,1.334,0,0,0-1.333-1.333h-.835a10.8,10.8,0,0,0-1.029-2.484l.591-.591a1.334,1.334,0,0,0,0-1.886l-2.232-2.232a1.336,1.336,0,0,0-1.886,0l-.592.592a10.736,10.736,0,0,0-2.482-1.029V16.3a1.335,1.335,0,0,0-1.334-1.333H38.666A1.334,1.334,0,0,0,37.333,16.3v.836a10.759,10.759,0,0,0-2.484,1.029l-.591-.592a1.335,1.335,0,0,0-1.591-.221L26.461,7a1.951,1.951,0,0,0-3.346,0L9.86,29.116a2.271,2.271,0,0,0,1.949,3.442H30.459c.087.173.177.345.273.514l-.591.592a1.335,1.335,0,0,0,0,1.886l2.232,2.232a1.335,1.335,0,0,0,1.886,0l.591-.592a10.8,10.8,0,0,0,2.484,1.029v.835a1.334,1.334,0,0,0,1.333,1.333ZM24.941,23.746l.672-9.766a.839.839,0,0,0-1.652,0l.672,9.766c0,.023,0,.044,0,.065a.191.191,0,0,0,.006.052.3.3,0,0,0,.145.033.243.243,0,0,0,.149-.039s0-.017,0-.046a.644.644,0,0,1,0-.065Zm-.154,4.74a.466.466,0,1,0-.466-.466A.467.467,0,0,0,24.787,28.487Zm0-17.1a2.613,2.613,0,0,0-2.723,2.616.622.622,0,0,0,0,.065l.673,9.776a1.938,1.938,0,0,0,1.5,1.875,2.365,2.365,0,1,0,1.106,0,1.94,1.94,0,0,0,1.5-1.875l.672-9.776c0-.021,0-.043,0-.065a2.613,2.613,0,0,0-2.724-2.616ZM42.222,56.375,41.652,52.2a3.615,3.615,0,0,1,.778-3.187l8.1-8.128a2.321,2.321,0,0,1,1.652-.682h0a2.332,2.332,0,0,1,1.656,3.981l-4.325,4.342A.949.949,0,1,0,50.86,49.87l4.325-4.341a4.241,4.241,0,0,0,.327-5.609l-.072-12.4a2.031,2.031,0,0,1,2.01-2.033h.012a2.023,2.023,0,0,1,2.022,2.01L59.59,45.8a4.493,4.493,0,0,1-1.3,3.167l-4.4,4.79a6.794,6.794,0,0,0-1.9,5.169l-9.76-2.555Zm10.808,7,.542-2.068L39.867,57.721l-.541,2.067,13.7,3.588Zm2.251-8.331,4.4-4.79a6.392,6.392,0,0,0,1.805-4.462l-.106-18.311a3.924,3.924,0,0,0-3.92-3.9H57.44a3.928,3.928,0,0,0-3.9,3.941l.064,11.024a4.239,4.239,0,0,0-4.421,1l-8.1,8.128a5.46,5.46,0,0,0-1.315,4.782l.463,3.4-.172-.045a1.606,1.606,0,0,0-1.957,1.145l-.69,2.638a1.6,1.6,0,0,0,1.145,1.957l14.274,3.737a1.6,1.6,0,0,0,1.957-1.146l.69-2.638a1.605,1.605,0,0,0-1.144-1.957l-.415-.108a5.056,5.056,0,0,1,1.359-4.393ZM9.457,63.376l-.542-2.068L22.62,57.721l.54,2.067-13.7,3.588ZM8.6,53.761a6.793,6.793,0,0,1,1.9,5.169l9.76-2.555.569-4.171a3.615,3.615,0,0,0-.778-3.187l-8.1-8.128a2.322,2.322,0,0,0-1.652-.682h0a2.332,2.332,0,0,0-1.656,3.981l4.326,4.342a.949.949,0,0,1-1.345,1.339L7.3,45.529a4.244,4.244,0,0,1-.327-5.609l.073-12.4a2.031,2.031,0,0,0-2.01-2.033H5.025A2.024,2.024,0,0,0,3,27.494L2.9,45.8a4.5,4.5,0,0,0,1.3,3.167l4.4,4.79Zm15.778,3.194a1.6,1.6,0,0,0-1.957-1.145l-.172.045.464-3.4A5.46,5.46,0,0,0,21.4,47.678L13.3,39.55a4.239,4.239,0,0,0-4.421-1l.064-11.023a3.92,3.92,0,0,0-7.84-.046L1,45.793a6.389,6.389,0,0,0,1.805,4.462l4.4,4.79a5.056,5.056,0,0,1,1.359,4.393l-.416.108A1.606,1.606,0,0,0,7.006,61.5l.69,2.639a1.6,1.6,0,0,0,1.957,1.145L23.927,61.55a1.6,1.6,0,0,0,1.145-1.957l-.69-2.638Z" transform="translate(0)" fill-rule="evenodd"/>
    </g>
  </g>
</svg>
