<svg xmlns="http://www.w3.org/2000/svg" xmlns:xlink="http://www.w3.org/1999/xlink" width="108" height="108" viewBox="0 0 108 108">
  <defs>
    <filter id="Trazado_982547" x="0" y="0" width="108" height="108" filterUnits="userSpaceOnUse">
      <feOffset dy="3" input="SourceAlpha"/>
      <feGaussianBlur stdDeviation="3" result="blur"/>
      <feFlood flood-opacity="0.161"/>
      <feComposite operator="in" in2="blur"/>
      <feComposite in="SourceGraphic"/>
    </filter>
  </defs>
  <g id="Grupo_1166234" data-name="Grupo 1166234" transform="translate(-166 -2449)">
    <g id="Grupo_1166229" data-name="Grupo 1166229">
      <g id="Grupo_1164717" data-name="Grupo 1164717" transform="translate(-5 -1469)">
        <g id="Grupo_1161419" data-name="Grupo 1161419" transform="translate(0 -5495)">
          <g id="Grupo_1160581" data-name="Grupo 1160581" transform="translate(0 7864)">
            <g id="Grupo_1153955" data-name="Grupo 1153955" transform="translate(-83 1036)">
              <g id="Grupo_1149598" data-name="Grupo 1149598" transform="translate(80 315)">
                <g id="Grupo_1148770" data-name="Grupo 1148770" transform="translate(-27 -2583)">
                  <g id="Grupo_1146954" data-name="Grupo 1146954" transform="translate(-415 -1202)">
                    <g transform="matrix(1, 0, 0, 1, 616, 3983)" filter="url(#Trazado_982547)">
                      <g id="Trazado_982547-2" data-name="Trazado 982547" transform="translate(9 6)" fill="#fcebe9">
                        <path d="M 45 88.5 C 39.12687683105469 88.5 33.43022537231445 87.35007476806641 28.06830024719238 85.08217620849609 C 22.88852500915527 82.89131164550781 18.23629951477051 79.75458526611328 14.2408504486084 75.75914764404297 C 10.24541282653809 71.76370239257812 7.108687400817871 67.11147308349609 4.917825222015381 61.93170166015625 C 2.649924993515015 56.56977462768555 1.5 50.87312316894531 1.5 45 C 1.5 39.12687683105469 2.649924993515015 33.43022537231445 4.917825222015381 28.06830024719238 C 7.108687400817871 22.88852500915527 10.24541282653809 18.23629951477051 14.2408504486084 14.2408504486084 C 18.23629951477051 10.24541282653809 22.88852500915527 7.108687400817871 28.06830024719238 4.917825222015381 C 33.43022537231445 2.649924993515015 39.12687683105469 1.5 45 1.5 C 50.87312316894531 1.5 56.56977462768555 2.649924993515015 61.93170166015625 4.917825222015381 C 67.11147308349609 7.108687400817871 71.76370239257812 10.24541282653809 75.75914764404297 14.2408504486084 C 79.75458526611328 18.23629951477051 82.89131164550781 22.88852500915527 85.08217620849609 28.06830024719238 C 87.35007476806641 33.43022537231445 88.5 39.12687683105469 88.5 45 C 88.5 50.87312316894531 87.35007476806641 56.56977462768555 85.08217620849609 61.93170166015625 C 82.89131164550781 67.11147308349609 79.75458526611328 71.76370239257812 75.75914764404297 75.75914764404297 C 71.76370239257812 79.75458526611328 67.11147308349609 82.89131164550781 61.93170166015625 85.08217620849609 C 56.56977462768555 87.35007476806641 50.87312316894531 88.5 45 88.5 Z" stroke="none"/>
                        <path d="M 45 3 C 39.32871246337891 3 33.82865524291992 4.110054016113281 28.65262985229492 6.299339294433594 C 23.65165710449219 8.414573669433594 19.15968322753906 11.44334411621094 15.301513671875 15.301513671875 C 11.44334411621094 19.15968322753906 8.414573669433594 23.65165710449219 6.299339294433594 28.65262985229492 C 4.110054016113281 33.82865524291992 3 39.32871246337891 3 45 C 3 50.67128753662109 4.110054016113281 56.17134475708008 6.299339294433594 61.34737396240234 C 8.414573669433594 66.34834289550781 11.44334411621094 70.84031677246094 15.301513671875 74.698486328125 C 19.15968322753906 78.55665588378906 23.65165710449219 81.58542633056641 28.65262985229492 83.70066070556641 C 33.82865524291992 85.88994598388672 39.32871246337891 87 45 87 C 50.67128753662109 87 56.17134475708008 85.88994598388672 61.34737396240234 83.70066070556641 C 66.34834289550781 81.58542633056641 70.84031677246094 78.55665588378906 74.698486328125 74.698486328125 C 78.55665588378906 70.84031677246094 81.58542633056641 66.34834289550781 83.70066070556641 61.34737396240234 C 85.88994598388672 56.17134475708008 87 50.67128753662109 87 45 C 87 39.32871246337891 85.88994598388672 33.82865524291992 83.70066070556641 28.65262985229492 C 81.58542633056641 23.65165710449219 78.55665588378906 19.15968322753906 74.698486328125 15.301513671875 C 70.84031677246094 11.44334411621094 66.34834289550781 8.414573669433594 61.34737396240234 6.299339294433594 C 56.17134475708008 4.110054016113281 50.67128753662109 3 45 3 M 45 0 C 69.85281372070312 0 90 20.14718627929688 90 45 C 90 69.85281372070312 69.85281372070312 90 45 90 C 20.14718627929688 90 0 69.85281372070312 0 45 C 0 20.14718627929688 20.14718627929688 0 45 0 Z" stroke="none" fill="#e44b36"/>
                      </g>
                    </g>
                  </g>
                </g>
              </g>
            </g>
          </g>
        </g>
      </g>
    </g>
    <g id="_11-Firefighter" data-name="11-Firefighter" transform="translate(188 2466)">
      <path id="Trazado_1022644" data-name="Trazado 1022644" d="M17,51v4L9.53,53.13c.17-1.47.36-2.83.57-4.1Z" fill="#f2f6fc"/>
      <path id="Trazado_1022645" data-name="Trazado 1022645" d="M54.47,53.13,47,55V51.59a5.221,5.221,0,0,0,1.51-1.02l5.39-1.54c.21,1.27.4,2.63.57,4.1Z" fill="#f2f6fc"/>
      <circle id="Elipse_11892" data-name="Elipse 11892" cx="2" cy="2" r="2" transform="translate(43 45)" fill="#19cffc"/>
      <path id="Trazado_1022646" data-name="Trazado 1022646" d="M47,47a2,2,0,1,0-2,2A2,2,0,0,0,47,47Zm-4,4.59a5.011,5.011,0,0,1,0-9.18,5.083,5.083,0,0,1,4,0,5.015,5.015,0,0,1,1.51,8.16A5.221,5.221,0,0,1,47,51.59a5.083,5.083,0,0,1-4,0Z" fill="#bec3d2"/>
      <path id="Trazado_1022647" data-name="Trazado 1022647" d="M47,55v8H17V55H47Z" fill="#afb4c8"/>
      <path id="Trazado_1022648" data-name="Trazado 1022648" d="M21,55H17v8H47V59H25A4,4,0,0,1,21,55Z" fill="#9196aa"/>
      <g id="Grupo_1166234-2" data-name="Grupo 1166234">
        <path id="Trazado_1022649" data-name="Trazado 1022649" d="M17,36.39a32.412,32.412,0,0,1,3.22-.7L21,36.77V55H17Z" fill="#7e8596"/>
        <path id="Trazado_1022650" data-name="Trazado 1022650" d="M45,52a5.106,5.106,0,0,0,2-.41V55H43V51.59A5.106,5.106,0,0,0,45,52Z" fill="#7e8596"/>
        <path id="Trazado_1022651" data-name="Trazado 1022651" d="M43.78,35.69a32.413,32.413,0,0,1,3.22.7v6.02a5.083,5.083,0,0,0-4,0V36.77Z" fill="#7e8596"/>
      </g>
      <path id="Trazado_1022652" data-name="Trazado 1022652" d="M36,37v2L32,52,28,39V37s2,2,4,2S36,37,36,37Z" fill="#dce1eb"/>
      <path id="Trazado_1022653" data-name="Trazado 1022653" d="M28,39l4,13L21,36.77l-.78-1.08L19,34l3.72-2.79a10.481,10.481,0,0,0,5.68,1.77L28,35Z" fill="#ff9500"/>
      <path id="Trazado_1022654" data-name="Trazado 1022654" d="M28,35l.4-2.02a11.6,11.6,0,0,1-3.281-.578L25,33v4l2.846,9.248L32,52,28,39Z" fill="#fe8205"/>
      <path id="Trazado_1022655" data-name="Trazado 1022655" d="M45,34l-1.22,1.69L43,36.77,32,52l4-13V35l-.4-2.02a10.481,10.481,0,0,0,5.68-1.77Z" fill="#ff9500"/>
      <path id="Trazado_1022656" data-name="Trazado 1022656" d="M36,39,32,52l4.154-5.752L39,37V33l-.119-.6a11.6,11.6,0,0,1-3.281.578L36,35Z" fill="#fe8205"/>
      <path id="Trazado_1022657" data-name="Trazado 1022657" d="M55,63H47V55l7.47-1.87A90.17,90.17,0,0,1,55,63Z" fill="#ffc247"/>
      <path id="Trazado_1022658" data-name="Trazado 1022658" d="M53.9,49.03l-5.39,1.54A5.015,5.015,0,0,0,47,42.41V36.39A15.923,15.923,0,0,1,51,38a49.39,49.39,0,0,1,2.9,11.03Z" fill="#ffc247"/>
      <path id="Trazado_1022659" data-name="Trazado 1022659" d="M17,55v8H9a90.168,90.168,0,0,1,.53-9.87Z" fill="#ffa426"/>
      <path id="Trazado_1022660" data-name="Trazado 1022660" d="M17,36.39V51l-6.9-1.97A49.39,49.39,0,0,1,13,38a15.923,15.923,0,0,1,4-1.61Z" fill="#ffa426"/>
      <path id="Trazado_1022661" data-name="Trazado 1022661" d="M32,52v3H21V36.77Z" fill="#ffa426"/>
      <path id="Trazado_1022662" data-name="Trazado 1022662" d="M43,42.41a5.011,5.011,0,0,0,0,9.18V55H32V52L43,36.77Z" fill="#ffc247"/>
      <path id="Trazado_1022663" data-name="Trazado 1022663" d="M35,5V9H29V5l3-2Z" fill="#dce1eb"/>
      <path id="Trazado_1022664" data-name="Trazado 1022664" d="M20,19a3,3,0,0,0,3,3,8.954,8.954,0,0,0,2.64,6.36,8.777,8.777,0,0,0,3.27,2.09l-.51,2.53a10.481,10.481,0,0,1-5.68-1.77C18.53,28.33,18,23,18,23V16h5A3,3,0,0,0,20,19Z" fill="#555a66"/>
      <path id="Trazado_1022665" data-name="Trazado 1022665" d="M44,19a3,3,0,0,0-3-3h5v7s-.53,5.33-4.72,8.21a10.481,10.481,0,0,1-5.68,1.77l-.51-2.53A9,9,0,0,0,41,22a3,3,0,0,0,3-3Z" fill="#555a66"/>
      <path id="Trazado_1022666" data-name="Trazado 1022666" d="M46,16H18a3.986,3.986,0,0,1,2.24-3.59A4.049,4.049,0,0,0,20.9,12H43.1a4.049,4.049,0,0,0,.66.41A3.986,3.986,0,0,1,46,16Z" fill="#636978"/>
      <path id="Trazado_1022667" data-name="Trazado 1022667" d="M18.9,14H41.1a4.049,4.049,0,0,0,.66.41A4,4,0,0,1,43.46,16H46a3.986,3.986,0,0,0-2.24-3.59A4.049,4.049,0,0,1,43.1,12H20.9a4.049,4.049,0,0,1-.66.41,4,4,0,0,0-1.878,1.924A3.642,3.642,0,0,0,18.9,14Z" fill="#707789"/>
      <path id="Trazado_1022668" data-name="Trazado 1022668" d="M35,5,32,3,29,5V9h6Zm-.84-4a7.01,7.01,0,0,1,6.89,5.75l.53,2.93A3.652,3.652,0,0,0,43.1,12H20.9a3.652,3.652,0,0,0,1.52-2.32l.53-2.93A7.01,7.01,0,0,1,29.84,1Z" fill="#7e8596"/>
      <path id="Trazado_1022669" data-name="Trazado 1022669" d="M41.58,9.68l-.53-2.93A7.01,7.01,0,0,0,34.16,1h-3a7.01,7.01,0,0,1,6.89,5.75l.53,2.93A3.652,3.652,0,0,0,40.1,12h3a3.652,3.652,0,0,1-1.52-2.32Z" fill="#707789"/>
      <path id="Trazado_1022670" data-name="Trazado 1022670" d="M23,16v6a3,3,0,0,1,0-6Z" fill="#faa68e"/>
      <path id="Trazado_1022671" data-name="Trazado 1022671" d="M41,16a3,3,0,0,1,0,6Z" fill="#faa68e"/>
      <path id="Trazado_1022672" data-name="Trazado 1022672" d="M35.6,32.98,36,35v2s-2,2-4,2-4-2-4-2V35l.4-2.02.51-2.53a8.955,8.955,0,0,0,6.18,0Z" fill="#faa68e"/>
      <path id="Trazado_1022673" data-name="Trazado 1022673" d="M35.09,30.45A9,9,0,0,1,23,22V16H41v6A9,9,0,0,1,35.09,30.45Z" fill="#ffcdbe"/>
      <path id="Trazado_1022674" data-name="Trazado 1022674" d="M23,16H41v3H23Z" fill="#ffbeaa"/>
      <path id="Trazado_1022675" data-name="Trazado 1022675" d="M32,32A10.011,10.011,0,0,1,22,22V16h2v6a8,8,0,0,0,16,0V16h2v6A10.011,10.011,0,0,1,32,32Z"/>
      <path id="Trazado_1022676" data-name="Trazado 1022676" d="M41,23V21a2,2,0,0,0,0-4V15a4,4,0,0,1,0,8Z"/>
      <path id="Trazado_1022677" data-name="Trazado 1022677" d="M23,23a4,4,0,0,1,0-8v2a2,2,0,0,0,0,4Z"/>
      <path id="Trazado_1022681" data-name="Trazado 1022681" d="M46,17H18a1,1,0,0,1-1-1,4.969,4.969,0,0,1,2.8-4.491,2.859,2.859,0,0,0,1.636-2l.535-2.937A8,8,0,0,1,29.842,0h4.316a8,8,0,0,1,7.87,6.567l.534,2.939a2.859,2.859,0,0,0,1.636,2A4.969,4.969,0,0,1,47,16,1,1,0,0,1,46,17ZM19.169,15H44.831a2.985,2.985,0,0,0-1.513-1.7A4.827,4.827,0,0,1,40.6,9.863l-.534-2.937A6,6,0,0,0,34.158,2H29.842a6,6,0,0,0-5.9,4.927L23.4,9.863a4.827,4.827,0,0,1-2.722,3.442A2.985,2.985,0,0,0,19.169,15Z"/>
      <path id="Trazado_1022682" data-name="Trazado 1022682" d="M35,10H29a1,1,0,0,1-1-1V5a1,1,0,0,1,.445-.832l3-2a1,1,0,0,1,1.11,0l3,2A1,1,0,0,1,36,5V9A1,1,0,0,1,35,10ZM30,8h4V5.535L32,4.2,30,5.535Z"/>
      <path id="Trazado_1022683" data-name="Trazado 1022683" d="M20.9,11H43.1v2H20.9Z"/>
      <path id="Trazado_1022684" data-name="Trazado 1022684" d="M29,34C18.22,34,17.016,23.208,17.005,23.1L17,16h2v6.944C19.092,23.721,20.281,32,29,32Z"/>
      <path id="Trazado_1022685" data-name="Trazado 1022685" d="M17,64H9a1,1,0,0,1-1-1c0-16.028,3.919-25.031,4.086-25.406a1.008,1.008,0,0,1,.4-.45,21.924,21.924,0,0,1,7.573-2.44l.328,1.972A20.963,20.963,0,0,0,13.8,38.7c-.64,1.612-3.646,9.885-3.79,23.3H17Z"/>
      <path id="Trazado_1022686" data-name="Trazado 1022686" d="M35,34V32c8.719,0,9.908-8.279,10-9.056V16h2v7C46.984,23.208,45.78,34,35,34Z"/>
      <path id="Trazado_1022687" data-name="Trazado 1022687" d="M55,64H47V62h7c-.144-13.42-3.15-21.693-3.79-23.3a20.963,20.963,0,0,0-6.589-2.019l.328-1.972a21.924,21.924,0,0,1,7.573,2.44,1.008,1.008,0,0,1,.4.45C52.081,37.969,56,46.972,56,63a1,1,0,0,1-1,1Z"/>
      <path id="Trazado_1022688" data-name="Trazado 1022688" d="M32,53a1,1,0,0,1-.812-.415l-13-18A1,1,0,0,1,18.4,33.2l4-3,1.2,1.6-3.214,2.411L29.262,46.5l-2.218-7.206A1.007,1.007,0,0,1,27,39V35a.975.975,0,0,1,.02-.194l1-5,1.96.394L29,35.1v3.75l3.956,12.856a1,1,0,0,1-.511,1.189A.988.988,0,0,1,32,53Z"/>
      <path id="Trazado_1022689" data-name="Trazado 1022689" d="M32,53a.988.988,0,0,1-.444-.1,1,1,0,0,1-.511-1.189L35,38.85V35.1l-.98-4.9,1.96-.394,1,5A.975.975,0,0,1,37,35v4a1.007,1.007,0,0,1-.044.294L34.738,46.5l8.876-12.289L40.4,31.8l1.2-1.6,4,3a1,1,0,0,1,.211,1.385l-13,18A1,1,0,0,1,32,53Z"/>
      <path id="Trazado_1022690" data-name="Trazado 1022690" d="M32,40c-2.347,0-4.473-2.058-4.707-2.293l1.413-1.415A5.865,5.865,0,0,0,32,38a5.865,5.865,0,0,0,3.294-1.708l1.413,1.415C36.473,37.942,34.347,40,32,40Z"/>
      <path id="Trazado_1022691" data-name="Trazado 1022691" d="M31,52h2v3H31Z"/>
      <path id="Trazado_1022692" data-name="Trazado 1022692" d="M47,64H17a1,1,0,0,1-1-1V55a1,1,0,0,1,1-1H47a1,1,0,0,1,1,1v8A1,1,0,0,1,47,64ZM18,62H46V56H18Z"/>
      <path id="Trazado_1022693" data-name="Trazado 1022693" d="M46,51h2v4H46Z"/>
      <path id="Trazado_1022694" data-name="Trazado 1022694" d="M42,36.77h2V43H42Z"/>
      <path id="Trazado_1022695" data-name="Trazado 1022695" d="M45,53a6,6,0,1,1,6-6A6,6,0,0,1,45,53Zm0-10a4,4,0,1,0,4,4A4,4,0,0,0,45,43Z"/>
      <path id="Trazado_1022696" data-name="Trazado 1022696" d="M45,50a3,3,0,1,1,3-3,3,3,0,0,1-3,3Zm0-4a1,1,0,1,0,1,1A1,1,0,0,0,45,46Z"/>
      <path id="Trazado_1022697" data-name="Trazado 1022697" d="M42,51h2v4H42Z"/>
      <path id="Trazado_1022698" data-name="Trazado 1022698" d="M46,36h2v7H46Z"/>
      <path id="Trazado_1022699" data-name="Trazado 1022699" d="M16,36h2V55H16Z"/>
      <path id="Trazado_1022700" data-name="Trazado 1022700" d="M20,36.77h2V55H20Z"/>
      <path id="Trazado_1022701" data-name="Trazado 1022701" d="M20,58h2v2H20Z"/>
      <path id="Trazado_1022702" data-name="Trazado 1022702" d="M24,58H44v2H24Z"/>
      <path id="Trazado_1022703" data-name="Trazado 1022703" d="M12.5,46.36h2v7.28h-2Z" transform="translate(-38.285 49.245) rotate(-74.047)"/>
      <path id="Trazado_1022704" data-name="Trazado 1022704" d="M12,49.877h2v8.246H12Z" transform="translate(-42.541 53.515) rotate(-75.936)"/>
      <path id="Trazado_1022705" data-name="Trazado 1022705" d="M48.784,51.531l-.549-1.923,5.479-1.566.572,1.916-.1.03Z"/>
      <path id="Trazado_1022706" data-name="Trazado 1022706" d="M46.877,53h8.246v2H46.877Z" transform="translate(-11.56 13.959) rotate(-14.008)"/>
    </g>
  </g>
</svg>
