<svg xmlns="http://www.w3.org/2000/svg" xmlns:xlink="http://www.w3.org/1999/xlink" width="108" height="108" viewBox="0 0 108 108">
  <defs>
    <filter id="Trazado_982547" x="0" y="0" width="108" height="108" filterUnits="userSpaceOnUse">
      <feOffset dy="3" input="SourceAlpha"/>
      <feGaussianBlur stdDeviation="3" result="blur"/>
      <feFlood flood-opacity="0.161"/>
      <feComposite operator="in" in2="blur"/>
      <feComposite in="SourceGraphic"/>
    </filter>
  </defs>
  <g id="Grupo_1166235" data-name="Grupo 1166235" transform="translate(-166 -2449)">
    <g id="Grupo_1166229" data-name="Grupo 1166229">
      <g id="Grupo_1164717" data-name="Grupo 1164717" transform="translate(-5 -1469)">
        <g id="Grupo_1161419" data-name="Grupo 1161419" transform="translate(0 -5495)">
          <g id="Grupo_1160581" data-name="Grupo 1160581" transform="translate(0 7864)">
            <g id="Grupo_1153955" data-name="Grupo 1153955" transform="translate(-83 1036)">
              <g id="Grupo_1149598" data-name="Grupo 1149598" transform="translate(80 315)">
                <g id="Grupo_1148770" data-name="Grupo 1148770" transform="translate(-27 -2583)">
                  <g id="Grupo_1146954" data-name="Grupo 1146954" transform="translate(-415 -1202)">
                    <g transform="matrix(1, 0, 0, 1, 616, 3983)" filter="url(#Trazado_982547)">
                      <g id="Trazado_982547-2" data-name="Trazado 982547" transform="translate(9 6)" fill="#fcebe9">
                        <path d="M 45 88.5 C 39.12687683105469 88.5 33.43022537231445 87.35007476806641 28.06830024719238 85.08217620849609 C 22.88852500915527 82.89131164550781 18.23629951477051 79.75458526611328 14.2408504486084 75.75914764404297 C 10.24541282653809 71.76370239257812 7.108687400817871 67.11147308349609 4.917825222015381 61.93170166015625 C 2.649924993515015 56.56977462768555 1.5 50.87312316894531 1.5 45 C 1.5 39.12687683105469 2.649924993515015 33.43022537231445 4.917825222015381 28.06830024719238 C 7.108687400817871 22.88852500915527 10.24541282653809 18.23629951477051 14.2408504486084 14.2408504486084 C 18.23629951477051 10.24541282653809 22.88852500915527 7.108687400817871 28.06830024719238 4.917825222015381 C 33.43022537231445 2.649924993515015 39.12687683105469 1.5 45 1.5 C 50.87312316894531 1.5 56.56977462768555 2.649924993515015 61.93170166015625 4.917825222015381 C 67.11147308349609 7.108687400817871 71.76370239257812 10.24541282653809 75.75914764404297 14.2408504486084 C 79.75458526611328 18.23629951477051 82.89131164550781 22.88852500915527 85.08217620849609 28.06830024719238 C 87.35007476806641 33.43022537231445 88.5 39.12687683105469 88.5 45 C 88.5 50.87312316894531 87.35007476806641 56.56977462768555 85.08217620849609 61.93170166015625 C 82.89131164550781 67.11147308349609 79.75458526611328 71.76370239257812 75.75914764404297 75.75914764404297 C 71.76370239257812 79.75458526611328 67.11147308349609 82.89131164550781 61.93170166015625 85.08217620849609 C 56.56977462768555 87.35007476806641 50.87312316894531 88.5 45 88.5 Z" stroke="none"/>
                        <path d="M 45 3 C 39.32871246337891 3 33.82865524291992 4.110054016113281 28.65262985229492 6.299339294433594 C 23.65165710449219 8.414573669433594 19.15968322753906 11.44334411621094 15.301513671875 15.301513671875 C 11.44334411621094 19.15968322753906 8.414573669433594 23.65165710449219 6.299339294433594 28.65262985229492 C 4.110054016113281 33.82865524291992 3 39.32871246337891 3 45 C 3 50.67128753662109 4.110054016113281 56.17134475708008 6.299339294433594 61.34737396240234 C 8.414573669433594 66.34834289550781 11.44334411621094 70.84031677246094 15.301513671875 74.698486328125 C 19.15968322753906 78.55665588378906 23.65165710449219 81.58542633056641 28.65262985229492 83.70066070556641 C 33.82865524291992 85.88994598388672 39.32871246337891 87 45 87 C 50.67128753662109 87 56.17134475708008 85.88994598388672 61.34737396240234 83.70066070556641 C 66.34834289550781 81.58542633056641 70.84031677246094 78.55665588378906 74.698486328125 74.698486328125 C 78.55665588378906 70.84031677246094 81.58542633056641 66.34834289550781 83.70066070556641 61.34737396240234 C 85.88994598388672 56.17134475708008 87 50.67128753662109 87 45 C 87 39.32871246337891 85.88994598388672 33.82865524291992 83.70066070556641 28.65262985229492 C 81.58542633056641 23.65165710449219 78.55665588378906 19.15968322753906 74.698486328125 15.301513671875 C 70.84031677246094 11.44334411621094 66.34834289550781 8.414573669433594 61.34737396240234 6.299339294433594 C 56.17134475708008 4.110054016113281 50.67128753662109 3 45 3 M 45 0 C 69.85281372070312 0 90 20.14718627929688 90 45 C 90 69.85281372070312 69.85281372070312 90 45 90 C 20.14718627929688 90 0 69.85281372070312 0 45 C 0 20.14718627929688 20.14718627929688 0 45 0 Z" stroke="none" fill="#e44b36"/>
                      </g>
                    </g>
                  </g>
                </g>
              </g>
            </g>
          </g>
        </g>
      </g>
    </g>
    <g id="life-jacket_5823976" transform="translate(197 2469)">
      <g id="Grupo_1166227" data-name="Grupo 1166227">
        <g id="Grupo_1166214" data-name="Grupo 1166214">
          <path id="Trazado_1022608" data-name="Trazado 1022608" d="M43,15.63V37.71A7.975,7.975,0,0,0,37,35V34a1,1,0,0,0-1-1H31.51a1,1,0,0,0-.81.41l-1,1.37A3.993,3.993,0,0,1,27,31V30a7.174,7.174,0,0,0,6-7h2a4,4,0,0,0,0-8H33a11.269,11.269,0,0,1-5.29-1.32,11.185,11.185,0,0,1-4.04-3.67L23,9l-.67,1.01A11.208,11.208,0,0,1,13,15H11a4,4,0,1,0,0,8h2a7.188,7.188,0,0,0,6,7v1a3.993,3.993,0,0,1-2.7,3.78l-1-1.37a1,1,0,0,0-.81-.41H10a1,1,0,0,0-1,1v1a7.975,7.975,0,0,0-6,2.71V15.63A14.626,14.626,0,0,1,22.25,1.75L23,2l.75-.25A14.626,14.626,0,0,1,43,15.63Z" fill="#656d78"/>
        </g>
        <g id="Grupo_1166215" data-name="Grupo 1166215">
          <path id="Trazado_1022609" data-name="Trazado 1022609" d="M45,43v6H37V35a8,8,0,0,1,8,8Z" fill="#b4dd7f"/>
        </g>
        <g id="Grupo_1166216" data-name="Grupo 1166216">
          <path id="Trazado_1022610" data-name="Trazado 1022610" d="M27.36,38,23,44l-4.36-6Z" fill="#b4dd7f"/>
        </g>
        <g id="Grupo_1166217" data-name="Grupo 1166217">
          <path id="Trazado_1022611" data-name="Trazado 1022611" d="M9,45v4H1V43a8,8,0,0,1,8-8Z" fill="#b4dd7f"/>
        </g>
        <g id="Grupo_1166218" data-name="Grupo 1166218">
          <path id="Trazado_1022612" data-name="Trazado 1022612" d="M9,57H37v4H9Z" fill="#fc6e51"/>
        </g>
        <g id="Grupo_1166219" data-name="Grupo 1166219">
          <path id="Trazado_1022613" data-name="Trazado 1022613" d="M37,45v8H9V45Z" fill="#fc6e51"/>
        </g>
        <g id="Grupo_1166220" data-name="Grupo 1166220">
          <path id="Trazado_1022614" data-name="Trazado 1022614" d="M9,53H37v4H9Z" fill="#ff826e"/>
        </g>
        <g id="Grupo_1166221" data-name="Grupo 1166221">
          <path id="Trazado_1022615" data-name="Trazado 1022615" d="M36,33H31.51a1,1,0,0,0-.81.41l-1,1.37L27.36,38,23,44l-4.36-6L16.3,34.78l-1-1.37a1,1,0,0,0-.81-.41H10a1,1,0,0,0-1,1V45H37V34A1,1,0,0,0,36,33Z" fill="#ff826e"/>
        </g>
        <g id="Grupo_1166222" data-name="Grupo 1166222">
          <path id="Trazado_1022616" data-name="Trazado 1022616" d="M9,57v4H3V49H9v8Z" fill="#f0d0b4"/>
        </g>
        <g id="Grupo_1166223" data-name="Grupo 1166223">
          <path id="Trazado_1022617" data-name="Trazado 1022617" d="M43,49V61H37V49Z" fill="#f0d0b4"/>
        </g>
        <g id="Grupo_1166224" data-name="Grupo 1166224">
          <path id="Trazado_1022618" data-name="Trazado 1022618" d="M35,15a4,4,0,1,1,0,8H33V15Z" fill="#f0d0b4"/>
        </g>
        <g id="Grupo_1166225" data-name="Grupo 1166225">
          <path id="Trazado_1022619" data-name="Trazado 1022619" d="M33,20v3a7.174,7.174,0,0,1-6,7v1a3.993,3.993,0,0,0,2.7,3.78L27.36,38H18.64L16.3,34.78A3.993,3.993,0,0,0,19,31V30a7.188,7.188,0,0,1-6-7V15a11.208,11.208,0,0,0,9.33-4.99L23,9l.67,1.01a11.185,11.185,0,0,0,4.04,3.67A11.269,11.269,0,0,0,33,15Z" fill="#f0d0b4"/>
        </g>
        <g id="Grupo_1166226" data-name="Grupo 1166226">
          <path id="Trazado_1022620" data-name="Trazado 1022620" d="M13,20v3H11a4,4,0,0,1,0-8h2Z" fill="#f0d0b4"/>
        </g>
      </g>
      <g id="Grupo_1166228" data-name="Grupo 1166228">
        <path id="Trazado_1022623" data-name="Trazado 1022623" d="M46,43a8.958,8.958,0,0,0-2-5.645V15.626A15.625,15.625,0,0,0,23.433.8L23,.946,22.568.8A15.626,15.626,0,0,0,2,15.626V37.355A8.958,8.958,0,0,0,0,43v7H2V62H44V50h2ZM17.626,2a13.6,13.6,0,0,1,4.311.7L23,3.054,24.064,2.7A13.625,13.625,0,0,1,42,15.626v19.9a8.943,8.943,0,0,0-4-1.463V34a2,2,0,0,0-2-2H31.509a2.007,2.007,0,0,0-1.617.824l-.506.695A2.992,2.992,0,0,1,28,31v-.2A8.142,8.142,0,0,0,33.922,24H35a5,5,0,0,0,0-10H33a10.189,10.189,0,0,1-8.5-4.547L23,7.2,21.5,9.453A10.192,10.192,0,0,1,13,14H11a5,5,0,1,0,0,10h1.078A8.143,8.143,0,0,0,18,30.8V31a2.994,2.994,0,0,1-1.385,2.519l-.506-.7A2.012,2.012,0,0,0,14.491,32H10a2,2,0,0,0-2,2v.059a8.931,8.931,0,0,0-4,1.463v-19.9A13.641,13.641,0,0,1,17.626,2Zm1.538,27.014A6.162,6.162,0,0,1,14,22.917V15.959A12.186,12.186,0,0,0,23,10.8a12.183,12.183,0,0,0,9,5.162v6.958a6.162,6.162,0,0,1-5.164,6.1L26,29.153V31a4.992,4.992,0,0,0,2.211,4.135L26.855,37H19.146L17.79,35.135A4.993,4.993,0,0,0,20,31V29.153ZM36,56H24V54H36ZM10,46H22v6H10Zm13-3.7L20.6,39h4.8ZM10,54H22v2H10Zm26-2H24V46H36Zm0-8H24.236l7.272-10H36ZM21.764,44H10V34h4.491ZM10,58H22v2H10Zm14,0H36v2H24ZM34,16h1a3,3,0,0,1,0,6H34V20.535l2.555-1.7-1.109-1.664L34,18.132ZM11,22a3,3,0,0,1,0-6h1v2.132l-1.445-.964L9.446,18.832,12,20.535V22ZM2,43a7.006,7.006,0,0,1,6-6.92V48H2Zm2,7H8V60H4ZM42,60H38V50h4Zm2-12H38V36.08A7.006,7.006,0,0,1,44,43Z"/>
        <path id="Trazado_1022624" data-name="Trazado 1022624" d="M33.189,11.857l.614.123.393-1.961L33.582,9.9a8.1,8.1,0,0,1-5.688-4.344l-1.789.895a10.081,10.081,0,0,0,7.084,5.41Z"/>
        <path id="Trazado_1022625" data-name="Trazado 1022625" d="M12.811,11.857A10.08,10.08,0,0,0,19.9,6.447l-1.789-.895A8.093,8.093,0,0,1,12.418,9.9l-.614.123L12.2,11.98Z"/>
      </g>
    </g>
  </g>
</svg>
