<svg xmlns="http://www.w3.org/2000/svg" xmlns:xlink="http://www.w3.org/1999/xlink" width="110" height="110" viewBox="0 0 110 110">
  <defs>
    <filter id="Trazado_982547" x="0" y="0" width="110" height="110" filterUnits="userSpaceOnUse">
      <feOffset dy="3" input="SourceAlpha"/>
      <feGaussianBlur stdDeviation="3" result="blur"/>
      <feFlood flood-opacity="0.161"/>
      <feComposite operator="in" in2="blur"/>
      <feComposite in="SourceGraphic"/>
    </filter>
  </defs>
  <g id="Grupo_1166178" data-name="Grupo 1166178" transform="translate(-7585 -2369.728)">
    <g id="Grupo_1164704" data-name="Grupo 1164704" transform="translate(7594 2375.728)">
      <g id="Grupo_1160931" data-name="Grupo 1160931" transform="translate(0)">
        <g id="Grupo_1160749" data-name="Grupo 1160749" transform="translate(0)">
          <g id="Grupo_1158891" data-name="Grupo 1158891" transform="translate(0 0)">
            <g id="Grupo_1157406" data-name="Grupo 1157406" transform="translate(0)">
              <g id="Grupo_1155793" data-name="Grupo 1155793" transform="translate(0)">
                <g id="Grupo_1154704" data-name="Grupo 1154704" transform="translate(0)">
                  <g id="Grupo_1150790" data-name="Grupo 1150790" transform="translate(0)">
                    <g id="Grupo_1154214" data-name="Grupo 1154214" transform="translate(0)">
                      <g id="Grupo_1152583" data-name="Grupo 1152583" transform="translate(0 0)">
                        <g id="Grupo_1146973" data-name="Grupo 1146973" transform="translate(0 0)">
                          <g id="Grupo_1146954" data-name="Grupo 1146954">
                            <g transform="matrix(1, 0, 0, 1, -9, -6)" filter="url(#Trazado_982547)">
                              <g id="Trazado_982547-2" data-name="Trazado 982547" transform="translate(9 6)" fill="#fcebe9">
                                <path d="M 46.00000381469727 90.49988555908203 C 39.99188232421875 90.49988555908203 34.16427230834961 89.32352447509766 28.67905807495117 87.00347137451172 C 23.38020324707031 84.76226043701172 18.62104415893555 81.55342864990234 14.53375053405762 77.46615600585938 C 10.44647026062012 73.37887573242188 7.237643718719482 68.61971282958984 4.996417045593262 63.32085800170898 C 2.676363706588745 57.83565902709961 1.500003814697266 52.00806045532227 1.500003814697266 45.99993896484375 C 1.500003814697266 39.99181747436523 2.676363706588745 34.16421890258789 4.996417045593262 28.67901802062988 C 7.237643718719482 23.38017845153809 10.44647026062012 18.62101936340332 14.53375053405762 14.53373908996582 C 18.62104415893555 10.44645881652832 23.38020324707031 7.237632274627686 28.67905807495117 4.996418952941895 C 34.16427230834961 2.676365613937378 39.99188232421875 1.500005602836609 46.00000381469727 1.500005602836609 C 52.00812530517578 1.500005602836609 57.83573532104492 2.676365613937378 63.32094955444336 4.996418952941895 C 68.61980438232422 7.237632274627686 73.37897491455078 10.44645881652832 77.46625518798828 14.53373908996582 C 81.55355072021484 18.62101936340332 84.76236724853516 23.38017845153809 87.00359344482422 28.67901802062988 C 89.32364654541016 34.16421890258789 90.5 39.99181747436523 90.5 45.99993896484375 C 90.5 52.00806045532227 89.32364654541016 57.83565902709961 87.00359344482422 63.32085800170898 C 84.76236724853516 68.61971282958984 81.55355072021484 73.37887573242188 77.46625518798828 77.46615600585938 C 73.37897491455078 81.55342864990234 68.61980438232422 84.76226043701172 63.32094955444336 87.00347137451172 C 57.83573532104492 89.32352447509766 52.00812530517578 90.49988555908203 46.00000381469727 90.49988555908203 Z" stroke="none"/>
                                <path d="M 46.00000381469727 2.999992370605469 C 40.19371795654297 2.999992370605469 34.56270217895508 4.136497497558594 29.26338958740234 6.377906799316406 C 24.14333343505859 8.543510437011719 19.54441833496094 11.64437866210938 15.59440612792969 15.59439849853516 C 11.64440155029297 19.54439544677734 8.54351806640625 24.14329528808594 6.377914428710938 29.26335144042969 C 4.136505126953125 34.56266784667969 3.000007629394531 40.19366836547852 3.000007629394531 45.99993896484375 C 3.000007629394531 51.80620956420898 4.136505126953125 57.43722534179688 6.377914428710938 62.73654174804688 C 8.54351806640625 67.85658264160156 11.64440155029297 72.45548248291016 15.59440612792969 76.40549468994141 C 19.54441833496094 80.35549926757812 24.14333343505859 83.45636749267578 29.26337432861328 85.62196350097656 C 34.56270217895508 87.86338043212891 40.19371795654297 88.9998779296875 46.00000381469727 88.9998779296875 C 51.80628967285156 88.9998779296875 57.43730545043945 87.86338043212891 62.73663330078125 85.62196350097656 C 67.85667419433594 83.45636749267578 72.45558929443359 80.35549926757812 76.40560150146484 76.40549468994141 C 80.35560607910156 72.45548248291016 83.45648956298828 67.85658264160156 85.62208557128906 62.73654174804688 C 87.86350250244141 57.43722534179688 89 51.80620956420898 89 45.99993896484375 C 89 40.19366836547852 87.86350250244141 34.56266784667969 85.62208557128906 29.26335144042969 C 83.45648956298828 24.14329528808594 80.35560607910156 19.54439544677734 76.40560150146484 15.59439849853516 C 72.45558929443359 11.64437866210938 67.85667419433594 8.543510437011719 62.73661804199219 6.377906799316406 C 57.43730545043945 4.136497497558594 51.80628967285156 2.999992370605469 46.00000381469727 2.999992370605469 M 46.00000381469727 -7.62939453125e-06 C 71.40510559082031 -7.62939453125e-06 92 20.59487915039062 92 45.99993896484375 C 92 71.40501403808594 71.40510559082031 91.99988555908203 46.00000381469727 91.99988555908203 C 20.59490203857422 91.99988555908203 7.62939453125e-06 71.40501403808594 7.62939453125e-06 45.99993896484375 C 7.62939453125e-06 20.59487915039062 20.59490203857422 -7.62939453125e-06 46.00000381469727 -7.62939453125e-06 Z" stroke="none" fill="#e44b36"/>
                              </g>
                            </g>
                          </g>
                        </g>
                      </g>
                    </g>
                  </g>
                </g>
              </g>
            </g>
          </g>
        </g>
      </g>
    </g>
    <g id="Artboard391" transform="translate(7593.332 2381.631)">
      <g id="Grupo_1166177" data-name="Grupo 1166177" transform="translate(14.582 6.999)">
        <g id="Grupo_1166176" data-name="Grupo 1166176" transform="translate(1.069 1.068)">
          <g id="Grupo_1166168" data-name="Grupo 1166168" transform="translate(15.389 28.326)">
            <path id="Trazado_1022390" data-name="Trazado 1022390" d="M138.277,308.506a2.215,2.215,0,0,0,3.069.58l6.938-4.7a2.206,2.206,0,0,0-2.48-3.649l-6.938,4.7A2.223,2.223,0,0,0,138.277,308.506Z" transform="translate(-137.901 -290.594)" fill="#ffd064" fill-rule="evenodd"/>
            <path id="Trazado_1022391" data-name="Trazado 1022391" d="M170.392,300.621l-.783,4.608-.281,1.68,5.909,3.931a2.423,2.423,0,0,1,1.082,1.715l.554,3.887a2.2,2.2,0,1,1-4.362.624l-.431-3.034-3.632-2.418-1.935,8.319a2.2,2.2,0,0,1-4.291-.994l4.344-22.16a2.2,2.2,0,0,1,3.271-1.548c3.236,1.855,5.795,3.28,9.057,5.1a2.2,2.2,0,0,1-2.146,3.852C174.375,302.854,172.731,301.966,170.392,300.621Z" transform="translate(-158.927 -285.901)" fill="#ffe177"/>
            <path id="Trazado_1022392" data-name="Trazado 1022392" d="M179.084,295a2.174,2.174,0,0,1,1.629.229c3.236,1.855,5.795,3.28,9.057,5.1a2.206,2.206,0,0,1-1.612,4.063,2.207,2.207,0,0,0,.545-4.063c-3.262-1.82-5.821-3.245-9.057-5.1A2.223,2.223,0,0,0,179.084,295Zm2.183,5.619-.783,4.608-.281,1.68,5.909,3.931a2.423,2.423,0,0,1,1.082,1.715l.554,3.887a2.206,2.206,0,0,1-2.716,2.455,2.2,2.2,0,0,0,1.649-2.455l-.554-3.887a2.423,2.423,0,0,0-1.082-1.715l-5.909-3.931.281-1.68.877-5.164C180.631,300.259,180.954,300.443,181.267,300.621Zm-1.943,10.992-1.934,8.319a2.2,2.2,0,0,1-2.647,1.644l-.026-.006a2.194,2.194,0,0,0,1.605-1.638L178.4,311Z" transform="translate(-169.803 -285.901)" fill="#ffd064"/>
            <g id="Grupo_1166167" data-name="Grupo 1166167" transform="translate(9.222)">
              <path id="Trazado_1022393" data-name="Trazado 1022393" d="M210.7,227.241a3.7,3.7,0,1,0,3.7,3.693A3.7,3.7,0,0,0,210.7,227.241Z" transform="translate(-206.999 -227.241)" fill="#f6dccd" fill-rule="evenodd"/>
              <path id="Trazado_1022394" data-name="Trazado 1022394" d="M230.238,234.588a3.7,3.7,0,0,0,0-7.3,3.7,3.7,0,1,1,0,7.3Z" transform="translate(-227.137 -227.241)" fill="#f1cbbc" fill-rule="evenodd"/>
            </g>
          </g>
          <g id="Grupo_1166170" data-name="Grupo 1166170" transform="translate(40.016 28.326)">
            <path id="Trazado_1022395" data-name="Trazado 1022395" d="M322.8,308.506a2.215,2.215,0,0,0,3.069.58l6.938-4.7a2.206,2.206,0,0,0-2.48-3.649l-6.938,4.7A2.223,2.223,0,0,0,322.8,308.506Z" transform="translate(-322.425 -290.594)" fill="#00e499" fill-rule="evenodd"/>
            <path id="Trazado_1022396" data-name="Trazado 1022396" d="M354.915,300.621l-.783,4.608-.281,1.68,5.909,3.931a2.422,2.422,0,0,1,1.082,1.715l.554,3.887a2.2,2.2,0,1,1-4.362.624l-.431-3.034-3.632-2.418-1.935,8.319a2.2,2.2,0,0,1-4.291-.994l4.344-22.16a2.2,2.2,0,0,1,3.271-1.548c3.236,1.855,5.795,3.28,9.057,5.1a2.2,2.2,0,0,1-2.146,3.852C358.9,302.854,357.254,301.966,354.915,300.621Z" transform="translate(-343.451 -285.901)" fill="#6cf5c2"/>
            <path id="Trazado_1022397" data-name="Trazado 1022397" d="M363.1,295.02a2.175,2.175,0,0,1,1.7.211c3.236,1.855,5.795,3.28,9.057,5.1a2.206,2.206,0,0,1-1.679,4.046,2.207,2.207,0,0,0,.478-4.046c-3.262-1.82-5.821-3.245-9.057-5.1A2.236,2.236,0,0,0,363.1,295.02Zm2.25,5.6-.783,4.608-.281,1.68,5.909,3.931a2.422,2.422,0,0,1,1.082,1.715l.554,3.887a2.205,2.205,0,0,1-2.783,2.437,2.2,2.2,0,0,0,1.582-2.437l-.554-3.887a2.422,2.422,0,0,0-1.082-1.715l-5.909-3.931.281-1.68.889-5.233C364.637,300.215,365,300.422,365.35,300.621Zm-1.943,10.992-1.935,8.319a2.2,2.2,0,0,1-2.647,1.644l-.094-.024a2.194,2.194,0,0,0,1.539-1.62l2.1-9.011Z" transform="translate(-353.886 -285.901)" fill="#00e499"/>
            <g id="Grupo_1166169" data-name="Grupo 1166169" transform="translate(9.222)">
              <path id="Trazado_1022398" data-name="Trazado 1022398" d="M395.224,227.241a3.7,3.7,0,1,0,3.7,3.693A3.7,3.7,0,0,0,395.224,227.241Z" transform="translate(-391.522 -227.241)" fill="#f6dccd" fill-rule="evenodd"/>
              <path id="Trazado_1022399" data-name="Trazado 1022399" d="M415.262,234.6a3.7,3.7,0,0,0,0-7.319,3.7,3.7,0,1,1,0,7.319Z" transform="translate(-412.094 -227.241)" fill="#f1cbbc" fill-rule="evenodd"/>
            </g>
          </g>
          <g id="Grupo_1166171" data-name="Grupo 1166171" transform="translate(36.663 6.118)">
            <path id="Trazado_1022400" data-name="Trazado 1022400" d="M311.608,61.781a.936.936,0,0,1,1.513-.741l9.191,7.243a.925.925,0,0,1,0,1.467l-9.191,7.243a.936.936,0,0,1-1.513-.741v-3H298.235a.934.934,0,0,1-.934-.934v-6.6a.934.934,0,0,1,.934-.934h13.373Z" transform="translate(-297.301 -60.838)" fill="#ffe177" fill-rule="evenodd"/>
            <path id="Trazado_1022401" data-name="Trazado 1022401" d="M321.654,112.364l.72.567a.925.925,0,0,1,0,1.467l-9.191,7.243a.936.936,0,0,1-1.5-.6.917.917,0,0,0,.569-.2l9.191-7.243A.926.926,0,0,0,321.654,112.364ZM311.67,117.9H298.3a.934.934,0,0,1-.925-.8h14.3Z" transform="translate(-297.363 -105.487)" fill="#ffd064" fill-rule="evenodd"/>
          </g>
          <g id="Grupo_1166175" data-name="Grupo 1166175">
            <g id="Grupo_1166173" data-name="Grupo 1166173" transform="translate(0 11.148)">
              <path id="Trazado_1022402" data-name="Trazado 1022402" d="M31.159,123.648v-19.7l-5.081,5.081a2.043,2.043,0,0,1-2.889-2.889l7.01-7.01a2.155,2.155,0,0,1,.959-.6H49.842a2.043,2.043,0,0,1,0,4.085s-9.978,0-10.009,0v21.033a2.172,2.172,0,0,1-4.337.17,2.172,2.172,0,0,1-4.337-.17Z" transform="translate(-22.591 -98.532)" fill="#8ac9fe" fill-rule="evenodd"/>
              <g id="Grupo_1166172" data-name="Grupo 1166172" transform="translate(1.49 0)">
                <path id="Trazado_1022403" data-name="Trazado 1022403" d="M58.412,98.532h1.1a2.043,2.043,0,0,1,0,4.085h-1.1a2.043,2.043,0,1,0,0-4.085Zm-8.9,4.084v21.033a2.173,2.173,0,0,1-2.724,2.1,2.174,2.174,0,0,0,1.619-2.1V102.615Zm-8.674,1.332-5.081,5.081a2.043,2.043,0,0,1-2,.522,2.031,2.031,0,0,0,.892-.522l6.186-6.186Z" transform="translate(-33.755 -98.532)" fill="#60b7ff" fill-rule="evenodd"/>
                <path id="Trazado_1022404" data-name="Trazado 1022404" d="M112.652,219.955V208.531a.884.884,0,0,1,1.767,0v11.422a2.17,2.17,0,0,1-.882-1.582,2.171,2.171,0,0,1-.885,1.584Z" transform="translate(-102.122 -193.085)" fill="#60b7ff" fill-rule="evenodd"/>
              </g>
            </g>
            <g id="Grupo_1166174" data-name="Grupo 1166174" transform="translate(8.957)">
              <circle id="Elipse_11874" data-name="Elipse 11874" cx="3.946" cy="3.946" r="3.946" transform="translate(0 0)" fill="#f6dccd"/>
              <path id="Trazado_1022405" data-name="Trazado 1022405" d="M115.134,15.038a3.946,3.946,0,1,1,0,7.815,3.946,3.946,0,0,0,0-7.815Z" transform="translate(-111.74 -15)" fill="#f1cbbc" fill-rule="evenodd"/>
            </g>
          </g>
        </g>
        <path id="Trazado_1022406" data-name="Trazado 1022406" d="M36.052,55.111l-.969.657a3.286,3.286,0,0,1-4.55-.861l-.006-.009a3.292,3.292,0,0,1,.873-4.544l0,0,6.755-4.58A3.272,3.272,0,0,1,42.48,44.8c3.232,1.853,5.788,3.276,9.047,5.094l0,0a3.272,3.272,0,0,1-3.189,5.715h0c-1.9-1.065-3.34-1.848-5.04-2.809l-.694,4.1,5.333,3.547h0a3.46,3.46,0,0,1,1.546,2.448v0l.554,3.886a3.271,3.271,0,1,1-6.475.928v0l-.364-2.56-1.951-1.3-1.585,6.815a3.27,3.27,0,0,1-6.376-1.454l2.764-14.1Zm1.205-6.148L32.6,52.119A1.138,1.138,0,1,0,33.88,54l0,0,2.752-1.866Zm5.777,1.224c2.335,1.343,3.976,2.229,6.346,3.555a1.129,1.129,0,0,0,1.535-.438l0-.006a1.133,1.133,0,0,0-.436-1.544c-3.265-1.822-5.827-3.248-9.066-5.105h0a1.135,1.135,0,0,0-1.685.8c0,.011,0,.021-.006.032l-4.344,22.16c0,.012,0,.024-.007.035a1.133,1.133,0,0,0,.845,1.357h.006a1.128,1.128,0,0,0,1.36-.844v0l1.935-8.319a1.068,1.068,0,0,1,1.632-.647l3.632,2.418a1.068,1.068,0,0,1,.465.739l.431,3.032a1.135,1.135,0,1,0,2.248-.318v0L47.373,63.2a1.385,1.385,0,0,0-.617-.98l-5.908-3.93a1.067,1.067,0,0,1-.462-1.065l1.064-6.29a1.068,1.068,0,0,1,1.585-.747Zm17.644,4.924-.969.657a3.286,3.286,0,0,1-4.55-.861l-.006-.009a3.292,3.292,0,0,1,.873-4.544l0,0,6.755-4.58a3.272,3.272,0,0,1,4.321-.976c3.232,1.853,5.788,3.276,9.046,5.094l0,0a3.272,3.272,0,0,1-3.189,5.715h0c-1.9-1.065-3.34-1.848-5.04-2.809l-.694,4.1,5.333,3.547h0a3.46,3.46,0,0,1,1.546,2.448v0l.554,3.886a3.271,3.271,0,1,1-6.475.928v0l-.364-2.56-1.951-1.3-1.585,6.815a3.27,3.27,0,0,1-6.377-1.454l2.764-14.1Zm1.205-6.148-4.655,3.156A1.138,1.138,0,1,0,58.506,54l0,0,2.752-1.866Zm5.777,1.224c2.335,1.343,3.976,2.229,6.346,3.555a1.129,1.129,0,0,0,1.535-.438l0-.006a1.133,1.133,0,0,0-.436-1.544c-3.265-1.822-5.827-3.248-9.066-5.105h0a1.135,1.135,0,0,0-1.685.8c0,.011,0,.021-.006.032l-4.344,22.16c0,.012,0,.024-.007.035a1.133,1.133,0,0,0,.845,1.357h.006a1.128,1.128,0,0,0,1.36-.844v0l1.935-8.319a1.068,1.068,0,0,1,1.632-.647l3.632,2.418a1.068,1.068,0,0,1,.465.739l.431,3.032a1.135,1.135,0,1,0,2.248-.318v0L72,63.2a1.385,1.385,0,0,0-.617-.98l-5.909-3.93a1.068,1.068,0,0,1-.462-1.065l1.064-6.29a1.068,1.068,0,0,1,1.585-.747Zm-23.7-14.862a4.765,4.765,0,1,1-4.77,4.761,4.769,4.769,0,0,1,4.77-4.761Zm0,2.135A2.63,2.63,0,1,0,46.6,40.086a2.632,2.632,0,0,0-2.634-2.626Zm24.626-2.135a4.765,4.765,0,1,1-4.77,4.761,4.769,4.769,0,0,1,4.77-4.761Zm0,2.135a2.63,2.63,0,1,0,2.634,2.626,2.632,2.632,0,0,0-2.634-2.626ZM23.154,44.353V27.218l-3.261,3.261a3.111,3.111,0,1,1-4.4-4.4l7.015-7.015a3.245,3.245,0,0,1,1.463-.881c.083-.02,18.946-.03,18.946-.03a3.111,3.111,0,0,1,0,6.223l-8.948,0V44.353a3.24,3.24,0,0,1-5.407,2.409,3.24,3.24,0,0,1-5.407-2.409Zm6.473.107a1.105,1.105,0,0,0,2.206-.107V23.307A1.068,1.068,0,0,1,32.95,22.24c.031,0,9.966,0,9.966,0a.976.976,0,0,0,0-1.952H24.386a1.308,1.308,0,0,0-.369.285L17,27.589a.976.976,0,0,0,1.38,1.381l5.084-5.084a1.068,1.068,0,0,1,1.823.755V44.353a1.105,1.105,0,0,0,2.2.135V34.677a1.068,1.068,0,0,1,2.135,0ZM28.56,7a5.016,5.016,0,1,1-5.016,5.016A5.018,5.018,0,0,1,28.56,7Zm0,2.135a2.881,2.881,0,1,0,2.881,2.881A2.882,2.882,0,0,0,28.56,9.134Zm36.992,5.992a2,2,0,0,1,3.241-1.58h0l9.189,7.242a1.989,1.989,0,0,1,0,3.147l-9.19,7.242a2,2,0,0,1-3.241-1.58V27.662H52.312a1.068,1.068,0,0,1-1.068-1.068V18.129a1.068,1.068,0,0,1,1.068-1.068H65.551Zm2.135,14.2,8.842-6.968-8.842-6.967v2.735A1.068,1.068,0,0,1,66.619,19.2H53.38v6.33H66.619a1.068,1.068,0,0,1,1.068,1.068Z" transform="translate(-14.582 -6.999)" fill-rule="evenodd"/>
      </g>
    </g>
  </g>
</svg>
