<svg xmlns="http://www.w3.org/2000/svg" xmlns:xlink="http://www.w3.org/1999/xlink" width="110" height="110" viewBox="0 0 110 110">
  <defs>
    <filter id="Trazado_982547" x="0" y="0" width="110" height="110" filterUnits="userSpaceOnUse">
      <feOffset dy="3" input="SourceAlpha"/>
      <feGaussianBlur stdDeviation="3" result="blur"/>
      <feFlood flood-opacity="0.161"/>
      <feComposite operator="in" in2="blur"/>
      <feComposite in="SourceGraphic"/>
    </filter>
  </defs>
  <g id="Grupo_1166198" data-name="Grupo 1166198" transform="translate(-7585 -3359.728)">
    <g id="Grupo_1164712" data-name="Grupo 1164712" transform="translate(7594 3365.728)">
      <g id="Grupo_1160931" data-name="Grupo 1160931" transform="translate(0)">
        <g id="Grupo_1160749" data-name="Grupo 1160749" transform="translate(0)">
          <g id="Grupo_1158891" data-name="Grupo 1158891" transform="translate(0 0)">
            <g id="Grupo_1157406" data-name="Grupo 1157406" transform="translate(0)">
              <g id="Grupo_1155793" data-name="Grupo 1155793" transform="translate(0)">
                <g id="Grupo_1154704" data-name="Grupo 1154704" transform="translate(0)">
                  <g id="Grupo_1150790" data-name="Grupo 1150790" transform="translate(0)">
                    <g id="Grupo_1154214" data-name="Grupo 1154214" transform="translate(0)">
                      <g id="Grupo_1152583" data-name="Grupo 1152583" transform="translate(0 0)">
                        <g id="Grupo_1146973" data-name="Grupo 1146973" transform="translate(0 0)">
                          <g id="Grupo_1146954" data-name="Grupo 1146954">
                            <g transform="matrix(1, 0, 0, 1, -9, -6)" filter="url(#Trazado_982547)">
                              <g id="Trazado_982547-2" data-name="Trazado 982547" transform="translate(9 6)" fill="#fcebe9">
                                <path d="M 46.00000381469727 90.49988555908203 C 39.99188232421875 90.49988555908203 34.16427230834961 89.32352447509766 28.67905807495117 87.00347137451172 C 23.38020324707031 84.76226043701172 18.62104415893555 81.55342864990234 14.53375053405762 77.46615600585938 C 10.44647026062012 73.37887573242188 7.237643718719482 68.61971282958984 4.996417045593262 63.32085800170898 C 2.676363706588745 57.83565902709961 1.500003814697266 52.00806045532227 1.500003814697266 45.99993896484375 C 1.500003814697266 39.99181747436523 2.676363706588745 34.16421890258789 4.996417045593262 28.67901802062988 C 7.237643718719482 23.38017845153809 10.44647026062012 18.62101936340332 14.53375053405762 14.53373908996582 C 18.62104415893555 10.44645881652832 23.38020324707031 7.237632274627686 28.67905807495117 4.996418952941895 C 34.16427230834961 2.676365613937378 39.99188232421875 1.500005602836609 46.00000381469727 1.500005602836609 C 52.00812530517578 1.500005602836609 57.83573532104492 2.676365613937378 63.32094955444336 4.996418952941895 C 68.61980438232422 7.237632274627686 73.37897491455078 10.44645881652832 77.46625518798828 14.53373908996582 C 81.55355072021484 18.62101936340332 84.76236724853516 23.38017845153809 87.00359344482422 28.67901802062988 C 89.32364654541016 34.16421890258789 90.5 39.99181747436523 90.5 45.99993896484375 C 90.5 52.00806045532227 89.32364654541016 57.83565902709961 87.00359344482422 63.32085800170898 C 84.76236724853516 68.61971282958984 81.55355072021484 73.37887573242188 77.46625518798828 77.46615600585938 C 73.37897491455078 81.55342864990234 68.61980438232422 84.76226043701172 63.32094955444336 87.00347137451172 C 57.83573532104492 89.32352447509766 52.00812530517578 90.49988555908203 46.00000381469727 90.49988555908203 Z" stroke="none"/>
                                <path d="M 46.00000381469727 2.999992370605469 C 40.19371795654297 2.999992370605469 34.56270217895508 4.136497497558594 29.26338958740234 6.377906799316406 C 24.14333343505859 8.543510437011719 19.54441833496094 11.64437866210938 15.59440612792969 15.59439849853516 C 11.64440155029297 19.54439544677734 8.54351806640625 24.14329528808594 6.377914428710938 29.26335144042969 C 4.136505126953125 34.56266784667969 3.000007629394531 40.19366836547852 3.000007629394531 45.99993896484375 C 3.000007629394531 51.80620956420898 4.136505126953125 57.43722534179688 6.377914428710938 62.73654174804688 C 8.54351806640625 67.85658264160156 11.64440155029297 72.45548248291016 15.59440612792969 76.40549468994141 C 19.54441833496094 80.35549926757812 24.14333343505859 83.45636749267578 29.26337432861328 85.62196350097656 C 34.56270217895508 87.86338043212891 40.19371795654297 88.9998779296875 46.00000381469727 88.9998779296875 C 51.80628967285156 88.9998779296875 57.43730545043945 87.86338043212891 62.73663330078125 85.62196350097656 C 67.85667419433594 83.45636749267578 72.45558929443359 80.35549926757812 76.40560150146484 76.40549468994141 C 80.35560607910156 72.45548248291016 83.45648956298828 67.85658264160156 85.62208557128906 62.73654174804688 C 87.86350250244141 57.43722534179688 89 51.80620956420898 89 45.99993896484375 C 89 40.19366836547852 87.86350250244141 34.56266784667969 85.62208557128906 29.26335144042969 C 83.45648956298828 24.14329528808594 80.35560607910156 19.54439544677734 76.40560150146484 15.59439849853516 C 72.45558929443359 11.64437866210938 67.85667419433594 8.543510437011719 62.73661804199219 6.377906799316406 C 57.43730545043945 4.136497497558594 51.80628967285156 2.999992370605469 46.00000381469727 2.999992370605469 M 46.00000381469727 -7.62939453125e-06 C 71.40510559082031 -7.62939453125e-06 92 20.59487915039062 92 45.99993896484375 C 92 71.40501403808594 71.40510559082031 91.99988555908203 46.00000381469727 91.99988555908203 C 20.59490203857422 91.99988555908203 7.62939453125e-06 71.40501403808594 7.62939453125e-06 45.99993896484375 C 7.62939453125e-06 20.59487915039062 20.59490203857422 -7.62939453125e-06 46.00000381469727 -7.62939453125e-06 Z" stroke="none" fill="#e44b36"/>
                              </g>
                            </g>
                          </g>
                        </g>
                      </g>
                    </g>
                  </g>
                </g>
              </g>
            </g>
          </g>
        </g>
      </g>
    </g>
    <g id="Layer_x0020_1" transform="translate(7607.952 3364.168)">
      <path id="Trazado_1022494" data-name="Trazado 1022494" d="M587.751,687.33a.753.753,0,0,1-.751-.751v-5.445c.038-.038.451-2.4,2.028-3.117a2.924,2.924,0,0,1-.676-2.891l.225-.6a.768.768,0,0,1,.713-.526h10.138c.713,0,7.1,1.727,7.1,7.96v4.356a.751.751,0,1,1-1.5,0V681.96c0-5.144-5.182-6.346-5.67-6.458h-9.537l-.075.15c-.15.451.075,1.014.676,1.727l.3.3a.991.991,0,0,1,.375.976.875.875,0,0,1-.563.526l-.751.15c-.714.188-1.164,1.539-1.277,1.99v5.257A.753.753,0,0,1,587.751,687.33Z" transform="translate(-564.959 -636.18)" fill-rule="evenodd"/>
      <path id="Trazado_1022495" data-name="Trazado 1022495" d="M655.67,1128.619h-1.615a10.032,10.032,0,0,1-6.8-6.421.784.784,0,0,1,.526-.939.751.751,0,0,1,.939.526,8.367,8.367,0,0,0,5.632,5.332H655.6a8.367,8.367,0,0,0,5.632-5.332.751.751,0,0,1,.939-.526.8.8,0,0,1,.488.939,9.836,9.836,0,0,1-6.759,6.421Z" transform="translate(-622.928 -1066.617)" fill-rule="evenodd"/>
      <path id="Trazado_1022496" data-name="Trazado 1022496" d="M648.508,854.383a.692.692,0,0,1-.713-.526.739.739,0,0,1,.451-.939,2.012,2.012,0,0,0,1.239-2.065v-2.1a.676.676,0,0,1,.263-.563.584.584,0,0,1,.6-.15c.113,0,1.427.113,1.577.113,1.314.113,2.478.188,3.53.225,1.314-.038,2.779-.113,3.943-.225l1.2-.15a1.135,1.135,0,0,1,.6.188.828.828,0,0,1,.225.563v2.1a2.012,2.012,0,0,0,1.239,2.065.725.725,0,0,1,.451.939.745.745,0,0,1-.939.488,3.544,3.544,0,0,1-2.253-3.492v-1.277l-.375.038a35.414,35.414,0,0,1-4.093.225c-1.089,0-2.291-.075-3.642-.188-.038,0-.413-.038-.826-.075v1.277a3.594,3.594,0,0,1-2.253,3.492A.476.476,0,0,1,648.508,854.383Z" transform="translate(-623.425 -803.647)" fill-rule="evenodd"/>
      <path id="Trazado_1022497" data-name="Trazado 1022497" d="M1019.765,984.909h-.976a.753.753,0,0,1-.751-.751l-.038-5.407a.77.77,0,0,1,.751-.751h1.014a2.845,2.845,0,0,1,2.854,2.816v1.239A2.852,2.852,0,0,1,1019.765,984.909Zm-.225-1.5h.225a1.346,1.346,0,0,0,1.352-1.352v-1.239a1.339,1.339,0,0,0-1.352-1.314h-.263Z" transform="translate(-979.775 -928.765)" fill-rule="evenodd"/>
      <path id="Trazado_1022498" data-name="Trazado 1022498" d="M749.055,1254.848a4.07,4.07,0,0,1-4.055-4.093v-3a.751.751,0,0,1,1.5,0v3a2.564,2.564,0,0,0,2.553,2.591,2.6,2.6,0,0,0,2.591-2.591v-3a.751.751,0,0,1,1.5,0v3A4.1,4.1,0,0,1,749.055,1254.848Z" transform="translate(-717.026 -1187.665)" fill-rule="evenodd"/>
      <path id="Trazado_1022499" data-name="Trazado 1022499" d="M504.349,1355.217H476v-6.383c0-2.929,2.253-5.257,5.745-5.9l4.994-.939.263,1.5-4.956.9c-2.1.375-4.543,1.765-4.543,4.431v4.881h25.345v-4.881c0-2.629-2.366-4.018-4.543-4.431l-4.994-.939.3-1.464,4.956.939c3.53.676,5.783,2.966,5.783,5.9Z" transform="translate(-458.127 -1279.098)" fill-rule="evenodd"/>
      <path id="Trazado_1022500" data-name="Trazado 1022500" d="M696.12,1264.176a5.883,5.883,0,0,1-6.12-5.595v-.15l1.5.038v.113a4.673,4.673,0,0,0,9.275,0v-.113l1.5-.075v.188A5.894,5.894,0,0,1,696.12,1264.176Zm2.929-8.824c-.075-.037-.113-.075-.188-.113l.826-1.239.225.113Zm-5.82,0-.864-1.239.225-.113.788,1.239C693.342,1255.277,693.267,1255.314,693.229,1255.352Z" transform="translate(-664.091 -1194.402)" fill-rule="evenodd"/>
      <path id="Trazado_1022501" data-name="Trazado 1022501" d="M606.263,1572.731a.753.753,0,0,1-.751-.751v-3.229a.751.751,0,0,1,1.5,0v3.229A.753.753,0,0,1,606.263,1572.731Zm-18.512,0a.753.753,0,0,1-.751-.751v-3.229a.751.751,0,0,1,1.5,0v3.229A.753.753,0,0,1,587.751,1572.731Z" transform="translate(-564.959 -1496.612)" fill-rule="evenodd"/>
      <path id="Trazado_1022502" data-name="Trazado 1022502" d="M568.867,984.909h-1.014A2.852,2.852,0,0,1,565,982.055v-1.239A2.845,2.845,0,0,1,567.854,978h1.014a.753.753,0,0,1,.751.751v5.407A.753.753,0,0,1,568.867,984.909Zm-1.014-5.407a1.339,1.339,0,0,0-1.352,1.314v1.239a1.346,1.346,0,0,0,1.352,1.352h.263V979.5Z" transform="translate(-543.785 -928.765)" fill-rule="evenodd"/>
      <path id="Trazado_1022503" data-name="Trazado 1022503" d="M114.045,768.128a6.064,6.064,0,0,1,0-12.128,6.064,6.064,0,1,1,0,12.128Zm0-10.626a4.562,4.562,0,1,0,4.581,4.581A4.567,4.567,0,0,0,114.045,757.5Z" transform="translate(-103.945 -715.101)" fill-rule="evenodd"/>
      <path id="Trazado_1022504" data-name="Trazado 1022504" d="M19.413,1008.6H.751a.753.753,0,0,1-.751-.751v-4.13a6.855,6.855,0,0,1,6.271-6.8.7.7,0,0,1,.789.676.757.757,0,0,1-.676.826,5.344,5.344,0,0,0-4.881,5.294v3.342h17.16v-3.342a5.34,5.34,0,0,0-4.844-5.294.757.757,0,0,1-.676-.826.723.723,0,0,1,.789-.676,6.879,6.879,0,0,1,6.233,6.8v4.093A.762.762,0,0,1,19.413,1008.6Z" transform="translate(0 -946.971)" fill-rule="evenodd"/>
      <path id="Trazado_1022505" data-name="Trazado 1022505" d="M116.751,1187.694a.753.753,0,0,1-.751-.751v-3.192a.751.751,0,0,1,1.5,0v3.192A.753.753,0,0,1,116.751,1187.694Z" transform="translate(-111.644 -1126.068)" fill-rule="evenodd"/>
      <path id="Trazado_1022506" data-name="Trazado 1022506" d="M380.751,1187.694a.753.753,0,0,1-.751-.751v-3.192a.751.751,0,0,1,1.5,0v3.192A.753.753,0,0,1,380.751,1187.694Z" transform="translate(-365.731 -1126.068)" fill-rule="evenodd"/>
      <path id="Trazado_1022507" data-name="Trazado 1022507" d="M1283.083,768.128a6.064,6.064,0,1,1,6.045-6.045A6.074,6.074,0,0,1,1283.083,768.128Zm0-10.626a4.562,4.562,0,1,0,0,9.124,4.562,4.562,0,0,0,0-9.124Z" transform="translate(-1229.05 -715.101)" fill-rule="evenodd"/>
      <path id="Trazado_1022508" data-name="Trazado 1022508" d="M1189.413,1008.6h-18.662a.753.753,0,0,1-.751-.751v-4.13a6.855,6.855,0,0,1,6.271-6.8.723.723,0,0,1,.789.676.758.758,0,0,1-.676.826,5.344,5.344,0,0,0-4.881,5.294v3.342h17.16v-3.342a5.34,5.34,0,0,0-4.844-5.294.816.816,0,0,1-.713-.826.757.757,0,0,1,.826-.676,6.879,6.879,0,0,1,6.233,6.8v4.093A.762.762,0,0,1,1189.413,1008.6Z" transform="translate(-1126.068 -946.971)" fill-rule="evenodd"/>
      <path id="Trazado_1022509" data-name="Trazado 1022509" d="M1286.751,1187.694a.753.753,0,0,1-.751-.751v-3.192a.751.751,0,0,1,1.5,0v3.192A.753.753,0,0,1,1286.751,1187.694Z" transform="translate(-1237.712 -1126.068)" fill-rule="evenodd"/>
      <path id="Trazado_1022510" data-name="Trazado 1022510" d="M1550.751,1187.694a.753.753,0,0,1-.751-.751v-3.192a.751.751,0,0,1,1.5,0v3.192A.753.753,0,0,1,1550.751,1187.694Z" transform="translate(-1491.799 -1126.068)" fill-rule="evenodd"/>
      <path id="Trazado_1022511" data-name="Trazado 1022511" d="M242.126,41.725a1.891,1.891,0,0,1-1.915-1.877V36.055c-4.018-.751-6.383,2.779-7.059,3.943a.739.739,0,0,1-1.014.3.748.748,0,0,1-.263-1.051c.789-1.427,3.868-6.008,9.312-4.543a.817.817,0,0,1,.526.751v4.393a.417.417,0,0,0,.413.413.886.886,0,0,0,.6-.263l6.909-6.909a.884.884,0,0,0,0-1.239l-6.909-6.909a.747.747,0,0,0-.6-.263.417.417,0,0,0-.413.413v4.431a.784.784,0,0,1-.3.6.743.743,0,0,1-.638.113c-4.431-1.2-9.537,4.13-9.575,4.205a.756.756,0,0,1-.826.188.77.77,0,0,1-.488-.713V23.4a.753.753,0,0,1,.751-.751h3.943a.386.386,0,0,0,.413-.375.886.886,0,0,0-.263-.6l-6.909-6.947a.965.965,0,0,0-1.239,0l-6.909,6.947a.886.886,0,0,0-.263.6.386.386,0,0,0,.413.375h3.905a.753.753,0,0,1,.751.751l.038,10.514a.77.77,0,0,1-.488.713.756.756,0,0,1-.826-.188c-.038-.075-5.144-5.407-9.575-4.205a.871.871,0,0,1-.676-.15.658.658,0,0,1-.263-.6V25.091a.417.417,0,0,0-.413-.413.747.747,0,0,0-.6.263l-6.909,6.909a.884.884,0,0,0,0,1.239L211.674,40a.853.853,0,0,0,.6.225.386.386,0,0,0,.413-.375V35.417a.732.732,0,0,1,.526-.713c4.431-1.2,7.284,1.652,8.6,3.454a.692.692,0,0,1-.15,1.014.73.73,0,0,1-1.051-.15c-1.277-1.69-3.379-3.567-6.421-3v3.83a1.891,1.891,0,0,1-1.915,1.877,2.208,2.208,0,0,1-1.652-.676l-6.947-6.909a2.4,2.4,0,0,1,0-3.342l6.947-6.947a2.358,2.358,0,0,1,1.652-.676,1.923,1.923,0,0,1,1.915,1.915v3.492c3.492-.375,6.984,2.065,8.824,3.6l-.038-8.035h-3.154a1.891,1.891,0,0,1-1.915-1.877,2.389,2.389,0,0,1,.713-1.69l6.909-6.909a2.4,2.4,0,0,1,3.342,0l6.909,6.909a2.389,2.389,0,0,1,.713,1.69,1.891,1.891,0,0,1-1.915,1.877h-3.192v8.035c1.84-1.54,5.332-3.98,8.824-3.567v-3.53a1.923,1.923,0,0,1,1.915-1.915,2.428,2.428,0,0,1,1.652.676l6.947,6.947a2.4,2.4,0,0,1,0,3.342l-6.947,6.909A2.267,2.267,0,0,1,242.126,41.725Z" transform="translate(-195.378)" fill-rule="evenodd"/>
      <path id="Trazado_1022512" data-name="Trazado 1022512" d="M280.452,73.952v4.393a.417.417,0,0,0,.413.413.886.886,0,0,0,.6-.263l6.909-6.909a.884.884,0,0,0,0-1.239l-6.909-6.909a.747.747,0,0,0-.6-.263.417.417,0,0,0-.413.413V68.02a.784.784,0,0,1-.3.6.743.743,0,0,1-.638.113c-4.431-1.2-9.537,4.13-9.575,4.205a.756.756,0,0,1-.826.188.77.77,0,0,1-.488-.713V61.9a.753.753,0,0,1,.751-.751h3.943a.386.386,0,0,0,.413-.375.886.886,0,0,0-.263-.6l-6.909-6.947a.965.965,0,0,0-1.239,0l-6.909,6.947a.886.886,0,0,0-.263.6.386.386,0,0,0,.413.375h3.905a.753.753,0,0,1,.751.751l.038,10.514a.77.77,0,0,1-.488.713.756.756,0,0,1-.826-.188c-.038-.075-5.144-5.407-9.575-4.205a.871.871,0,0,1-.676-.15.658.658,0,0,1-.263-.6V63.589a.417.417,0,0,0-.413-.413.747.747,0,0,0-.6.263L243.5,70.348a.884.884,0,0,0,0,1.239l6.909,6.909a.853.853,0,0,0,.6.225.386.386,0,0,0,.413-.375V73.915a.732.732,0,0,1,.526-.713c4.168-1.126,6.947,1.352,8.373,3.117h8.261a7.136,7.136,0,0,1,2.4.826c1.164-1.84,4.13-5.219,8.937-3.943A.817.817,0,0,1,280.452,73.952Z" transform="translate(-234.116 -38.498)" fill="#89d3e5" fill-rule="evenodd"/>
      <path id="Trazado_1022513" data-name="Trazado 1022513" d="M640.367,715.014c-.075,0-.113-.037-.15-.037l-.113-.113a8.589,8.589,0,0,0-2.253-.864h-9.537l-.075.15c-.15.451.075,1.014.676,1.727l.3.3a.991.991,0,0,1,.375.976.875.875,0,0,1-.563.526l-.751.15c-.713.188-1.164,1.539-1.277,1.99v4.13a2.48,2.48,0,0,1,.526-.038h.864a2.124,2.124,0,0,0,1.126-2.028v-2.1a.676.676,0,0,1,.263-.563.584.584,0,0,1,.6-.15c.113,0,1.427.113,1.577.113,1.314.113,2.478.188,3.53.225,1.314-.038,2.779-.113,3.943-.225l1.2-.15a1.134,1.134,0,0,1,.6.188.828.828,0,0,1,.225.563v2.1a2.137,2.137,0,0,0,1.126,2.028h.939v-3.455A6.11,6.11,0,0,0,640.367,715.014Z" transform="translate(-603.457 -674.678)" fill="#633" fill-rule="evenodd"/>
      <path id="Trazado_1022514" data-name="Trazado 1022514" d="M698.288,890.037a35.4,35.4,0,0,1-4.093.225c-1.089,0-2.291-.075-3.642-.188l-.826-.075v1.277A3.569,3.569,0,0,1,688,894.506v4.844a8.6,8.6,0,0,0,3.229,4.168c.038,0,.075.038.113.075a8.862,8.862,0,0,0,2.253.976h1.239a8.861,8.861,0,0,0,2.253-.976l.075-.075a8.387,8.387,0,0,0,3.267-4.206l-.037-4.806a3.569,3.569,0,0,1-1.727-3.229V890Z" transform="translate(-662.166 -844.07)" fill="#ffc29f" fill-rule="evenodd"/>
      <path id="Trazado_1022515" data-name="Trazado 1022515" d="M790.144,1301a10.772,10.772,0,0,1-1.652.638h-1.84A9.456,9.456,0,0,1,785,1301v1.727a2.564,2.564,0,0,0,2.553,2.591,2.6,2.6,0,0,0,2.591-2.591Z" transform="translate(-755.524 -1239.637)" fill="#ffaf8f" fill-rule="evenodd"/>
      <path id="Trazado_1022516" data-name="Trazado 1022516" d="M738.448,1384a4.068,4.068,0,0,1-3.83,2.7,4.164,4.164,0,0,1-3.83-2.666l-.789.15a4.519,4.519,0,0,0,4.619,3.6,4.458,4.458,0,0,0,4.618-3.642Z" transform="translate(-702.589 -1319.521)" fill="#4855c2" fill-rule="evenodd"/>
      <path id="Trazado_1022517" data-name="Trazado 1022517" d="M534.774,1396a6.265,6.265,0,0,1-12.2,0l-2.028.375c-2.1.375-4.543,1.765-4.543,4.431v4.881h2.666v-2.478a.751.751,0,0,1,1.5,0v2.478h17.01v-2.478a.751.751,0,0,1,1.5,0v2.478h2.666v-4.881c0-2.628-2.366-4.018-4.543-4.431Z" transform="translate(-496.625 -1331.07)" fill="#537ce2" fill-rule="evenodd"/>
      <path id="Trazado_1022518" data-name="Trazado 1022518" d="M1214.356,1044.2v2.4h8.411v-2.4a.751.751,0,0,1,1.5,0v2.4h2.891v-3.342a5.364,5.364,0,0,0-4.543-5.257,5.882,5.882,0,0,1-4.018,1.539,6.238,6.238,0,0,1-4.055-1.539,5.364,5.364,0,0,0-4.543,5.257v3.342h2.854v-2.4a.751.751,0,1,1,1.5,0Z" transform="translate(-1164.566 -986.512)" fill="#5b5555" fill-rule="evenodd"/>
      <path id="Trazado_1022519" data-name="Trazado 1022519" d="M1317,800.581a4.562,4.562,0,1,0,4.581-4.581A4.567,4.567,0,0,0,1317,800.581Z" transform="translate(-1267.548 -753.599)" fill="#ffc29f" fill-rule="evenodd"/>
      <path id="Trazado_1022520" data-name="Trazado 1022520" d="M152.543,805.124A4.562,4.562,0,1,0,148,800.581,4.567,4.567,0,0,0,152.543,805.124Z" transform="translate(-142.443 -753.599)" fill="#ffc29f" fill-rule="evenodd"/>
      <path id="Trazado_1022521" data-name="Trazado 1022521" d="M52.616,1038a5.882,5.882,0,0,1-4.018,1.539A6.065,6.065,0,0,1,44.581,1038,5.364,5.364,0,0,0,40,1043.257v3.342h2.854v-2.4a.751.751,0,0,1,1.5,0v2.4h8.411v-2.4a.751.751,0,0,1,1.5,0v2.4H57.16v-3.342A5.331,5.331,0,0,0,52.616,1038Z" transform="translate(-38.498 -986.512)" fill="#2a428c" fill-rule="evenodd"/>
      <g id="Grupo_1166197" data-name="Grupo 1166197" transform="translate(22.717 50.737)">
        <path id="Trazado_1022522" data-name="Trazado 1022522" d="M605,1019.314v1.239a1.346,1.346,0,0,0,1.352,1.352h.263V1018h-.263a1.388,1.388,0,0,0-.789.225c0,.038-.038.038-.038.075A1.2,1.2,0,0,0,605,1019.314Z" transform="translate(-605 -1018)" fill="#ffaf8f" fill-rule="evenodd"/>
        <path id="Trazado_1022523" data-name="Trazado 1022523" d="M1058,1018l.038,3.905h.225a1.346,1.346,0,0,0,1.352-1.352v-1.239a1.373,1.373,0,0,0-.789-1.2h-.075a1.039,1.039,0,0,0-.488-.113Z" transform="translate(-1040.99 -1018)" fill="#ffaf8f" fill-rule="evenodd"/>
      </g>
    </g>
  </g>
</svg>
