<svg xmlns="http://www.w3.org/2000/svg" xmlns:xlink="http://www.w3.org/1999/xlink" width="110" height="110" viewBox="0 0 110 110">
  <defs>
    <filter id="Trazado_982547" x="0" y="0" width="110" height="110" filterUnits="userSpaceOnUse">
      <feOffset dy="3" input="SourceAlpha"/>
      <feGaussianBlur stdDeviation="3" result="blur"/>
      <feFlood flood-opacity="0.161"/>
      <feComposite operator="in" in2="blur"/>
      <feComposite in="SourceGraphic"/>
    </filter>
  </defs>
  <g id="Grupo_1166162" data-name="Grupo 1166162" transform="translate(-797.19 -1959.523)">
    <g id="Grupo_1164703" data-name="Grupo 1164703" transform="translate(806.19 1965.523)">
      <g id="Grupo_1160931" data-name="Grupo 1160931" transform="translate(0)">
        <g id="Grupo_1160749" data-name="Grupo 1160749" transform="translate(0)">
          <g id="Grupo_1158891" data-name="Grupo 1158891" transform="translate(0 0)">
            <g id="Grupo_1157406" data-name="Grupo 1157406" transform="translate(0)">
              <g id="Grupo_1155793" data-name="Grupo 1155793" transform="translate(0)">
                <g id="Grupo_1154704" data-name="Grupo 1154704" transform="translate(0)">
                  <g id="Grupo_1150790" data-name="Grupo 1150790" transform="translate(0)">
                    <g id="Grupo_1154214" data-name="Grupo 1154214" transform="translate(0)">
                      <g id="Grupo_1152583" data-name="Grupo 1152583" transform="translate(0 0)">
                        <g id="Grupo_1146973" data-name="Grupo 1146973" transform="translate(0 0)">
                          <g id="Grupo_1146954" data-name="Grupo 1146954">
                            <g transform="matrix(1, 0, 0, 1, -9, -6)" filter="url(#Trazado_982547)">
                              <g id="Trazado_982547-2" data-name="Trazado 982547" transform="translate(9 6)" fill="#fcebe9">
                                <path d="M 46.00000381469727 90.49988555908203 C 39.99188232421875 90.49988555908203 34.16427230834961 89.32352447509766 28.67905807495117 87.00347137451172 C 23.38020324707031 84.76226043701172 18.62104415893555 81.55342864990234 14.53375053405762 77.46615600585938 C 10.44647026062012 73.37887573242188 7.237643718719482 68.61971282958984 4.996417045593262 63.32085800170898 C 2.676363706588745 57.83565902709961 1.500003814697266 52.00806045532227 1.500003814697266 45.99993896484375 C 1.500003814697266 39.99181747436523 2.676363706588745 34.16421890258789 4.996417045593262 28.67901802062988 C 7.237643718719482 23.38017845153809 10.44647026062012 18.62101936340332 14.53375053405762 14.53373908996582 C 18.62104415893555 10.44645881652832 23.38020324707031 7.237632274627686 28.67905807495117 4.996418952941895 C 34.16427230834961 2.676365613937378 39.99188232421875 1.500005602836609 46.00000381469727 1.500005602836609 C 52.00812530517578 1.500005602836609 57.83573532104492 2.676365613937378 63.32094955444336 4.996418952941895 C 68.61980438232422 7.237632274627686 73.37897491455078 10.44645881652832 77.46625518798828 14.53373908996582 C 81.55355072021484 18.62101936340332 84.76236724853516 23.38017845153809 87.00359344482422 28.67901802062988 C 89.32364654541016 34.16421890258789 90.5 39.99181747436523 90.5 45.99993896484375 C 90.5 52.00806045532227 89.32364654541016 57.83565902709961 87.00359344482422 63.32085800170898 C 84.76236724853516 68.61971282958984 81.55355072021484 73.37887573242188 77.46625518798828 77.46615600585938 C 73.37897491455078 81.55342864990234 68.61980438232422 84.76226043701172 63.32094955444336 87.00347137451172 C 57.83573532104492 89.32352447509766 52.00812530517578 90.49988555908203 46.00000381469727 90.49988555908203 Z" stroke="none"/>
                                <path d="M 46.00000381469727 2.999992370605469 C 40.19371795654297 2.999992370605469 34.56270217895508 4.136497497558594 29.26338958740234 6.377906799316406 C 24.14333343505859 8.543510437011719 19.54441833496094 11.64437866210938 15.59440612792969 15.59439849853516 C 11.64440155029297 19.54439544677734 8.54351806640625 24.14329528808594 6.377914428710938 29.26335144042969 C 4.136505126953125 34.56266784667969 3.000007629394531 40.19366836547852 3.000007629394531 45.99993896484375 C 3.000007629394531 51.80620956420898 4.136505126953125 57.43722534179688 6.377914428710938 62.73654174804688 C 8.54351806640625 67.85658264160156 11.64440155029297 72.45548248291016 15.59440612792969 76.40549468994141 C 19.54441833496094 80.35549926757812 24.14333343505859 83.45636749267578 29.26337432861328 85.62196350097656 C 34.56270217895508 87.86338043212891 40.19371795654297 88.9998779296875 46.00000381469727 88.9998779296875 C 51.80628967285156 88.9998779296875 57.43730545043945 87.86338043212891 62.73663330078125 85.62196350097656 C 67.85667419433594 83.45636749267578 72.45558929443359 80.35549926757812 76.40560150146484 76.40549468994141 C 80.35560607910156 72.45548248291016 83.45648956298828 67.85658264160156 85.62208557128906 62.73654174804688 C 87.86350250244141 57.43722534179688 89 51.80620956420898 89 45.99993896484375 C 89 40.19366836547852 87.86350250244141 34.56266784667969 85.62208557128906 29.26335144042969 C 83.45648956298828 24.14329528808594 80.35560607910156 19.54439544677734 76.40560150146484 15.59439849853516 C 72.45558929443359 11.64437866210938 67.85667419433594 8.543510437011719 62.73661804199219 6.377906799316406 C 57.43730545043945 4.136497497558594 51.80628967285156 2.999992370605469 46.00000381469727 2.999992370605469 M 46.00000381469727 -7.62939453125e-06 C 71.40510559082031 -7.62939453125e-06 92 20.59487915039062 92 45.99993896484375 C 92 71.40501403808594 71.40510559082031 91.99988555908203 46.00000381469727 91.99988555908203 C 20.59490203857422 91.99988555908203 7.62939453125e-06 71.40501403808594 7.62939453125e-06 45.99993896484375 C 7.62939453125e-06 20.59487915039062 20.59490203857422 -7.62939453125e-06 46.00000381469727 -7.62939453125e-06 Z" stroke="none" fill="#e44b36"/>
                              </g>
                            </g>
                          </g>
                        </g>
                      </g>
                    </g>
                  </g>
                </g>
              </g>
            </g>
          </g>
        </g>
      </g>
    </g>
    <g id="obediente_1_" data-name="obediente (1)" transform="translate(761.697 1979.345)">
      <path id="Trazado_1014528" data-name="Trazado 1014528" d="M216.459,61.826a3.657,3.657,0,0,1-2.007-.6v3.292h4.014V61.229A3.659,3.659,0,0,1,216.459,61.826Z" transform="translate(-128.562 -53.533)" fill="#e8b800"/>
      <g id="Grupo_1161561" data-name="Grupo 1161561" transform="translate(68.35 12.473)">
        <path id="Trazado_1014529" data-name="Trazado 1014529" d="M112.69,130.5a.377.377,0,0,0-.463,0l-3.01,2.344a.377.377,0,0,1-.609-.3V122.105A8.169,8.169,0,0,1,114,106.878V99.86a.629.629,0,0,0-.628-.628h-9.188v4.6a.5.5,0,0,1-.5.5H85.226a.5.5,0,0,1-.5-.5v-4.6H75.535a.629.629,0,0,0-.628.628v49.683a.629.629,0,0,0,.628.628h37.837a.629.629,0,0,0,.628-.628V131.522Z" transform="translate(-74.907 -99.232)" fill="#f6a96c"/>
      </g>
      <path id="Trazado_1014530" data-name="Trazado 1014530" d="M80.293,149.545v-2.636H78.548a.377.377,0,0,1-.377-.377V102.874a.377.377,0,0,1,.377-.377h1.745V99.861a.629.629,0,0,1,.628-.628H75.535a.629.629,0,0,0-.628.628v49.683a.629.629,0,0,0,.628.628h5.386A.629.629,0,0,1,80.293,149.545Z" transform="translate(-6.557 -86.76)" fill="#ea9b58"/>
      <path id="Trazado_1014531" data-name="Trazado 1014531" d="M131.922,155.551a.377.377,0,0,1-.609-.3V144.809a8.168,8.168,0,0,1,2.128-15.189v-4.041a.377.377,0,0,0-.377-.377h-6.175v1.335a.5.5,0,0,1-.5.5H107.931a.5.5,0,0,1-.5-.5V125.2h-6.175a.377.377,0,0,0-.377.377v43.658a.377.377,0,0,0,.377.377h31.811a.377.377,0,0,0,.377-.377V154.368Z" transform="translate(-29.262 -109.465)" fill="#dff6fd"/>
      <g id="Grupo_1161562" data-name="Grupo 1161562" transform="translate(71.614 15.737)">
        <path id="Trazado_1014532" data-name="Trazado 1014532" d="M104.647,169.237V125.579a.377.377,0,0,1,.377-.377h-3.771a.377.377,0,0,0-.377.377v43.658a.377.377,0,0,0,.377.377h3.771A.377.377,0,0,1,104.647,169.237Z" transform="translate(-100.876 -125.202)" fill="#c8effe"/>
      </g>
      <g id="Grupo_1161563" data-name="Grupo 1161563" transform="translate(78.04 10.988)">
        <path id="Trazado_1014533" data-name="Trazado 1014533" d="M171.086,94.131H152.63A.629.629,0,0,1,152,93.5V88.046a.629.629,0,0,1,.628-.628h18.456a.629.629,0,0,1,.628.628V93.5A.628.628,0,0,1,171.086,94.131Z" transform="translate(-152.002 -87.418)" fill="#fac600"/>
      </g>
      <g id="Grupo_1161564" data-name="Grupo 1161564" transform="translate(78.04 10.988)">
        <path id="Trazado_1014534" data-name="Trazado 1014534" d="M155.242,93.5V88.046a.629.629,0,0,1,.628-.628h-3.24a.629.629,0,0,0-.628.628V93.5a.629.629,0,0,0,.628.628h3.24A.628.628,0,0,1,155.242,93.5Z" transform="translate(-152.002 -87.418)" fill="#e8b800"/>
      </g>
      <path id="Trazado_1014535" data-name="Trazado 1014535" d="M346.875,282.171a8.131,8.131,0,0,1-3.85-.964v10.442a.377.377,0,0,0,.609.3l3.01-2.344a.377.377,0,0,1,.463,0l3.01,2.344a.377.377,0,0,0,.609-.3V281.207A8.133,8.133,0,0,1,346.875,282.171Z" transform="translate(-240.974 -245.861)" fill="#fb2b3a"/>
      <path id="Trazado_1014536" data-name="Trazado 1014536" d="M343.025,281.207v10.442a.377.377,0,0,0,.609.3l2.6-2.021v-7.783A8.118,8.118,0,0,1,343.025,281.207Z" transform="translate(-240.974 -245.861)" fill="#e41f2d"/>
      <g id="Grupo_1161567" data-name="Grupo 1161567" transform="translate(97.732 19.972)">
        <g id="Grupo_1161565" data-name="Grupo 1161565" transform="translate(0 0)">
          <circle id="Elipse_11825" data-name="Elipse 11825" cx="8.169" cy="8.169" r="8.169" fill="#4fc123"/>
        </g>
        <g id="Grupo_1161566" data-name="Grupo 1161566">
          <path id="Trazado_1014537" data-name="Trazado 1014537" d="M312.827,167.058a8.172,8.172,0,0,1,6.087-7.9,8.169,8.169,0,1,0,0,15.8A8.172,8.172,0,0,1,312.827,167.058Z" transform="translate(-308.663 -158.889)" fill="#47a920"/>
        </g>
      </g>
      <g id="Grupo_1161568" data-name="Grupo 1161568" transform="translate(84.221 0.943)">
        <circle id="Elipse_11826" data-name="Elipse 11826" cx="3.675" cy="3.675" r="3.675" fill="#fac600"/>
      </g>
      <g id="Grupo_1161569" data-name="Grupo 1161569" transform="translate(84.221 0.943)">
        <path id="Trazado_1014538" data-name="Trazado 1014538" d="M204.337,11.175a3.675,3.675,0,0,1,2.1-3.319,3.675,3.675,0,1,0,0,6.638A3.675,3.675,0,0,1,204.337,11.175Z" transform="translate(-201.179 -7.5)" fill="#e8b800"/>
      </g>
      <g id="Grupo_1161570" data-name="Grupo 1161570" transform="translate(67.407 0)">
        <path id="Trazado_1014539" data-name="Trazado 1014539" d="M141.08,185.431l-2.136,2.136-1.142-1.142a.943.943,0,1,0-1.333,1.333l1.808,1.808a.943.943,0,0,0,1.333,0l2.8-2.8a.943.943,0,1,0-1.333-1.333Z" transform="translate(-127.547 -161.882)"/>
        <path id="Trazado_1014540" data-name="Trazado 1014540" d="M141.08,254.875l-2.136,2.136L137.8,255.87a.943.943,0,0,0-1.333,1.333l1.808,1.808a.943.943,0,0,0,1.333,0l2.8-2.8a.943.943,0,0,0-1.333-1.333Z" transform="translate(-127.547 -222.597)"/>
        <path id="Trazado_1014541" data-name="Trazado 1014541" d="M203.193,280.025h13.5a.943.943,0,1,0,0-1.885h-13.5a.943.943,0,1,0,0,1.885Z" transform="translate(-185.301 -243.179)"/>
        <path id="Trazado_1014542" data-name="Trazado 1014542" d="M141.08,324.318l-2.136,2.136-1.142-1.142a.943.943,0,0,0-1.333,1.333l1.808,1.808a.943.943,0,0,0,1.333,0l2.8-2.8a.943.943,0,0,0-1.333-1.333Z" transform="translate(-127.547 -283.311)"/>
        <path id="Trazado_1014543" data-name="Trazado 1014543" d="M216.691,322.8h-13.5a.943.943,0,1,0,0,1.885h13.5a.943.943,0,1,0,0-1.885Z" transform="translate(-185.301 -282.226)"/>
        <path id="Trazado_1014544" data-name="Trazado 1014544" d="M216.691,347.583h-13.5a.943.943,0,1,0,0,1.885h13.5a.943.943,0,1,0,0-1.885Z" transform="translate(-185.301 -303.893)"/>
        <path id="Trazado_1014545" data-name="Trazado 1014545" d="M141.08,393.76l-2.136,2.136-1.142-1.142a.943.943,0,1,0-1.333,1.333l1.808,1.808a.943.943,0,0,0,1.333,0l2.8-2.8a.943.943,0,0,0-1.333-1.333Z" transform="translate(-127.547 -344.025)"/>
        <path id="Trazado_1014546" data-name="Trazado 1014546" d="M216.691,392.243h-13.5a.943.943,0,0,0,0,1.885h13.5a.943.943,0,1,0,0-1.885Z" transform="translate(-185.301 -342.94)"/>
        <path id="Trazado_1014547" data-name="Trazado 1014547" d="M217.634,417.968a.943.943,0,0,0-.943-.943h-13.5a.943.943,0,0,0,0,1.885h13.5A.943.943,0,0,0,217.634,417.968Z" transform="translate(-185.301 -364.607)"/>
        <path id="Trazado_1014548" data-name="Trazado 1014548" d="M114.079,29a.942.942,0,0,0-1.124.716,7.226,7.226,0,1,1-.21-3.892.943.943,0,0,0,1.786-.606,9.108,9.108,0,0,0-6.143-5.84V13.1a1.573,1.573,0,0,0-1.571-1.571H98.691a1.572,1.572,0,0,0-1.567-1.485H90.846V8.168a4.618,4.618,0,1,0-5.9,0v1.877H78.669A1.572,1.572,0,0,0,77.1,11.53H68.978A1.573,1.573,0,0,0,67.407,13.1V62.785a1.573,1.573,0,0,0,1.571,1.571h37.837a1.573,1.573,0,0,0,1.571-1.571V46.692l.177.138a1.32,1.32,0,0,0,2.131-1.041v-9.9a9.046,9.046,0,0,0,.948-.673,9.148,9.148,0,0,0,3.153-5.1A.943.943,0,0,0,114.079,29ZM106.5,19.05c-.2-.013-.4-.021-.6-.021-.263,0-.522.014-.779.036v-2.95a1.321,1.321,0,0,0-1.32-1.32H98.7V13.416H106.5ZM87.9,1.885a2.732,2.732,0,1,1-2.732,2.732A2.736,2.736,0,0,1,87.9,1.885ZM86.832,9.11a4.589,4.589,0,0,0,2.128,0v.935H86.832V9.11ZM106.5,62.471H69.292V13.416H77.1v1.379H71.991a1.321,1.321,0,0,0-1.32,1.32V59.772a1.321,1.321,0,0,0,1.32,1.32h22.99a.943.943,0,1,0,0-1.885H72.557V16.68H77.1v.393a1.573,1.573,0,0,0,1.571,1.571h3.365a.943.943,0,0,0,0-1.885H78.983V11.931H96.81v4.828H86.433a.943.943,0,1,0,0,1.885H97.124A1.573,1.573,0,0,0,98.7,17.073V16.68h4.541v2.747a9.15,9.15,0,0,0-4.932,3.69H85.3A.943.943,0,0,0,85.3,25H97.346a9.034,9.034,0,0,0-.354,1.23H85.3a.943.943,0,0,0,0,1.885H96.79c0,.008,0,.015,0,.023a9.055,9.055,0,0,0,.79,3.7H85.3a.943.943,0,0,0,0,1.885H98.713a9.18,9.18,0,0,0,2.395,2.155v9.9a1.318,1.318,0,0,0,2.128,1.043V59.206H99.38a.943.943,0,1,0,0,1.885H103.8a1.321,1.321,0,0,0,1.32-1.32V45.364l.779-.607.6.467V62.471Zm2.308-17.839L106.712,43a1.318,1.318,0,0,0-1.622,0l-2.1,1.633V36.774a9.062,9.062,0,0,0,5.815,0Z" transform="translate(-67.407 0)"/>
        <path id="Trazado_1014549" data-name="Trazado 1014549" d="M348.554,202.194l-3.5,3.5-2.019-2.019A.943.943,0,0,0,341.705,205l2.686,2.686a.942.942,0,0,0,1.333,0l4.163-4.163a.943.943,0,1,0-1.333-1.333Z" transform="translate(-306.986 -176.538)"/>
        <path id="Trazado_1014550" data-name="Trazado 1014550" d="M198.05,107.565a.943.943,0,0,0-.943-.943h-8.984a.943.943,0,1,0,0,1.885h8.984A.943.943,0,0,0,198.05,107.565Z" transform="translate(-172.126 -93.22)"/>
      </g>
    </g>
  </g>
</svg>
