<svg xmlns="http://www.w3.org/2000/svg" xmlns:xlink="http://www.w3.org/1999/xlink" width="110" height="110" viewBox="0 0 110 110">
  <defs>
    <filter id="Trazado_982547" x="0" y="0" width="110" height="110" filterUnits="userSpaceOnUse">
      <feOffset dy="3" input="SourceAlpha"/>
      <feGaussianBlur stdDeviation="3" result="blur"/>
      <feFlood flood-opacity="0.161"/>
      <feComposite operator="in" in2="blur"/>
      <feComposite in="SourceGraphic"/>
    </filter>
  </defs>
  <g id="Grupo_1166166" data-name="Grupo 1166166" transform="translate(-7905.81 -2369.728)">
    <g id="Grupo_1164707" data-name="Grupo 1164707" transform="translate(7914.81 2375.728)">
      <g id="Grupo_1160931" data-name="Grupo 1160931" transform="translate(0)">
        <g id="Grupo_1160749" data-name="Grupo 1160749" transform="translate(0)">
          <g id="Grupo_1158891" data-name="Grupo 1158891" transform="translate(0 0)">
            <g id="Grupo_1157406" data-name="Grupo 1157406" transform="translate(0)">
              <g id="Grupo_1155793" data-name="Grupo 1155793" transform="translate(0)">
                <g id="Grupo_1154704" data-name="Grupo 1154704" transform="translate(0)">
                  <g id="Grupo_1150790" data-name="Grupo 1150790" transform="translate(0)">
                    <g id="Grupo_1154214" data-name="Grupo 1154214" transform="translate(0)">
                      <g id="Grupo_1152583" data-name="Grupo 1152583" transform="translate(0 0)">
                        <g id="Grupo_1146973" data-name="Grupo 1146973" transform="translate(0 0)">
                          <g id="Grupo_1146954" data-name="Grupo 1146954">
                            <g transform="matrix(1, 0, 0, 1, -9, -6)" filter="url(#Trazado_982547)">
                              <g id="Trazado_982547-2" data-name="Trazado 982547" transform="translate(9 6)" fill="#fcebe9">
                                <path d="M 46.00000381469727 90.49988555908203 C 39.99188232421875 90.49988555908203 34.16427230834961 89.32352447509766 28.67905807495117 87.00347137451172 C 23.38020324707031 84.76226043701172 18.62104415893555 81.55342864990234 14.53375053405762 77.46615600585938 C 10.44647026062012 73.37887573242188 7.237643718719482 68.61971282958984 4.996417045593262 63.32085800170898 C 2.676363706588745 57.83565902709961 1.500003814697266 52.00806045532227 1.500003814697266 45.99993896484375 C 1.500003814697266 39.99181747436523 2.676363706588745 34.16421890258789 4.996417045593262 28.67901802062988 C 7.237643718719482 23.38017845153809 10.44647026062012 18.62101936340332 14.53375053405762 14.53373908996582 C 18.62104415893555 10.44645881652832 23.38020324707031 7.237632274627686 28.67905807495117 4.996418952941895 C 34.16427230834961 2.676365613937378 39.99188232421875 1.500005602836609 46.00000381469727 1.500005602836609 C 52.00812530517578 1.500005602836609 57.83573532104492 2.676365613937378 63.32094955444336 4.996418952941895 C 68.61980438232422 7.237632274627686 73.37897491455078 10.44645881652832 77.46625518798828 14.53373908996582 C 81.55355072021484 18.62101936340332 84.76236724853516 23.38017845153809 87.00359344482422 28.67901802062988 C 89.32364654541016 34.16421890258789 90.5 39.99181747436523 90.5 45.99993896484375 C 90.5 52.00806045532227 89.32364654541016 57.83565902709961 87.00359344482422 63.32085800170898 C 84.76236724853516 68.61971282958984 81.55355072021484 73.37887573242188 77.46625518798828 77.46615600585938 C 73.37897491455078 81.55342864990234 68.61980438232422 84.76226043701172 63.32094955444336 87.00347137451172 C 57.83573532104492 89.32352447509766 52.00812530517578 90.49988555908203 46.00000381469727 90.49988555908203 Z" stroke="none"/>
                                <path d="M 46.00000381469727 2.999992370605469 C 40.19371795654297 2.999992370605469 34.56270217895508 4.136497497558594 29.26338958740234 6.377906799316406 C 24.14333343505859 8.543510437011719 19.54441833496094 11.64437866210938 15.59440612792969 15.59439849853516 C 11.64440155029297 19.54439544677734 8.54351806640625 24.14329528808594 6.377914428710938 29.26335144042969 C 4.136505126953125 34.56266784667969 3.000007629394531 40.19366836547852 3.000007629394531 45.99993896484375 C 3.000007629394531 51.80620956420898 4.136505126953125 57.43722534179688 6.377914428710938 62.73654174804688 C 8.54351806640625 67.85658264160156 11.64440155029297 72.45548248291016 15.59440612792969 76.40549468994141 C 19.54441833496094 80.35549926757812 24.14333343505859 83.45636749267578 29.26337432861328 85.62196350097656 C 34.56270217895508 87.86338043212891 40.19371795654297 88.9998779296875 46.00000381469727 88.9998779296875 C 51.80628967285156 88.9998779296875 57.43730545043945 87.86338043212891 62.73663330078125 85.62196350097656 C 67.85667419433594 83.45636749267578 72.45558929443359 80.35549926757812 76.40560150146484 76.40549468994141 C 80.35560607910156 72.45548248291016 83.45648956298828 67.85658264160156 85.62208557128906 62.73654174804688 C 87.86350250244141 57.43722534179688 89 51.80620956420898 89 45.99993896484375 C 89 40.19366836547852 87.86350250244141 34.56266784667969 85.62208557128906 29.26335144042969 C 83.45648956298828 24.14329528808594 80.35560607910156 19.54439544677734 76.40560150146484 15.59439849853516 C 72.45558929443359 11.64437866210938 67.85667419433594 8.543510437011719 62.73661804199219 6.377906799316406 C 57.43730545043945 4.136497497558594 51.80628967285156 2.999992370605469 46.00000381469727 2.999992370605469 M 46.00000381469727 -7.62939453125e-06 C 71.40510559082031 -7.62939453125e-06 92 20.59487915039062 92 45.99993896484375 C 92 71.40501403808594 71.40510559082031 91.99988555908203 46.00000381469727 91.99988555908203 C 20.59490203857422 91.99988555908203 7.62939453125e-06 71.40501403808594 7.62939453125e-06 45.99993896484375 C 7.62939453125e-06 20.59487915039062 20.59490203857422 -7.62939453125e-06 46.00000381469727 -7.62939453125e-06 Z" stroke="none" fill="#e44b36"/>
                              </g>
                            </g>
                          </g>
                        </g>
                      </g>
                    </g>
                  </g>
                </g>
              </g>
            </g>
          </g>
        </g>
      </g>
    </g>
    <g id="filled_outline" data-name="filled outline" transform="translate(7916.093 2376.021)">
      <path id="Trazado_1022370" data-name="Trazado 1022370" d="M248,72h27.726v50.5H248Z" transform="translate(-203.283 -49.068)" fill="#8ed2ff"/>
      <path id="Trazado_1022371" data-name="Trazado 1022371" d="M280,104h19.8v43.57H280Z" transform="translate(-231.322 -77.107)" fill="#bce1ff"/>
      <circle id="Elipse_11873" data-name="Elipse 11873" cx="4.853" cy="4.853" r="4.853" transform="translate(40.834 30.825)" fill="#007af6"/>
      <path id="Trazado_1022372" data-name="Trazado 1022372" d="M43.8,208l7.922,5.941v4.951h4.951v3.961H47.766V217.9l-5.941,5.941,3.961,3.961v14.853H40.834V231.766L36.873,227.8v7.922H24v-3.961h7.922V220.873l8.912-8.912H36.873L29.941,217.9l-2.971-2.971L34.893,208Z" transform="translate(-7.01 -168.234)" fill="#007af6"/>
      <path id="Trazado_1022373" data-name="Trazado 1022373" d="M268.717,117.472H240.99a.99.99,0,0,1-.99-.99V99.648h1.98v15.844h25.746V65.98H241.98v2.971H240V64.99a.99.99,0,0,1,.99-.99h27.726a.99.99,0,0,1,.99.99v51.492A.99.99,0,0,1,268.717,117.472Z" transform="translate(-196.274 -42.059)" fill="#3a97ff"/>
      <path id="Trazado_1022374" data-name="Trazado 1022374" d="M292.795,141.551h-19.8a.99.99,0,0,1-.99-.99V127.687h1.98V139.57H291.8V97.98H273.98v.99H272V96.99a.99.99,0,0,1,.99-.99h19.8a.99.99,0,0,1,.99.99v43.57A.99.99,0,0,1,292.795,141.551Z" transform="translate(-224.313 -70.098)" fill="#3a97ff"/>
      <path id="Trazado_1022375" data-name="Trazado 1022375" d="M304,24h13.863v5.941H304Z" transform="translate(-252.352 -7.01)" fill="#3a97ff"/>
      <path id="Trazado_1022376" data-name="Trazado 1022376" d="M323.883,205.941,317.941,200v2.971H312v5.941h5.941v2.971Z" transform="translate(-259.362 -161.225)" fill="#f55648"/>
      <g id="Grupo_1166165" data-name="Grupo 1166165" transform="translate(51.648 18.971)">
        <path id="Trazado_1022377" data-name="Trazado 1022377" d="M328,40h1.98v1.98H328Z" transform="translate(-325.029 -40)" fill="#8ed2ff"/>
        <path id="Trazado_1022378" data-name="Trazado 1022378" d="M360,40h3.961v1.98H360Z" transform="translate(-353.068 -40)" fill="#8ed2ff"/>
        <path id="Trazado_1022379" data-name="Trazado 1022379" d="M304.991,314.892a.99.99,0,0,1-.595-1.782l11.883-8.912a.99.99,0,0,1,1.188,1.584l-11.883,8.912A.986.986,0,0,1,304.991,314.892Z" transform="translate(-304 -271.322)" fill="#8ed2ff"/>
        <path id="Trazado_1022380" data-name="Trazado 1022380" d="M304.991,362.892a.99.99,0,0,1-.595-1.782l11.883-8.912a.99.99,0,1,1,1.188,1.584l-11.883,8.912A.986.986,0,0,1,304.991,362.892Z" transform="translate(-304 -313.381)" fill="#8ed2ff"/>
      </g>
      <path id="Trazado_1022381" data-name="Trazado 1022381" d="M208,133.941A5.941,5.941,0,1,0,213.941,128,5.941,5.941,0,0,0,208,133.941Zm9.9,0a3.961,3.961,0,1,1-3.961-3.961,3.961,3.961,0,0,1,3.961,3.961Z" transform="translate(-168.234 -98.137)"/>
      <path id="Trazado_1022382" data-name="Trazado 1022382" d="M30.853,228.717v-5.531l1.98,1.98v10.482a.99.99,0,0,0,.99.99h4.951a.99.99,0,0,0,.99-.99V220.795a.99.99,0,0,0-.29-.7l-3.261-3.261,3.551-3.551v2.561a.99.99,0,0,0,.99.99h8.912a.99.99,0,0,0,.99-.99v-3.961a.99.99,0,0,0-.99-.99H45.707v-3.961a.99.99,0,0,0-.4-.792L37.389,200.2a.99.99,0,0,0-.594-.2H27.883a.99.99,0,0,0-.652.245l-7.922,6.932a.99.99,0,0,0-.048,1.445l2.971,2.971a.99.99,0,0,0,1.345.052l6.653-5.7h1.2l-7.222,7.222a.99.99,0,0,0-.29.7v9.9H16.99a.99.99,0,0,0-.99.99v3.961a.99.99,0,0,0,.99.99H29.863A.99.99,0,0,0,30.853,228.717Zm-1.98-7.922v6.932H17.98v-1.98h6.932a.99.99,0,0,0,.99-.99V214.273l8.622-8.622a.99.99,0,0,0-.7-1.69H29.863a.991.991,0,0,0-.645.238l-6.235,5.344-1.574-1.573,6.845-5.99h8.21l7.262,5.446v4.456a.99.99,0,0,0,.99.99h3.961v1.98H41.746v-3.961a.99.99,0,0,0-1.69-.7l-5.941,5.941a.99.99,0,0,0,0,1.4l3.671,3.671v13.453H34.814v-9.9a.99.99,0,0,0-.29-.7l-3.961-3.961a.99.99,0,0,0-1.69.7Z" transform="translate(0 -161.225)"/>
      <path id="Trazado_1022383" data-name="Trazado 1022383" d="M268.717,21.941h-5.941V16.99a.99.99,0,0,0-.99-.99H247.922a.99.99,0,0,0-.99.99v4.951H240.99a.99.99,0,0,0-.99.99v3.961h1.98V23.922h25.746V73.433H241.98V57.59H240V74.424a.99.99,0,0,0,.99.99h27.726a.99.99,0,0,0,.99-.99V22.932A.99.99,0,0,0,268.717,21.941Zm-7.922,0H248.912V17.98h11.883Z" transform="translate(-196.274)"/>
      <path id="Trazado_1022384" data-name="Trazado 1022384" d="M272,127.687V140.56a.99.99,0,0,0,.99.99h19.8a.99.99,0,0,0,.99-.99V96.99a.99.99,0,0,0-.99-.99h-19.8a.99.99,0,0,0-.99.99v1.98h1.98v-.99H291.8v41.59H273.98V127.687Z" transform="translate(-224.313 -70.098)"/>
      <path id="Trazado_1022385" data-name="Trazado 1022385" d="M317.573,198.231l-5.941-5.941a.99.99,0,0,0-1.69.7v1.98H304.99a.99.99,0,0,0-.99.99V201.9a.99.99,0,0,0,.99.99h4.951v1.98a.99.99,0,0,0,1.69.7l5.941-5.941A.99.99,0,0,0,317.573,198.231Zm-5.651,4.251v-.58a.99.99,0,0,0-.99-.99H305.98v-3.961h4.951a.99.99,0,0,0,.99-.99v-.58l3.551,3.551Z" transform="translate(-252.352 -154.214)"/>
      <path id="Trazado_1022386" data-name="Trazado 1022386" d="M328,40h1.98v1.98H328Z" transform="translate(-273.381 -21.029)"/>
      <path id="Trazado_1022387" data-name="Trazado 1022387" d="M360,40h3.961v1.98H360Z" transform="translate(-301.42 -21.029)"/>
      <path id="Trazado_1022388" data-name="Trazado 1022388" d="M317.665,304.4a.99.99,0,0,0-1.386-.2L304.4,313.11a.99.99,0,1,0,1.188,1.584l11.883-8.912a.99.99,0,0,0,.2-1.386Z" transform="translate(-252.351 -252.351)"/>
      <path id="Trazado_1022389" data-name="Trazado 1022389" d="M316.278,352.2,304.4,361.11a.99.99,0,1,0,1.188,1.584l11.883-8.912a.99.99,0,1,0-1.188-1.584Z" transform="translate(-252.351 -294.41)"/>
    </g>
  </g>
</svg>
