<svg xmlns="http://www.w3.org/2000/svg" xmlns:xlink="http://www.w3.org/1999/xlink" width="110" height="110" viewBox="0 0 110 110">
  <defs>
    <filter id="Trazado_982547" x="0" y="0" width="110" height="110" filterUnits="userSpaceOnUse">
      <feOffset dy="3" input="SourceAlpha"/>
      <feGaussianBlur stdDeviation="3" result="blur"/>
      <feFlood flood-opacity="0.161"/>
      <feComposite operator="in" in2="blur"/>
      <feComposite in="SourceGraphic"/>
    </filter>
    <clipPath id="clip-path">
      <path id="path4338" d="M0-682.665H66.5v66.5H0Z" transform="translate(0 682.665)"/>
    </clipPath>
  </defs>
  <g id="Grupo_1166163" data-name="Grupo 1166163" transform="translate(-1112 -1960)">
    <g id="Grupo_1164700" data-name="Grupo 1164700" transform="translate(1121 1966)">
      <g id="Grupo_1160931" data-name="Grupo 1160931" transform="translate(0)">
        <g id="Grupo_1160749" data-name="Grupo 1160749" transform="translate(0)">
          <g id="Grupo_1158891" data-name="Grupo 1158891" transform="translate(0 0)">
            <g id="Grupo_1157406" data-name="Grupo 1157406" transform="translate(0)">
              <g id="Grupo_1155793" data-name="Grupo 1155793" transform="translate(0)">
                <g id="Grupo_1154704" data-name="Grupo 1154704" transform="translate(0)">
                  <g id="Grupo_1150790" data-name="Grupo 1150790" transform="translate(0)">
                    <g id="Grupo_1154214" data-name="Grupo 1154214" transform="translate(0)">
                      <g id="Grupo_1152583" data-name="Grupo 1152583" transform="translate(0 0)">
                        <g id="Grupo_1146973" data-name="Grupo 1146973" transform="translate(0 0)">
                          <g id="Grupo_1146954" data-name="Grupo 1146954">
                            <g transform="matrix(1, 0, 0, 1, -9, -6)" filter="url(#Trazado_982547)">
                              <g id="Trazado_982547-2" data-name="Trazado 982547" transform="translate(9 6)" fill="#fcebe9">
                                <path d="M 46.00000381469727 90.49988555908203 C 39.99188232421875 90.49988555908203 34.16427230834961 89.32352447509766 28.67905807495117 87.00347137451172 C 23.38020324707031 84.76226043701172 18.62104415893555 81.55342864990234 14.53375053405762 77.46615600585938 C 10.44647026062012 73.37887573242188 7.237643718719482 68.61971282958984 4.996417045593262 63.32085800170898 C 2.676363706588745 57.83565902709961 1.500003814697266 52.00806045532227 1.500003814697266 45.99993896484375 C 1.500003814697266 39.99181747436523 2.676363706588745 34.16421890258789 4.996417045593262 28.67901802062988 C 7.237643718719482 23.38017845153809 10.44647026062012 18.62101936340332 14.53375053405762 14.53373908996582 C 18.62104415893555 10.44645881652832 23.38020324707031 7.237632274627686 28.67905807495117 4.996418952941895 C 34.16427230834961 2.676365613937378 39.99188232421875 1.500005602836609 46.00000381469727 1.500005602836609 C 52.00812530517578 1.500005602836609 57.83573532104492 2.676365613937378 63.32094955444336 4.996418952941895 C 68.61980438232422 7.237632274627686 73.37897491455078 10.44645881652832 77.46625518798828 14.53373908996582 C 81.55355072021484 18.62101936340332 84.76236724853516 23.38017845153809 87.00359344482422 28.67901802062988 C 89.32364654541016 34.16421890258789 90.5 39.99181747436523 90.5 45.99993896484375 C 90.5 52.00806045532227 89.32364654541016 57.83565902709961 87.00359344482422 63.32085800170898 C 84.76236724853516 68.61971282958984 81.55355072021484 73.37887573242188 77.46625518798828 77.46615600585938 C 73.37897491455078 81.55342864990234 68.61980438232422 84.76226043701172 63.32094955444336 87.00347137451172 C 57.83573532104492 89.32352447509766 52.00812530517578 90.49988555908203 46.00000381469727 90.49988555908203 Z" stroke="none"/>
                                <path d="M 46.00000381469727 2.999992370605469 C 40.19371795654297 2.999992370605469 34.56270217895508 4.136497497558594 29.26338958740234 6.377906799316406 C 24.14333343505859 8.543510437011719 19.54441833496094 11.64437866210938 15.59440612792969 15.59439849853516 C 11.64440155029297 19.54439544677734 8.54351806640625 24.14329528808594 6.377914428710938 29.26335144042969 C 4.136505126953125 34.56266784667969 3.000007629394531 40.19366836547852 3.000007629394531 45.99993896484375 C 3.000007629394531 51.80620956420898 4.136505126953125 57.43722534179688 6.377914428710938 62.73654174804688 C 8.54351806640625 67.85658264160156 11.64440155029297 72.45548248291016 15.59440612792969 76.40549468994141 C 19.54441833496094 80.35549926757812 24.14333343505859 83.45636749267578 29.26337432861328 85.62196350097656 C 34.56270217895508 87.86338043212891 40.19371795654297 88.9998779296875 46.00000381469727 88.9998779296875 C 51.80628967285156 88.9998779296875 57.43730545043945 87.86338043212891 62.73663330078125 85.62196350097656 C 67.85667419433594 83.45636749267578 72.45558929443359 80.35549926757812 76.40560150146484 76.40549468994141 C 80.35560607910156 72.45548248291016 83.45648956298828 67.85658264160156 85.62208557128906 62.73654174804688 C 87.86350250244141 57.43722534179688 89 51.80620956420898 89 45.99993896484375 C 89 40.19366836547852 87.86350250244141 34.56266784667969 85.62208557128906 29.26335144042969 C 83.45648956298828 24.14329528808594 80.35560607910156 19.54439544677734 76.40560150146484 15.59439849853516 C 72.45558929443359 11.64437866210938 67.85667419433594 8.543510437011719 62.73661804199219 6.377906799316406 C 57.43730545043945 4.136497497558594 51.80628967285156 2.999992370605469 46.00000381469727 2.999992370605469 M 46.00000381469727 -7.62939453125e-06 C 71.40510559082031 -7.62939453125e-06 92 20.59487915039062 92 45.99993896484375 C 92 71.40501403808594 71.40510559082031 91.99988555908203 46.00000381469727 91.99988555908203 C 20.59490203857422 91.99988555908203 7.62939453125e-06 71.40501403808594 7.62939453125e-06 45.99993896484375 C 7.62939453125e-06 20.59487915039062 20.59490203857422 -7.62939453125e-06 46.00000381469727 -7.62939453125e-06 Z" stroke="none" fill="#e44b36"/>
                              </g>
                            </g>
                          </g>
                        </g>
                      </g>
                    </g>
                  </g>
                </g>
              </g>
            </g>
          </g>
        </g>
      </g>
    </g>
    <g id="g4332" transform="translate(1134 2660.665)">
      <g id="g4334" transform="translate(0 -682.665)">
        <g id="g4336" clip-path="url(#clip-path)">
          <g id="g4342" transform="translate(8.326 0.974)">
            <path id="path4344" d="M-414.233-379.762H-453.8a5.134,5.134,0,0,1-4.317-7.914l19.783-30.72a5.134,5.134,0,0,1,8.633,0l19.783,30.72a5.134,5.134,0,0,1-4.316,7.914" transform="translate(458.942 420.751)" fill="#def2ff"/>
          </g>
          <g id="g4346" transform="translate(28.508 0.974)">
            <path id="path4348" d="M-267.236-306.441l-19.783-30.72a5.134,5.134,0,0,0-8.633,0l-.427.663a5.077,5.077,0,0,1,3.563,2.3l17.828,27.76A5.134,5.134,0,0,1-279-298.527h7.452a5.134,5.134,0,0,0,4.316-7.914" transform="translate(296.079 339.515)" fill="#caecfc"/>
          </g>
          <g id="g4350" transform="translate(11.823 4.469)">
            <path id="path4352" d="M-15.25-315a1.606,1.606,0,0,1-1.439-.854,1.606,1.606,0,0,1,.061-1.672l19.783-30.72A1.6,1.6,0,0,1,4.533-349a1.6,1.6,0,0,1,1.378.752l19.783,30.72a1.606,1.606,0,0,1,.061,1.672,1.606,1.606,0,0,1-1.439.854Z" transform="translate(16.896 349)" fill="#fef056"/>
          </g>
          <g id="g4354" transform="translate(31.592 4.469)">
            <path id="path4356" d="M-211.443-291.591l-19.783-30.72a1.6,1.6,0,0,0-1.378-.752,1.6,1.6,0,0,0-1.378.752l-.282.438a5.253,5.253,0,0,1,.479.631l17.828,27.76a5.058,5.058,0,0,1,.548,4.419h2.588a1.606,1.606,0,0,0,1.439-.854,1.606,1.606,0,0,0-.061-1.672" transform="translate(234.265 323.063)" fill="#fcde06"/>
          </g>
          <g id="g4358" transform="translate(30.78 41.963)">
            <path id="path4360" d="M-35.376-218.347h-2.692a1.126,1.126,0,0,1-1.126-1.126v-22.441h4.944v22.441a1.126,1.126,0,0,1-1.126,1.126" transform="translate(39.195 241.914)" fill="#7ca1b1"/>
          </g>
          <g id="g4362" transform="translate(31.821 41.963)">
            <path id="path4364" d="M-9.647,0V22.441a1.125,1.125,0,0,1-1.041,1.122c.028,0,.056,0,.085,0h2.692a1.126,1.126,0,0,0,1.126-1.126V0Z" transform="translate(10.688)" fill="#678d98"/>
          </g>
          <g id="g4366" transform="translate(17.92 52.866)">
            <path id="path4368" d="M-271.863-68.952h-28.021a1.322,1.322,0,0,1-1.322-1.322v-6.121h30.664v6.121a1.321,1.321,0,0,1-1.321,1.322" transform="translate(301.206 76.394)" fill="#fef056"/>
          </g>
          <g id="g4370" transform="translate(39.81 52.866)">
            <path id="path4372" d="M-12.245,0V6.121a1.322,1.322,0,0,1-1.322,1.321h7.452A1.321,1.321,0,0,0-4.793,6.121V0Z" transform="translate(13.567)" fill="#fcde06"/>
          </g>
          <g id="g4374" transform="translate(17.92 48.137)">
            <path id="path4376" d="M-271.863,0h-28.021a1.322,1.322,0,0,0-1.322,1.322V4.729h30.664V1.322A1.321,1.321,0,0,0-271.863,0" transform="translate(301.206)" fill="#017197"/>
          </g>
          <g id="g4378" transform="translate(39.81 48.137)">
            <path id="path4380" d="M-69.047,0H-76.5a1.322,1.322,0,0,1,1.322,1.322V4.729h7.452V1.322A1.322,1.322,0,0,0-69.047,0" transform="translate(76.5)" fill="#025f80"/>
          </g>
          <g id="g4382" transform="translate(31.469 12.258)">
            <path id="path4384" d="M-16.515-135.338h0A1.782,1.782,0,0,1-18.3-137.12v-11.042a1.782,1.782,0,0,1,1.782-1.782,1.782,1.782,0,0,1,1.782,1.782v11.042a1.782,1.782,0,0,1-1.782,1.782" transform="translate(18.297 149.945)" fill="#017197"/>
          </g>
          <g id="g4386" transform="translate(31.251 30.654)">
            <path id="path4388" d="M-37.073-18.537a2,2,0,0,1-2,2,2,2,0,0,1-2-2,2,2,0,0,1,2-2,2,2,0,0,1,2,2" transform="translate(41.075 20.537)" fill="#017197"/>
          </g>
          <g id="g4390" transform="translate(8.326 0.974)">
            <path id="path4392" d="M-414.233-379.762H-453.8a5.134,5.134,0,0,1-4.317-7.914l19.783-30.72a5.134,5.134,0,0,1,8.633,0l19.783,30.72A5.134,5.134,0,0,1-414.233-379.762Z" transform="translate(458.942 420.751)" fill="none" stroke="#000" stroke-linecap="round" stroke-linejoin="round" stroke-miterlimit="10" stroke-width="1.5"/>
          </g>
          <g id="g4394" transform="translate(11.823 4.469)">
            <path id="path4396" d="M-350.632-223.306l4.746,7.37a1.606,1.606,0,0,1,.061,1.672,1.606,1.606,0,0,1-1.439.854H-386.83a1.606,1.606,0,0,1-1.439-.854,1.606,1.606,0,0,1,.061-1.672l19.783-30.72a1.6,1.6,0,0,1,1.378-.752,1.6,1.6,0,0,1,1.378.752l12.569,19.518" transform="translate(388.476 247.407)" fill="none" stroke="#000" stroke-linecap="round" stroke-linejoin="round" stroke-miterlimit="10" stroke-width="1.5"/>
          </g>
          <g id="g4398" transform="translate(17.92 52.866)">
            <path id="path4400" d="M-271.863-68.952h-28.021a1.322,1.322,0,0,1-1.322-1.322v-6.121h30.664v6.121A1.321,1.321,0,0,1-271.863-68.952Z" transform="translate(301.206 76.394)" fill="none" stroke="#000" stroke-linecap="round" stroke-linejoin="round" stroke-miterlimit="10" stroke-width="1.5"/>
          </g>
          <g id="g4402" transform="translate(17.92 48.137)">
            <path id="path4404" d="M-271.863,0h-28.021a1.322,1.322,0,0,0-1.322,1.322V4.729h30.664V1.322A1.321,1.321,0,0,0-271.863,0Z" transform="translate(301.206)" fill="none" stroke="#000" stroke-linecap="round" stroke-linejoin="round" stroke-miterlimit="10" stroke-width="1.5"/>
          </g>
          <g id="g4406" transform="translate(38.021 56.587)">
            <path id="path4408" d="M0,0H4.229" fill="none" stroke="#000" stroke-linecap="round" stroke-linejoin="round" stroke-miterlimit="10" stroke-width="1.5"/>
          </g>
          <g id="g4410" transform="translate(24.254 56.587)">
            <path id="path4412" d="M0,0H9.18" fill="none" stroke="#000" stroke-linecap="round" stroke-linejoin="round" stroke-miterlimit="10" stroke-width="1.5"/>
          </g>
          <g id="g4414" transform="translate(31.469 12.258)">
            <path id="path4416" d="M-16.515-135.338h0A1.782,1.782,0,0,1-18.3-137.12v-11.042a1.782,1.782,0,0,1,1.782-1.782,1.782,1.782,0,0,1,1.782,1.782v11.042A1.782,1.782,0,0,1-16.515-135.338Z" transform="translate(18.297 149.945)" fill="none" stroke="#000" stroke-linecap="round" stroke-linejoin="round" stroke-miterlimit="10" stroke-width="1.5"/>
          </g>
          <g id="g4418" transform="translate(31.251 30.654)">
            <path id="path4420" d="M-37.073-18.537a2,2,0,0,1-2,2,2,2,0,0,1-2-2,2,2,0,0,1,2-2A2,2,0,0,1-37.073-18.537Z" transform="translate(41.075 20.537)" fill="none" stroke="#000" stroke-linecap="round" stroke-linejoin="round" stroke-miterlimit="10" stroke-width="1.5"/>
          </g>
          <g id="g4422" transform="translate(30.78 60.308)">
            <path id="path4424" d="M-45.8,0V4.1a1.126,1.126,0,0,1-1.126,1.126H-49.62A1.126,1.126,0,0,1-50.747,4.1V0" transform="translate(50.747)" fill="none" stroke="#000" stroke-linecap="round" stroke-linejoin="round" stroke-miterlimit="10" stroke-width="1.5"/>
          </g>
          <g id="g4426" transform="translate(30.78 41.962)">
            <path id="path4428" d="M0-57.212v-6.175H4.944v6.175" transform="translate(0 63.387)" fill="none" stroke="#000" stroke-linecap="round" stroke-linejoin="round" stroke-miterlimit="10" stroke-width="1.5"/>
          </g>
        </g>
      </g>
    </g>
  </g>
</svg>
