<svg xmlns="http://www.w3.org/2000/svg" xmlns:xlink="http://www.w3.org/1999/xlink" width="110" height="110" viewBox="0 0 110 110">
  <defs>
    <filter id="Trazado_982547" x="0" y="0" width="110" height="110" filterUnits="userSpaceOnUse">
      <feOffset dy="3" input="SourceAlpha"/>
      <feGaussianBlur stdDeviation="3" result="blur"/>
      <feFlood flood-opacity="0.161"/>
      <feComposite operator="in" in2="blur"/>
      <feComposite in="SourceGraphic"/>
    </filter>
  </defs>
  <g id="Grupo_1166180" data-name="Grupo 1166180" transform="translate(-8220.619 -2369.728)">
    <g id="Grupo_1164706" data-name="Grupo 1164706" transform="translate(8229.619 2375.728)">
      <g id="Grupo_1160931" data-name="Grupo 1160931" transform="translate(0)">
        <g id="Grupo_1160749" data-name="Grupo 1160749" transform="translate(0)">
          <g id="Grupo_1158891" data-name="Grupo 1158891" transform="translate(0 0)">
            <g id="Grupo_1157406" data-name="Grupo 1157406" transform="translate(0)">
              <g id="Grupo_1155793" data-name="Grupo 1155793" transform="translate(0)">
                <g id="Grupo_1154704" data-name="Grupo 1154704" transform="translate(0)">
                  <g id="Grupo_1150790" data-name="Grupo 1150790" transform="translate(0)">
                    <g id="Grupo_1154214" data-name="Grupo 1154214" transform="translate(0)">
                      <g id="Grupo_1152583" data-name="Grupo 1152583" transform="translate(0 0)">
                        <g id="Grupo_1146973" data-name="Grupo 1146973" transform="translate(0 0)">
                          <g id="Grupo_1146954" data-name="Grupo 1146954">
                            <g transform="matrix(1, 0, 0, 1, -9, -6)" filter="url(#Trazado_982547)">
                              <g id="Trazado_982547-2" data-name="Trazado 982547" transform="translate(9 6)" fill="#fcebe9">
                                <path d="M 46.00000381469727 90.49988555908203 C 39.99188232421875 90.49988555908203 34.16427230834961 89.32352447509766 28.67905807495117 87.00347137451172 C 23.38020324707031 84.76226043701172 18.62104415893555 81.55342864990234 14.53375053405762 77.46615600585938 C 10.44647026062012 73.37887573242188 7.237643718719482 68.61971282958984 4.996417045593262 63.32085800170898 C 2.676363706588745 57.83565902709961 1.500003814697266 52.00806045532227 1.500003814697266 45.99993896484375 C 1.500003814697266 39.99181747436523 2.676363706588745 34.16421890258789 4.996417045593262 28.67901802062988 C 7.237643718719482 23.38017845153809 10.44647026062012 18.62101936340332 14.53375053405762 14.53373908996582 C 18.62104415893555 10.44645881652832 23.38020324707031 7.237632274627686 28.67905807495117 4.996418952941895 C 34.16427230834961 2.676365613937378 39.99188232421875 1.500005602836609 46.00000381469727 1.500005602836609 C 52.00812530517578 1.500005602836609 57.83573532104492 2.676365613937378 63.32094955444336 4.996418952941895 C 68.61980438232422 7.237632274627686 73.37897491455078 10.44645881652832 77.46625518798828 14.53373908996582 C 81.55355072021484 18.62101936340332 84.76236724853516 23.38017845153809 87.00359344482422 28.67901802062988 C 89.32364654541016 34.16421890258789 90.5 39.99181747436523 90.5 45.99993896484375 C 90.5 52.00806045532227 89.32364654541016 57.83565902709961 87.00359344482422 63.32085800170898 C 84.76236724853516 68.61971282958984 81.55355072021484 73.37887573242188 77.46625518798828 77.46615600585938 C 73.37897491455078 81.55342864990234 68.61980438232422 84.76226043701172 63.32094955444336 87.00347137451172 C 57.83573532104492 89.32352447509766 52.00812530517578 90.49988555908203 46.00000381469727 90.49988555908203 Z" stroke="none"/>
                                <path d="M 46.00000381469727 2.999992370605469 C 40.19371795654297 2.999992370605469 34.56270217895508 4.136497497558594 29.26338958740234 6.377906799316406 C 24.14333343505859 8.543510437011719 19.54441833496094 11.64437866210938 15.59440612792969 15.59439849853516 C 11.64440155029297 19.54439544677734 8.54351806640625 24.14329528808594 6.377914428710938 29.26335144042969 C 4.136505126953125 34.56266784667969 3.000007629394531 40.19366836547852 3.000007629394531 45.99993896484375 C 3.000007629394531 51.80620956420898 4.136505126953125 57.43722534179688 6.377914428710938 62.73654174804688 C 8.54351806640625 67.85658264160156 11.64440155029297 72.45548248291016 15.59440612792969 76.40549468994141 C 19.54441833496094 80.35549926757812 24.14333343505859 83.45636749267578 29.26337432861328 85.62196350097656 C 34.56270217895508 87.86338043212891 40.19371795654297 88.9998779296875 46.00000381469727 88.9998779296875 C 51.80628967285156 88.9998779296875 57.43730545043945 87.86338043212891 62.73663330078125 85.62196350097656 C 67.85667419433594 83.45636749267578 72.45558929443359 80.35549926757812 76.40560150146484 76.40549468994141 C 80.35560607910156 72.45548248291016 83.45648956298828 67.85658264160156 85.62208557128906 62.73654174804688 C 87.86350250244141 57.43722534179688 89 51.80620956420898 89 45.99993896484375 C 89 40.19366836547852 87.86350250244141 34.56266784667969 85.62208557128906 29.26335144042969 C 83.45648956298828 24.14329528808594 80.35560607910156 19.54439544677734 76.40560150146484 15.59439849853516 C 72.45558929443359 11.64437866210938 67.85667419433594 8.543510437011719 62.73661804199219 6.377906799316406 C 57.43730545043945 4.136497497558594 51.80628967285156 2.999992370605469 46.00000381469727 2.999992370605469 M 46.00000381469727 -7.62939453125e-06 C 71.40510559082031 -7.62939453125e-06 92 20.59487915039062 92 45.99993896484375 C 92 71.40501403808594 71.40510559082031 91.99988555908203 46.00000381469727 91.99988555908203 C 20.59490203857422 91.99988555908203 7.62939453125e-06 71.40501403808594 7.62939453125e-06 45.99993896484375 C 7.62939453125e-06 20.59487915039062 20.59490203857422 -7.62939453125e-06 46.00000381469727 -7.62939453125e-06 Z" stroke="none" fill="#e44b36"/>
                              </g>
                            </g>
                          </g>
                        </g>
                      </g>
                    </g>
                  </g>
                </g>
              </g>
            </g>
          </g>
        </g>
      </g>
    </g>
    <g id="Filled_outline" data-name="Filled outline" transform="translate(8242 2390)">
      <path id="Trazado_1022407" data-name="Trazado 1022407" d="M21,10H62.032V55.135H21Z" transform="translate(0.49 0.026)" fill="#f9bb4b"/>
      <path id="Trazado_1022408" data-name="Trazado 1022408" d="M12.232,23,6.59,28.642l3.077,3.077L14.284,27.1h5.129l-8.206,9.232V42.49H3v4.1H15.31V38.387l4.1,3.077V50.7h4.1V38.387l-2.052-2.052,6.155-6.155v7.181h9.232v-4.1H31.722V27.1L23.516,23Z" transform="translate(0.026 0.361)" fill="#394d5c"/>
      <circle id="Elipse_11875" data-name="Elipse 11875" cx="4" cy="4" r="4" transform="translate(28 15)" fill="#394d5c"/>
      <path id="Trazado_1022409" data-name="Trazado 1022409" d="M57.464,26.129,50.284,21v3.077H39v4.1H50.284v3.077Z" transform="translate(0.955 0.31)" fill="#e1462b"/>
      <g id="Grupo_1166179" data-name="Grupo 1166179" transform="translate(26.619 13.103)">
        <path id="Trazado_1022410" data-name="Trazado 1022410" d="M58.155,20.181H56.1V15.052H52V13h5.129a1.026,1.026,0,0,1,1.026,1.026Z" transform="translate(-25.329 -13)" fill="#f4f4e6"/>
        <path id="Trazado_1022411" data-name="Trazado 1022411" d="M26,49H37.284v2.052H26Z" transform="translate(-26 -12.071)" fill="#f4f4e6"/>
        <path id="Trazado_1022412" data-name="Trazado 1022412" d="M57.181,51.258H50V49.206h6.155V41h2.052v9.232A1.026,1.026,0,0,1,57.181,51.258Z" transform="translate(-25.381 -12.278)" fill="#f4f4e6"/>
        <path id="Trazado_1022413" data-name="Trazado 1022413" d="M46,49h2.052v2.052H46Z" transform="translate(-25.484 -12.071)" fill="#f4f4e6"/>
      </g>
      <path id="Trazado_1022414" data-name="Trazado 1022414" d="M31.129,24.258A5.129,5.129,0,1,0,26,19.129,5.129,5.129,0,0,0,31.129,24.258Zm0-8.206a3.077,3.077,0,1,1-3.077,3.077,3.077,3.077,0,0,1,3.077-3.077Z" transform="translate(0.619 0.129)"/>
      <path id="Trazado_1022415" data-name="Trazado 1022415" d="M62.522,9H21.49a1.026,1.026,0,0,0-1.026,1.026v12.31H12.258a1.026,1.026,0,0,0-.725.3L5.891,28.278a1.026,1.026,0,0,0,0,1.45l3.077,3.077a1.026,1.026,0,0,0,1.45,0l4.316-4.316h2.42l-6.689,7.524a1.032,1.032,0,0,0-.259.682v5.129H3.026A1.026,1.026,0,0,0,2,42.851v4.1A1.026,1.026,0,0,0,3.026,47.98h12.31a1.026,1.026,0,0,0,1.026-1.026V40.8l2.052,1.539v8.719a1.026,1.026,0,0,0,1.026,1.026h1.026v3.077a1.026,1.026,0,0,0,1.026,1.026H62.522a1.026,1.026,0,0,0,1.026-1.026V10.026A1.026,1.026,0,0,0,62.522,9ZM15.951,37.927a1.026,1.026,0,0,0-1.641.821v7.181H4.052V43.877h7.181a1.026,1.026,0,0,0,1.026-1.026V37.086l7.948-8.94a1.026,1.026,0,0,0-.767-1.708H14.31a1.026,1.026,0,0,0-.725.3L9.693,30.63,8.067,29l4.616-4.616H23.3L30.722,28.1v5.521a1.026,1.026,0,0,0,1.026,1.026h4.1V36.7H28.671V30.542a1.026,1.026,0,0,0-1.751-.725l-6.155,6.155a1.026,1.026,0,0,0,0,1.45l1.751,1.751V50.032H20.464V41.826a1.026,1.026,0,0,0-.41-.821ZM61.5,54.135H22.516V52.083h1.026a1.026,1.026,0,0,0,1.026-1.026V38.748a1.026,1.026,0,0,0-.3-.725L22.941,36.7l3.679-3.679v4.7a1.026,1.026,0,0,0,1.026,1.026h9.232A1.026,1.026,0,0,0,37.9,37.722v-4.1a1.026,1.026,0,0,0-1.026-1.026h-4.1V27.464a1.026,1.026,0,0,0-.567-.918L24,22.443a1.026,1.026,0,0,0-.459-.108H22.516V11.052H61.5Z"/>
      <path id="Trazado_1022416" data-name="Trazado 1022416" d="M39.026,29.232H49.284v2.052a1.026,1.026,0,0,0,1.622.835l7.181-5.129a1.026,1.026,0,0,0,0-1.67l-7.181-5.129a1.026,1.026,0,0,0-1.622.835v2.052H39.026A1.026,1.026,0,0,0,38,24.1v4.1a1.026,1.026,0,0,0,1.026,1.026Zm1.026-4.1H50.31A1.026,1.026,0,0,0,51.335,24.1V23.019l4.389,3.136-4.389,3.136V28.206a1.026,1.026,0,0,0-1.026-1.026H40.052Z" transform="translate(0.929 0.284)"/>
      <path id="Trazado_1022417" data-name="Trazado 1022417" d="M56.1,20.181h2.052V14.026A1.026,1.026,0,0,0,57.129,13H52v2.052h4.1Z" transform="translate(1.29 0.103)"/>
      <path id="Trazado_1022418" data-name="Trazado 1022418" d="M26,49H37.284v2.052H26Z" transform="translate(0.619 1.032)"/>
      <path id="Trazado_1022419" data-name="Trazado 1022419" d="M56.155,49.206H50v2.052h7.181a1.026,1.026,0,0,0,1.026-1.026V41H56.155Z" transform="translate(1.238 0.826)"/>
      <path id="Trazado_1022420" data-name="Trazado 1022420" d="M46,49h2.052v2.052H46Z" transform="translate(1.135 1.032)"/>
    </g>
  </g>
</svg>
