<svg xmlns="http://www.w3.org/2000/svg" xmlns:xlink="http://www.w3.org/1999/xlink" width="110" height="110" viewBox="0 0 110 110">
  <defs>
    <filter id="Trazado_982547" x="0" y="0" width="110" height="110" filterUnits="userSpaceOnUse">
      <feOffset dy="3" input="SourceAlpha"/>
      <feGaussianBlur stdDeviation="3" result="blur"/>
      <feFlood flood-opacity="0.161"/>
      <feComposite operator="in" in2="blur"/>
      <feComposite in="SourceGraphic"/>
    </filter>
  </defs>
  <g id="Grupo_1166191" data-name="Grupo 1166191" transform="translate(-7905.81 -2860.728)">
    <g id="Grupo_1164711" data-name="Grupo 1164711" transform="translate(7914.81 2866.728)">
      <g id="Grupo_1160931" data-name="Grupo 1160931" transform="translate(0)">
        <g id="Grupo_1160749" data-name="Grupo 1160749" transform="translate(0)">
          <g id="Grupo_1158891" data-name="Grupo 1158891" transform="translate(0 0)">
            <g id="Grupo_1157406" data-name="Grupo 1157406" transform="translate(0)">
              <g id="Grupo_1155793" data-name="Grupo 1155793" transform="translate(0)">
                <g id="Grupo_1154704" data-name="Grupo 1154704" transform="translate(0)">
                  <g id="Grupo_1150790" data-name="Grupo 1150790" transform="translate(0)">
                    <g id="Grupo_1154214" data-name="Grupo 1154214" transform="translate(0)">
                      <g id="Grupo_1152583" data-name="Grupo 1152583" transform="translate(0 0)">
                        <g id="Grupo_1146973" data-name="Grupo 1146973" transform="translate(0 0)">
                          <g id="Grupo_1146954" data-name="Grupo 1146954">
                            <g transform="matrix(1, 0, 0, 1, -9, -6)" filter="url(#Trazado_982547)">
                              <g id="Trazado_982547-2" data-name="Trazado 982547" transform="translate(9 6)" fill="#fcebe9">
                                <path d="M 46.00000381469727 90.49988555908203 C 39.99188232421875 90.49988555908203 34.16427230834961 89.32352447509766 28.67905807495117 87.00347137451172 C 23.38020324707031 84.76226043701172 18.62104415893555 81.55342864990234 14.53375053405762 77.46615600585938 C 10.44647026062012 73.37887573242188 7.237643718719482 68.61971282958984 4.996417045593262 63.32085800170898 C 2.676363706588745 57.83565902709961 1.500003814697266 52.00806045532227 1.500003814697266 45.99993896484375 C 1.500003814697266 39.99181747436523 2.676363706588745 34.16421890258789 4.996417045593262 28.67901802062988 C 7.237643718719482 23.38017845153809 10.44647026062012 18.62101936340332 14.53375053405762 14.53373908996582 C 18.62104415893555 10.44645881652832 23.38020324707031 7.237632274627686 28.67905807495117 4.996418952941895 C 34.16427230834961 2.676365613937378 39.99188232421875 1.500005602836609 46.00000381469727 1.500005602836609 C 52.00812530517578 1.500005602836609 57.83573532104492 2.676365613937378 63.32094955444336 4.996418952941895 C 68.61980438232422 7.237632274627686 73.37897491455078 10.44645881652832 77.46625518798828 14.53373908996582 C 81.55355072021484 18.62101936340332 84.76236724853516 23.38017845153809 87.00359344482422 28.67901802062988 C 89.32364654541016 34.16421890258789 90.5 39.99181747436523 90.5 45.99993896484375 C 90.5 52.00806045532227 89.32364654541016 57.83565902709961 87.00359344482422 63.32085800170898 C 84.76236724853516 68.61971282958984 81.55355072021484 73.37887573242188 77.46625518798828 77.46615600585938 C 73.37897491455078 81.55342864990234 68.61980438232422 84.76226043701172 63.32094955444336 87.00347137451172 C 57.83573532104492 89.32352447509766 52.00812530517578 90.49988555908203 46.00000381469727 90.49988555908203 Z" stroke="none"/>
                                <path d="M 46.00000381469727 2.999992370605469 C 40.19371795654297 2.999992370605469 34.56270217895508 4.136497497558594 29.26338958740234 6.377906799316406 C 24.14333343505859 8.543510437011719 19.54441833496094 11.64437866210938 15.59440612792969 15.59439849853516 C 11.64440155029297 19.54439544677734 8.54351806640625 24.14329528808594 6.377914428710938 29.26335144042969 C 4.136505126953125 34.56266784667969 3.000007629394531 40.19366836547852 3.000007629394531 45.99993896484375 C 3.000007629394531 51.80620956420898 4.136505126953125 57.43722534179688 6.377914428710938 62.73654174804688 C 8.54351806640625 67.85658264160156 11.64440155029297 72.45548248291016 15.59440612792969 76.40549468994141 C 19.54441833496094 80.35549926757812 24.14333343505859 83.45636749267578 29.26337432861328 85.62196350097656 C 34.56270217895508 87.86338043212891 40.19371795654297 88.9998779296875 46.00000381469727 88.9998779296875 C 51.80628967285156 88.9998779296875 57.43730545043945 87.86338043212891 62.73663330078125 85.62196350097656 C 67.85667419433594 83.45636749267578 72.45558929443359 80.35549926757812 76.40560150146484 76.40549468994141 C 80.35560607910156 72.45548248291016 83.45648956298828 67.85658264160156 85.62208557128906 62.73654174804688 C 87.86350250244141 57.43722534179688 89 51.80620956420898 89 45.99993896484375 C 89 40.19366836547852 87.86350250244141 34.56266784667969 85.62208557128906 29.26335144042969 C 83.45648956298828 24.14329528808594 80.35560607910156 19.54439544677734 76.40560150146484 15.59439849853516 C 72.45558929443359 11.64437866210938 67.85667419433594 8.543510437011719 62.73661804199219 6.377906799316406 C 57.43730545043945 4.136497497558594 51.80628967285156 2.999992370605469 46.00000381469727 2.999992370605469 M 46.00000381469727 -7.62939453125e-06 C 71.40510559082031 -7.62939453125e-06 92 20.59487915039062 92 45.99993896484375 C 92 71.40501403808594 71.40510559082031 91.99988555908203 46.00000381469727 91.99988555908203 C 20.59490203857422 91.99988555908203 7.62939453125e-06 71.40501403808594 7.62939453125e-06 45.99993896484375 C 7.62939453125e-06 20.59487915039062 20.59490203857422 -7.62939453125e-06 46.00000381469727 -7.62939453125e-06 Z" stroke="none" fill="#e44b36"/>
                              </g>
                            </g>
                          </g>
                        </g>
                      </g>
                    </g>
                  </g>
                </g>
              </g>
            </g>
          </g>
        </g>
      </g>
    </g>
    <g id="survey_10898100" transform="translate(7922.776 2874.077)">
      <g id="Grupo_1166190" data-name="Grupo 1166190" transform="translate(8.99 8.982)">
        <g id="Grupo_1166184" data-name="Grupo 1166184" transform="translate(0 36.876)">
          <path id="Trazado_1022434" data-name="Trazado 1022434" d="M17.694,314.3l6.135,2.789,8.924-2.789,6.1,4.393L40.561,336.2l-7.808-3.277-8.924,3.835-7.808-3.347Z" transform="translate(-16.021 -314.297)" fill="#ffe177" fill-rule="evenodd"/>
          <path id="Trazado_1022435" data-name="Trazado 1022435" d="M79.191,317.086v19.667l6.847-2.942,2.077-.893V314.3Z" transform="translate(-71.383 -314.297)" fill="#ffd064" fill-rule="evenodd"/>
        </g>
        <g id="Grupo_1166185" data-name="Grupo 1166185" transform="translate(6.022 28.427)">
          <ellipse id="Elipse_11876" data-name="Elipse 11876" cx="6.424" cy="1.823" rx="6.424" ry="1.823" transform="translate(0 13.739)" fill="#837683"/>
          <ellipse id="Elipse_11877" data-name="Elipse 11877" cx="3.099" cy="0.879" rx="3.099" ry="0.879" transform="translate(3.325 14.682)" fill="#a79ba7"/>
          <path id="Trazado_1022436" data-name="Trazado 1022436" d="M74.331,261.509c-2.131-2.52-5.978-6.361-5.978-9.582a5.978,5.978,0,1,1,11.955,0C80.308,255.148,76.462,258.989,74.331,261.509Z" transform="translate(-67.907 -245.95)" fill="#fe646f" fill-rule="evenodd"/>
          <path id="Trazado_1022437" data-name="Trazado 1022437" d="M112.894,261.509c-.17-.2-.35-.41-.539-.626,2.181-2.5,5.439-5.992,5.439-8.956a5.978,5.978,0,0,0-5.439-5.953c.178-.016.357-.024.539-.024a5.978,5.978,0,0,1,5.978,5.978C118.871,255.147,115.025,258.988,112.894,261.509Z" transform="translate(-106.47 -245.949)" fill="#fd4755" fill-rule="evenodd"/>
          <path id="Trazado_1022438" data-name="Trazado 1022438" d="M89.322,270.782a3.863,3.863,0,1,0-3.863-3.863A3.871,3.871,0,0,0,89.322,270.782Z" transform="translate(-82.898 -260.941)" fill="#eceff1" fill-rule="evenodd"/>
          <path id="Trazado_1022439" data-name="Trazado 1022439" d="M89.323,263.057c.121,0,.241.006.36.017a3.863,3.863,0,0,0,0,7.693c-.118.011-.238.017-.36.017a3.863,3.863,0,0,1,0-7.726Z" transform="translate(-82.899 -260.942)" fill="#d1d1d6" fill-rule="evenodd"/>
        </g>
        <g id="Grupo_1166186" data-name="Grupo 1166186" transform="translate(13.342 2.995)">
          <path id="Trazado_1022440" data-name="Trazado 1022440" d="M124.763,136.907h18.759a.8.8,0,0,0,.789-.966,10.38,10.38,0,0,0-20.338,0A.8.8,0,0,0,124.763,136.907Z" transform="translate(-123.957 -116.836)" fill="#8ac9fe" fill-rule="evenodd"/>
          <path id="Trazado_1022441" data-name="Trazado 1022441" d="M207.4,136.907h1.834a.8.8,0,0,0,.789-.966,10.382,10.382,0,0,0-10.169-8.3q-.464,0-.917.04a10.385,10.385,0,0,1,9.252,8.255A.8.8,0,0,1,207.4,136.907Z" transform="translate(-189.672 -116.836)" fill="#60b7ff" fill-rule="evenodd"/>
          <circle id="Elipse_11878" data-name="Elipse 11878" cx="5.247" cy="5.247" r="5.247" transform="translate(4.619 10.473) rotate(-86.445)" fill="#f6dccd"/>
          <path id="Trazado_1022442" data-name="Trazado 1022442" d="M201.177,42.743a5.247,5.247,0,0,1,0,10.494,5.3,5.3,0,0,1-.731-.051,5.247,5.247,0,0,0,0-10.392A5.282,5.282,0,0,1,201.177,42.743Z" transform="translate(-190.991 -42.429)" fill="#f1cbbc" fill-rule="evenodd"/>
        </g>
        <g id="Grupo_1166187" data-name="Grupo 1166187" transform="translate(16.301 0)">
          <path id="Trazado_1022443" data-name="Trazado 1022443" d="M148.755,25.363H161.5a.854.854,0,1,0,0-1.708h-.172q.019-.24.019-.486a6.221,6.221,0,0,0-4.3-5.917c.094-.979-1.109-1.286-1.915-1.285s-2.009.307-1.915,1.285a6.221,6.221,0,0,0-4.3,5.917q0,.245.019.486h-.172a.854.854,0,1,0,0,1.708Z" transform="translate(-147.901 -15.966)" fill="#ffe177" fill-rule="evenodd"/>
          <path id="Trazado_1022444" data-name="Trazado 1022444" d="M208.644,25.363h.9a.854.854,0,1,0,0-1.708h-.172q.019-.24.019-.486a6.221,6.221,0,0,0-4.3-5.917c.094-.979-1.109-1.286-1.915-1.285a3.46,3.46,0,0,0-.45.03c.737.1,1.542.448,1.465,1.255a6.221,6.221,0,0,1,4.3,5.917q0,.245-.019.486h.172a.854.854,0,0,1,0,1.708Z" transform="translate(-195.945 -15.966)" fill="#ffd064" fill-rule="evenodd"/>
          <path id="Trazado_1022445" data-name="Trazado 1022445" d="M192.173,20.566h1.146a1.034,1.034,0,0,0,1.03-.9l.308-2.369c.131-1.012-1.1-1.27-1.91-1.326-.815.056-2.042.314-1.91,1.326l.308,2.369A1.034,1.034,0,0,0,192.173,20.566Z" transform="translate(-185.52 -15.966)" fill="#ffd064" fill-rule="evenodd"/>
          <path id="Trazado_1022446" data-name="Trazado 1022446" d="M194.7,22.965h1.146a1.034,1.034,0,0,0,1.03-.9l.308-2.369a.933.933,0,0,0-.536-.987.992.992,0,0,1,.018.374l-.308,2.369a1.034,1.034,0,0,1-1.03.9h-1.146a1.042,1.042,0,0,1-.473-.112A1.033,1.033,0,0,0,194.7,22.965Z" transform="translate(-188.048 -18.366)" fill="#ffc338" fill-rule="evenodd"/>
          <path id="Trazado_1022447" data-name="Trazado 1022447" d="M148.756,78.168a.854.854,0,0,0,0,1.708H161.5a.854.854,0,0,0,0-1.708Z" transform="translate(-147.902 -70.479)" fill="#ffc338" fill-rule="evenodd"/>
          <path id="Trazado_1022448" data-name="Trazado 1022448" d="M147.9,85.077a.856.856,0,0,0,.854.854H161.5a.856.856,0,0,0,.854-.854Z" transform="translate(-147.902 -76.534)" fill="#ffd064" fill-rule="evenodd"/>
        </g>
        <g id="Grupo_1166188" data-name="Grupo 1166188" transform="translate(29.796 40.06)">
          <path id="Trazado_1022449" data-name="Trazado 1022449" d="M265.8,343.588c2.524-1.112,3.794-1.837,6.294-.393l3.439,1.985.126,3.691,2.169.168-.755,2.458,2.369.452-.292,2.376,2.794-.482-2.387,4.134a2.721,2.721,0,0,1-3.706.993L266.2,353.4c-2.5-1.444-2.508-2.9-2.807-5.647l-5.931-3.425a.771.771,0,0,1-.281-1.05l1.636-2.834a.771.771,0,0,1,1.05-.281Z" transform="translate(-257.076 -340.061)" fill="#d8ecfe" fill-rule="evenodd"/>
          <path id="Trazado_1022450" data-name="Trazado 1022450" d="M281.2,372.989l.741-.128L279.554,377a2.721,2.721,0,0,1-3.706.993l-9.648-5.57c-2.5-1.444-2.508-2.9-2.807-5.647l-5.931-3.425a.771.771,0,0,1-.281-1.05l.309-.535a.767.767,0,0,0,.153.116l5.931,3.424c.3,2.742.306,4.2,2.807,5.647l9.648,5.57a2.721,2.721,0,0,0,3.706-.993Z" transform="translate(-257.078 -359.079)" fill="#c4e2ff" fill-rule="evenodd"/>
          <path id="Trazado_1022451" data-name="Trazado 1022451" d="M434.9,354.467l-.755,2.458,2.369.452-.292,2.376,2.794-.482.792-1.372c1.364-2.363.3-2.96-.993-3.706l-6.21-3.585.126,3.691Z" transform="translate(-410.908 -349.304)" fill="#d8ecfe" fill-rule="evenodd"/>
          <path id="Trazado_1022452" data-name="Trazado 1022452" d="M435.062,377.539l-.192.625,2.369.452.079-.646Zm1.98,2.675,2.421-.417.792-1.372a3.5,3.5,0,0,0,.628-1.989c.414.556.44,1.333-.351,2.7l-.792,1.372-2.794.482Zm-3.61-5.371.024.695,2.169.168.208-.677Z" transform="translate(-411.633 -370.544)" fill="#c4e2ff" fill-rule="evenodd"/>
        </g>
        <g id="Grupo_1166189" data-name="Grupo 1166189" transform="translate(24.471 5.875)">
          <path id="Trazado_1022453" data-name="Trazado 1022453" d="M266.516,209.352a9.454,9.454,0,0,0,1.6,1.757l-4.34,4.254-1.652-1.7Z" transform="translate(-256.172 -191.323)" fill="#a79ba7" fill-rule="evenodd"/>
          <path id="Trazado_1022454" data-name="Trazado 1022454" d="M273.491,220.487a1.09,1.09,0,0,0,.472.633l-4.311,4.283-.528-.578Z" transform="translate(-262.311 -201.082)" fill="#837683" fill-rule="evenodd"/>
          <path id="Trazado_1022455" data-name="Trazado 1022455" d="M216.1,243.221,214.24,241.3a.857.857,0,0,1,.018-1.209l5.164-5.011a.858.858,0,0,1,1.209.018l1.864,1.922a.857.857,0,0,1-.018,1.209l-5.164,5.011A.857.857,0,0,1,216.1,243.221Z" transform="translate(-214 -213.66)" fill="#f1ba84" fill-rule="evenodd"/>
          <path id="Trazado_1022456" data-name="Trazado 1022456" d="M222.5,254.6l-5.164,5.011a.857.857,0,0,1-1.209-.018l-1.865-1.921a.848.848,0,0,1-.162-.237.859.859,0,0,0,.139,1l1.865,1.921a.857.857,0,0,0,1.209.018l5.164-5.011a.858.858,0,0,0,.18-.972A.843.843,0,0,1,222.5,254.6Z" transform="translate(-213.999 -230.794)" fill="#e3a76f" fill-rule="evenodd"/>
          <circle id="Elipse_11879" data-name="Elipse 11879" cx="9.404" cy="9.404" r="9.404" transform="translate(4.087 13.297) rotate(-45)" fill="#9facba"/>
          <path id="Trazado_1022457" data-name="Trazado 1022457" d="M351.457,94.972a9.4,9.4,0,0,1,0,18.808q-.23,0-.456-.011a9.4,9.4,0,0,0,0-18.785Q351.228,94.972,351.457,94.972Z" transform="translate(-334.067 -91.081)" fill="#8d9ca8" fill-rule="evenodd"/>
          <circle id="Elipse_11880" data-name="Elipse 11880" cx="6.753" cy="6.753" r="6.753" transform="translate(8.577 9.63) rotate(-22.514)" fill="#eceff1"/>
          <path id="Trazado_1022458" data-name="Trazado 1022458" d="M306.817,116.422c.154,0,.306.006.456.016a6.752,6.752,0,0,0,0,13.474c-.151.01-.3.016-.456.016a6.753,6.753,0,1,1,0-13.505Z" transform="translate(-289.426 -109.88)" fill="#d1d1d6" fill-rule="evenodd"/>
        </g>
      </g>
      <path id="Trazado_1022459" data-name="Trazado 1022459" d="M67.29,55.609a3,3,0,0,0-1.074-.807L61.529,52.1l.034,1.026,1.288.1a.988.988,0,0,1,.867,1.276l-.43,1.4,1.284.245a.989.989,0,0,1,.8,1.092l-.13,1.055,1.026-.177.56-.97c.415-.72.586-1.281.465-1.537Zm1.791-.84a3.718,3.718,0,0,1-.543,3.366l-.792,1.372a.986.986,0,0,1-.688.479l-2.794.482a.975.975,0,0,1-.168.015.989.989,0,0,1-.982-1.11l.18-1.457-1.46-.279a.991.991,0,0,1-.76-1.263l.393-1.276-.938-.073a.989.989,0,0,1-.912-.952l-.126-3.692a.99.99,0,0,1,1.484-.89l6.229,3.6A4.112,4.112,0,0,1,69.082,54.769Zm-7.348,9.392L60.4,66.467a1.732,1.732,0,0,1-2.356.632L48.4,61.528c-1.918-1.107-2.012-2.009-2.267-4.422-.017-.154-.033-.312-.052-.476a.983.983,0,0,0-.488-.749l-5.741-3.315,1.416-2.452,5.742,3.314a.987.987,0,0,0,.892.049l.438-.194c2.218-.986,3.048-1.355,4.965-.248l2.962,1.712.108,3.142a.989.989,0,0,0,.912.952l.937.073-.392,1.277a.988.988,0,0,0,.76,1.262l1.46.278-.179,1.459a.988.988,0,0,0,1.148,1.095Zm2.723-1.9a.99.99,0,0,1,.045,1.06l-2.387,4.134a3.707,3.707,0,0,1-5.058,1.356l-9.647-5.571c-2.779-1.6-2.979-3.406-3.242-5.9l-5.5-3.173a1.76,1.76,0,0,1-.644-2.4l1.637-2.833a1.758,1.758,0,0,1,2.4-.644l5.5,3.173c2.291-1.017,3.952-1.745,6.73-.141l3.439,1.985a.989.989,0,0,1,.493.823l.1,2.806,1.288.1a.989.989,0,0,1,.867,1.277l-.43,1.4,1.285.245a.99.99,0,0,1,.8,1.093L62,62.109l1.482-.255a.99.99,0,0,1,.979.408ZM45.086,28.155A5.764,5.764,0,1,0,50.85,22.39a5.77,5.77,0,0,0-5.764,5.765Zm-1.978,0A7.742,7.742,0,1,1,50.85,35.9,7.75,7.75,0,0,1,43.108,28.155ZM36.178,43.637l4.973-4.825-1.678-1.73L34.5,41.908Zm6.873-8.623-1.457,1.414.276.283,1.449-1.405c-.09-.1-.179-.193-.267-.292Zm-2.178-3.952a10.342,10.342,0,0,1-.417-2.9,9.439,9.439,0,0,0-7.94-4.38h0a9.365,9.365,0,0,0-9.152,7.284ZM32.513,21.8h0a4.267,4.267,0,0,0,4.173-3.419h-8.35A4.267,4.267,0,0,0,32.512,21.8ZM27.5,16.4H37.527v-.466a5,5,0,0,0-2.356-4.256l-.244,1.87a.988.988,0,0,1-.98.862H31.081a.99.99,0,0,1-.981-.862l-.243-1.87A5,5,0,0,0,27.5,15.938V16.4Zm4.156-6.222a2.149,2.149,0,0,1,.856-.205,2.174,2.174,0,0,1,.858.205l-.293,2.254h-1.13ZM42.435,28.155A8.415,8.415,0,1,1,50.85,36.57,8.426,8.426,0,0,1,42.435,28.155ZM37.46,45.149a1.829,1.829,0,0,1-1.283.521h-.028a1.834,1.834,0,0,1-1.3-.558l-1.865-1.922a1.846,1.846,0,0,1,.04-2.607l5.164-5.011a1.828,1.828,0,0,1,1.312-.519,1.809,1.809,0,0,1,.568.1L41.88,33.4c-.068-.119-.136-.236-.2-.356H22.195a.989.989,0,0,1-.983-1.094,11.33,11.33,0,0,1,7.474-9.486,6.241,6.241,0,0,1-2.351-4.079h-.827a.989.989,0,0,1,0-1.978h.015v-.466A6.969,6.969,0,0,1,29.778,9.5a1.807,1.807,0,0,1,.307-.546A3.213,3.213,0,0,1,32.447,8a1.294,1.294,0,0,1,.135,0,3.213,3.213,0,0,1,2.361.959,1.784,1.784,0,0,1,.308.546A6.968,6.968,0,0,1,39.5,15.938V16.4h.015a.989.989,0,0,1,0,1.978h-.827a6.238,6.238,0,0,1-2.362,4.087,11.455,11.455,0,0,1,4.493,2.95,10.4,10.4,0,1,1,3.991,11.19L43.1,38.271a1.876,1.876,0,0,1,.081.571,1.835,1.835,0,0,1-.558,1.3Zm-16.026.536a2.295,2.295,0,1,0-2.3-2.3A2.3,2.3,0,0,0,21.434,45.685Zm0,1.978a4.272,4.272,0,1,0-4.273-4.273A4.277,4.277,0,0,0,21.434,47.663ZM32.382,66.206l-1.5-15.411-4.063-2.926a26.035,26.035,0,0,1-1.895,2.571c1.827.314,3.926,1.008,3.926,2.534,0,1.022-.932,1.674-2.139,2.087v8.762ZM10.035,64.343l1.488-17,4.863,2.21a.989.989,0,0,0,.7.045l.144-.045c.233.3.471.6.712.892-1.828.314-3.925,1.008-3.925,2.534,0,.92.755,1.539,1.784,1.957V66.817ZM26.619,52.977a12.115,12.115,0,0,1-4.649.824.98.98,0,0,0,.218-.19c.3-.356.641-.743,1-1.152.067-.076.133-.152.2-.228A9.7,9.7,0,0,1,26.619,52.977Zm-7.139-.745a9.693,9.693,0,0,0-3.233.745A12.118,12.118,0,0,0,20.9,53.8a.978.978,0,0,1-.218-.19c-.3-.356-.64-.743-1-1.152Zm5.251,3.3a23.061,23.061,0,0,1-3.3.256,22.5,22.5,0,0,1-3.65-.316V66.816l6.947-2.985ZM16.444,43.39c0,2.384,2.729,5.494,4.722,7.763.09.1.179.207.268.307l.268-.307a36.463,36.463,0,0,0,3.5-4.445l-.065-.045.476-.66a5.728,5.728,0,0,0,.806-2.613,4.989,4.989,0,0,0-9.979,0ZM34.511,67.663a.989.989,0,0,1-1.367,1.008l-7.421-3.115-8.537,3.669a.969.969,0,0,1-.391.08.985.985,0,0,1-.389-.079L8.6,65.879A.988.988,0,0,1,8,64.884l1.673-19.11a.988.988,0,0,1,1.394-.813l4.464,2.028a7.7,7.7,0,0,1-1.067-3.6,6.967,6.967,0,0,1,13.935,0,6.854,6.854,0,0,1-.638,2.725L32.4,49.452a.987.987,0,0,1,.406.706Zm5.579-.369c-.968.046-1.908.046-2.874,0a.988.988,0,1,0-.1,1.975c.515.025,1.023.037,1.533.037s1.016-.012,1.531-.037a.988.988,0,0,0-.095-1.975Zm7.363-1.349a28.693,28.693,0,0,1-2.775.743.989.989,0,0,0,.209,1.956,1,1,0,0,0,.21-.023c1.007-.219,1.976-.478,2.96-.794a.989.989,0,0,0-.6-1.883ZM66.69,44.677c-.2.945-.447,1.854-.743,2.775a.988.988,0,0,0,1.882.6c.315-.983.575-1.952.794-2.961a.989.989,0,1,0-1.933-.418Zm-.743-14.826c.3.921.539,1.828.743,2.773a.989.989,0,0,0,.965.78,1.036,1.036,0,0,0,.21-.022.99.99,0,0,0,.758-1.176c-.219-1.009-.478-1.978-.794-2.96a.988.988,0,1,0-1.882.6ZM59.921,19.414a.989.989,0,1,0,1.465-1.329c-.695-.765-1.4-1.474-2.168-2.167a.988.988,0,1,0-1.328,1.464C58.606,18.032,59.271,18.7,59.921,19.414Zm4.254,6.161a.989.989,0,1,0,1.76-.9c-.472-.918-.973-1.786-1.532-2.654a.989.989,0,1,0-1.662,1.07C63.263,23.9,63.733,24.714,64.174,25.575Zm4.059,10.6a.988.988,0,0,0-.939,1.036c.046.966.046,1.906,0,2.872a.988.988,0,0,0,.939,1.036h.049a.988.988,0,0,0,.986-.941,30.621,30.621,0,0,0,0-3.065A.988.988,0,0,0,68.233,36.179ZM37.216,10.01c.966-.047,1.906-.047,2.872,0h.049a.989.989,0,0,0,.047-1.976,30.627,30.627,0,0,0-3.066,0,.989.989,0,0,0,.1,1.975ZM16.652,19.739a.985.985,0,0,0,.732-.325c.65-.717,1.315-1.381,2.031-2.031a.988.988,0,1,0-1.328-1.464c-.765.694-1.474,1.4-2.168,2.167a.99.99,0,0,0,.732,1.654ZM11.8,26a.967.967,0,0,0,.451.11.988.988,0,0,0,.88-.536c.442-.86.912-1.675,1.436-2.488a.989.989,0,1,0-1.663-1.07c-.558.868-1.061,1.737-1.532,2.654A.988.988,0,0,0,11.8,26ZM22.554,14.723a.988.988,0,0,0,.533-.158c.813-.524,1.628-.994,2.488-1.436a.989.989,0,0,0-.9-1.759c-.92.472-1.787.974-2.655,1.532a.989.989,0,0,0,.537,1.82ZM9.44,33.383a1.036,1.036,0,0,0,.21.022.989.989,0,0,0,.965-.78c.2-.945.448-1.852.743-2.773a.988.988,0,1,0-1.882-.6,30.625,30.625,0,0,0-.794,2.96.988.988,0,0,0,.757,1.176ZM51.729,13.129c.86.442,1.674.912,2.487,1.436A.989.989,0,0,0,55.289,12.9c-.867-.56-1.737-1.061-2.655-1.532a.989.989,0,0,0-.9,1.759Zm-42.707,28h.049a.989.989,0,0,0,.94-1.036c-.047-.966-.047-1.906,0-2.872a.989.989,0,0,0-1.975-.1c-.051,1.032-.051,2.035,0,3.065a.988.988,0,0,0,.986.941Zm34.9-31.687a.99.99,0,0,0,.757,1.176c.945.2,1.854.448,2.775.743a.979.979,0,0,0,.3.047.988.988,0,0,0,.3-1.929c-.983-.316-1.952-.576-2.96-.794a.989.989,0,0,0-1.176.756Z" transform="translate(0)" fill="#242222" fill-rule="evenodd"/>
    </g>
  </g>
</svg>
