<svg xmlns="http://www.w3.org/2000/svg" xmlns:xlink="http://www.w3.org/1999/xlink" width="110" height="110" viewBox="0 0 110 110">
  <defs>
    <filter id="Trazado_982547" x="0" y="0" width="110" height="110" filterUnits="userSpaceOnUse">
      <feOffset dy="3" input="SourceAlpha"/>
      <feGaussianBlur stdDeviation="3" result="blur"/>
      <feFlood flood-opacity="0.161"/>
      <feComposite operator="in" in2="blur"/>
      <feComposite in="SourceGraphic"/>
    </filter>
  </defs>
  <g id="Grupo_1166182" data-name="Grupo 1166182" transform="translate(-7270.19 -2860.728)">
    <g id="Grupo_1164709" data-name="Grupo 1164709" transform="translate(7279.19 2866.728)">
      <g id="Grupo_1160931" data-name="Grupo 1160931" transform="translate(0)">
        <g id="Grupo_1160749" data-name="Grupo 1160749" transform="translate(0)">
          <g id="Grupo_1158891" data-name="Grupo 1158891" transform="translate(0 0)">
            <g id="Grupo_1157406" data-name="Grupo 1157406" transform="translate(0)">
              <g id="Grupo_1155793" data-name="Grupo 1155793" transform="translate(0)">
                <g id="Grupo_1154704" data-name="Grupo 1154704" transform="translate(0)">
                  <g id="Grupo_1150790" data-name="Grupo 1150790" transform="translate(0)">
                    <g id="Grupo_1154214" data-name="Grupo 1154214" transform="translate(0)">
                      <g id="Grupo_1152583" data-name="Grupo 1152583" transform="translate(0 0)">
                        <g id="Grupo_1146973" data-name="Grupo 1146973" transform="translate(0 0)">
                          <g id="Grupo_1146954" data-name="Grupo 1146954">
                            <g transform="matrix(1, 0, 0, 1, -9, -6)" filter="url(#Trazado_982547)">
                              <g id="Trazado_982547-2" data-name="Trazado 982547" transform="translate(9 6)" fill="#fcebe9">
                                <path d="M 46.00000381469727 90.49988555908203 C 39.99188232421875 90.49988555908203 34.16427230834961 89.32352447509766 28.67905807495117 87.00347137451172 C 23.38020324707031 84.76226043701172 18.62104415893555 81.55342864990234 14.53375053405762 77.46615600585938 C 10.44647026062012 73.37887573242188 7.237643718719482 68.61971282958984 4.996417045593262 63.32085800170898 C 2.676363706588745 57.83565902709961 1.500003814697266 52.00806045532227 1.500003814697266 45.99993896484375 C 1.500003814697266 39.99181747436523 2.676363706588745 34.16421890258789 4.996417045593262 28.67901802062988 C 7.237643718719482 23.38017845153809 10.44647026062012 18.62101936340332 14.53375053405762 14.53373908996582 C 18.62104415893555 10.44645881652832 23.38020324707031 7.237632274627686 28.67905807495117 4.996418952941895 C 34.16427230834961 2.676365613937378 39.99188232421875 1.500005602836609 46.00000381469727 1.500005602836609 C 52.00812530517578 1.500005602836609 57.83573532104492 2.676365613937378 63.32094955444336 4.996418952941895 C 68.61980438232422 7.237632274627686 73.37897491455078 10.44645881652832 77.46625518798828 14.53373908996582 C 81.55355072021484 18.62101936340332 84.76236724853516 23.38017845153809 87.00359344482422 28.67901802062988 C 89.32364654541016 34.16421890258789 90.5 39.99181747436523 90.5 45.99993896484375 C 90.5 52.00806045532227 89.32364654541016 57.83565902709961 87.00359344482422 63.32085800170898 C 84.76236724853516 68.61971282958984 81.55355072021484 73.37887573242188 77.46625518798828 77.46615600585938 C 73.37897491455078 81.55342864990234 68.61980438232422 84.76226043701172 63.32094955444336 87.00347137451172 C 57.83573532104492 89.32352447509766 52.00812530517578 90.49988555908203 46.00000381469727 90.49988555908203 Z" stroke="none"/>
                                <path d="M 46.00000381469727 2.999992370605469 C 40.19371795654297 2.999992370605469 34.56270217895508 4.136497497558594 29.26338958740234 6.377906799316406 C 24.14333343505859 8.543510437011719 19.54441833496094 11.64437866210938 15.59440612792969 15.59439849853516 C 11.64440155029297 19.54439544677734 8.54351806640625 24.14329528808594 6.377914428710938 29.26335144042969 C 4.136505126953125 34.56266784667969 3.000007629394531 40.19366836547852 3.000007629394531 45.99993896484375 C 3.000007629394531 51.80620956420898 4.136505126953125 57.43722534179688 6.377914428710938 62.73654174804688 C 8.54351806640625 67.85658264160156 11.64440155029297 72.45548248291016 15.59440612792969 76.40549468994141 C 19.54441833496094 80.35549926757812 24.14333343505859 83.45636749267578 29.26337432861328 85.62196350097656 C 34.56270217895508 87.86338043212891 40.19371795654297 88.9998779296875 46.00000381469727 88.9998779296875 C 51.80628967285156 88.9998779296875 57.43730545043945 87.86338043212891 62.73663330078125 85.62196350097656 C 67.85667419433594 83.45636749267578 72.45558929443359 80.35549926757812 76.40560150146484 76.40549468994141 C 80.35560607910156 72.45548248291016 83.45648956298828 67.85658264160156 85.62208557128906 62.73654174804688 C 87.86350250244141 57.43722534179688 89 51.80620956420898 89 45.99993896484375 C 89 40.19366836547852 87.86350250244141 34.56266784667969 85.62208557128906 29.26335144042969 C 83.45648956298828 24.14329528808594 80.35560607910156 19.54439544677734 76.40560150146484 15.59439849853516 C 72.45558929443359 11.64437866210938 67.85667419433594 8.543510437011719 62.73661804199219 6.377906799316406 C 57.43730545043945 4.136497497558594 51.80628967285156 2.999992370605469 46.00000381469727 2.999992370605469 M 46.00000381469727 -7.62939453125e-06 C 71.40510559082031 -7.62939453125e-06 92 20.59487915039062 92 45.99993896484375 C 92 71.40501403808594 71.40510559082031 91.99988555908203 46.00000381469727 91.99988555908203 C 20.59490203857422 91.99988555908203 7.62939453125e-06 71.40501403808594 7.62939453125e-06 45.99993896484375 C 7.62939453125e-06 20.59487915039062 20.59490203857422 -7.62939453125e-06 46.00000381469727 -7.62939453125e-06 Z" stroke="none" fill="#e44b36"/>
                              </g>
                            </g>
                          </g>
                        </g>
                      </g>
                    </g>
                  </g>
                </g>
              </g>
            </g>
          </g>
        </g>
      </g>
    </g>
    <g id="response_18325261" transform="translate(7291.132 2877.945)">
      <path id="Trazado_1022421" data-name="Trazado 1022421" d="M311.151,139.316h12.06a.68.68,0,0,1,.68.68v1.893a.68.68,0,0,1-.68.68h-12.06a.68.68,0,0,1-.68-.68V140a.68.68,0,0,1,.68-.68Z" transform="translate(-269.162 -118.738)" fill="#c3c3c9"/>
      <path id="Trazado_1022422" data-name="Trazado 1022422" d="M328.167,67.73h9.111v-6.9a3.035,3.035,0,0,0-3.026-3.026h-3.059a3.035,3.035,0,0,0-3.026,3.026v6.9Z" transform="translate(-284.704 -47.152)" fill="#ff6969" fill-rule="evenodd"/>
      <path id="Trazado_1022423" data-name="Trazado 1022423" d="M248.162,372.4a16.65,16.65,0,0,0-16.58,15.136h33.16A16.65,16.65,0,0,0,248.162,372.4Z" transform="translate(-199.877 -323.449)" fill="#4eb1fc" fill-rule="evenodd"/>
      <path id="Trazado_1022424" data-name="Trazado 1022424" d="M303.132,284.215a7.929,7.929,0,1,0,14.875,0Z" transform="translate(-262.286 -245.997)" fill="#ffcec0" fill-rule="evenodd"/>
      <path id="Trazado_1022425" data-name="Trazado 1022425" d="M296.522,215.289v-.88a8.674,8.674,0,1,1,17.348,0v.88H296.522Z" transform="translate(-256.912 -177.071)" fill="#ffcb1f" fill-rule="evenodd"/>
      <path id="Trazado_1022426" data-name="Trazado 1022426" d="M295.023,380.132a6.548,6.548,0,0,1-11.057,0,16.63,16.63,0,0,0-5.322,3.082v11.113h21.7V383.214A16.629,16.629,0,0,0,295.023,380.132Z" transform="translate(-241.21 -330.237)" fill="#ffcb1f" fill-rule="evenodd"/>
      <rect id="Rect치ngulo_413375" data-name="Rect치ngulo 413375" width="19.921" height="2.29" rx="1.145" transform="translate(38.324 37.338)" fill="#ffeb87"/>
      <g id="Grupo_1166181" data-name="Grupo 1166181" transform="translate(5.212 4.467)">
        <path id="Trazado_1022427" data-name="Trazado 1022427" d="M69.255,6.981H47.513a2.908,2.908,0,0,0-2.9,2.9V25.522a2.908,2.908,0,0,0,2.9,2.9H62.992l4.783,5.464V28.421h1.48a2.907,2.907,0,0,0,2.9-2.9V9.88a2.907,2.907,0,0,0-2.9-2.9Z" transform="translate(-40.883 -6.981)" fill="#85caff" fill-rule="evenodd"/>
        <path id="Trazado_1022428" data-name="Trazado 1022428" d="M81.428,33.218C89.837,34,92.6,41.288,93.479,44.488a.265.265,0,0,1-.457.242c-3.344-3.925-7.763-6.386-11.836-6.5l-.126,2.613a.445.445,0,0,1-.711.335l-7.354-5.514a.445.445,0,0,1,.031-.733l7.856-4.9a.445.445,0,0,1,.68.4l-.135,2.791Z" transform="translate(-65.652 -27.161)" fill="#fff" fill-rule="evenodd"/>
        <path id="Trazado_1022429" data-name="Trazado 1022429" d="M30.543,372.4a16.65,16.65,0,0,0-16.58,15.136H47.122A16.65,16.65,0,0,0,30.543,372.4Z" transform="translate(-13.963 -327.917)" fill="#85caff" fill-rule="evenodd"/>
        <path id="Trazado_1022430" data-name="Trazado 1022430" d="M85.513,284.215a7.929,7.929,0,1,0,14.875,0H85.513Z" transform="translate(-76.371 -250.465)" fill="#ffcec0" fill-rule="evenodd"/>
        <path id="Trazado_1022431" data-name="Trazado 1022431" d="M78.9,215.289v-.88a8.674,8.674,0,1,1,17.348,0v.88Z" transform="translate(-70.997 -181.539)" fill="#ffcb1f" fill-rule="evenodd"/>
        <path id="Trazado_1022432" data-name="Trazado 1022432" d="M77.4,380.132a6.548,6.548,0,0,1-11.057,0,16.63,16.63,0,0,0-5.322,3.082v11.113h21.7V383.214a16.63,16.63,0,0,0-5.322-3.082Z" transform="translate(-55.294 -334.705)" fill="#ffcb1f" fill-rule="evenodd"/>
      </g>
      <rect id="Rect치ngulo_413376" data-name="Rect치ngulo 413376" width="19.921" height="2.29" rx="1.145" transform="translate(11.831 37.338)" fill="#ffeb87"/>
      <path id="Trazado_1022433" data-name="Trazado 1022433" d="M38.1,10.531a.853.853,0,0,1,1.164-.312l1.336.772a.852.852,0,1,1-.852,1.475L38.417,11.7a.851.851,0,0,1-.312-1.164Zm8.969-3.275V5.713a.852.852,0,1,1,1.7,0V7.257a.852.852,0,1,1-1.7,0Zm-5.325-.05a.852.852,0,1,1,1.476-.852L44,7.691a.852.852,0,1,1-1.476.852Zm13.186,4.949a.85.85,0,0,1,.312-1.164l1.336-.772a.852.852,0,1,1,.853,1.475l-1.337.772a.851.851,0,0,1-1.164-.312ZM51.855,7.691l.772-1.336a.852.852,0,1,1,1.476.852l-.772,1.337a.852.852,0,1,1-1.475-.852ZM41.77,21.79H54.082v1.692H41.77Zm2.25-8.055a2.311,2.311,0,0,1,2.308-2.308h3.195a2.311,2.311,0,0,1,2.308,2.308v6.351H48.778V16.2a.852.852,0,1,0-1.7,0v3.885H44.02V13.734Zm-3.954,7.913v1.977a1.563,1.563,0,0,0,1.562,1.562h12.6a1.564,1.564,0,0,0,1.563-1.562V21.648a1.564,1.564,0,0,0-1.563-1.562h-.688V13.734a4.017,4.017,0,0,0-4.013-4.013H46.328a4.017,4.017,0,0,0-4.013,4.013v6.351h-.687A1.563,1.563,0,0,0,40.066,21.648ZM19.874,8.973l-.1,2.014a.853.853,0,0,0,.773.89c5.961.553,8.96,4.652,10.445,8.155A16.864,16.864,0,0,0,20.409,15.19h-.023a.852.852,0,0,0-.851.811l-.089,1.847-6.265-4.7,6.693-4.178Zm-8.191,5.185,7.354,5.514a1.3,1.3,0,0,0,2.075-.975l.084-1.745c3.57.391,7.392,2.638,10.378,6.142a1.106,1.106,0,0,0,.846.393,1.122,1.122,0,0,0,.526-.131,1.11,1.11,0,0,0,.555-1.283c-1.093-3.97-4.092-10.653-11.984-11.8l.1-2a1.3,1.3,0,0,0-1.982-1.163L11.774,12.02a1.3,1.3,0,0,0-.091,2.138ZM9.435,7.871V23.512a2.049,2.049,0,0,0,2.046,2.048H26.961a.851.851,0,0,1,.641.291l3.29,3.758v-3.2a.852.852,0,0,1,.852-.852h1.48a2.05,2.05,0,0,0,2.047-2.048V7.871a2.049,2.049,0,0,0-2.047-2.048H11.482A2.049,2.049,0,0,0,9.435,7.871Zm2.046,19.393H26.575L31.1,32.437a.852.852,0,0,0,.641.291.823.823,0,0,0,.3-.055.851.851,0,0,0,.553-.8V27.265h.628a3.756,3.756,0,0,0,3.751-3.752V7.871a3.755,3.755,0,0,0-3.751-3.752H11.482A3.755,3.755,0,0,0,7.731,7.871V23.512a3.756,3.756,0,0,0,3.751,3.752Zm9.1,7.253h-1.4v-1.7h1.4v-1.4h1.7v1.4h1.4v1.7h-1.4v1.4h-1.7Zm26.5,0h-1.4v-1.7h1.4v-1.4h1.7v1.4h1.4v1.7h-1.4v1.4h-1.7ZM59.627,63.743V55.453a15.706,15.706,0,0,1,3.918,8.289Zm-26.5,0V55.453a15.639,15.639,0,0,1,3.094,5.08V60.6h.025a15.926,15.926,0,0,1,.8,3.141Zm-21.7,0V61.454H31.426v2.289H11.432Zm-1.7-8.29v8.29H5.811a15.712,15.712,0,0,1,3.917-8.29Zm4.626-13.975c0-.163.008-.327.018-.492H28.486c.012.164.02.329.02.492a7.076,7.076,0,1,1-14.153,0Zm-2.032-2.488a.3.3,0,0,1,.293-.292H30.244a.292.292,0,1,1,0,.584H12.615a.3.3,0,0,1-.293-.292Zm9.107-8.965A7.832,7.832,0,0,1,29.2,36.993H13.656a7.83,7.83,0,0,1,7.773-6.968Zm-10,28.9H31.426v.821H11.432v-.821Zm5.934-8.1a16.143,16.143,0,0,1,8.127,0,5.9,5.9,0,0,1-4.063,1.755A5.9,5.9,0,0,1,17.366,50.832Zm4.054,3.458a7.656,7.656,0,0,1-5.826-2.882,15.726,15.726,0,0,0-4.162,2.43v3.386H31.426V53.839a15.706,15.706,0,0,0-4.16-2.43,7.657,7.657,0,0,1-5.826,2.882H21.42Zm14.8,1.207c-.162.179-.321.364-.475.551q.246.349.475.711Zm4.626-14.02c0-.163.006-.327.018-.492H54.983c.012.164.018.329.018.492a7.076,7.076,0,1,1-14.151,0Zm-2.032-2.488a.3.3,0,0,1,.292-.292h17.63a.292.292,0,0,1,0,.584H39.111A.3.3,0,0,1,38.819,38.989Zm9.107-8.965a7.83,7.83,0,0,0-7.773,6.968H55.7a7.83,7.83,0,0,0-7.773-6.968Zm10,29.725H37.928v-.821H57.923ZM43.864,50.834a16.1,16.1,0,0,1,8.125,0,5.581,5.581,0,0,1-8.125,0Zm4.05,3.456a7.66,7.66,0,0,1-5.821-2.875,15.62,15.62,0,0,0-4.165,2.455v3.354H57.923V53.839a15.736,15.736,0,0,0-4.16-2.43,7.659,7.659,0,0,1-5.826,2.882h-.022Zm-9.146,9.452a17.49,17.49,0,0,0-.467-2.289H57.923v2.289Zm26.584.775a.853.853,0,0,1-.848.929H4.852A.854.854,0,0,1,4,64.518,17.508,17.508,0,0,1,17.145,49.138a8.787,8.787,0,0,1-4.5-7.661c0-.163.006-.327.014-.492h-.049a1.995,1.995,0,0,1-.68-3.871,9.522,9.522,0,0,1,18.989,0,1.995,1.995,0,0,1-.68,3.871h-.05c.009.164.016.329.016.492a8.786,8.786,0,0,1-4.5,7.661,17.44,17.44,0,0,1,7.552,4.079,17.722,17.722,0,0,1,1.413,1.456,17.337,17.337,0,0,1,8.956-5.54,8.784,8.784,0,0,1-4.488-7.656c0-.163.006-.327.015-.492h-.05a1.995,1.995,0,0,1-.68-3.871,9.522,9.522,0,0,1,18.989,0,1.995,1.995,0,0,1-.679,3.871h-.051c.009.164.015.329.015.492a8.785,8.785,0,0,1-4.5,7.661A17.507,17.507,0,0,1,65.352,64.518Z" fill="#242222" fill-rule="evenodd"/>
    </g>
  </g>
</svg>
