<svg xmlns="http://www.w3.org/2000/svg" xmlns:xlink="http://www.w3.org/1999/xlink" width="110" height="110" viewBox="0 0 110 110">
  <defs>
    <filter id="Trazado_982547" x="0" y="0" width="110" height="110" filterUnits="userSpaceOnUse">
      <feOffset dy="3" input="SourceAlpha"/>
      <feGaussianBlur stdDeviation="3" result="blur"/>
      <feFlood flood-opacity="0.161"/>
      <feComposite operator="in" in2="blur"/>
      <feComposite in="SourceGraphic"/>
    </filter>
  </defs>
  <g id="Grupo_1166206" data-name="Grupo 1166206" transform="translate(-7905.81 -3359.728)">
    <g id="Grupo_1164715" data-name="Grupo 1164715" transform="translate(7914.81 3365.728)">
      <g id="Grupo_1160931" data-name="Grupo 1160931" transform="translate(0)">
        <g id="Grupo_1160749" data-name="Grupo 1160749" transform="translate(0)">
          <g id="Grupo_1158891" data-name="Grupo 1158891" transform="translate(0 0)">
            <g id="Grupo_1157406" data-name="Grupo 1157406" transform="translate(0)">
              <g id="Grupo_1155793" data-name="Grupo 1155793" transform="translate(0)">
                <g id="Grupo_1154704" data-name="Grupo 1154704" transform="translate(0)">
                  <g id="Grupo_1150790" data-name="Grupo 1150790" transform="translate(0)">
                    <g id="Grupo_1154214" data-name="Grupo 1154214" transform="translate(0)">
                      <g id="Grupo_1152583" data-name="Grupo 1152583" transform="translate(0 0)">
                        <g id="Grupo_1146973" data-name="Grupo 1146973" transform="translate(0 0)">
                          <g id="Grupo_1146954" data-name="Grupo 1146954">
                            <g transform="matrix(1, 0, 0, 1, -9, -6)" filter="url(#Trazado_982547)">
                              <g id="Trazado_982547-2" data-name="Trazado 982547" transform="translate(9 6)" fill="#fcebe9">
                                <path d="M 46.00000381469727 90.49988555908203 C 39.99188232421875 90.49988555908203 34.16427230834961 89.32352447509766 28.67905807495117 87.00347137451172 C 23.38020324707031 84.76226043701172 18.62104415893555 81.55342864990234 14.53375053405762 77.46615600585938 C 10.44647026062012 73.37887573242188 7.237643718719482 68.61971282958984 4.996417045593262 63.32085800170898 C 2.676363706588745 57.83565902709961 1.500003814697266 52.00806045532227 1.500003814697266 45.99993896484375 C 1.500003814697266 39.99181747436523 2.676363706588745 34.16421890258789 4.996417045593262 28.67901802062988 C 7.237643718719482 23.38017845153809 10.44647026062012 18.62101936340332 14.53375053405762 14.53373908996582 C 18.62104415893555 10.44645881652832 23.38020324707031 7.237632274627686 28.67905807495117 4.996418952941895 C 34.16427230834961 2.676365613937378 39.99188232421875 1.500005602836609 46.00000381469727 1.500005602836609 C 52.00812530517578 1.500005602836609 57.83573532104492 2.676365613937378 63.32094955444336 4.996418952941895 C 68.61980438232422 7.237632274627686 73.37897491455078 10.44645881652832 77.46625518798828 14.53373908996582 C 81.55355072021484 18.62101936340332 84.76236724853516 23.38017845153809 87.00359344482422 28.67901802062988 C 89.32364654541016 34.16421890258789 90.5 39.99181747436523 90.5 45.99993896484375 C 90.5 52.00806045532227 89.32364654541016 57.83565902709961 87.00359344482422 63.32085800170898 C 84.76236724853516 68.61971282958984 81.55355072021484 73.37887573242188 77.46625518798828 77.46615600585938 C 73.37897491455078 81.55342864990234 68.61980438232422 84.76226043701172 63.32094955444336 87.00347137451172 C 57.83573532104492 89.32352447509766 52.00812530517578 90.49988555908203 46.00000381469727 90.49988555908203 Z" stroke="none"/>
                                <path d="M 46.00000381469727 2.999992370605469 C 40.19371795654297 2.999992370605469 34.56270217895508 4.136497497558594 29.26338958740234 6.377906799316406 C 24.14333343505859 8.543510437011719 19.54441833496094 11.64437866210938 15.59440612792969 15.59439849853516 C 11.64440155029297 19.54439544677734 8.54351806640625 24.14329528808594 6.377914428710938 29.26335144042969 C 4.136505126953125 34.56266784667969 3.000007629394531 40.19366836547852 3.000007629394531 45.99993896484375 C 3.000007629394531 51.80620956420898 4.136505126953125 57.43722534179688 6.377914428710938 62.73654174804688 C 8.54351806640625 67.85658264160156 11.64440155029297 72.45548248291016 15.59440612792969 76.40549468994141 C 19.54441833496094 80.35549926757812 24.14333343505859 83.45636749267578 29.26337432861328 85.62196350097656 C 34.56270217895508 87.86338043212891 40.19371795654297 88.9998779296875 46.00000381469727 88.9998779296875 C 51.80628967285156 88.9998779296875 57.43730545043945 87.86338043212891 62.73663330078125 85.62196350097656 C 67.85667419433594 83.45636749267578 72.45558929443359 80.35549926757812 76.40560150146484 76.40549468994141 C 80.35560607910156 72.45548248291016 83.45648956298828 67.85658264160156 85.62208557128906 62.73654174804688 C 87.86350250244141 57.43722534179688 89 51.80620956420898 89 45.99993896484375 C 89 40.19366836547852 87.86350250244141 34.56266784667969 85.62208557128906 29.26335144042969 C 83.45648956298828 24.14329528808594 80.35560607910156 19.54439544677734 76.40560150146484 15.59439849853516 C 72.45558929443359 11.64437866210938 67.85667419433594 8.543510437011719 62.73661804199219 6.377906799316406 C 57.43730545043945 4.136497497558594 51.80628967285156 2.999992370605469 46.00000381469727 2.999992370605469 M 46.00000381469727 -7.62939453125e-06 C 71.40510559082031 -7.62939453125e-06 92 20.59487915039062 92 45.99993896484375 C 92 71.40501403808594 71.40510559082031 91.99988555908203 46.00000381469727 91.99988555908203 C 20.59490203857422 91.99988555908203 7.62939453125e-06 71.40501403808594 7.62939453125e-06 45.99993896484375 C 7.62939453125e-06 20.59487915039062 20.59490203857422 -7.62939453125e-06 46.00000381469727 -7.62939453125e-06 Z" stroke="none" fill="#e44b36"/>
                              </g>
                            </g>
                          </g>
                        </g>
                      </g>
                    </g>
                  </g>
                </g>
              </g>
            </g>
          </g>
        </g>
      </g>
    </g>
    <g id="presentation_16406253" transform="translate(7929.128 3381.922)">
      <path id="Trazado_1022534" data-name="Trazado 1022534" d="M203.372,308.4l-6.9,11.943h-5.123l6.9-11.943Z" transform="translate(-166.315 -270.218)" fill="#453530" fill-rule="evenodd"/>
      <path id="Trazado_1022535" data-name="Trazado 1022535" d="M202.092,308.4l-6.9,11.943h-3.842l6.9-11.943Z" transform="translate(-166.315 -270.218)" fill="#6e5a54" fill-rule="evenodd"/>
      <path id="Trazado_1022536" data-name="Trazado 1022536" d="M298.351,308.4l6.9,11.943h5.123l-6.9-11.943Z" transform="translate(-261.294 -270.218)" fill="#453530" fill-rule="evenodd"/>
      <path id="Trazado_1022537" data-name="Trazado 1022537" d="M298.351,308.4l6.9,11.943h3.842l-6.9-11.943Z" transform="translate(-261.294 -270.218)" fill="#6e5a54" fill-rule="evenodd"/>
      <rect id="Rectángulo_413377" data-name="Rectángulo 413377" width="45.518" height="3.019" rx="1.509" transform="translate(14.298 4.779)" fill="#836d66"/>
      <rect id="Rectángulo_413378" data-name="Rectángulo 413378" width="43.968" height="3.019" rx="1.509" transform="translate(14.298 4.779)" fill="#9b827a"/>
      <rect id="Rectángulo_413379" data-name="Rectángulo 413379" width="45.518" height="3.019" rx="1.509" transform="translate(14.298 35.168)" fill="#836d66"/>
      <path id="Trazado_1022538" data-name="Trazado 1022538" d="M114.54,37.859h41.293v27.37H114.54Z" transform="translate(-98.129 -30.061)" fill="#e3f1ff"/>
      <path id="Trazado_1022539" data-name="Trazado 1022539" d="M323.622,193.061V187.4h-1.935a.322.322,0,0,1-.263-.509L324.9,182a.322.322,0,0,1,.525,0l3.474,4.886a.322.322,0,0,1-.262.509H326.7v5.664h-3.079Z" transform="translate(-281.722 -157.893)" fill="#2dd62d" fill-rule="evenodd"/>
      <path id="Trazado_1022540" data-name="Trazado 1022540" d="M323.622,197.393v-5.664h-1.935a.322.322,0,0,1-.263-.509l3.181-4.473,3.181,4.473a.322.322,0,0,1-.263.509h-1.935v5.664h-1.967Z" transform="translate(-281.722 -162.225)" fill="#43f043" fill-rule="evenodd"/>
      <path id="Trazado_1022541" data-name="Trazado 1022541" d="M390.642,141.455V129.617h-2.06a.342.342,0,0,1-.279-.542l3.7-5.2a.343.343,0,0,1,.559,0l3.7,5.2a.343.343,0,0,1-.279.542h-2.06v11.838h-3.278Z" transform="translate(-341.084 -106.287)" fill="#4eb1fc" fill-rule="evenodd"/>
      <path id="Trazado_1022542" data-name="Trazado 1022542" d="M390.642,145.667V133.829h-2.06a.342.342,0,0,1-.279-.542l3.422-4.812,3.422,4.812a.343.343,0,0,1-.279.542h-2.06v11.838Z" transform="translate(-341.084 -110.499)" fill="#85caff" fill-rule="evenodd"/>
      <path id="Trazado_1022543" data-name="Trazado 1022543" d="M473.09,37.859h1.019v27.37H473.09Z" transform="translate(-416.405 -30.061)" fill="#b6dbff"/>
      <path id="Trazado_1022544" data-name="Trazado 1022544" d="M157.834,80.711,158.9,80a.43.43,0,0,1,.548.053L161.1,81.7a.43.43,0,0,1,.054.548l-.716,1.067.908,2.191,1.26.248a.43.43,0,0,1,.35.425v2.335a.43.43,0,0,1-.35.425l-1.26.248-.908,2.191.715,1.067a.43.43,0,0,1-.054.548l-1.651,1.651a.43.43,0,0,1-.548.053l-1.067-.716-2.191.908-.248,1.26a.43.43,0,0,1-.425.35h-2.335a.43.43,0,0,1-.425-.35l-.248-1.26-2.191-.908L148.7,94.7a.43.43,0,0,1-.548-.053L146.5,92.995a.43.43,0,0,1-.054-.548l.716-1.067-.908-2.191L145,88.941a.43.43,0,0,1-.35-.425V86.18a.43.43,0,0,1,.35-.425l1.26-.248.908-2.191-.716-1.067a.43.43,0,0,1,.054-.548l1.651-1.651A.43.43,0,0,1,148.7,80l1.067.716,2.191-.908.248-1.26a.43.43,0,0,1,.425-.35h2.335a.43.43,0,0,1,.425.35l.248,1.26,2.191.908Z" transform="translate(-124.854 -65.865)" fill="#f9ac00" fill-rule="evenodd"/>
      <path id="Trazado_1022545" data-name="Trazado 1022545" d="M157.837,80.711l.774-.519,1.761,1.761-.914,1.363.908,2.191,1.61.317v3.048l-1.61.317-.908,2.191.914,1.363L158.611,94.5,157.04,93.45l-2.279.944-.416,2.108h-1.708a.43.43,0,0,1-.425-.35l-.248-1.26-3.006-1.245-1.077.722-1.374-1.374a.43.43,0,0,1-.054-.548l.715-1.067-.908-2.191L145,88.941a.43.43,0,0,1-.35-.425V86.18a.43.43,0,0,1,.35-.425l1.26-.248.908-2.191-.715-1.067a.43.43,0,0,1,.054-.548l1.374-1.374,1.077.722.815-.338,2.191-.908.248-1.26a.43.43,0,0,1,.425-.35h1.708l.416,2.108,2.279.944.8-.534Z" transform="translate(-124.857 -65.865)" fill="#fcdb35" fill-rule="evenodd"/>
      <circle id="Elipse_11885" data-name="Elipse 11885" cx="4.695" cy="4.695" r="4.695" transform="translate(23.507 16.788)" fill="#f9ac00"/>
      <circle id="Elipse_11886" data-name="Elipse 11886" cx="4.695" cy="4.695" r="4.695" transform="translate(24.253 16.788)" fill="#e3f1ff"/>
      <rect id="Rectángulo_413380" data-name="Rectángulo 413380" width="43.968" height="3.019" rx="1.509" transform="translate(14.298 35.168)" fill="#9b827a"/>
      <g id="Grupo_1166205" data-name="Grupo 1166205" transform="translate(3.994 3.994)">
        <path id="Trazado_1022546" data-name="Trazado 1022546" d="M72.207,242.58c-2.283-3.307-1.581-8.994,3.887-8.994s6.17,5.687,3.887,8.994a4.472,4.472,0,0,1-7.774,0Z" transform="translate(-63.459 -207.797)" fill="#d9c5bf" fill-rule="evenodd"/>
        <path id="Trazado_1022547" data-name="Trazado 1022547" d="M72.208,243.4c-2.1-3.045-1.673-8.107,2.675-8.891,4.349.784,4.777,5.846,2.675,8.891a5.136,5.136,0,0,1-2.675,2.077A5.136,5.136,0,0,1,72.208,243.4Z" transform="translate(-63.46 -208.615)" fill="#f0e3df" fill-rule="evenodd"/>
        <path id="Trazado_1022548" data-name="Trazado 1022548" d="M20.669,334.058l-3.689.907a18.23,18.23,0,0,0-4.07,1.366c-1.222.717-1.658,1.448-1.807,3.395-.189,3.439-.127,6.636.012,9.921a3.043,3.043,0,0,0,3.041,2.915H31.513a3.043,3.043,0,0,0,3.041-2.915c.139-3.285.2-6.482.012-9.921-.15-1.947-.585-2.678-1.807-3.395a18.23,18.23,0,0,0-4.07-1.366L25,334.058a8.671,8.671,0,0,0-4.33,0Z" transform="translate(-10.198 -296.74)" fill="#4eb1fc" fill-rule="evenodd"/>
        <path id="Trazado_1022549" data-name="Trazado 1022549" d="M20.669,334.7l-3.689.907a18.236,18.236,0,0,0-4.07,1.366c-1.222.716-1.658,1.448-1.807,3.395-.189,3.439-.127,6.636.012,9.922a3.043,3.043,0,0,0,3.041,2.915H29.178a3.043,3.043,0,0,0,3.04-2.915c.139-3.285.2-6.482.012-9.922-.15-1.947-.585-2.678-1.807-3.395a18.233,18.233,0,0,0-4.07-1.366l-3.689-.907a9.819,9.819,0,0,0-1-.193,9.815,9.815,0,0,0-1,.193Z" transform="translate(-10.198 -297.385)" fill="#85caff" fill-rule="evenodd"/>
        <path id="Trazado_1022550" data-name="Trazado 1022550" d="M37.326,20.606v1.758l-.98.193a.8.8,0,0,0-.574.47l-.91,2.193a.8.8,0,0,0,.076.738l.552.828-1.24,1.242-.828-.555a.787.787,0,0,0-.736-.073l-2.193.909a.778.778,0,0,0-.471.574l-.195.977h-1.76l-.189-.977a.79.79,0,0,0-.471-.574L25.215,27.4a.8.8,0,0,0-.742.073l-.823.555-1.245-1.242.552-.828a.781.781,0,0,0,.076-.738l-.909-2.193a.777.777,0,0,0-.574-.47l-.975-.193V20.606l.975-.193a.777.777,0,0,0,.574-.469l.909-2.193a.781.781,0,0,0-.076-.739l-.552-.828,1.245-1.243.823.555a.792.792,0,0,0,.742.073l2.193-.908a.792.792,0,0,0,.471-.574l.189-.977h1.76l.195.977a.78.78,0,0,0,.471.574l2.193.908a.786.786,0,0,0,.736-.073l.828-.555,1.24,1.243-.552.828a.8.8,0,0,0-.076.739l.91,2.193a.8.8,0,0,0,.574.469Zm23.28,16.076v-.005a2.3,2.3,0,0,0-2.117-2.284V8.577a2.3,2.3,0,0,0,2.117-2.284V6.288a2.3,2.3,0,0,0-2.3-2.294h-42.5a2.3,2.3,0,0,0-.184,4.583V29.063a5.3,5.3,0,0,0-4.2,2.785,7.441,7.441,0,0,0,.671,7.378,6.648,6.648,0,0,0,1.429,1.511l-2.945.723a18.441,18.441,0,0,0-4.272,1.45c-1.494.877-2.03,1.852-2.193,4.012a.024.024,0,0,0-.006.018c-.2,3.716-.108,7.14.016,10A3.815,3.815,0,0,0,7.95,60.607H25.312a3.827,3.827,0,0,0,3.828-3.668c.07-1.805.141-3.834.125-6.02h.9a.787.787,0,0,0,.682-.393l6.215-10.763,6.215,10.763a.778.778,0,0,0,.677.393H49.08a.786.786,0,0,0,.677-1.18L43.542,38.975h14.77a2.3,2.3,0,0,0,2.3-2.294ZM43.027,10.136H39.514a.784.784,0,0,0-.558.23l-3.53,3.528-.271-.27a1.221,1.221,0,0,0-1.543-.151l-.715.48-1.413-.586-.168-.847a1.226,1.226,0,0,0-1.2-.985H27.781a1.225,1.225,0,0,0-1.2.985l-.168.847L25,13.955l-.72-.48a1.222,1.222,0,0,0-1.543.151L21.09,15.276a1.223,1.223,0,0,0-.152,1.544l.482.718-.585,1.414-.85.167a1.227,1.227,0,0,0-.985,1.2v2.335a1.227,1.227,0,0,0,.985,1.2l.85.167.585,1.414-.482.716a1.224,1.224,0,0,0,.152,1.545l1.651,1.651a1.223,1.223,0,0,0,1.543.151l.72-.481,1.413.586.168.847a1.226,1.226,0,0,0,1.2.985h2.333a1.227,1.227,0,0,0,1.2-.985l.168-.847,1.413-.586.715.481a1.221,1.221,0,0,0,1.543-.151l1.657-1.651a1.222,1.222,0,0,0,.146-1.544l-.482-.717.59-1.414.845-.167a1.221,1.221,0,0,0,.985-1.2V20.317a1.221,1.221,0,0,0-.985-1.2l-.845-.167-.59-1.414.482-.718a1.222,1.222,0,0,0-.146-1.544l-.271-.269,3.3-3.3h3.189V10.136Zm4.32,0h1.57V17.19h-1.57Zm-5.257,3.974h1.57V17.19h-1.57Zm2.626-2h1.575V17.19H44.716ZM28.951,25.4a3.912,3.912,0,1,0-3.914-3.911A3.915,3.915,0,0,0,28.951,25.4Zm0-9.4a5.484,5.484,0,1,0,5.484,5.484A5.489,5.489,0,0,0,28.951,16Zm29.36,21.4H22.086a7.944,7.944,0,0,0,.352-1.447H58.311a.723.723,0,0,1,0,1.447Zm-10.6,11.942H44.408L38.42,38.975h3.308Zm-18.007,0h-.466c-.016-.786-.049-1.588-.092-2.406,0-.006-.005-.013-.005-.018a7.987,7.987,0,0,0-.3-1.8l3.546-6.149H35.7l-5.988,10.37Zm-2.144,7.527a2.249,2.249,0,0,1-2.252,2.162H24.56V51.865a.788.788,0,0,0-1.575,0v7.168H10.278V51.865a.788.788,0,0,0-1.575,0v7.168H7.95A2.248,2.248,0,0,1,5.7,56.872c-.119-2.82-.217-6.192-.016-9.838.135-1.735.476-2.213,1.424-2.769a18.449,18.449,0,0,1,3.86-1.281l3.687-.907a8.241,8.241,0,0,1,1.927-.253h.1a8.188,8.188,0,0,1,1.927.253l3.682.906a18.455,18.455,0,0,1,3.866,1.282c.947.556,1.288,1.034,1.424,2.769.2,3.647.1,7.019-.016,9.838ZM12.817,32.578a3.985,3.985,0,0,1,3.811-2.01,3.994,3.994,0,0,1,3.817,2.01,5.911,5.911,0,0,1-.574,5.753,3.994,3.994,0,0,1-3.183,1.919h-.114a3.994,3.994,0,0,1-3.183-1.919,5.91,5.91,0,0,1-.574-5.753ZM15.085,6.29a.725.725,0,0,1,.726-.723h42.5a.723.723,0,0,1,0,1.447h-42.5A.725.725,0,0,1,15.085,6.29ZM27.906,43.6a5.309,5.309,0,0,0-.953-.692,18.454,18.454,0,0,0-4.277-1.451l-2.94-.722a6.648,6.648,0,0,0,1.429-1.511,2.9,2.9,0,0,0,.162-.25h9.247L27.906,43.6Zm14-14.882H40.867l2.572-3.62,2.577,3.62H44.982a.786.786,0,0,0-.785.786v4.879H42.686V29.5a.786.786,0,0,0-.785-.786Zm11.721-4.6V34.384h3.3V8.586H17.2V29.019a5.4,5.4,0,0,1,4.64,2.828,6.224,6.224,0,0,1,.671,2.536H41.116V30.292H39.968a1.108,1.108,0,0,1-.9-1.75l3.476-4.886a1.105,1.105,0,0,1,1.8,0l3.476,4.887a1.108,1.108,0,0,1-.9,1.75H45.767v4.092h3V24.118H47.5a1.118,1.118,0,0,1-1-.611,1.13,1.13,0,0,1,.081-1.173l3.7-5.2a1.129,1.129,0,0,1,1.841,0l3.7,5.2a1.126,1.126,0,0,1-.92,1.783H53.623Zm-4.061-1.572h-1.2L51.2,18.552l2.837,3.993h-1.2a.786.786,0,0,0-.785.786V34.384H50.347V23.332a.786.786,0,0,0-.785-.786Z" transform="translate(-3.994 -3.994)" fill-rule="evenodd"/>
      </g>
    </g>
  </g>
</svg>
