<svg xmlns="http://www.w3.org/2000/svg" xmlns:xlink="http://www.w3.org/1999/xlink" width="110" height="110" viewBox="0 0 110 110">
  <defs>
    <filter id="Trazado_982547" x="0" y="0" width="110" height="110" filterUnits="userSpaceOnUse">
      <feOffset dy="3" input="SourceAlpha"/>
      <feGaussianBlur stdDeviation="3" result="blur"/>
      <feFlood flood-opacity="0.161"/>
      <feComposite operator="in" in2="blur"/>
      <feComposite in="SourceGraphic"/>
    </filter>
    <clipPath id="clip-path">
      <path id="path1407" d="M0-682.665H59.621v59.621H0Z" transform="translate(0 682.665)"/>
    </clipPath>
  </defs>
  <g id="Grupo_1166183" data-name="Grupo 1166183" transform="translate(-7585 -2860.728)">
    <g id="Grupo_1164708" data-name="Grupo 1164708" transform="translate(7594 2866.728)">
      <g id="Grupo_1160931" data-name="Grupo 1160931" transform="translate(0)">
        <g id="Grupo_1160749" data-name="Grupo 1160749" transform="translate(0)">
          <g id="Grupo_1158891" data-name="Grupo 1158891" transform="translate(0 0)">
            <g id="Grupo_1157406" data-name="Grupo 1157406" transform="translate(0)">
              <g id="Grupo_1155793" data-name="Grupo 1155793" transform="translate(0)">
                <g id="Grupo_1154704" data-name="Grupo 1154704" transform="translate(0)">
                  <g id="Grupo_1150790" data-name="Grupo 1150790" transform="translate(0)">
                    <g id="Grupo_1154214" data-name="Grupo 1154214" transform="translate(0)">
                      <g id="Grupo_1152583" data-name="Grupo 1152583" transform="translate(0 0)">
                        <g id="Grupo_1146973" data-name="Grupo 1146973" transform="translate(0 0)">
                          <g id="Grupo_1146954" data-name="Grupo 1146954">
                            <g transform="matrix(1, 0, 0, 1, -9, -6)" filter="url(#Trazado_982547)">
                              <g id="Trazado_982547-2" data-name="Trazado 982547" transform="translate(9 6)" fill="#fcebe9">
                                <path d="M 46.00000381469727 90.49988555908203 C 39.99188232421875 90.49988555908203 34.16427230834961 89.32352447509766 28.67905807495117 87.00347137451172 C 23.38020324707031 84.76226043701172 18.62104415893555 81.55342864990234 14.53375053405762 77.46615600585938 C 10.44647026062012 73.37887573242188 7.237643718719482 68.61971282958984 4.996417045593262 63.32085800170898 C 2.676363706588745 57.83565902709961 1.500003814697266 52.00806045532227 1.500003814697266 45.99993896484375 C 1.500003814697266 39.99181747436523 2.676363706588745 34.16421890258789 4.996417045593262 28.67901802062988 C 7.237643718719482 23.38017845153809 10.44647026062012 18.62101936340332 14.53375053405762 14.53373908996582 C 18.62104415893555 10.44645881652832 23.38020324707031 7.237632274627686 28.67905807495117 4.996418952941895 C 34.16427230834961 2.676365613937378 39.99188232421875 1.500005602836609 46.00000381469727 1.500005602836609 C 52.00812530517578 1.500005602836609 57.83573532104492 2.676365613937378 63.32094955444336 4.996418952941895 C 68.61980438232422 7.237632274627686 73.37897491455078 10.44645881652832 77.46625518798828 14.53373908996582 C 81.55355072021484 18.62101936340332 84.76236724853516 23.38017845153809 87.00359344482422 28.67901802062988 C 89.32364654541016 34.16421890258789 90.5 39.99181747436523 90.5 45.99993896484375 C 90.5 52.00806045532227 89.32364654541016 57.83565902709961 87.00359344482422 63.32085800170898 C 84.76236724853516 68.61971282958984 81.55355072021484 73.37887573242188 77.46625518798828 77.46615600585938 C 73.37897491455078 81.55342864990234 68.61980438232422 84.76226043701172 63.32094955444336 87.00347137451172 C 57.83573532104492 89.32352447509766 52.00812530517578 90.49988555908203 46.00000381469727 90.49988555908203 Z" stroke="none"/>
                                <path d="M 46.00000381469727 2.999992370605469 C 40.19371795654297 2.999992370605469 34.56270217895508 4.136497497558594 29.26338958740234 6.377906799316406 C 24.14333343505859 8.543510437011719 19.54441833496094 11.64437866210938 15.59440612792969 15.59439849853516 C 11.64440155029297 19.54439544677734 8.54351806640625 24.14329528808594 6.377914428710938 29.26335144042969 C 4.136505126953125 34.56266784667969 3.000007629394531 40.19366836547852 3.000007629394531 45.99993896484375 C 3.000007629394531 51.80620956420898 4.136505126953125 57.43722534179688 6.377914428710938 62.73654174804688 C 8.54351806640625 67.85658264160156 11.64440155029297 72.45548248291016 15.59440612792969 76.40549468994141 C 19.54441833496094 80.35549926757812 24.14333343505859 83.45636749267578 29.26337432861328 85.62196350097656 C 34.56270217895508 87.86338043212891 40.19371795654297 88.9998779296875 46.00000381469727 88.9998779296875 C 51.80628967285156 88.9998779296875 57.43730545043945 87.86338043212891 62.73663330078125 85.62196350097656 C 67.85667419433594 83.45636749267578 72.45558929443359 80.35549926757812 76.40560150146484 76.40549468994141 C 80.35560607910156 72.45548248291016 83.45648956298828 67.85658264160156 85.62208557128906 62.73654174804688 C 87.86350250244141 57.43722534179688 89 51.80620956420898 89 45.99993896484375 C 89 40.19366836547852 87.86350250244141 34.56266784667969 85.62208557128906 29.26335144042969 C 83.45648956298828 24.14329528808594 80.35560607910156 19.54439544677734 76.40560150146484 15.59439849853516 C 72.45558929443359 11.64437866210938 67.85667419433594 8.543510437011719 62.73661804199219 6.377906799316406 C 57.43730545043945 4.136497497558594 51.80628967285156 2.999992370605469 46.00000381469727 2.999992370605469 M 46.00000381469727 -7.62939453125e-06 C 71.40510559082031 -7.62939453125e-06 92 20.59487915039062 92 45.99993896484375 C 92 71.40501403808594 71.40510559082031 91.99988555908203 46.00000381469727 91.99988555908203 C 20.59490203857422 91.99988555908203 7.62939453125e-06 71.40501403808594 7.62939453125e-06 45.99993896484375 C 7.62939453125e-06 20.59487915039062 20.59490203857422 -7.62939453125e-06 46.00000381469727 -7.62939453125e-06 Z" stroke="none" fill="#e44b36"/>
                              </g>
                            </g>
                          </g>
                        </g>
                      </g>
                    </g>
                  </g>
                </g>
              </g>
            </g>
          </g>
        </g>
      </g>
    </g>
    <g id="g1401" transform="translate(7610.809 3565.583)">
      <g id="g1403" transform="translate(0 -682.665)">
        <g id="g1405" clip-path="url(#clip-path)">
          <g id="g1411" transform="translate(6.736 1.244)">
            <path id="path1413" d="M-181.89-29.839h-10.668v-2.855l-6.737,5.126,6.737,5.13v-2.855h10.668a.558.558,0,0,0,.555-.555v-3.436a.558.558,0,0,0-.555-.555" transform="translate(199.296 32.695)" fill="#a7e9a6" fill-rule="evenodd"/>
          </g>
          <g id="g1415" transform="translate(34.922 1.244)">
            <path id="path1417" d="M-117.281-29.839h-10.665a.559.559,0,0,0-.558.555v3.436a.559.559,0,0,0,.558.555h10.665v2.855l6.737-5.13-6.737-5.126Z" transform="translate(128.504 32.695)" fill="#a7e9a6" fill-rule="evenodd"/>
          </g>
          <g id="g1419" transform="translate(46.145 4.116)">
            <path id="path1421" d="M-70.4-23.56l-2.964-2.255a2.569,2.569,0,0,1,.079.637c0,1.624-1.522,3.063-3.852,3.938v2.809Z" transform="translate(77.14 25.815)" fill="#7fdbae" fill-rule="evenodd"/>
          </g>
          <g id="g1423" transform="translate(18.691 4.099)">
            <path id="path1425" d="M-62.746-41.705v-3.436A.558.558,0,0,0-63.3-45.7h-2.086a2.673,2.673,0,0,1,.112.756c0,1.538-1.36,2.908-3.476,3.789h5.45a.558.558,0,0,0,.555-.555" transform="translate(68.751 45.696)" fill="#7fdbae" fill-rule="evenodd"/>
          </g>
          <g id="g1427" transform="translate(0.873 37.815)">
            <path id="path1429" d="M-163.538-41.878a6.07,6.07,0,0,0-4.568-3.948c-1.558-.116-3.981-.033-6.183,0a6.047,6.047,0,0,0-4.9,5.9v3.667a.629.629,0,0,0,.624.621h9.338c3.522-.37,5.529-2.621,5.687-6.239" transform="translate(179.188 45.886)" fill="#eb5468" fill-rule="evenodd"/>
          </g>
          <g id="g1431" transform="translate(10.192 37.875)">
            <path id="path1433" d="M-18.42,0a5.979,5.979,0,0,1-1.763.716,7.8,7.8,0,0,1,4.42,4.532c.482,1.136.961,1.066,1.261.858.334-.228.5-.858.65-2.159A6.07,6.07,0,0,0-18.42,0" transform="translate(20.183)" fill="#e5384f" fill-rule="evenodd"/>
          </g>
          <g id="g1435" transform="translate(2.874 30.039)">
            <path id="path1437" d="M-125.181-22.927c-3.628-.683-9.843-4.575-11.979,0v.518a6,6,0,0,0,2.9,5.123,5.954,5.954,0,0,0,3.093.865,5.942,5.942,0,0,0,3.09-.865,6,6,0,0,0,2.9-5.123Z" transform="translate(137.16 25.121)" fill="#ffe5c1" fill-rule="evenodd"/>
          </g>
          <g id="g1439" transform="translate(7.142 31.556)">
            <path id="path1441" d="M-58.054-11.324a6,6,0,0,1-2.895,5,5.935,5.935,0,0,1-2.66.848,5.959,5.959,0,0,0,1.723.254,6.048,6.048,0,0,0,1.327-.149A5.979,5.979,0,0,0-58.8-6.089a6,6,0,0,0,2.9-5.123v-.518c-.353-.865-1.69-.674-2.212-.627-.221.023.287,1.036.056,1.033" transform="translate(63.609 12.408)" fill="#fed1a3" fill-rule="evenodd"/>
          </g>
          <g id="g1443" transform="translate(2.874 25.483)">
            <path id="path1445" d="M-125.181-70.543c0-4.446-2.994-6.7-5.988-6.75-2.994.049-5.991,2.3-5.991,6.75,2.076-2.836,8.269,1.74,11.979,0" transform="translate(137.16 77.293)" fill="#375e7d" fill-rule="evenodd"/>
          </g>
          <g id="g1447" transform="translate(6.772 25.483)">
            <path id="path1449" d="M0-4.242c2.974.079,5.925,2.334,5.925,6.75A4.87,4.87,0,0,0,8.081,2.1c0-4.446-2.994-6.7-5.988-6.75A6.077,6.077,0,0,0,0-4.242" transform="translate(0 4.648)" fill="#2b4d66" fill-rule="evenodd"/>
          </g>
          <g id="g1451" transform="translate(43.098 37.824)">
            <path id="path1453" d="M-163.538-62.381a6.047,6.047,0,0,0-4.9-5.919c-1.74.04-4.119-.132-6.183,0a6.062,6.062,0,0,0-4.565,3.945c.106,3.783,1.779,6.345,5.687,6.242h9.335a.631.631,0,0,0,.627-.627Z" transform="translate(179.188 68.35)" fill="#eb5468" fill-rule="evenodd"/>
          </g>
          <g id="g1455" transform="translate(24.577 33.148)">
            <path id="path1457" d="M-109.382-68.128v-6.519a10.411,10.411,0,0,1-2.941,1.723,6.438,6.438,0,0,1-2.294.462,6.452,6.452,0,0,1-2.294-.462,10.274,10.274,0,0,1-2.938-1.723v6.519l5.232,4.314Z" transform="translate(119.849 74.648)" fill="#f5a96c" fill-rule="evenodd"/>
          </g>
          <g id="g1459" transform="translate(24.577 33.148)">
            <path id="path1461" d="M-30.7-18.006a10.271,10.271,0,0,1-2.938-1.723v3.951c2.245,1.337,5.826,2.2,8.143.8,1.162-.7.885-.073.944.914v.829l1.38-1.139v-5.354a10.405,10.405,0,0,1-2.941,1.723,6.435,6.435,0,0,1-2.294.462,6.084,6.084,0,0,1-1.848-.307c-.145-.046-.294-.1-.446-.155" transform="translate(33.639 19.729)" fill="#ea9a58" fill-rule="evenodd"/>
          </g>
          <g id="g1463" transform="translate(29.809 39.575)">
            <path id="path1465" d="M-106.588-79.65l-1.644-7.622-5.549,4.922-3.007,4.334,3.879,9.546h2.664l3.03-5.714-2.245-3.832Z" transform="translate(116.788 87.272)" fill="#b6c4cf" fill-rule="evenodd"/>
          </g>
          <g id="g1467" transform="translate(10.432 39.575)">
            <path id="path1469" d="M-125.946-96.725l-2.872-1.634,1.641-7.622a28.873,28.873,0,0,0-4.73,2.248c-2.571,1.545-4.809,3.6-5.687,6.239a7.725,7.725,0,0,0-.4,2.449v6.675c-.053.951.172,1.192,1.106,1.192h11.725l-3.034-5.714Z" transform="translate(137.998 105.981)" fill="#375e7d" fill-rule="evenodd"/>
          </g>
          <g id="g1471" transform="translate(19.612 39.575)">
            <path id="path1473" d="M-106.554-96.725l-2.67-4.522-5.885-4.734-1.641,7.622,2.872,1.634-2.248,3.832,3.034,5.714h2.664Z" transform="translate(116.75 105.981)" fill="#b6c4cf" fill-rule="evenodd"/>
          </g>
          <g id="g1475" transform="translate(36.351 39.575)">
            <path id="path1477" d="M-129.941-88.688c-.878-2.641-3.116-4.694-5.687-6.242a29.026,29.026,0,0,0-4.733-2.245l1.644,7.622-2.872,1.634,2.245,3.832-3.03,5.714h11.725c.931,0,1.155-.241,1.1-1.192v-6.675a7.724,7.724,0,0,0-.393-2.449" transform="translate(142.376 97.174)" fill="#375e7d" fill-rule="evenodd"/>
          </g>
          <g id="g1479" transform="translate(25.934 47.665)">
            <path id="path1481" d="M-81.027-111.937l-1.73-9.546-2.149-1.165-2.149,1.165-1.726,9.546h7.754Z" transform="translate(88.781 122.649)" fill="#eb5468" fill-rule="evenodd"/>
          </g>
          <g id="g1483" transform="translate(38.365 39.575)">
            <path id="path1485" d="M-49.465-23.457A29.025,29.025,0,0,0-54.2-25.7l.845,3.921c3.251,1.991,5.932,4.8,5.932,8.6V-6.9h2.934c.931,0,1.155-.241,1.1-1.192v-6.675a7.724,7.724,0,0,0-.393-2.449c-.878-2.641-3.116-4.694-5.687-6.242" transform="translate(54.199 25.701)" fill="#2b4d66" fill-rule="evenodd"/>
          </g>
          <g id="g1487" transform="translate(36.968 39.575)">
            <path id="path1489" d="M-23.423-40.98l-.845-3.921-1.4,2.7s2.03,1.093,2.241,1.218" transform="translate(25.664 44.901)" fill="#9facba" fill-rule="evenodd"/>
          </g>
          <g id="g1491" transform="translate(27.376 47.665)">
            <path id="path1493" d="M-25.423,0l-2.149,1.165-.284,1.571h2.928l1.446,7.975h1.938l-1.73-9.546Z" transform="translate(27.856)" fill="#e5384f" fill-rule="evenodd"/>
          </g>
          <g id="g1495" transform="translate(25.868 42.82)">
            <path id="path1497" d="M-82.372-22.939l-3.941-2.2-3.941,2.2,1.792,3.816h4.3Z" transform="translate(90.254 25.135)" fill="#eb5468" fill-rule="evenodd"/>
          </g>
          <g id="g1499" transform="translate(25.868 42.82)">
            <path id="path1501" d="M-41.187,0l-3.941,2.2.868,1.845,1.439-.8,1.634-.914,1.842,1.027,1.235.687.865-1.845Z" transform="translate(45.128)" fill="#e5384f" fill-rule="evenodd"/>
          </g>
          <g id="g1503" transform="translate(21.253 38.502)">
            <path id="path1505" d="M-89.409-45.12l-5.232-4.318c-.98.267-2.122.621-3.324,1.073l3.215,6.222,1.4-.782Z" transform="translate(97.965 49.437)" fill="#eff6ff" fill-rule="evenodd"/>
          </g>
          <g id="g1507" transform="translate(29.809 38.502)">
            <path id="path1509" d="M-89.409-11.211c-1.2-.452-2.34-.805-3.321-1.073l-5.235,4.318,3.941,2.2,1.4.782Z" transform="translate(97.965 12.284)" fill="#eff6ff" fill-rule="evenodd"/>
          </g>
          <g id="g1511" transform="translate(32.565 38.502)">
            <path id="path1513" d="M-60.607-11.211c-1.2-.452-2.34-.805-3.321-1.073l-1.38,1.139-1.1.9A34.807,34.807,0,0,1-63.1-9c.363.155.73.32,1.093.5Z" transform="translate(66.406 12.284)" fill="#d9eeff" fill-rule="evenodd"/>
          </g>
          <g id="g1515" transform="translate(17.629 13.685)">
            <path id="path1517" d="M-107.485,0H-112.7a5.084,5.084,0,0,0-5.07,5.07V8.543C-113.608,13.626-105.062,4.7-107.485,0" transform="translate(117.77)" fill="#375e7d" fill-rule="evenodd"/>
          </g>
          <g id="g1519" transform="translate(31.707 13.685)">
            <path id="path1521" d="M-107.45-52.986a5.084,5.084,0,0,0-5.07-5.07h-5.212c.819,3.691,5.7,14.947,10.282,8.543Z" transform="translate(117.732 58.056)" fill="#375e7d" fill-rule="evenodd"/>
          </g>
          <g id="g1523" transform="translate(37.874 21.277)">
            <path id="path1525" d="M-49.423-21.146a2.02,2.02,0,0,0-.251-.977,2.013,2.013,0,0,0-1.746-1.046h-1.717a5.735,5.735,0,0,0,.043,6.579c1.994-.168,3.671-1.307,3.671-3.294Z" transform="translate(54.153 23.169)" fill="#ea9a58" fill-rule="evenodd"/>
          </g>
          <g id="g1527" transform="translate(17.015 21.278)">
            <path id="path1529" d="M-38.806,0H-40.52a2,2,0,0,0-1.746,1.046,2.023,2.023,0,0,0-.254.977V3.285c0,1.987,1.677,3.126,3.671,3.294,1.591-1.462,1.429-4.763.043-6.579" transform="translate(42.52)" fill="#ea9a58" fill-rule="evenodd"/>
          </g>
          <g id="g1531" transform="translate(20.649 13.319)">
            <path id="path1533" d="M-26.526-205.35a12.444,12.444,0,0,0,1.39,1.343,10.339,10.339,0,0,0,2.938,1.723,6.522,6.522,0,0,0,2.294.462,6.508,6.508,0,0,0,2.294-.462,10.4,10.4,0,0,0,2.941-1.723,12.741,12.741,0,0,0,1.39-1.343l1.234-1.67a8.633,8.633,0,0,0,1.264-3.443,5.846,5.846,0,0,0,.036-.63v-4.747a9.006,9.006,0,0,0-.079-1.2,9.208,9.208,0,0,0-7.127-7.747A9.086,9.086,0,0,0-19.9-225a9.032,9.032,0,0,0-1.951.211,9.208,9.208,0,0,0-7.13,7.747,9.585,9.585,0,0,0-.079,1.2v4.747a5.875,5.875,0,0,0,.036.63,8.643,8.643,0,0,0,1.268,3.443Z" transform="translate(29.064 225.001)" fill="#ffbc85" fill-rule="evenodd"/>
          </g>
          <g id="g1535" transform="translate(27.96 13.319)">
            <path id="path1537" d="M0-238.984a5.994,5.994,0,0,0,1.848.31,6.511,6.511,0,0,0,2.294-.462,10.406,10.406,0,0,0,2.941-1.723,12.727,12.727,0,0,0,1.39-1.343l1.234-1.67a8.636,8.636,0,0,0,1.264-3.443,5.875,5.875,0,0,0,.036-.63v-4.747a8.988,8.988,0,0,0-.079-1.2A9.208,9.208,0,0,0,3.8-261.641a9.086,9.086,0,0,0-1.954-.211c-.069,0-.135,0-.2,0a9.21,9.21,0,0,1,6.846,7.678,9.023,9.023,0,0,1,.079,1.2v4.747a5.938,5.938,0,0,1-.036.634,8.612,8.612,0,0,1-1.268,3.44l-1.235,1.67a11.63,11.63,0,0,1-1.39,1.344A10.28,10.28,0,0,1,1.7-239.409a7.141,7.141,0,0,1-1.7.426" transform="translate(0 261.853)" fill="#f5a96c" fill-rule="evenodd"/>
          </g>
          <g id="g1539" transform="translate(21.538 28.048)">
            <path id="path1541" d="M-39.482-51.433c2.687,0,3.9-3.285,4.493-4.922H-38.4A5.024,5.024,0,0,0-42.846-53.1c-.122.254-.225.5-.314.733-.165.449-.2.938.475.938h3.2Z" transform="translate(43.26 56.355)" fill="#375e7d" fill-rule="evenodd"/>
          </g>
          <g id="g1543" transform="translate(29.809 28.048)">
            <path id="path1545" d="M-82.131-33.978a5.029,5.029,0,0,0-4.45-3.251h-3.41c.6,1.637,1.806,4.922,4.492,4.922h3.2c.677,0,.644-.489.475-.938-.086-.231-.191-.479-.31-.733" transform="translate(89.99 37.229)" fill="#375e7d" fill-rule="evenodd"/>
          </g>
          <g id="g1547" transform="translate(31.618 28.048)">
            <path id="path1549" d="M-63.228-33.978a6.716,6.716,0,0,0-1.548-2.136,4.257,4.257,0,0,0-2.9-1.116h-1.6c2.522,0,3.608,2.974,4.284,4.922h1.6c.677,0,.644-.489.475-.938-.086-.231-.191-.479-.31-.733" transform="translate(69.278 37.229)" fill="#2b4d66" fill-rule="evenodd"/>
          </g>
          <g id="g1551" transform="translate(23.187 28.048)">
            <path id="path1553" d="M-69.2,0h-2.129c-.6,1.637-1.806,4.922-4.492,4.922h2.129C-71,4.922-69.793,1.637-69.2,0" transform="translate(75.817)" fill="#2b4d66" fill-rule="evenodd"/>
          </g>
          <g id="g1555" transform="translate(52.248 37.819)">
            <path id="path1557" d="M0-7.655A5.056,5.056,0,0,1,4.077-2.413V1.228a.628.628,0,0,1-.624.627h2.42A.631.631,0,0,0,6.5,1.228V-2.413A6.047,6.047,0,0,0,1.6-8.331c-1.215-.208-1.5.2-1.6.677" transform="translate(0 8.387)" fill="#e5384f" fill-rule="evenodd"/>
          </g>
          <g id="g1559" transform="translate(44.765 30.102)">
            <path id="path1561" d="M-125.181-27.691v-.518c-3.737-.34-9.926-4.621-11.979,0v.518a6,6,0,0,0,2.9,5.123,5.954,5.954,0,0,0,3.093.865,5.942,5.942,0,0,0,3.09-.865,6,6,0,0,0,2.9-5.123" transform="translate(137.16 30.341)" fill="#ffe5c1" fill-rule="evenodd"/>
          </g>
          <g id="g1563" transform="translate(49.168 31.977)">
            <path id="path1565" d="M-55.329-6.885a6.006,6.006,0,0,1-2.9,5.064q-.129.079-.257.149A5.909,5.909,0,0,1-60.624-1a5.988,5.988,0,0,0,1.588.215,5.942,5.942,0,0,0,3.09-.865,6,6,0,0,0,2.9-5.123v-.518c-.96-.383-1.782-.4-2.281.4" transform="translate(60.624 7.544)" fill="#fed1a3" fill-rule="evenodd"/>
          </g>
          <g id="g1567" transform="translate(44.765 25.483)">
            <path id="path1569" d="M-125.181-70.543c0-4.446-2.994-6.7-5.988-6.75-2.994.049-5.991,2.3-5.991,6.75,2.076-2.836,8.269,1.74,11.979,0" transform="translate(137.16 77.293)" fill="#375e7d" fill-rule="evenodd"/>
          </g>
          <g id="g1571" transform="translate(50.033 25.483)">
            <path id="path1573" d="M0-.551C2.321.106,4.3,2.172,4.423,5.635c.007.109.007.225.007.337v.578a4.939,4.939,0,0,0,2.281-.4C6.711,1.7,3.717-.555.723-.6A5.919,5.919,0,0,0,0-.551" transform="translate(0 0.604)" fill="#2b4d66" fill-rule="evenodd"/>
          </g>
          <g id="g1575" transform="translate(0.873 37.875)">
            <path id="path1577" d="M-61.987-106.453h-5.308a.628.628,0,0,1-.624-.627v-3.641a6.047,6.047,0,0,1,4.9-5.919m6.183,0a6.07,6.07,0,0,1,4.568,3.948" transform="translate(67.918 116.64)" fill="none" stroke="#000" stroke-linecap="round" stroke-linejoin="round" stroke-miterlimit="10" stroke-width="1.5"/>
          </g>
          <g id="g1579" transform="translate(2.874 25.483)">
            <path id="path1581" d="M0-70.543c0-4.446,3-6.7,5.991-6.75,2.994.049,5.988,2.3,5.988,6.75C8.269-68.8,2.076-73.378,0-70.543Z" transform="translate(0 77.293)" fill="none" stroke="#000" stroke-linecap="round" stroke-linejoin="round" stroke-miterlimit="10" stroke-width="1.5"/>
          </g>
          <g id="g1583" transform="translate(2.874 32.233)">
            <path id="path1585" d="M0,0V.518a5.989,5.989,0,0,0,11.979,0V0" fill="none" stroke="#000" stroke-linecap="round" stroke-linejoin="round" stroke-miterlimit="10" stroke-width="1.5"/>
          </g>
          <g id="g1587" transform="translate(44.765 25.483)">
            <path id="path1589" d="M0-70.543c0-4.446,3-6.7,5.991-6.75,2.994.049,5.988,2.3,5.988,6.75C8.269-68.8,2.076-73.378,0-70.543Z" transform="translate(0 77.293)" fill="none" stroke="#000" stroke-linecap="round" stroke-linejoin="round" stroke-miterlimit="10" stroke-width="1.5"/>
          </g>
          <g id="g1591" transform="translate(25.934 48.831)">
            <path id="path1593" d="M-18.04,0l-1.726,9.546" transform="translate(19.767)" fill="none" stroke="#000" stroke-linecap="round" stroke-linejoin="round" stroke-miterlimit="10" stroke-width="1.5"/>
          </g>
          <g id="g1595" transform="translate(25.868 45.015)">
            <path id="path1597" d="M-82.372,0l-1.792,3.816h-4.3L-90.254,0" transform="translate(90.254)" fill="none" stroke="#000" stroke-linecap="round" stroke-linejoin="round" stroke-miterlimit="10" stroke-width="1.5"/>
          </g>
          <g id="g1599" transform="translate(31.958 48.831)">
            <path id="path1601" d="M0,0,1.73,9.546" fill="none" stroke="#000" stroke-linecap="round" stroke-linejoin="round" stroke-miterlimit="10" stroke-width="1.5"/>
          </g>
          <g id="g1603" transform="translate(19.612 39.575)">
            <path id="path1605" d="M-17.143,0l-1.641,7.622,2.872,1.634-2.248,3.832,3.034,5.714" transform="translate(18.784)" fill="none" stroke="#000" stroke-linecap="round" stroke-linejoin="round" stroke-miterlimit="10" stroke-width="1.5"/>
          </g>
          <g id="g1607" transform="translate(36.351 39.575)">
            <path id="path1609" d="M-21.042,0-19.4,7.622-22.27,9.256l2.245,3.832-3.03,5.714" transform="translate(23.056)" fill="none" stroke="#000" stroke-linecap="round" stroke-linejoin="round" stroke-miterlimit="10" stroke-width="1.5"/>
          </g>
          <g id="g1611" transform="translate(6.736 1.244)">
            <path id="path1613" d="M-181.89-29.839a.558.558,0,0,1,.555.555v3.436a.558.558,0,0,1-.555.555h-10.668v2.855l-6.737-5.13,6.737-5.126v2.855Z" transform="translate(199.296 32.695)" fill="none" stroke="#000" stroke-linecap="round" stroke-linejoin="round" stroke-miterlimit="10" stroke-width="1.5"/>
          </g>
          <g id="g1615" transform="translate(34.922 1.244)">
            <path id="path1617" d="M-5.83-29.839a.559.559,0,0,0-.558.555v3.436a.559.559,0,0,0,.558.555H4.835v2.855l6.737-5.13L4.835-32.695v2.855Z" transform="translate(6.388 32.695)" fill="none" stroke="#000" stroke-linecap="round" stroke-linejoin="round" stroke-miterlimit="10" stroke-width="1.5"/>
          </g>
          <g id="g1619" transform="translate(43.098 37.875)">
            <path id="path1621" d="M0-41.222a6.062,6.062,0,0,1,4.565-3.945m6.182,0a6.047,6.047,0,0,1,4.9,5.919v3.641a.631.631,0,0,1-.627.627h-5.3" transform="translate(0 45.167)" fill="none" stroke="#000" stroke-linecap="round" stroke-linejoin="round" stroke-miterlimit="10" stroke-width="1.5"/>
          </g>
          <g id="g1623" transform="translate(44.765 32.233)">
            <path id="path1625" d="M0,0V.518a5.989,5.989,0,0,0,11.979,0V0" fill="none" stroke="#000" stroke-linecap="round" stroke-linejoin="round" stroke-miterlimit="10" stroke-width="1.5"/>
          </g>
          <g id="g1627" transform="translate(21.253 38.502)">
            <path id="path1629" d="M-34.736,0-29.5,4.318-34.845,7.3-38.06,1.073" transform="translate(38.06)" fill="none" stroke="#000" stroke-linecap="round" stroke-linejoin="round" stroke-miterlimit="10" stroke-width="1.5"/>
          </g>
          <g id="g1631" transform="translate(29.809 38.502)">
            <path id="path1633" d="M-54.709,0l-5.235,4.318L-54.6,7.3l3.215-6.222" transform="translate(59.944)" fill="none" stroke="#000" stroke-linecap="round" stroke-linejoin="round" stroke-miterlimit="10" stroke-width="1.5"/>
          </g>
          <g id="g1635" transform="translate(17.629 13.685)">
            <path id="path1637" d="M-100.551,0H-105.1a5.084,5.084,0,0,0-5.07,5.07v3.1m24.36,0V5.07A5.084,5.084,0,0,0-90.883,0h-4.552" transform="translate(110.173)" fill="none" stroke="#000" stroke-linecap="round" stroke-linejoin="round" stroke-miterlimit="10" stroke-width="1.5"/>
          </g>
          <g id="g1639" transform="translate(21.538 28.048)">
            <path id="path1641" d="M-50.8,0h3.41c-.6,1.637-1.806,4.922-4.492,4.922h-3.2c-.677,0-.64-.489-.475-.938C-54.958,2.387-53.558,0-50.8,0Z" transform="translate(55.656)" fill="none" stroke="#000" stroke-linecap="round" stroke-linejoin="round" stroke-miterlimit="10" stroke-width="1.5"/>
          </g>
          <g id="g1643" transform="translate(29.809 28.048)">
            <path id="path1645" d="M-35.633,0h-3.41c.6,1.637,1.806,4.922,4.493,4.922h3.2c.677,0,.644-.489.475-.938C-31.47,2.387-32.867,0-35.633,0Z" transform="translate(39.043)" fill="none" stroke="#000" stroke-linecap="round" stroke-linejoin="round" stroke-miterlimit="10" stroke-width="1.5"/>
          </g>
          <g id="g1647" transform="translate(10.432 34.313)">
            <path id="path1649" d="M-43.573-251.471h-3.057c-.934,0-1.159-.241-1.106-1.192v-6.675c0-7.021,9.15-10.656,14.138-12.009v-4.189m10.467,0v4.189C-18.146-269.993-9-266.359-9-259.337v6.675c.053.951-.172,1.192-1.1,1.192h-29.44" transform="translate(47.742 275.535)" fill="none" stroke="#000" stroke-linecap="round" stroke-linejoin="round" stroke-miterlimit="10" stroke-width="1.5"/>
          </g>
          <g id="g1651" transform="translate(17.015 21.278)">
            <path id="path1653" d="M-38.806,0H-40.52a2.027,2.027,0,0,0-2,2.024V3.285c0,1.987,1.677,3.126,3.671,3.294" transform="translate(42.52)" fill="none" stroke="#000" stroke-linecap="round" stroke-linejoin="round" stroke-miterlimit="10" stroke-width="1.5"/>
          </g>
          <g id="g1655" transform="translate(38.89 21.278)">
            <path id="path1657" d="M0,0H1.716a2.025,2.025,0,0,1,2,2.024V3.285c0,1.987-1.677,3.126-3.671,3.294" fill="none" stroke="#000" stroke-linecap="round" stroke-linejoin="round" stroke-miterlimit="10" stroke-width="1.5"/>
          </g>
          <g id="g1659" transform="translate(20.649 13.319)">
            <path id="path1661" d="M-177.854-187.9a8.633,8.633,0,0,0,1.264-3.443,5.843,5.843,0,0,0,.036-.63v-4.747a8.99,8.99,0,0,0-.079-1.2,9.208,9.208,0,0,0-7.127-7.747,9.094,9.094,0,0,0-1.954-.211,9.041,9.041,0,0,0-1.951.211,9.208,9.208,0,0,0-7.13,7.747,9.592,9.592,0,0,0-.079,1.2v4.747a5.843,5.843,0,0,0,.036.63,8.643,8.643,0,0,0,1.268,3.443m1.235,1.67a12.444,12.444,0,0,0,1.39,1.343,10.345,10.345,0,0,0,2.938,1.723,6.524,6.524,0,0,0,2.294.462,6.51,6.51,0,0,0,2.294-.462,10.406,10.406,0,0,0,2.941-1.723,12.732,12.732,0,0,0,1.39-1.343" transform="translate(194.873 205.877)" fill="none" stroke="#000" stroke-linecap="round" stroke-linejoin="round" stroke-miterlimit="10" stroke-width="1.5"/>
          </g>
        </g>
      </g>
    </g>
  </g>
</svg>
