<svg xmlns="http://www.w3.org/2000/svg" xmlns:xlink="http://www.w3.org/1999/xlink" width="110" height="110" viewBox="0 0 110 110">
  <defs>
    <filter id="Trazado_982547" x="0" y="0" width="110" height="110" filterUnits="userSpaceOnUse">
      <feOffset dy="3" input="SourceAlpha"/>
      <feGaussianBlur stdDeviation="3" result="blur"/>
      <feFlood flood-opacity="0.161"/>
      <feComposite operator="in" in2="blur"/>
      <feComposite in="SourceGraphic"/>
    </filter>
  </defs>
  <g id="Grupo_1166164" data-name="Grupo 1166164" transform="translate(-7270 -2369.728)">
    <g id="Grupo_1164705" data-name="Grupo 1164705" transform="translate(7279 2375.728)">
      <g id="Grupo_1160931" data-name="Grupo 1160931" transform="translate(0)">
        <g id="Grupo_1160749" data-name="Grupo 1160749" transform="translate(0)">
          <g id="Grupo_1158891" data-name="Grupo 1158891" transform="translate(0 0)">
            <g id="Grupo_1157406" data-name="Grupo 1157406" transform="translate(0)">
              <g id="Grupo_1155793" data-name="Grupo 1155793" transform="translate(0)">
                <g id="Grupo_1154704" data-name="Grupo 1154704" transform="translate(0)">
                  <g id="Grupo_1150790" data-name="Grupo 1150790" transform="translate(0)">
                    <g id="Grupo_1154214" data-name="Grupo 1154214" transform="translate(0)">
                      <g id="Grupo_1152583" data-name="Grupo 1152583" transform="translate(0 0)">
                        <g id="Grupo_1146973" data-name="Grupo 1146973" transform="translate(0 0)">
                          <g id="Grupo_1146954" data-name="Grupo 1146954">
                            <g transform="matrix(1, 0, 0, 1, -9, -6)" filter="url(#Trazado_982547)">
                              <g id="Trazado_982547-2" data-name="Trazado 982547" transform="translate(9 6)" fill="#fcebe9">
                                <path d="M 46.00000381469727 90.49988555908203 C 39.99188232421875 90.49988555908203 34.16427230834961 89.32352447509766 28.67905807495117 87.00347137451172 C 23.38020324707031 84.76226043701172 18.62104415893555 81.55342864990234 14.53375053405762 77.46615600585938 C 10.44647026062012 73.37887573242188 7.237643718719482 68.61971282958984 4.996417045593262 63.32085800170898 C 2.676363706588745 57.83565902709961 1.500003814697266 52.00806045532227 1.500003814697266 45.99993896484375 C 1.500003814697266 39.99181747436523 2.676363706588745 34.16421890258789 4.996417045593262 28.67901802062988 C 7.237643718719482 23.38017845153809 10.44647026062012 18.62101936340332 14.53375053405762 14.53373908996582 C 18.62104415893555 10.44645881652832 23.38020324707031 7.237632274627686 28.67905807495117 4.996418952941895 C 34.16427230834961 2.676365613937378 39.99188232421875 1.500005602836609 46.00000381469727 1.500005602836609 C 52.00812530517578 1.500005602836609 57.83573532104492 2.676365613937378 63.32094955444336 4.996418952941895 C 68.61980438232422 7.237632274627686 73.37897491455078 10.44645881652832 77.46625518798828 14.53373908996582 C 81.55355072021484 18.62101936340332 84.76236724853516 23.38017845153809 87.00359344482422 28.67901802062988 C 89.32364654541016 34.16421890258789 90.5 39.99181747436523 90.5 45.99993896484375 C 90.5 52.00806045532227 89.32364654541016 57.83565902709961 87.00359344482422 63.32085800170898 C 84.76236724853516 68.61971282958984 81.55355072021484 73.37887573242188 77.46625518798828 77.46615600585938 C 73.37897491455078 81.55342864990234 68.61980438232422 84.76226043701172 63.32094955444336 87.00347137451172 C 57.83573532104492 89.32352447509766 52.00812530517578 90.49988555908203 46.00000381469727 90.49988555908203 Z" stroke="none"/>
                                <path d="M 46.00000381469727 2.999992370605469 C 40.19371795654297 2.999992370605469 34.56270217895508 4.136497497558594 29.26338958740234 6.377906799316406 C 24.14333343505859 8.543510437011719 19.54441833496094 11.64437866210938 15.59440612792969 15.59439849853516 C 11.64440155029297 19.54439544677734 8.54351806640625 24.14329528808594 6.377914428710938 29.26335144042969 C 4.136505126953125 34.56266784667969 3.000007629394531 40.19366836547852 3.000007629394531 45.99993896484375 C 3.000007629394531 51.80620956420898 4.136505126953125 57.43722534179688 6.377914428710938 62.73654174804688 C 8.54351806640625 67.85658264160156 11.64440155029297 72.45548248291016 15.59440612792969 76.40549468994141 C 19.54441833496094 80.35549926757812 24.14333343505859 83.45636749267578 29.26337432861328 85.62196350097656 C 34.56270217895508 87.86338043212891 40.19371795654297 88.9998779296875 46.00000381469727 88.9998779296875 C 51.80628967285156 88.9998779296875 57.43730545043945 87.86338043212891 62.73663330078125 85.62196350097656 C 67.85667419433594 83.45636749267578 72.45558929443359 80.35549926757812 76.40560150146484 76.40549468994141 C 80.35560607910156 72.45548248291016 83.45648956298828 67.85658264160156 85.62208557128906 62.73654174804688 C 87.86350250244141 57.43722534179688 89 51.80620956420898 89 45.99993896484375 C 89 40.19366836547852 87.86350250244141 34.56266784667969 85.62208557128906 29.26335144042969 C 83.45648956298828 24.14329528808594 80.35560607910156 19.54439544677734 76.40560150146484 15.59439849853516 C 72.45558929443359 11.64437866210938 67.85667419433594 8.543510437011719 62.73661804199219 6.377906799316406 C 57.43730545043945 4.136497497558594 51.80628967285156 2.999992370605469 46.00000381469727 2.999992370605469 M 46.00000381469727 -7.62939453125e-06 C 71.40510559082031 -7.62939453125e-06 92 20.59487915039062 92 45.99993896484375 C 92 71.40501403808594 71.40510559082031 91.99988555908203 46.00000381469727 91.99988555908203 C 20.59490203857422 91.99988555908203 7.62939453125e-06 71.40501403808594 7.62939453125e-06 45.99993896484375 C 7.62939453125e-06 20.59487915039062 20.59490203857422 -7.62939453125e-06 46.00000381469727 -7.62939453125e-06 Z" stroke="none" fill="#e44b36"/>
                              </g>
                            </g>
                          </g>
                        </g>
                      </g>
                    </g>
                  </g>
                </g>
              </g>
            </g>
          </g>
        </g>
      </g>
    </g>
    <g id="protocolo" transform="translate(7268.604 2387.606)">
      <rect id="Rectángulo_413145" data-name="Rectángulo 413145" width="33.231" height="39.637" rx="16.616" transform="translate(39.816 10.228)" fill="#b6dbff"/>
      <path id="Trazado_1014574" data-name="Trazado 1014574" d="M119.069,56.119h26.282a2.512,2.512,0,0,1,2.511,2.511V93.245a2.512,2.512,0,0,1-2.511,2.511H119.069a2.512,2.512,0,0,1-2.511-2.511V58.63A2.512,2.512,0,0,1,119.069,56.119Z" transform="translate(-76.742 -45.891)" fill="#e3f1ff"/>
      <g id="Grupo_1161574" data-name="Grupo 1161574" transform="translate(48.528 4.845)">
        <path id="Trazado_1014575" data-name="Trazado 1014575" d="M197.349,11.08a3.073,3.073,0,0,0-3.073,3.073v.422l-3.047-.533a1.521,1.521,0,0,0-1.783,1.5v3.308h15.806V15.541a1.521,1.521,0,0,0-1.783-1.5l-3.047.533v-.422A3.073,3.073,0,0,0,197.349,11.08Z" transform="translate(-189.446 -11.08)" fill="#c86f5c" fill-rule="evenodd"/>
        <path id="Trazado_1014576" data-name="Trazado 1014576" d="M194.275,18.96v.422l-3.047-.533a1.521,1.521,0,0,0-1.783,1.5v3.307h14.426V20.588a1.521,1.521,0,0,0-1.783-1.5l-1.667.291-.743.13-.39.068c.048-4.244-5.014-3.659-5.014-.62Z" transform="translate(-189.446 -15.886)" fill="#f29988" fill-rule="evenodd"/>
        <path id="Trazado_1014577" data-name="Trazado 1014577" d="M324.628,125.567A22.243,22.243,0,0,0,330.766,128l2.086.532v8.94a7.2,7.2,0,0,1-1.019,3.737c-1.554,2.617-4.695,4.277-7.239,5.815l-1.434.867-1.434-.867c-2.544-1.538-5.685-3.2-7.239-5.815a7.2,7.2,0,0,1-1.019-3.737v-8.94l2.086-.532a22.244,22.244,0,0,0,6.138-2.437l1.468-.916,1.468.916Z" transform="translate(-298.644 -111.075)" fill="#f2671f" fill-rule="evenodd"/>
        <path id="Trazado_1014578" data-name="Trazado 1014578" d="M324.627,125.568a22.243,22.243,0,0,0,6.138,2.437l1.189.3v8.81a7.2,7.2,0,0,1-1.019,3.737c-1.554,2.617-4.695,4.277-7.239,5.815l-1.282.775-.689-.416c-2.544-1.538-5.685-3.2-7.239-5.815a7.2,7.2,0,0,1-1.019-3.737v-8.94l2.086-.532a22.244,22.244,0,0,0,6.138-2.437l1.468-.916,1.468.916Z" transform="translate(-298.643 -111.076)" fill="#ff8748" fill-rule="evenodd"/>
        <path id="Trazado_1014579" data-name="Trazado 1014579" d="M337.38,434.316a8.763,8.763,0,0,1,8.726,7.966H328.654A8.763,8.763,0,0,1,337.38,434.316Z" transform="translate(-312.014 -383.724)" fill="#fdc72e" fill-rule="evenodd"/>
        <path id="Trazado_1014580" data-name="Trazado 1014580" d="M343.676,442.562H328.654a8.764,8.764,0,0,1,7.909-7.928,9.016,9.016,0,0,1,7.112,7.928Z" transform="translate(-312.014 -384.003)" fill="#fcdb35" fill-rule="evenodd"/>
      </g>
      <circle id="Elipse_11829" data-name="Elipse 11829" cx="4.173" cy="4.173" r="4.173" transform="translate(69.285 47.546) rotate(-6.258)" fill="#fdb0a0"/>
      <path id="Trazado_1014581" data-name="Trazado 1014581" d="M370.071,373.149a4.174,4.174,0,1,1,3.328-4.088A4.175,4.175,0,0,1,370.071,373.149Z" transform="translate(-297.021 -317.826)" fill="#ffcec0" fill-rule="evenodd"/>
      <path id="Trazado_1014582" data-name="Trazado 1014582" d="M191.284,434.316a8.763,8.763,0,0,1,8.726,7.966H182.558A8.763,8.763,0,0,1,191.284,434.316Z" transform="translate(-134.853 -378.879)" fill="#2a92fa" fill-rule="evenodd"/>
      <path id="Trazado_1014583" data-name="Trazado 1014583" d="M197.58,442.562H182.558a8.764,8.764,0,0,1,7.909-7.928,9.016,9.016,0,0,1,7.112,7.928Z" transform="translate(-134.853 -379.158)" fill="#4eb1fc" fill-rule="evenodd"/>
      <circle id="Elipse_11830" data-name="Elipse 11830" cx="4.173" cy="4.173" r="4.173" transform="matrix(0.984, -0.179, 0.179, 0.984, 51.577, 47.889)" fill="#fdb0a0"/>
      <path id="Trazado_1014584" data-name="Trazado 1014584" d="M223.975,373.149a4.174,4.174,0,1,1,3.328-4.088A4.175,4.175,0,0,1,223.975,373.149Z" transform="translate(-168.389 -317.826)" fill="#ffcec0" fill-rule="evenodd"/>
      <path id="Trazado_1014585" data-name="Trazado 1014585" d="M45.188,434.316a8.763,8.763,0,0,1,8.726,7.966H36.462A8.763,8.763,0,0,1,45.188,434.316Z" transform="translate(-6.221 -378.879)" fill="#a0d904" fill-rule="evenodd"/>
      <path id="Trazado_1014586" data-name="Trazado 1014586" d="M51.484,442.562H36.462a8.764,8.764,0,0,1,7.909-7.928,9.016,9.016,0,0,1,7.112,7.928Z" transform="translate(-6.221 -379.158)" fill="#baed2c" fill-rule="evenodd"/>
      <circle id="Elipse_11831" data-name="Elipse 11831" cx="4.173" cy="4.173" r="4.173" transform="matrix(0.984, -0.179, 0.179, 0.984, 34.11, 47.886)" fill="#fdb0a0"/>
      <path id="Trazado_1014587" data-name="Trazado 1014587" d="M77.88,373.149a4.174,4.174,0,0,1,0-8.175,4.174,4.174,0,0,1,0,8.175Z" transform="translate(-39.758 -317.826)" fill="#ffcec0" fill-rule="evenodd"/>
      <path id="Trazado_1014588" data-name="Trazado 1014588" d="M331.016,175.17c-.28.078-.537.146-.765.2v6.787a4.422,4.422,0,0,0,.63,2.322c1.175,1.979,4.235,3.711,6.422,5.033.205-.124.417-.25.634-.379l.382-.31-7.3-13.658Z" transform="translate(-264.891 -150.711)" fill="#f2671f" fill-rule="evenodd"/>
      <path id="Trazado_1014589" data-name="Trazado 1014589" d="M343.571,151.982a25.677,25.677,0,0,1-6.92,2.772v6.787a4.423,4.423,0,0,0,.63,2.322c1.175,1.979,4.1,3.537,6.29,4.859,2.187-1.322,5.115-2.88,6.29-4.859a4.422,4.422,0,0,0,.63-2.322v-6.787a25.678,25.678,0,0,1-6.92-2.772Z" transform="translate(-270.526 -130.294)" fill="#f3f3ff" fill-rule="evenodd"/>
      <path id="Trazado_1014590" data-name="Trazado 1014590" d="M70.548,29.266A.836.836,0,1,0,69.1,30.1l1.609,2.789a.836.836,0,0,0,.616.411.792.792,0,0,0,.11.008.837.837,0,0,0,.592-.245l4.831-4.83a.837.837,0,0,0-1.183-1.183l-4.06,4.059-1.065-1.844Zm2.5-6.6A26.378,26.378,0,0,0,79.127,25.1v6.143a3.561,3.561,0,0,1-.513,1.9c-.922,1.553-3.177,2.89-5.165,4.07l-.406.24-.4-.24c-1.989-1.18-4.243-2.517-5.165-4.07a3.562,3.562,0,0,1-.514-1.9V25.1A26.374,26.374,0,0,0,73.044,22.664Zm.443-1.686a24.738,24.738,0,0,0,6.684,2.671.836.836,0,0,1,.63.811v6.787A5.234,5.234,0,0,1,80.053,34c-1.14,1.92-3.59,3.373-5.751,4.655-.283.168-.561.332-.826.493a.834.834,0,0,1-.865,0q-.4-.24-.826-.492c-2.161-1.282-4.611-2.735-5.751-4.655a5.24,5.24,0,0,1-.748-2.749V24.459a.836.836,0,0,1,.63-.811A24.749,24.749,0,0,0,72.6,20.977a.835.835,0,0,1,.886,0ZM72.207,46.512a5.043,5.043,0,0,0-2.819,2.525H60.935a5.011,5.011,0,0,0-9.011,0H43.47a5.04,5.04,0,0,0-2.819-2.525V12.751a1.676,1.676,0,0,1,1.675-1.674h5.319v1.569a.836.836,0,0,0,.837.837H64.376a.836.836,0,0,0,.837-.837V11.078h5.32a1.676,1.676,0,0,1,1.674,1.674v5.2l-1.075.671a18.435,18.435,0,0,1-4.088,1.816H53.452a.837.837,0,0,0,0,1.673H62.54a.839.839,0,0,0-.025.19v4.762H53.452a.837.837,0,0,0,0,1.673h9.064v2.089H53.452a.837.837,0,0,0,0,1.674H62.61a7.989,7.989,0,0,0,1.043,2.907,9.933,9.933,0,0,0,1.641,2.044H53.452a.837.837,0,0,0,0,1.674H67.346c.979.687,2.009,1.3,2.985,1.881q.432.257.846.506l1.031.623v4.375Zm1.687,1.381a3.339,3.339,0,1,0,3.338,3.34A3.343,3.343,0,0,0,73.894,47.893Zm0,8.38a7.881,7.881,0,0,0-7.764,6.3H81.658A7.885,7.885,0,0,0,73.894,56.273Zm-9.7,6.3a7.934,7.934,0,0,0-15.528,0Zm-17.463,0a7.935,7.935,0,0,0-15.529,0H46.731ZM59.769,51.233a3.339,3.339,0,1,0-3.339,3.339A3.344,3.344,0,0,0,59.769,51.233Zm1.674,0a5.056,5.056,0,0,0-.028-.523h7.493a5.056,5.056,0,0,0-.028.523,5.006,5.006,0,0,0,1.866,3.9A9.607,9.607,0,0,0,65.162,60.2a9.607,9.607,0,0,0-5.585-5.074A5,5,0,0,0,61.443,51.233Zm-17.465,0a5.057,5.057,0,0,0-.027-.523h7.493c-.017.172-.027.346-.027.523a5,5,0,0,0,1.865,3.9A9.6,9.6,0,0,0,47.7,60.2a9.61,9.61,0,0,0-5.584-5.074A5.008,5.008,0,0,0,43.978,51.233Zm-8.352,0a3.339,3.339,0,1,0,3.338-3.339A3.342,3.342,0,0,0,35.626,51.233ZM49.319,11.81h14.22V9.321a.691.691,0,0,0-.811-.682l-3.063.536a.836.836,0,0,1-.981-.825V7.926a2.254,2.254,0,1,0-4.507,0V8.35a.838.838,0,0,1-.981.825l-3.064-.536a.694.694,0,0,0-.812.682Zm24.749,8.236a22.784,22.784,0,0,0,6.374,2.539l1.456.371v8.29a6.392,6.392,0,0,1-.9,3.31c-1.276,2.149-3.836,3.671-6.1,5.014q-.437.259-.857.512l-1,.6-1-.6c-.28-.169-.567-.339-.857-.512-2.259-1.343-4.82-2.866-6.1-5.014a6.4,6.4,0,0,1-.9-3.31v-8.29l1.456-.371a22.765,22.765,0,0,0,6.375-2.539l1.024-.64ZM73.88,42.137V46.22h.014a5.01,5.01,0,0,1,3.147,8.91,9.611,9.611,0,0,1,6.418,8.2.838.838,0,0,1-.834.911H30.234a.838.838,0,0,1-.834-.911,9.611,9.611,0,0,1,6.418-8.2,5.01,5.01,0,0,1,3.147-8.91h.013V12.751A3.352,3.352,0,0,1,42.327,9.4h5.319V9.321A2.365,2.365,0,0,1,50.419,6.99l2.123.371a3.928,3.928,0,0,1,7.774,0L62.44,6.99a2.366,2.366,0,0,1,2.773,2.331V9.4h5.32a3.351,3.351,0,0,1,3.348,3.348v5.2l1.074.671a21.143,21.143,0,0,0,5.9,2.336l2.087.532a.836.836,0,0,1,.629.811v8.94a8.042,8.042,0,0,1-1.136,4.165c-1.494,2.515-4.249,4.153-6.68,5.6-.287.171-.57.339-.846.506l-1.03.623Zm-24.321-4.45L46.545,40.7l-.717-1.24a.836.836,0,1,0-1.448.837l1.261,2.185a.839.839,0,0,0,.616.411.864.864,0,0,0,.11.007.84.84,0,0,0,.592-.245l3.785-3.786a.837.837,0,1,0-1.183-1.183Zm0-10.387-3.014,3.015-.717-1.241a.836.836,0,1,0-1.448.837L45.64,32.1a.839.839,0,0,0,.616.411.864.864,0,0,0,.11.007.84.84,0,0,0,.592-.245l3.785-3.786A.837.837,0,1,0,49.559,27.3Zm0-10.387-3.014,3.014-.717-1.241a.836.836,0,1,0-1.448.837l1.261,2.185a.837.837,0,0,0,.616.411.785.785,0,0,0,.11.008.843.843,0,0,0,.592-.245L50.743,18.1a.837.837,0,1,0-1.183-1.183Zm18.1,24.3H53.451a.837.837,0,1,0,0,1.673h14.21a.837.837,0,0,0,0-1.673Zm-15.046-23.7a.837.837,0,0,0,.837.837h14.3a.837.837,0,0,0,0-1.674h-14.3A.837.837,0,0,0,52.615,17.517Z" transform="translate(0 0)" fill-rule="evenodd"/>
    </g>
  </g>
</svg>
