<svg xmlns="http://www.w3.org/2000/svg" xmlns:xlink="http://www.w3.org/1999/xlink" width="110" height="110" viewBox="0 0 110 110">
  <defs>
    <filter id="Trazado_982547" x="0" y="0" width="110" height="110" filterUnits="userSpaceOnUse">
      <feOffset dy="3" input="SourceAlpha"/>
      <feGaussianBlur stdDeviation="3" result="blur"/>
      <feFlood flood-opacity="0.161"/>
      <feComposite operator="in" in2="blur"/>
      <feComposite in="SourceGraphic"/>
    </filter>
  </defs>
  <g id="Grupo_1166210" data-name="Grupo 1166210" transform="translate(-8220.619 -3359.728)">
    <g id="Grupo_1164714" data-name="Grupo 1164714" transform="translate(8229.619 3365.728)">
      <g id="Grupo_1160931" data-name="Grupo 1160931" transform="translate(0)">
        <g id="Grupo_1160749" data-name="Grupo 1160749" transform="translate(0)">
          <g id="Grupo_1158891" data-name="Grupo 1158891" transform="translate(0 0)">
            <g id="Grupo_1157406" data-name="Grupo 1157406" transform="translate(0)">
              <g id="Grupo_1155793" data-name="Grupo 1155793" transform="translate(0)">
                <g id="Grupo_1154704" data-name="Grupo 1154704" transform="translate(0)">
                  <g id="Grupo_1150790" data-name="Grupo 1150790" transform="translate(0)">
                    <g id="Grupo_1154214" data-name="Grupo 1154214" transform="translate(0)">
                      <g id="Grupo_1152583" data-name="Grupo 1152583" transform="translate(0 0)">
                        <g id="Grupo_1146973" data-name="Grupo 1146973" transform="translate(0 0)">
                          <g id="Grupo_1146954" data-name="Grupo 1146954">
                            <g transform="matrix(1, 0, 0, 1, -9, -6)" filter="url(#Trazado_982547)">
                              <g id="Trazado_982547-2" data-name="Trazado 982547" transform="translate(9 6)" fill="#fcebe9">
                                <path d="M 46.00000381469727 90.49988555908203 C 39.99188232421875 90.49988555908203 34.16427230834961 89.32352447509766 28.67905807495117 87.00347137451172 C 23.38020324707031 84.76226043701172 18.62104415893555 81.55342864990234 14.53375053405762 77.46615600585938 C 10.44647026062012 73.37887573242188 7.237643718719482 68.61971282958984 4.996417045593262 63.32085800170898 C 2.676363706588745 57.83565902709961 1.500003814697266 52.00806045532227 1.500003814697266 45.99993896484375 C 1.500003814697266 39.99181747436523 2.676363706588745 34.16421890258789 4.996417045593262 28.67901802062988 C 7.237643718719482 23.38017845153809 10.44647026062012 18.62101936340332 14.53375053405762 14.53373908996582 C 18.62104415893555 10.44645881652832 23.38020324707031 7.237632274627686 28.67905807495117 4.996418952941895 C 34.16427230834961 2.676365613937378 39.99188232421875 1.500005602836609 46.00000381469727 1.500005602836609 C 52.00812530517578 1.500005602836609 57.83573532104492 2.676365613937378 63.32094955444336 4.996418952941895 C 68.61980438232422 7.237632274627686 73.37897491455078 10.44645881652832 77.46625518798828 14.53373908996582 C 81.55355072021484 18.62101936340332 84.76236724853516 23.38017845153809 87.00359344482422 28.67901802062988 C 89.32364654541016 34.16421890258789 90.5 39.99181747436523 90.5 45.99993896484375 C 90.5 52.00806045532227 89.32364654541016 57.83565902709961 87.00359344482422 63.32085800170898 C 84.76236724853516 68.61971282958984 81.55355072021484 73.37887573242188 77.46625518798828 77.46615600585938 C 73.37897491455078 81.55342864990234 68.61980438232422 84.76226043701172 63.32094955444336 87.00347137451172 C 57.83573532104492 89.32352447509766 52.00812530517578 90.49988555908203 46.00000381469727 90.49988555908203 Z" stroke="none"/>
                                <path d="M 46.00000381469727 2.999992370605469 C 40.19371795654297 2.999992370605469 34.56270217895508 4.136497497558594 29.26338958740234 6.377906799316406 C 24.14333343505859 8.543510437011719 19.54441833496094 11.64437866210938 15.59440612792969 15.59439849853516 C 11.64440155029297 19.54439544677734 8.54351806640625 24.14329528808594 6.377914428710938 29.26335144042969 C 4.136505126953125 34.56266784667969 3.000007629394531 40.19366836547852 3.000007629394531 45.99993896484375 C 3.000007629394531 51.80620956420898 4.136505126953125 57.43722534179688 6.377914428710938 62.73654174804688 C 8.54351806640625 67.85658264160156 11.64440155029297 72.45548248291016 15.59440612792969 76.40549468994141 C 19.54441833496094 80.35549926757812 24.14333343505859 83.45636749267578 29.26337432861328 85.62196350097656 C 34.56270217895508 87.86338043212891 40.19371795654297 88.9998779296875 46.00000381469727 88.9998779296875 C 51.80628967285156 88.9998779296875 57.43730545043945 87.86338043212891 62.73663330078125 85.62196350097656 C 67.85667419433594 83.45636749267578 72.45558929443359 80.35549926757812 76.40560150146484 76.40549468994141 C 80.35560607910156 72.45548248291016 83.45648956298828 67.85658264160156 85.62208557128906 62.73654174804688 C 87.86350250244141 57.43722534179688 89 51.80620956420898 89 45.99993896484375 C 89 40.19366836547852 87.86350250244141 34.56266784667969 85.62208557128906 29.26335144042969 C 83.45648956298828 24.14329528808594 80.35560607910156 19.54439544677734 76.40560150146484 15.59439849853516 C 72.45558929443359 11.64437866210938 67.85667419433594 8.543510437011719 62.73661804199219 6.377906799316406 C 57.43730545043945 4.136497497558594 51.80628967285156 2.999992370605469 46.00000381469727 2.999992370605469 M 46.00000381469727 -7.62939453125e-06 C 71.40510559082031 -7.62939453125e-06 92 20.59487915039062 92 45.99993896484375 C 92 71.40501403808594 71.40510559082031 91.99988555908203 46.00000381469727 91.99988555908203 C 20.59490203857422 91.99988555908203 7.62939453125e-06 71.40501403808594 7.62939453125e-06 45.99993896484375 C 7.62939453125e-06 20.59487915039062 20.59490203857422 -7.62939453125e-06 46.00000381469727 -7.62939453125e-06 Z" stroke="none" fill="#e44b36"/>
                              </g>
                            </g>
                          </g>
                        </g>
                      </g>
                    </g>
                  </g>
                </g>
              </g>
            </g>
          </g>
        </g>
      </g>
    </g>
    <g id="persuasive_2245188" transform="translate(8243.795 3379.728)">
      <g id="Grupo_1166208" data-name="Grupo 1166208">
        <g id="Grupo_1166207" data-name="Grupo 1166207">
          <path id="Trazado_1022551" data-name="Trazado 1022551" d="M52,10l-8,5V5Z" fill="#5cd6b3"/>
          <path id="Trazado_1022552" data-name="Trazado 1022552" d="M54,52v4H39V52H54Z" fill="#5cd6b3"/>
          <path id="Trazado_1022553" data-name="Trazado 1022553" d="M62,54l-8,5V49Z" fill="#5cd6b3"/>
          <path id="Trazado_1022554" data-name="Trazado 1022554" d="M58,32l-8,5V27Z" fill="#5cd6b3"/>
          <path id="Trazado_1022555" data-name="Trazado 1022555" d="M50,30v4H39V30H50Z" fill="#5cd6b3"/>
          <path id="Trazado_1022556" data-name="Trazado 1022556" d="M44,8v4H33V8H44Z" fill="#5cd6b3"/>
        </g>
        <path id="Trazado_1022557" data-name="Trazado 1022557" d="M8,52H2V38.06a9.445,9.445,0,0,1,8.12-9.36l2.86-.41L14,35l2-1.2L18,37,16,47l2.25,3H8Z" fill="#e6e9ed"/>
        <path id="Trazado_1022558" data-name="Trazado 1022558" d="M30,50H19.75L22,47,20,37l2-3.2L24,35l1.02-6.71,2.86.41A9.461,9.461,0,0,1,36,38.06V52H30Z" fill="#e6e9ed"/>
        <path id="Trazado_1022559" data-name="Trazado 1022559" d="M22,33.8,20,37H18l-2-3.2L19,32Z" fill="#ffeaa7"/>
        <path id="Trazado_1022560" data-name="Trazado 1022560" d="M20,37l2,10-2.25,3L19,51l-.75-1L16,47l2-10Z" fill="#ffeaa7"/>
        <path id="Trazado_1022561" data-name="Trazado 1022561" d="M25.02,28.29,24,35l-2-1.2L19,32l4-4Z" fill="#fcd770"/>
        <path id="Trazado_1022562" data-name="Trazado 1022562" d="M19,32l-3,1.8L14,35l-1.02-6.71L15,28Z" fill="#fcd770"/>
        <path id="Trazado_1022563" data-name="Trazado 1022563" d="M30,50V62H8V50H18.25L19,51l.75-1Z" fill="#969faa"/>
        <path id="Trazado_1022564" data-name="Trazado 1022564" d="M36,52v3a3,3,0,0,1-6,0V52Z" fill="#f0d0b4"/>
        <path id="Trazado_1022565" data-name="Trazado 1022565" d="M8,55a3,3,0,0,1-6,0V52H8Z" fill="#f0d0b4"/>
        <path id="Trazado_1022566" data-name="Trazado 1022566" d="M27,13a3,3,0,0,1,0,6H25.92A5.546,5.546,0,0,0,26,18V14.3a4.025,4.025,0,0,0-.21-1.3H27Z" fill="#f0d0b4"/>
        <path id="Trazado_1022567" data-name="Trazado 1022567" d="M26,14.3V18a5.546,5.546,0,0,1-.08,1,6.99,6.99,0,0,1-13.84,0A5.546,5.546,0,0,1,12,18V14.3a4.025,4.025,0,0,1,.21-1.3,4.214,4.214,0,0,1,1.71-2.28A4.27,4.27,0,0,1,16.3,10h5.4a4.27,4.27,0,0,1,2.38.72A4.214,4.214,0,0,1,25.79,13,4.025,4.025,0,0,1,26,14.3Z" fill="#f0d0b4"/>
        <path id="Trazado_1022568" data-name="Trazado 1022568" d="M22.07,24.29,23,28l-4,4-4-4,.93-3.71a6.992,6.992,0,0,0,6.14,0Z" fill="#f0d0b4"/>
        <path id="Trazado_1022569" data-name="Trazado 1022569" d="M12,18a5.546,5.546,0,0,0,.08,1H11a3,3,0,0,1,0-6h1.21A4.025,4.025,0,0,0,12,14.3Z" fill="#f0d0b4"/>
        <path id="Trazado_1022570" data-name="Trazado 1022570" d="M18,10H16.3a4.27,4.27,0,0,0-2.38.72A4.214,4.214,0,0,0,12.21,13H11a2.975,2.975,0,0,0-2.05.81l-.74-2.96A7.135,7.135,0,0,1,15.12,2h7.76a7.132,7.132,0,0,1,6.91,8.85l-.74,2.96A2.975,2.975,0,0,0,27,13H25.79a4.214,4.214,0,0,0-1.71-2.28A4.27,4.27,0,0,0,21.7,10Z" fill="#b27946"/>
      </g>
      <g id="Grupo_1166209" data-name="Grupo 1166209">
        <circle id="Elipse_11887" data-name="Elipse 11887" cx="1" cy="1" r="1" transform="translate(15 15)"/>
        <circle id="Elipse_11888" data-name="Elipse 11888" cx="1" cy="1" r="1" transform="translate(21 15)"/>
        <path id="Trazado_1022571" data-name="Trazado 1022571" d="M22.789,19.658l.1-.211-1.789-.9-.1.212a2.236,2.236,0,0,1-4,0l-.1-.211-1.789.9.1.211a4.236,4.236,0,0,0,7.578,0Z"/>
        <path id="Trazado_1022572" data-name="Trazado 1022572" d="M32.34,29.358a10.522,10.522,0,0,0-4.324-1.652l-4.209-.6-.581-2.325A8.018,8.018,0,0,0,26.737,20H27a3.978,3.978,0,0,0,3.142-6.446l.615-2.461A8.121,8.121,0,0,0,22.877,1H15.123a8.121,8.121,0,0,0-7.88,10.093l.615,2.461A3.978,3.978,0,0,0,11,20h.263a8.015,8.015,0,0,0,3.511,4.78l-.581,2.325-4.209.6A10.464,10.464,0,0,0,1,38.064V55a4,4,0,0,0,4,4,3.959,3.959,0,0,0,2-.556V63H31V58.444A3.959,3.959,0,0,0,33,59a4,4,0,0,0,4-4V38.064a10.444,10.444,0,0,0-4.66-8.706Zm-8.463-.223-.642,4.24L20.613,31.8l2.741-2.741ZM19,49.333l-1.932-2.575L18.82,38h.36l1.751,8.758ZM19.445,36h-.891l-1.167-1.867L19,33.166l1.612.967ZM27,18V14.3c0-.1-.013-.2-.019-.3H27a2,2,0,0,1,0,4ZM9,16a2,2,0,0,1,2-2h.019c-.006.1-.019.2-.019.3V18A2,2,0,0,1,9,16Zm2.534-4H11a3.962,3.962,0,0,0-1.4.267l-.415-1.66A6.121,6.121,0,0,1,15.123,3h7.754a6.122,6.122,0,0,1,5.94,7.608L28.4,12.267A3.962,3.962,0,0,0,27,12h-.534A5.279,5.279,0,0,0,21.7,9H18a1,1,0,0,1,0-2h1V5H18a2.991,2.991,0,0,0-2.777,4.124A5.2,5.2,0,0,0,11.534,12ZM13,18V14.3A3.3,3.3,0,0,1,16.3,11h5.4A3.3,3.3,0,0,1,25,14.3V18a6,6,0,0,1-12,0Zm6,8a8,8,0,0,0,2.379-.361l.514,2.055L19,30.586l-2.893-2.893.514-2.055A7.963,7.963,0,0,0,19,26Zm-4.354,3.06L17.387,31.8l-2.622,1.574-.642-4.24ZM6.768,31.022a8.536,8.536,0,0,1,3.5-1.336l1.876-.268,1.092,7.207,2.437-1.462,1.269,2.031-2.01,10.049L16.25,49H9V37H7V51H3V38.064a8.45,8.45,0,0,1,3.768-7.042ZM5,57a2,2,0,0,1-2-2V53H7v2A2,2,0,0,1,5,57Zm24,4H20V57.908a1.992,1.992,0,0,1,.336-1.109l1.5-2.244-1.664-1.109-1.5,2.244A3.984,3.984,0,0,0,18,57.908V61H9V51h8.75L19,52.667,20.25,51H29Zm4-4a2,2,0,0,1-2-2V53h4v2A2,2,0,0,1,33,57Zm2-6H31V37H29V49H21.75l1.318-1.758-2.01-10.049,1.269-2.031,2.437,1.462,1.092-7.207,1.876.268A8.464,8.464,0,0,1,35,38.064Z"/>
        <path id="Trazado_1022573" data-name="Trazado 1022573" d="M43,16.805,53.887,10,43,3.2V7H39V9h4v2H33v2H43Zm2-10L50.113,10,45,13.195Z"/>
        <path id="Trazado_1022574" data-name="Trazado 1022574" d="M33,7h4V9H33Z"/>
        <path id="Trazado_1022575" data-name="Trazado 1022575" d="M59.887,32,49,25.195V29H45v2h4v2H39v2H49v3.805ZM51,28.805,56.113,32,51,35.195Z"/>
        <path id="Trazado_1022576" data-name="Trazado 1022576" d="M39,29h4v2H39Z"/>
        <path id="Trazado_1022577" data-name="Trazado 1022577" d="M63.887,54,53,47.195V51H49v2h4v2H39v2H53v3.805ZM55,50.805,60.113,54,55,57.195Z"/>
        <path id="Trazado_1022578" data-name="Trazado 1022578" d="M43,51h4v2H43Z"/>
        <path id="Trazado_1022579" data-name="Trazado 1022579" d="M39,51h2v2H39Z"/>
      </g>
    </g>
  </g>
</svg>
