<svg xmlns="http://www.w3.org/2000/svg" xmlns:xlink="http://www.w3.org/1999/xlink" width="110" height="110" viewBox="0 0 110 110">
  <defs>
    <filter id="Trazado_982547" x="0" y="0" width="110" height="110" filterUnits="userSpaceOnUse">
      <feOffset dy="3" input="SourceAlpha"/>
      <feGaussianBlur stdDeviation="3" result="blur"/>
      <feFlood flood-opacity="0.161"/>
      <feComposite operator="in" in2="blur"/>
      <feComposite in="SourceGraphic"/>
    </filter>
  </defs>
  <g id="Grupo_1166196" data-name="Grupo 1166196" transform="translate(-7270.19 -3359.728)">
    <g id="Grupo_1164713" data-name="Grupo 1164713" transform="translate(7279.19 3365.728)">
      <g id="Grupo_1160931" data-name="Grupo 1160931" transform="translate(0)">
        <g id="Grupo_1160749" data-name="Grupo 1160749" transform="translate(0)">
          <g id="Grupo_1158891" data-name="Grupo 1158891" transform="translate(0 0)">
            <g id="Grupo_1157406" data-name="Grupo 1157406" transform="translate(0)">
              <g id="Grupo_1155793" data-name="Grupo 1155793" transform="translate(0)">
                <g id="Grupo_1154704" data-name="Grupo 1154704" transform="translate(0)">
                  <g id="Grupo_1150790" data-name="Grupo 1150790" transform="translate(0)">
                    <g id="Grupo_1154214" data-name="Grupo 1154214" transform="translate(0)">
                      <g id="Grupo_1152583" data-name="Grupo 1152583" transform="translate(0 0)">
                        <g id="Grupo_1146973" data-name="Grupo 1146973" transform="translate(0 0)">
                          <g id="Grupo_1146954" data-name="Grupo 1146954">
                            <g transform="matrix(1, 0, 0, 1, -9, -6)" filter="url(#Trazado_982547)">
                              <g id="Trazado_982547-2" data-name="Trazado 982547" transform="translate(9 6)" fill="#fcebe9">
                                <path d="M 46.00000381469727 90.49988555908203 C 39.99188232421875 90.49988555908203 34.16427230834961 89.32352447509766 28.67905807495117 87.00347137451172 C 23.38020324707031 84.76226043701172 18.62104415893555 81.55342864990234 14.53375053405762 77.46615600585938 C 10.44647026062012 73.37887573242188 7.237643718719482 68.61971282958984 4.996417045593262 63.32085800170898 C 2.676363706588745 57.83565902709961 1.500003814697266 52.00806045532227 1.500003814697266 45.99993896484375 C 1.500003814697266 39.99181747436523 2.676363706588745 34.16421890258789 4.996417045593262 28.67901802062988 C 7.237643718719482 23.38017845153809 10.44647026062012 18.62101936340332 14.53375053405762 14.53373908996582 C 18.62104415893555 10.44645881652832 23.38020324707031 7.237632274627686 28.67905807495117 4.996418952941895 C 34.16427230834961 2.676365613937378 39.99188232421875 1.500005602836609 46.00000381469727 1.500005602836609 C 52.00812530517578 1.500005602836609 57.83573532104492 2.676365613937378 63.32094955444336 4.996418952941895 C 68.61980438232422 7.237632274627686 73.37897491455078 10.44645881652832 77.46625518798828 14.53373908996582 C 81.55355072021484 18.62101936340332 84.76236724853516 23.38017845153809 87.00359344482422 28.67901802062988 C 89.32364654541016 34.16421890258789 90.5 39.99181747436523 90.5 45.99993896484375 C 90.5 52.00806045532227 89.32364654541016 57.83565902709961 87.00359344482422 63.32085800170898 C 84.76236724853516 68.61971282958984 81.55355072021484 73.37887573242188 77.46625518798828 77.46615600585938 C 73.37897491455078 81.55342864990234 68.61980438232422 84.76226043701172 63.32094955444336 87.00347137451172 C 57.83573532104492 89.32352447509766 52.00812530517578 90.49988555908203 46.00000381469727 90.49988555908203 Z" stroke="none"/>
                                <path d="M 46.00000381469727 2.999992370605469 C 40.19371795654297 2.999992370605469 34.56270217895508 4.136497497558594 29.26338958740234 6.377906799316406 C 24.14333343505859 8.543510437011719 19.54441833496094 11.64437866210938 15.59440612792969 15.59439849853516 C 11.64440155029297 19.54439544677734 8.54351806640625 24.14329528808594 6.377914428710938 29.26335144042969 C 4.136505126953125 34.56266784667969 3.000007629394531 40.19366836547852 3.000007629394531 45.99993896484375 C 3.000007629394531 51.80620956420898 4.136505126953125 57.43722534179688 6.377914428710938 62.73654174804688 C 8.54351806640625 67.85658264160156 11.64440155029297 72.45548248291016 15.59440612792969 76.40549468994141 C 19.54441833496094 80.35549926757812 24.14333343505859 83.45636749267578 29.26337432861328 85.62196350097656 C 34.56270217895508 87.86338043212891 40.19371795654297 88.9998779296875 46.00000381469727 88.9998779296875 C 51.80628967285156 88.9998779296875 57.43730545043945 87.86338043212891 62.73663330078125 85.62196350097656 C 67.85667419433594 83.45636749267578 72.45558929443359 80.35549926757812 76.40560150146484 76.40549468994141 C 80.35560607910156 72.45548248291016 83.45648956298828 67.85658264160156 85.62208557128906 62.73654174804688 C 87.86350250244141 57.43722534179688 89 51.80620956420898 89 45.99993896484375 C 89 40.19366836547852 87.86350250244141 34.56266784667969 85.62208557128906 29.26335144042969 C 83.45648956298828 24.14329528808594 80.35560607910156 19.54439544677734 76.40560150146484 15.59439849853516 C 72.45558929443359 11.64437866210938 67.85667419433594 8.543510437011719 62.73661804199219 6.377906799316406 C 57.43730545043945 4.136497497558594 51.80628967285156 2.999992370605469 46.00000381469727 2.999992370605469 M 46.00000381469727 -7.62939453125e-06 C 71.40510559082031 -7.62939453125e-06 92 20.59487915039062 92 45.99993896484375 C 92 71.40501403808594 71.40510559082031 91.99988555908203 46.00000381469727 91.99988555908203 C 20.59490203857422 91.99988555908203 7.62939453125e-06 71.40501403808594 7.62939453125e-06 45.99993896484375 C 7.62939453125e-06 20.59487915039062 20.59490203857422 -7.62939453125e-06 46.00000381469727 -7.62939453125e-06 Z" stroke="none" fill="#e44b36"/>
                              </g>
                            </g>
                          </g>
                        </g>
                      </g>
                    </g>
                  </g>
                </g>
              </g>
            </g>
          </g>
        </g>
      </g>
    </g>
    <g id="assembly-point_17228754" transform="translate(7293.644 3380.184)">
      <g id="Grupo_1166204" data-name="Grupo 1166204" transform="translate(2.779 2.776)">
        <g id="Grupo_1166203" data-name="Grupo 1166203" transform="translate(8.34 8.615)">
          <g id="Grupo_1166199" data-name="Grupo 1166199" transform="translate(11.887 0)">
            <path id="Trazado_1022524" data-name="Trazado 1022524" d="M26.043,20.726h0a4.367,4.367,0,0,1-4.3-3.58l-.414-2.258a4.787,4.787,0,0,1,4.709-5.65h0a4.787,4.787,0,0,1,4.709,5.65l-.414,2.258a4.367,4.367,0,0,1-4.3,3.58Z" transform="translate(-17.502 -9.238)" fill="#ffccc8"/>
            <path id="Trazado_1022525" data-name="Trazado 1022525" d="M35.4,23.426v4.185a2.311,2.311,0,0,1-2.042,2.294,54.811,54.811,0,0,1-6.5.373,54.811,54.811,0,0,1-6.5-.373,2.311,2.311,0,0,1-2.042-2.294V23.426a5.2,5.2,0,0,1,5.2-5.2H30.2a5.2,5.2,0,0,1,5.2,5.2Z" transform="translate(-18.32 -6.735)" fill="#cd8db0"/>
          </g>
          <g id="Grupo_1166200" data-name="Grupo 1166200" transform="translate(0 9.703)">
            <path id="Trazado_1022526" data-name="Trazado 1022526" d="M16.746,28.315h0a4.367,4.367,0,0,1-4.3-3.58l-.414-2.258a4.787,4.787,0,0,1,4.709-5.65h0a4.787,4.787,0,0,1,4.709,5.65l-.414,2.258A4.367,4.367,0,0,1,16.746,28.315Z" transform="translate(-8.205 -16.827)" fill="#ffccc8"/>
            <path id="Trazado_1022527" data-name="Trazado 1022527" d="M26.1,31.016V35.2A2.311,2.311,0,0,1,24.063,37.5a54.811,54.811,0,0,1-6.5.373,54.811,54.811,0,0,1-6.5-.373A2.311,2.311,0,0,1,9.023,35.2V31.016a5.2,5.2,0,0,1,5.2-5.2H20.9a5.2,5.2,0,0,1,5.2,5.2Z" transform="translate(-9.023 -14.324)" fill="#feeb82"/>
          </g>
          <g id="Grupo_1166201" data-name="Grupo 1166201" transform="translate(23.774 9.703)">
            <path id="Trazado_1022528" data-name="Trazado 1022528" d="M35.341,28.315h0a4.367,4.367,0,0,1-4.3-3.58l-.414-2.258a4.787,4.787,0,0,1,4.709-5.65h0a4.787,4.787,0,0,1,4.709,5.65l-.414,2.258A4.367,4.367,0,0,1,35.341,28.315Z" transform="translate(-26.8 -16.827)" fill="#ffccc8"/>
            <path id="Trazado_1022529" data-name="Trazado 1022529" d="M44.7,31.016V35.2A2.311,2.311,0,0,1,42.657,37.5a54.811,54.811,0,0,1-6.5.373,54.811,54.811,0,0,1-6.5-.373A2.311,2.311,0,0,1,27.617,35.2V31.016a5.2,5.2,0,0,1,5.2-5.2H39.5a5.2,5.2,0,0,1,5.2,5.2Z" transform="translate(-27.617 -14.324)" fill="#63b9f0"/>
          </g>
          <g id="Grupo_1166202" data-name="Grupo 1166202" transform="translate(11.887 16.762)">
            <path id="Trazado_1022530" data-name="Trazado 1022530" d="M26.043,33.835h0a4.367,4.367,0,0,1-4.3-3.58L21.334,28a4.787,4.787,0,0,1,4.709-5.65h0A4.787,4.787,0,0,1,30.752,28l-.414,2.258a4.367,4.367,0,0,1-4.3,3.58Z" transform="translate(-17.502 -22.347)" fill="#ffccc8"/>
            <path id="Trazado_1022531" data-name="Trazado 1022531" d="M35.4,36.536v4.185a2.311,2.311,0,0,1-2.042,2.294,54.811,54.811,0,0,1-6.5.373,54.811,54.811,0,0,1-6.5-.373,2.311,2.311,0,0,1-2.042-2.294V36.536a5.2,5.2,0,0,1,5.2-5.2H30.2a5.2,5.2,0,0,1,5.2,5.2Z" transform="translate(-18.32 -19.844)" fill="#ff796d"/>
          </g>
        </g>
        <path id="Trazado_1022532" data-name="Trazado 1022532" d="M14.109,5.758l-.329,6.884a1.2,1.2,0,0,1-1.138,1.138l-6.884.329a1.2,1.2,0,0,1-.9-2.041l1.8-1.8-3.79-3.79a1.239,1.239,0,0,1,0-1.753L4.726,2.863a1.239,1.239,0,0,1,1.753,0l3.79,3.79,1.8-1.8a1.2,1.2,0,0,1,2.041.9Zm43.572,6.31-1.8-1.8,3.79-3.79a1.239,1.239,0,0,0,0-1.753L57.809,2.863a1.239,1.239,0,0,0-1.753,0l-3.79,3.79-1.8-1.8a1.2,1.2,0,0,0-2.041.9l.329,6.884a1.2,1.2,0,0,0,1.138,1.138l6.884.329a1.2,1.2,0,0,0,.9-2.041ZM14.109,56.777l-.329-6.884a1.2,1.2,0,0,0-1.138-1.138l-6.884-.329a1.2,1.2,0,0,0-.9,2.041l1.8,1.8-3.79,3.79a1.239,1.239,0,0,0,0,1.753l1.863,1.863a1.239,1.239,0,0,0,1.753,0l3.79-3.79,1.8,1.8a1.2,1.2,0,0,0,2.041-.9Zm42.669-8.351-6.884.329a1.2,1.2,0,0,0-1.138,1.138l-.329,6.884a1.2,1.2,0,0,0,2.041.9l1.8-1.8,3.79,3.79a1.239,1.239,0,0,0,1.753,0l1.863-1.863a1.239,1.239,0,0,0,0-1.753l-3.79-3.79,1.8-1.8a1.2,1.2,0,0,0-.9-2.041Z" transform="translate(-2.5 -2.5)" fill="#9bb77d"/>
      </g>
      <path id="Trazado_1022533" data-name="Trazado 1022533" d="M50.085,45.522a3.6,3.6,0,0,0,3.168-3.564V37.774a6.491,6.491,0,0,0-5.205-6.353,5.6,5.6,0,0,0,.938-2.2l.415-2.259a6.058,6.058,0,0,0-11.079-4.351,6.481,6.481,0,0,0-2.165-.888,5.6,5.6,0,0,0,.941-2.205l.415-2.258a6.066,6.066,0,1,0-11.933,0l.413,2.258a5.6,5.6,0,0,0,.942,2.2,6.484,6.484,0,0,0-2.165.888,6.064,6.064,0,0,0-11.078,4.352l.414,2.259a5.6,5.6,0,0,0,.938,2.2,6.491,6.491,0,0,0-5.205,6.353v4.185a3.6,3.6,0,0,0,3.168,3.564,56.035,56.035,0,0,0,6.651.383c.7,0,1.38-.032,2.068-.055v3.168A3.6,3.6,0,0,0,24.9,52.581a56.034,56.034,0,0,0,6.651.383,56.034,56.034,0,0,0,6.651-.383,3.6,3.6,0,0,0,3.168-3.564V45.85c.687.024,1.37.055,2.068.055a56.034,56.034,0,0,0,6.651-.383ZM43.434,22.361a3.51,3.51,0,0,1,3.452,4.14l-.414,2.259a3.088,3.088,0,0,1-6.076,0L39.982,26.5a3.509,3.509,0,0,1,3.452-4.14ZM28.851,13.92A3.509,3.509,0,0,1,35,16.8l-.415,2.258a3.088,3.088,0,0,1-6.075,0L28.1,16.8a3.5,3.5,0,0,1,.756-2.879Zm-.642,10.225h6.674a3.918,3.918,0,0,1,2.537.958,6.062,6.062,0,0,0,.047,1.859l.413,2.259a5.6,5.6,0,0,0,.937,2.2,6.382,6.382,0,0,0-1.312.412,6.057,6.057,0,0,0-11.921.005,6.493,6.493,0,0,0-1.316-.41,5.6,5.6,0,0,0,.942-2.205l.414-2.259a6.062,6.062,0,0,0,.047-1.859,3.92,3.92,0,0,1,2.537-.958Zm.3,11.673L28.1,33.56a3.509,3.509,0,1,1,6.9,0l-.415,2.258a3.088,3.088,0,0,1-6.075,0ZM16.964,23.623A3.509,3.509,0,0,1,23.111,26.5L22.7,28.76a3.088,3.088,0,0,1-6.075,0L16.208,26.5a3.5,3.5,0,0,1,.756-2.878ZM13.312,42.984a1.037,1.037,0,0,1-.916-1.025V37.774a3.93,3.93,0,0,1,3.926-3.925H23a3.924,3.924,0,0,1,2.765,1.16l.232,1.27a5.6,5.6,0,0,0,.938,2.2,6.488,6.488,0,0,0-5,4.814,55.488,55.488,0,0,1-8.619-.308Zm25.5,6.033a1.037,1.037,0,0,1-.916,1.025,55.754,55.754,0,0,1-12.693,0,1.037,1.037,0,0,1-.916-1.025V44.832a3.93,3.93,0,0,1,3.926-3.926h6.674a3.93,3.93,0,0,1,3.926,3.926Zm2.352-5.725a6.488,6.488,0,0,0-5-4.813,5.6,5.6,0,0,0,.938-2.2L37.334,35A3.887,3.887,0,0,1,40.1,33.849H46.77A3.93,3.93,0,0,1,50.7,37.774v4.185a1.037,1.037,0,0,1-.916,1.025A55.784,55.784,0,0,1,41.161,43.292ZM5.123,10.534l-.895.894a2.475,2.475,0,0,0,1.748,4.225c.04,0,.081,0,.121,0l6.884-.329a2.465,2.465,0,0,0,2.354-2.354l.329-6.884a2.475,2.475,0,0,0-4.222-1.869l-.895.895L7.662,2.224a2.576,2.576,0,0,0-3.562,0L2.238,4.086a2.517,2.517,0,0,0,0,3.561Zm.73-6.5,3.79,3.79a1.278,1.278,0,0,0,1.808,0L13.1,6.171l-.243,6.6-6.672.319,1.649-1.648a1.278,1.278,0,0,0,0-1.808L4.046,5.894,5.854,4.031Zm44.257,11.29,6.884.329c.041,0,.082,0,.122,0a2.475,2.475,0,0,0,1.746-4.225l-.895-.895,2.886-2.886a2.517,2.517,0,0,0,0-3.562L58.992,2.223a2.577,2.577,0,0,0-3.561,0L52.545,5.109l-.894-.895a2.476,2.476,0,0,0-4.223,1.869l.329,6.884a2.465,2.465,0,0,0,2.354,2.354Zm1.53-7.5a1.278,1.278,0,0,0,1.808,0l3.735-3.79,1.863,1.808-3.79,3.79a1.278,1.278,0,0,0,0,1.808l1.651,1.651-6.6-.243-.319-6.672ZM12.981,47.742,6.1,47.413a2.475,2.475,0,0,0-1.868,4.223l.894.894L2.238,55.416a2.517,2.517,0,0,0,0,3.562L4.1,60.84a2.517,2.517,0,0,0,3.561,0l2.886-2.886.895.895a2.475,2.475,0,0,0,4.222-1.869L15.336,50.1a2.465,2.465,0,0,0-2.354-2.354Zm-1.53,7.5a1.278,1.278,0,0,0-1.808,0l-3.735,3.79L4.046,57.224l3.79-3.79a1.278,1.278,0,0,0,0-1.808L6.185,49.976l6.6.243L13.1,56.89l-1.648-1.648ZM57.968,52.53l.895-.895a2.475,2.475,0,0,0-1.869-4.222l-6.884.329A2.465,2.465,0,0,0,47.757,50.1l-.329,6.884a2.475,2.475,0,0,0,4.223,1.868l.894-.894L55.43,60.84a2.517,2.517,0,0,0,3.562,0l1.863-1.863a2.517,2.517,0,0,0,0-3.561L57.968,52.53Zm-.73,6.5-3.79-3.79a1.278,1.278,0,0,0-1.808,0L49.99,56.893l.243-6.6,6.671-.319-1.648,1.648a1.278,1.278,0,0,0,0,1.808l3.79,3.735-1.808,1.863Z" transform="translate(0 0)" fill="#261d2b"/>
    </g>
  </g>
</svg>
