<svg xmlns="http://www.w3.org/2000/svg" xmlns:xlink="http://www.w3.org/1999/xlink" width="110" height="110" viewBox="0 0 110 110">
  <defs>
    <filter id="Trazado_982547" x="0" y="0" width="110" height="110" filterUnits="userSpaceOnUse">
      <feOffset dy="3" input="SourceAlpha"/>
      <feGaussianBlur stdDeviation="3" result="blur"/>
      <feFlood flood-opacity="0.161"/>
      <feComposite operator="in" in2="blur"/>
      <feComposite in="SourceGraphic"/>
    </filter>
  </defs>
  <g id="Grupo_1166193" data-name="Grupo 1166193" transform="translate(-8220.619 -2860.728)">
    <g id="Grupo_1164710" data-name="Grupo 1164710" transform="translate(8229.619 2866.728)">
      <g id="Grupo_1160931" data-name="Grupo 1160931" transform="translate(0)">
        <g id="Grupo_1160749" data-name="Grupo 1160749" transform="translate(0)">
          <g id="Grupo_1158891" data-name="Grupo 1158891" transform="translate(0 0)">
            <g id="Grupo_1157406" data-name="Grupo 1157406" transform="translate(0)">
              <g id="Grupo_1155793" data-name="Grupo 1155793" transform="translate(0)">
                <g id="Grupo_1154704" data-name="Grupo 1154704" transform="translate(0)">
                  <g id="Grupo_1150790" data-name="Grupo 1150790" transform="translate(0)">
                    <g id="Grupo_1154214" data-name="Grupo 1154214" transform="translate(0)">
                      <g id="Grupo_1152583" data-name="Grupo 1152583" transform="translate(0 0)">
                        <g id="Grupo_1146973" data-name="Grupo 1146973" transform="translate(0 0)">
                          <g id="Grupo_1146954" data-name="Grupo 1146954">
                            <g transform="matrix(1, 0, 0, 1, -9, -6)" filter="url(#Trazado_982547)">
                              <g id="Trazado_982547-2" data-name="Trazado 982547" transform="translate(9 6)" fill="#fcebe9">
                                <path d="M 46.00000381469727 90.49988555908203 C 39.99188232421875 90.49988555908203 34.16427230834961 89.32352447509766 28.67905807495117 87.00347137451172 C 23.38020324707031 84.76226043701172 18.62104415893555 81.55342864990234 14.53375053405762 77.46615600585938 C 10.44647026062012 73.37887573242188 7.237643718719482 68.61971282958984 4.996417045593262 63.32085800170898 C 2.676363706588745 57.83565902709961 1.500003814697266 52.00806045532227 1.500003814697266 45.99993896484375 C 1.500003814697266 39.99181747436523 2.676363706588745 34.16421890258789 4.996417045593262 28.67901802062988 C 7.237643718719482 23.38017845153809 10.44647026062012 18.62101936340332 14.53375053405762 14.53373908996582 C 18.62104415893555 10.44645881652832 23.38020324707031 7.237632274627686 28.67905807495117 4.996418952941895 C 34.16427230834961 2.676365613937378 39.99188232421875 1.500005602836609 46.00000381469727 1.500005602836609 C 52.00812530517578 1.500005602836609 57.83573532104492 2.676365613937378 63.32094955444336 4.996418952941895 C 68.61980438232422 7.237632274627686 73.37897491455078 10.44645881652832 77.46625518798828 14.53373908996582 C 81.55355072021484 18.62101936340332 84.76236724853516 23.38017845153809 87.00359344482422 28.67901802062988 C 89.32364654541016 34.16421890258789 90.5 39.99181747436523 90.5 45.99993896484375 C 90.5 52.00806045532227 89.32364654541016 57.83565902709961 87.00359344482422 63.32085800170898 C 84.76236724853516 68.61971282958984 81.55355072021484 73.37887573242188 77.46625518798828 77.46615600585938 C 73.37897491455078 81.55342864990234 68.61980438232422 84.76226043701172 63.32094955444336 87.00347137451172 C 57.83573532104492 89.32352447509766 52.00812530517578 90.49988555908203 46.00000381469727 90.49988555908203 Z" stroke="none"/>
                                <path d="M 46.00000381469727 2.999992370605469 C 40.19371795654297 2.999992370605469 34.56270217895508 4.136497497558594 29.26338958740234 6.377906799316406 C 24.14333343505859 8.543510437011719 19.54441833496094 11.64437866210938 15.59440612792969 15.59439849853516 C 11.64440155029297 19.54439544677734 8.54351806640625 24.14329528808594 6.377914428710938 29.26335144042969 C 4.136505126953125 34.56266784667969 3.000007629394531 40.19366836547852 3.000007629394531 45.99993896484375 C 3.000007629394531 51.80620956420898 4.136505126953125 57.43722534179688 6.377914428710938 62.73654174804688 C 8.54351806640625 67.85658264160156 11.64440155029297 72.45548248291016 15.59440612792969 76.40549468994141 C 19.54441833496094 80.35549926757812 24.14333343505859 83.45636749267578 29.26337432861328 85.62196350097656 C 34.56270217895508 87.86338043212891 40.19371795654297 88.9998779296875 46.00000381469727 88.9998779296875 C 51.80628967285156 88.9998779296875 57.43730545043945 87.86338043212891 62.73663330078125 85.62196350097656 C 67.85667419433594 83.45636749267578 72.45558929443359 80.35549926757812 76.40560150146484 76.40549468994141 C 80.35560607910156 72.45548248291016 83.45648956298828 67.85658264160156 85.62208557128906 62.73654174804688 C 87.86350250244141 57.43722534179688 89 51.80620956420898 89 45.99993896484375 C 89 40.19366836547852 87.86350250244141 34.56266784667969 85.62208557128906 29.26335144042969 C 83.45648956298828 24.14329528808594 80.35560607910156 19.54439544677734 76.40560150146484 15.59439849853516 C 72.45558929443359 11.64437866210938 67.85667419433594 8.543510437011719 62.73661804199219 6.377906799316406 C 57.43730545043945 4.136497497558594 51.80628967285156 2.999992370605469 46.00000381469727 2.999992370605469 M 46.00000381469727 -7.62939453125e-06 C 71.40510559082031 -7.62939453125e-06 92 20.59487915039062 92 45.99993896484375 C 92 71.40501403808594 71.40510559082031 91.99988555908203 46.00000381469727 91.99988555908203 C 20.59490203857422 91.99988555908203 7.62939453125e-06 71.40501403808594 7.62939453125e-06 45.99993896484375 C 7.62939453125e-06 20.59487915039062 20.59490203857422 -7.62939453125e-06 46.00000381469727 -7.62939453125e-06 Z" stroke="none" fill="#e44b36"/>
                              </g>
                            </g>
                          </g>
                        </g>
                      </g>
                    </g>
                  </g>
                </g>
              </g>
            </g>
          </g>
        </g>
      </g>
    </g>
    <g id="assembly-point_7071904" transform="translate(8243.58 2880.65)">
      <ellipse id="Elipse_11881" data-name="Elipse 11881" cx="10" cy="4" rx="10" ry="4" transform="translate(22 24)" fill="#e59876"/>
      <path id="Trazado_1022460" data-name="Trazado 1022460" d="M32,3a8,8,0,0,1,7.19,11.63L32,29,24.81,14.63A8,8,0,0,1,32,3Z" fill="#dc2725"/>
      <circle id="Elipse_11882" data-name="Elipse 11882" cx="4" cy="4" r="4" transform="translate(28 7)" fill="#fda41a"/>
      <path id="Trazado_1022461" data-name="Trazado 1022461" d="M21,11,15,7V9H3v4H15v2Z" fill="#7fc8e2"/>
      <path id="Trazado_1022462" data-name="Trazado 1022462" d="M43,10l6-4V8H61v4H49v2Z" fill="#7fc8e2"/>
      <path id="Trazado_1022463" data-name="Trazado 1022463" d="M42.14,46.84l-5.14,4L41.33,61l3.74-3.76-2.05-4.32,10.27-7.99-.88-6.08-1.32-9.12L40.16,33.17l.88,6.08Z" fill="#7f7f7f"/>
      <g id="Grupo_1166192" data-name="Grupo 1166192">
        <path id="Trazado_1022464" data-name="Trazado 1022464" d="M32,40.15l3.9,3.09,5.14-3.99-.88-6.08-5.14,3.99-.31-.11.31.11,5.14-3.99" fill="#4c4c4c"/>
        <path id="Trazado_1022465" data-name="Trazado 1022465" d="M51.09,29.73,61,38.93l-.95,3.28-7.64-3.36" fill="#4c4c4c"/>
        <path id="Trazado_1022466" data-name="Trazado 1022466" d="M34.71,37.05l.31.11,5.14-3.99" fill="#4c4c4c"/>
        <path id="Trazado_1022467" data-name="Trazado 1022467" d="M53.29,44.93l.88,6.08L60,53l.66,4.56-10.23-2.8-1.88-6.14" fill="#4c4c4c"/>
      </g>
      <path id="Trazado_1022468" data-name="Trazado 1022468" d="M21.86,46.84l5.14,4L22.67,61l-3.74-3.76,2.05-4.32L10.71,44.93l.88-6.08,1.32-9.12,10.93,3.44-.88,6.08Z" fill="#7f7f7f"/>
      <path id="Trazado_1022469" data-name="Trazado 1022469" d="M12.91,29.73,3,38.93l.96,3.28,7.63-3.36" fill="#4c4c4c"/>
      <path id="Trazado_1022470" data-name="Trazado 1022470" d="M22.96,39.25l5.14,3.99,6.46-5.12L35,35.08l-6.02,2.08-5.14-3.99" fill="#4c4c4c"/>
      <path id="Trazado_1022471" data-name="Trazado 1022471" d="M10.71,44.93l-.88,6.08L4,53l-.66,4.56,10.23-2.8,1.88-6.14" fill="#4c4c4c"/>
      <circle id="Elipse_11883" data-name="Elipse 11883" cx="4" cy="4" r="4" transform="translate(17 22)" fill="#6d6d6d"/>
      <circle id="Elipse_11884" data-name="Elipse 11884" cx="4" cy="4" r="4" transform="translate(39 22)" fill="#6d6d6d"/>
      <path id="Trazado_1022472" data-name="Trazado 1022472" d="M2,60H14v2H2Z"/>
      <path id="Trazado_1022473" data-name="Trazado 1022473" d="M3,14H14v1a.988.988,0,0,0,1.53.83l6-4a1,1,0,0,0,0-1.66l-6-4A1.033,1.033,0,0,0,14,7V8H3A1,1,0,0,0,2,9v4a1,1,0,0,0,1,1Zm1-4H15a1,1,0,0,0,1-1V8.87L19.2,11,16,13.13V13a1,1,0,0,0-1-1H4Z"/>
      <path id="Trazado_1022474" data-name="Trazado 1022474" d="M16,60h2v2H16Z"/>
      <path id="Trazado_1022475" data-name="Trazado 1022475" d="M50,60H62v2H50Z"/>
      <path id="Trazado_1022476" data-name="Trazado 1022476" d="M61,7H50V6a1.03,1.03,0,0,0-1.53-.88l-6,4a1,1,0,0,0,0,1.66l6,4A1,1,0,0,0,50,14V13H61a1,1,0,0,0,1-1V8A1,1,0,0,0,61,7Zm-1,4H49a1,1,0,0,0-1,1v.13L44.8,10,48,7.87V8a1,1,0,0,0,1,1H60Z"/>
      <path id="Trazado_1022477" data-name="Trazado 1022477" d="M60.4,58.52a.75.75,0,0,0,.26,0,1,1,0,0,0,1-1.14L61,52.86a1,1,0,0,0-.67-.81l-5.25-1.79-1.41-9.77,6,2.63a1,1,0,0,0,.41.09,1.06,1.06,0,0,0,.42-.09,1.08,1.08,0,0,0,.54-.63l1-3.28a1,1,0,0,0-.28-1L51.77,29l-.14-.12a1,1,0,0,0-.84-.1l-6,1.88a4.982,4.982,0,1,0-5.85-7.56,5.17,5.17,0,0,0-.5.84,18.37,18.37,0,0,0-2.5-.59l4.12-8.23a9,9,0,1,0-16.16,0L28,23.31a18.37,18.37,0,0,0-2.5.59,5.17,5.17,0,0,0-.5-.84,5,5,0,1,0-8,5.88,4.9,4.9,0,0,0,2.25,1.72l-6-1.88a1,1,0,0,0-.84.1l-.14.12L2.32,38.2a1,1,0,0,0-.28,1l1,3.28a1.08,1.08,0,0,0,.54.63A1.06,1.06,0,0,0,4,43.2a1,1,0,0,0,.41-.09l6-2.63L8.93,50.26,3.68,52.05a1,1,0,0,0-.67.81l-.66,4.56a1,1,0,0,0,1,1.14.75.75,0,0,0,.26,0l10.24-2.79a1,1,0,0,0,.69-.67L16,50.3l3.76,2.92L18,56.81A1,1,0,0,0,18.22,58L22,61.71a1,1,0,0,0,.7.29h.19a1,1,0,0,0,.73-.59l4.33-10.16a1,1,0,0,0-.3-1.18l-4.68-3.64.77-5.32L27.49,44a1,1,0,0,0,1.23,0L32,41.43,35.28,44a.987.987,0,0,0,1.23.01l3.78-2.93.77,5.31-4.68,3.64a1,1,0,0,0-.3,1.18l4.33,10.16a1,1,0,0,0,.73.59h.19a1,1,0,0,0,.7-.29L45.78,58A1,1,0,0,0,46,56.81l-1.71-3.59L48,50.3l1.45,4.76a1,1,0,0,0,.69.67Zm-1-17.69-6.08-2.67-.83-5.77,7.38,6.85ZM42.53,23a3,3,0,1,1-2,1.2,3,3,0,0,1,2-1.2ZM26,7.34a7.024,7.024,0,1,1,12.27,6.84L32,26.76,25.71,14.18A7,7,0,0,1,26,7.34Zm5.09,22.11a1,1,0,0,0,1.78,0L35,25.2a17,17,0,0,1,3,.66,4.78,4.78,0,0,0,.05.92,5,5,0,0,0,1.42,2.75A16.77,16.77,0,0,1,32,31a16.77,16.77,0,0,1-7.48-1.47,5,5,0,0,0,1.42-2.75,4.78,4.78,0,0,0,0-.92,17,17,0,0,1,3-.66ZM18,25.53A3,3,0,0,1,21,23a2.59,2.59,0,0,1,.48,0A3,3,0,1,1,18,25.53Zm2.18,5.41A5.25,5.25,0,0,0,21,31a4.8,4.8,0,0,0,1.64-.29C24.58,32.13,28.06,33,32,33s7.42-.87,9.35-2.29A4.8,4.8,0,0,0,43,31a5.35,5.35,0,0,0,.79-.06,5.12,5.12,0,0,0,.77-.2l-4.69,1.47a.89.89,0,0,0-.33.19L36,35.14a1,1,0,0,0-1.35-1L29.17,36l-4.71-3.66a1.09,1.09,0,0,0-.32-.17L19.45,30.7a4.83,4.83,0,0,0,.77.24ZM4.6,40.83l-.47-1.59,7.38-6.85-.83,5.77Zm8.18,13.11L4.55,56.19l.35-2.44L10.15,52a1,1,0,0,0,.67-.8l.63-4.38L14.29,49Zm13-2.78-3.44,8.08L20.14,57l1.75-3.69a1,1,0,0,0-.29-1.22l-9.82-7.64,2-13.45,9,2.83L20.87,46.7a1,1,0,0,0,.38.93ZM28.1,42,24,38.81l.55-3.8L28.37,38a1,1,0,0,0,.94.16l4.46-1.54-.14,1Zm7.81,0-2.3-1.82,1.57-1.24a1,1,0,0,0,.37-.64V38l3.86-3,.55,3.8Zm6.2,11.38L43.86,57l-2.2,2.2-3.44-8.08,4.53-3.53a1,1,0,0,0,.38-.93L41.27,33.87l9-2.83,1.95,13.45L42.4,52.13a1,1,0,0,0-.29,1.22ZM49.71,49l2.84-2.21.63,4.38a1,1,0,0,0,.67.8l5.25,1.8.35,2.44-8.23-2.25Z"/>
      <path id="Trazado_1022478" data-name="Trazado 1022478" d="M46,60h2v2H46Z"/>
      <path id="Trazado_1022479" data-name="Trazado 1022479" d="M37,11a5,5,0,1,0-5,5A5,5,0,0,0,37,11Zm-8,0a3,3,0,1,1,3,3A3,3,0,0,1,29,11Z"/>
    </g>
  </g>
</svg>
