<svg xmlns="http://www.w3.org/2000/svg" xmlns:xlink="http://www.w3.org/1999/xlink" width="113" height="113" viewBox="0 0 113 113">
  <defs>
    <filter id="Trazado_982547" x="0" y="0" width="113" height="113" filterUnits="userSpaceOnUse">
      <feOffset dy="3" input="SourceAlpha"/>
      <feGaussianBlur stdDeviation="3" result="blur"/>
      <feFlood flood-opacity="0.161"/>
      <feComposite operator="in" in2="blur"/>
      <feComposite in="SourceGraphic"/>
    </filter>
  </defs>
  <g id="Grupo_1171046" data-name="Grupo 1171046" transform="translate(-324 -6604.145)">
    <g id="Grupo_1148525" data-name="Grupo 1148525" transform="translate(333 6610.145)">
      <g transform="matrix(1, 0, 0, 1, -9, -6)" filter="url(#Trazado_982547)">
        <g id="Trazado_982547-2" data-name="Trazado 982547" transform="translate(9 6)" fill="#e8e7f2">
          <path d="M 47.5 93.5 C 41.28937149047852 93.5 35.26533508300781 92.28397369384766 29.59518623352051 89.88570404052734 C 24.11771965026855 87.56893157958984 19.19813346862793 84.25196075439453 14.97309303283691 80.02691650390625 C 10.74804019927979 75.80186462402344 7.431066513061523 70.88229370117188 5.114293098449707 65.40481567382812 C 2.716026782989502 59.73468017578125 1.5 53.71062850952148 1.5 47.5 C 1.5 41.28937149047852 2.716026782989502 35.26533508300781 5.114293098449707 29.59518623352051 C 7.431066513061523 24.11771965026855 10.74804019927979 19.19813346862793 14.97309303283691 14.97309303283691 C 19.19813346862793 10.74804019927979 24.11771965026855 7.431066513061523 29.59518623352051 5.114293098449707 C 35.26533508300781 2.716026782989502 41.28937149047852 1.5 47.5 1.5 C 53.71062850952148 1.5 59.73468017578125 2.716026782989502 65.40481567382812 5.114293098449707 C 70.88229370117188 7.431066513061523 75.80186462402344 10.74804019927979 80.02691650390625 14.97309303283691 C 84.25196075439453 19.19813346862793 87.56893157958984 24.11771965026855 89.88570404052734 29.59518623352051 C 92.28397369384766 35.26533508300781 93.5 41.28937149047852 93.5 47.5 C 93.5 53.71062850952148 92.28397369384766 59.73468017578125 89.88570404052734 65.40481567382812 C 87.56893157958984 70.88229370117188 84.25196075439453 75.80186462402344 80.02691650390625 80.02691650390625 C 75.80186462402344 84.25196075439453 70.88229370117188 87.56893157958984 65.40481567382812 89.88570404052734 C 59.73468017578125 92.28397369384766 53.71062850952148 93.5 47.5 93.5 Z" stroke="none"/>
          <path d="M 47.5 3 C 41.49121475219727 3 35.66376876831055 4.176155090332031 30.17950439453125 6.495796203613281 C 24.88084411621094 8.736953735351562 20.12152099609375 11.94598388671875 16.03375244140625 16.03375244140625 C 11.94598388671875 20.12152099609375 8.736953735351562 24.88084411621094 6.495796203613281 30.17950439453125 C 4.176155090332031 35.66376876831055 3 41.49121475219727 3 47.5 C 3 53.50878524780273 4.176155090332031 59.33623123168945 6.495796203613281 64.82049560546875 C 8.736953735351562 70.11915588378906 11.94598388671875 74.87847900390625 16.03375244140625 78.96624755859375 C 20.12152099609375 83.05401611328125 24.88084411621094 86.26304626464844 30.17950439453125 88.50419616699219 C 35.66376876831055 90.82384490966797 41.49121475219727 92 47.5 92 C 53.50878524780273 92 59.33623123168945 90.82384490966797 64.82049560546875 88.50419616699219 C 70.11915588378906 86.26304626464844 74.87847900390625 83.05401611328125 78.96624755859375 78.96624755859375 C 83.05401611328125 74.87847900390625 86.26304626464844 70.11915588378906 88.50419616699219 64.82049560546875 C 90.82384490966797 59.33623123168945 92 53.50878524780273 92 47.5 C 92 41.49121475219727 90.82384490966797 35.66376876831055 88.50419616699219 30.17950439453125 C 86.26304626464844 24.88084411621094 83.05401611328125 20.12152099609375 78.96624755859375 16.03375244140625 C 74.87847900390625 11.94598388671875 70.11915588378906 8.736953735351562 64.82049560546875 6.495796203613281 C 59.33623123168945 4.176155090332031 53.50878524780273 3 47.5 3 M 47.5 0 C 73.7335205078125 0 95 21.2664794921875 95 47.5 C 95 73.7335205078125 73.7335205078125 95 47.5 95 C 21.2664794921875 95 0 73.7335205078125 0 47.5 C 0 21.2664794921875 21.2664794921875 0 47.5 0 Z" stroke="none" fill="#292584"/>
        </g>
      </g>
    </g>
    <g id="exit_6683295" transform="translate(309.36 6590.903)">
      <g id="Grupo_1171045" data-name="Grupo 1171045" transform="translate(40.9 41.4)">
        <g id="Grupo_1171044" data-name="Grupo 1171044" transform="translate(0 0)">
          <g id="Grupo_1171036" data-name="Grupo 1171036" transform="translate(0.869 0.851)">
            <g id="Grupo_1171035" data-name="Grupo 1171035">
              <path id="Trazado_1024368" data-name="Trazado 1024368" d="M219.306,47.2V99.593H197.342a2.458,2.458,0,0,0,1.1-.249,2.6,2.6,0,0,0,1.232-3.463l-4.592-9.7L187.6,81.341l1.188-6.191,1.775,3.551a1.157,1.157,0,0,0,1.6.484l8.686-5.032a2.253,2.253,0,0,0,1.13-1.951,2.3,2.3,0,0,0-.176-.88,2.255,2.255,0,0,0-3.081-1.13l-5.561,1.893L190.168,68.2a2.1,2.1,0,0,1-.411-1.6l.044-.249a4.292,4.292,0,0,0,2.744-4.093,4.224,4.224,0,0,0-3.727-4.313V47.2Zm-3.727,26.732a1.687,1.687,0,0,0-3.374,0,1.687,1.687,0,0,0,1.687,1.687,1.7,1.7,0,0,0,1.687-1.687Z" transform="translate(-166.946 -47.2)" fill="#556a8a" fill-rule="evenodd"/>
              <path id="Trazado_1024369" data-name="Trazado 1024369" d="M358.176,218.4a1.687,1.687,0,0,1-1.188,2.876,1.687,1.687,0,0,1-1.687-1.687,1.7,1.7,0,0,1,1.687-1.687A1.637,1.637,0,0,1,358.176,218.4Z" transform="translate(-310.041 -192.855)" fill="#fec9a3" fill-rule="evenodd"/>
              <path id="Trazado_1024370" data-name="Trazado 1024370" d="M81.7,133.51a2.355,2.355,0,0,1,.176.88,2.253,2.253,0,0,1-1.13,1.951l-8.686,5.032a1.145,1.145,0,0,1-1.6-.484l-1.775-3.551-1.188,6.191,7.483,4.842,4.592,9.713a2.6,2.6,0,0,1-1.232,3.463,2.458,2.458,0,0,1-1.1.249,2.589,2.589,0,0,1-2.347-1.482l-3.961-8.363-1.2-.778-4.915-3.184-5.854,5.839L56.8,155.987a2.152,2.152,0,0,1-3.037,0L47.584,149.8a2.6,2.6,0,0,1,1.834-4.431,2.553,2.553,0,0,1,1.834.763l4.035,4.035,5.869-5.869,1.408-10.534-4.358,1.966-1.35,5.619a2.054,2.054,0,0,1-4.064-.425,1.343,1.343,0,0,1,.015-.235l1.276-8.422,10.93-3.58a1.8,1.8,0,0,0,.381-.176,1.823,1.823,0,0,0,.337-.249.381.381,0,0,0,0-.558,4.465,4.465,0,0,1-1.394-3.272,4.187,4.187,0,0,1,4.035-4.328,2.168,2.168,0,0,1,.308.015,4.224,4.224,0,0,1,3.727,4.314,4.321,4.321,0,0,1-2.744,4.093l-.044.249a2.08,2.08,0,0,0,.411,1.6l2.993,3.888,5.561-1.893A2.291,2.291,0,0,1,81.7,133.51Z" transform="translate(-46.825 -109.404)" fill="#60d1e0" fill-rule="evenodd"/>
            </g>
          </g>
          <g id="Grupo_1171042" data-name="Grupo 1171042">
            <g id="Grupo_1171037" data-name="Grupo 1171037" transform="translate(0 10.754)">
              <path id="Trazado_1024371" data-name="Trazado 1024371" d="M72.166,158.04a3.448,3.448,0,0,1-3.11-1.966L65.2,147.917l-5.341-3.448-5.37,5.37-.015.015L52.329,152a2.975,2.975,0,0,1-4.225,0L41.912,145.8a3.43,3.43,0,0,1-1.012-2.436,3.37,3.37,0,0,1,1.012-2.436,3.43,3.43,0,0,1,2.436-1.012,3.37,3.37,0,0,1,2.436,1.012l3.433,3.433,5.076-5.076,1.174-8.744-2.582,1.174-1.247,5.208a2.9,2.9,0,0,1-5.106,1.2,2.9,2.9,0,0,1-.631-1.8,2.378,2.378,0,0,1,.015-.323v-.029l1.276-8.422a.824.824,0,0,1,.572-.675L59.68,123.3a5.32,5.32,0,0,1-1.232-3.433,4.893,4.893,0,1,1,9.771,0,5.22,5.22,0,0,1-2.8,4.68,1.273,1.273,0,0,0,.249.748l2.626,3.4,4.944-1.687a3.11,3.11,0,0,1,2.406-.1,3.072,3.072,0,0,1,1.775,1.7,3.107,3.107,0,0,1-1.291,3.9l-8.686,5.032a2.022,2.022,0,0,1-1.57.191,1.972,1.972,0,0,1-1.2-1.012l-.66-1.32-.616,3.184,7,4.534c.044.029.073.059.117.088a.871.871,0,0,1,.191.264l4.592,9.7a3.442,3.442,0,0,1-1.643,4.578A4.365,4.365,0,0,1,72.166,158.04ZM59.753,142.532a.824.824,0,0,1,.455.132l6.1,3.961a1.559,1.559,0,0,1,.161.132,1.042,1.042,0,0,1,.147.205l3.961,8.363a1.752,1.752,0,0,0,3.169-1.5l-4.49-9.493-7.277-4.71a.82.82,0,0,1-.367-.866L62.8,132.57a.846.846,0,0,1,1.585-.22l1.775,3.551a.264.264,0,0,0,.176.147.285.285,0,0,0,.235-.029l8.7-5.032a1.4,1.4,0,0,0,.7-1.218,1.46,1.46,0,0,0-.117-.558,1.4,1.4,0,0,0-1.922-.719c-.029.015-.073.029-.1.044l-5.561,1.893a.851.851,0,0,1-.939-.279l-2.993-3.888A2.918,2.918,0,0,1,63.773,124l.044-.235a.814.814,0,0,1,.543-.66,3.465,3.465,0,0,0,2.186-3.3,3.21,3.21,0,1,0-6.4,0,3.59,3.59,0,0,0,1.13,2.641,1.209,1.209,0,0,1-.029,1.79,2.759,2.759,0,0,1-1.027.587l-10.432,3.419L48.6,136.135v.117a1.222,1.222,0,0,0,1.878,1.012,1.222,1.222,0,0,0,.528-.763v-.029l1.35-5.619a.84.84,0,0,1,.469-.572l4.358-1.966a.846.846,0,0,1,.851.088.874.874,0,0,1,.337.792L56.966,139.73a.84.84,0,0,1-.235.484l-5.869,5.869a.824.824,0,0,1-1.188,0l-4.035-4.035a1.708,1.708,0,0,0-1.232-.514,1.684,1.684,0,0,0-1.232.514,1.708,1.708,0,0,0-.514,1.232,1.684,1.684,0,0,0,.514,1.232l6.191,6.191a1.311,1.311,0,0,0,1.834,0l2.157-2.157.015-.015,5.839-5.839a1.081,1.081,0,0,1,.543-.161Z" transform="translate(-40.9 -114.7)" fill="#0b0a0a" fill-rule="evenodd"/>
            </g>
            <g id="Grupo_1171038" data-name="Grupo 1171038" transform="translate(0.015)">
              <path id="Trazado_1024372" data-name="Trazado 1024372" d="M94.215,95.495H41.851a.851.851,0,1,1,0-1.7H93.378V43.087h-28.8v9.889a.851.851,0,0,1-1.7,0V42.251a.852.852,0,0,1,.851-.851H94.215a.852.852,0,0,1,.851.851V94.644a.852.852,0,0,1-.851.851Z" transform="translate(-41 -41.4)" fill="#0b0a0a" fill-rule="evenodd"/>
            </g>
            <g id="Grupo_1171039" data-name="Grupo 1171039" transform="translate(39.812 6.756)">
              <path id="Trazado_1024373" data-name="Trazado 1024373" d="M313.094,97.1a.883.883,0,0,1-.6-.249.85.85,0,0,1,0-1.188l3.389-3.389-3.389-3.389a.84.84,0,0,1,1.188-1.188l3.991,3.991a.85.85,0,0,1,0,1.2l-3.991,3.961A.767.767,0,0,1,313.094,97.1Z" transform="translate(-312.25 -87.45)" fill="#0b0a0a" fill-rule="evenodd"/>
            </g>
            <g id="Grupo_1171040" data-name="Grupo 1171040" transform="translate(30.737 10.71)">
              <path id="Trazado_1024374" data-name="Trazado 1024374" d="M263.883,116.1H251.251a.851.851,0,1,1,0-1.7h12.632a.852.852,0,0,1,.851.851A.861.861,0,0,1,263.883,116.1Z" transform="translate(-250.4 -114.4)" fill="#0b0a0a" fill-rule="evenodd"/>
            </g>
            <g id="Grupo_1171041" data-name="Grupo 1171041" transform="translate(45.292 25.059)">
              <path id="Trazado_1024375" data-name="Trazado 1024375" d="M352.124,217.247a2.524,2.524,0,1,1,2.524-2.524A2.523,2.523,0,0,1,352.124,217.247Zm0-3.36a.836.836,0,1,0,.836.836A.836.836,0,0,0,352.124,213.887Z" transform="translate(-349.6 -212.2)" fill="#0b0a0a" fill-rule="evenodd"/>
            </g>
          </g>
          <g id="Grupo_1171043" data-name="Grupo 1171043" transform="translate(22.917 41.756)">
            <path id="Trazado_1024376" data-name="Trazado 1024376" d="M197.951,338.339a.852.852,0,0,1-.851-.851V326.851a.851.851,0,0,1,1.7,0v10.637A.861.861,0,0,1,197.951,338.339Z" transform="translate(-197.1 -326)" fill="#0b0a0a" fill-rule="evenodd"/>
          </g>
        </g>
      </g>
    </g>
  </g>
</svg>
