<svg xmlns="http://www.w3.org/2000/svg" xmlns:xlink="http://www.w3.org/1999/xlink" width="113" height="113" viewBox="0 0 113 113">
  <defs>
    <filter id="Trazado_982547" x="0" y="0" width="113" height="113" filterUnits="userSpaceOnUse">
      <feOffset dy="3" input="SourceAlpha"/>
      <feGaussianBlur stdDeviation="3" result="blur"/>
      <feFlood flood-opacity="0.161"/>
      <feComposite operator="in" in2="blur"/>
      <feComposite in="SourceGraphic"/>
    </filter>
  </defs>
  <g id="Grupo_1171047" data-name="Grupo 1171047" transform="translate(9 6)">
    <g transform="matrix(1, 0, 0, 1, -9, -6)" filter="url(#Trazado_982547)">
      <g id="Trazado_982547-2" data-name="Trazado 982547" transform="translate(9 6)" fill="#e8e7f2">
        <path d="M 47.5 93.5 C 41.28937149047852 93.5 35.26533508300781 92.28397369384766 29.59518623352051 89.88570404052734 C 24.11771965026855 87.56893157958984 19.19813346862793 84.25196075439453 14.97309303283691 80.02691650390625 C 10.74804019927979 75.80186462402344 7.431066513061523 70.88229370117188 5.114293098449707 65.40481567382812 C 2.716026782989502 59.73468017578125 1.5 53.71062850952148 1.5 47.5 C 1.5 41.28937149047852 2.716026782989502 35.26533508300781 5.114293098449707 29.59518623352051 C 7.431066513061523 24.11771965026855 10.74804019927979 19.19813346862793 14.97309303283691 14.97309303283691 C 19.19813346862793 10.74804019927979 24.11771965026855 7.431066513061523 29.59518623352051 5.114293098449707 C 35.26533508300781 2.716026782989502 41.28937149047852 1.5 47.5 1.5 C 53.71062850952148 1.5 59.73468017578125 2.716026782989502 65.40481567382812 5.114293098449707 C 70.88229370117188 7.431066513061523 75.80186462402344 10.74804019927979 80.02691650390625 14.97309303283691 C 84.25196075439453 19.19813346862793 87.56893157958984 24.11771965026855 89.88570404052734 29.59518623352051 C 92.28397369384766 35.26533508300781 93.5 41.28937149047852 93.5 47.5 C 93.5 53.71062850952148 92.28397369384766 59.73468017578125 89.88570404052734 65.40481567382812 C 87.56893157958984 70.88229370117188 84.25196075439453 75.80186462402344 80.02691650390625 80.02691650390625 C 75.80186462402344 84.25196075439453 70.88229370117188 87.56893157958984 65.40481567382812 89.88570404052734 C 59.73468017578125 92.28397369384766 53.71062850952148 93.5 47.5 93.5 Z" stroke="none"/>
        <path d="M 47.5 3 C 41.49121475219727 3 35.66376876831055 4.176155090332031 30.17950439453125 6.495796203613281 C 24.88084411621094 8.736953735351562 20.12152099609375 11.94598388671875 16.03375244140625 16.03375244140625 C 11.94598388671875 20.12152099609375 8.736953735351562 24.88084411621094 6.495796203613281 30.17950439453125 C 4.176155090332031 35.66376876831055 3 41.49121475219727 3 47.5 C 3 53.50878524780273 4.176155090332031 59.33623123168945 6.495796203613281 64.82049560546875 C 8.736953735351562 70.11915588378906 11.94598388671875 74.87847900390625 16.03375244140625 78.96624755859375 C 20.12152099609375 83.05401611328125 24.88084411621094 86.26304626464844 30.17950439453125 88.50419616699219 C 35.66376876831055 90.82384490966797 41.49121475219727 92 47.5 92 C 53.50878524780273 92 59.33623123168945 90.82384490966797 64.82049560546875 88.50419616699219 C 70.11915588378906 86.26304626464844 74.87847900390625 83.05401611328125 78.96624755859375 78.96624755859375 C 83.05401611328125 74.87847900390625 86.26304626464844 70.11915588378906 88.50419616699219 64.82049560546875 C 90.82384490966797 59.33623123168945 92 53.50878524780273 92 47.5 C 92 41.49121475219727 90.82384490966797 35.66376876831055 88.50419616699219 30.17950439453125 C 86.26304626464844 24.88084411621094 83.05401611328125 20.12152099609375 78.96624755859375 16.03375244140625 C 74.87847900390625 11.94598388671875 70.11915588378906 8.736953735351562 64.82049560546875 6.495796203613281 C 59.33623123168945 4.176155090332031 53.50878524780273 3 47.5 3 M 47.5 0 C 73.7335205078125 0 95 21.2664794921875 95 47.5 C 95 73.7335205078125 73.7335205078125 95 47.5 95 C 21.2664794921875 95 0 73.7335205078125 0 47.5 C 0 21.2664794921875 21.2664794921875 0 47.5 0 Z" stroke="none" fill="#292584"/>
      </g>
    </g>
    <g id="response_18325261" transform="translate(16.822 16.836)">
      <path id="Trazado_1022421" data-name="Trazado 1022421" d="M311.151,139.316h12.06a.68.68,0,0,1,.68.68v1.893a.68.68,0,0,1-.68.68h-12.06a.68.68,0,0,1-.68-.68V140a.68.68,0,0,1,.68-.68Z" transform="translate(-273.161 -122.857)" fill="#c3c3c9"/>
      <path id="Trazado_1022422" data-name="Trazado 1022422" d="M328.167,67.73h9.111v-6.9a3.035,3.035,0,0,0-3.026-3.026h-3.059a3.035,3.035,0,0,0-3.026,3.026v6.9Z" transform="translate(-288.703 -51.271)" fill="#ff6969" fill-rule="evenodd"/>
      <path id="Trazado_1022423" data-name="Trazado 1022423" d="M248.162,372.4a16.65,16.65,0,0,0-16.58,15.136h33.159A16.65,16.65,0,0,0,248.162,372.4Z" transform="translate(-203.876 -327.568)" fill="#4eb1fc" fill-rule="evenodd"/>
      <path id="Trazado_1022424" data-name="Trazado 1022424" d="M303.132,284.215a7.929,7.929,0,1,0,14.875,0Z" transform="translate(-266.284 -250.116)" fill="#ffcec0" fill-rule="evenodd"/>
      <path id="Trazado_1022425" data-name="Trazado 1022425" d="M296.522,215.289v-.88a8.674,8.674,0,1,1,17.348,0v.88H296.522Z" transform="translate(-260.91 -181.19)" fill="#ffcb1f" fill-rule="evenodd"/>
      <path id="Trazado_1022426" data-name="Trazado 1022426" d="M295.023,380.132a6.548,6.548,0,0,1-11.057,0,16.63,16.63,0,0,0-5.322,3.082v11.113h21.7V383.214A16.629,16.629,0,0,0,295.023,380.132Z" transform="translate(-245.209 -334.356)" fill="#ffcb1f" fill-rule="evenodd"/>
      <rect id="Rect치ngulo_413375" data-name="Rect치ngulo 413375" width="19.921" height="2.29" rx="1.145" transform="translate(34.325 33.219)" fill="#ffeb87"/>
      <g id="Grupo_1166181" data-name="Grupo 1166181" transform="translate(1.213 0.348)">
        <path id="Trazado_1022427" data-name="Trazado 1022427" d="M69.255,6.981H47.513a2.908,2.908,0,0,0-2.9,2.9V25.522a2.908,2.908,0,0,0,2.9,2.9H62.992l4.783,5.464V28.421h1.48a2.907,2.907,0,0,0,2.9-2.9V9.88a2.907,2.907,0,0,0-2.9-2.9Z" transform="translate(-40.883 -6.981)" fill="#85caff" fill-rule="evenodd"/>
        <path id="Trazado_1022428" data-name="Trazado 1022428" d="M81.428,33.218C89.837,34,92.6,41.288,93.479,44.488a.265.265,0,0,1-.457.242c-3.344-3.925-7.763-6.386-11.836-6.5l-.126,2.613a.445.445,0,0,1-.711.335l-7.354-5.514a.445.445,0,0,1,.031-.733l7.856-4.9a.445.445,0,0,1,.68.4l-.135,2.791Z" transform="translate(-65.652 -27.161)" fill="#fff" fill-rule="evenodd"/>
        <path id="Trazado_1022429" data-name="Trazado 1022429" d="M30.543,372.4a16.65,16.65,0,0,0-16.58,15.136H47.122A16.65,16.65,0,0,0,30.543,372.4Z" transform="translate(-13.963 -327.917)" fill="#85caff" fill-rule="evenodd"/>
        <path id="Trazado_1022430" data-name="Trazado 1022430" d="M85.513,284.215a7.929,7.929,0,1,0,14.875,0H85.513Z" transform="translate(-76.371 -250.465)" fill="#ffcec0" fill-rule="evenodd"/>
        <path id="Trazado_1022431" data-name="Trazado 1022431" d="M78.9,215.289v-.88a8.674,8.674,0,1,1,17.348,0v.88Z" transform="translate(-70.997 -181.539)" fill="#ffcb1f" fill-rule="evenodd"/>
        <path id="Trazado_1022432" data-name="Trazado 1022432" d="M77.4,380.132a6.548,6.548,0,0,1-11.057,0,16.63,16.63,0,0,0-5.322,3.082v11.113h21.7V383.214a16.63,16.63,0,0,0-5.322-3.082Z" transform="translate(-55.294 -334.705)" fill="#ffcb1f" fill-rule="evenodd"/>
      </g>
      <rect id="Rect치ngulo_413376" data-name="Rect치ngulo 413376" width="19.921" height="2.29" rx="1.145" transform="translate(7.832 33.219)" fill="#ffeb87"/>
      <path id="Trazado_1022433" data-name="Trazado 1022433" d="M38.1,10.531a.853.853,0,0,1,1.164-.312l1.336.772a.852.852,0,1,1-.852,1.475L38.417,11.7a.851.851,0,0,1-.312-1.164Zm8.969-3.275V5.713a.852.852,0,1,1,1.7,0V7.257a.852.852,0,1,1-1.7,0Zm-5.325-.05a.852.852,0,1,1,1.476-.852L44,7.691a.852.852,0,1,1-1.476.852Zm13.186,4.949a.85.85,0,0,1,.312-1.164l1.336-.772a.852.852,0,1,1,.853,1.475l-1.337.772a.851.851,0,0,1-1.164-.312ZM51.855,7.691l.772-1.336a.852.852,0,1,1,1.476.852l-.772,1.337a.852.852,0,1,1-1.475-.852ZM41.77,21.79H54.082v1.692H41.77Zm2.25-8.055a2.311,2.311,0,0,1,2.308-2.308h3.195a2.311,2.311,0,0,1,2.308,2.308v6.351H48.778V16.2a.852.852,0,1,0-1.7,0v3.885H44.02V13.734Zm-3.954,7.913v1.977a1.563,1.563,0,0,0,1.562,1.562h12.6a1.564,1.564,0,0,0,1.563-1.562V21.648a1.564,1.564,0,0,0-1.563-1.562h-.688V13.734a4.017,4.017,0,0,0-4.013-4.013H46.328a4.017,4.017,0,0,0-4.013,4.013v6.351h-.687A1.563,1.563,0,0,0,40.066,21.648ZM19.874,8.973l-.1,2.014a.853.853,0,0,0,.773.89c5.961.553,8.96,4.652,10.445,8.155A16.864,16.864,0,0,0,20.409,15.19h-.023a.852.852,0,0,0-.851.811l-.089,1.847-6.265-4.7,6.693-4.178Zm-8.191,5.185,7.354,5.514a1.3,1.3,0,0,0,2.075-.975l.084-1.745c3.57.391,7.392,2.638,10.378,6.142a1.106,1.106,0,0,0,.846.393,1.122,1.122,0,0,0,.526-.131,1.11,1.11,0,0,0,.555-1.283c-1.093-3.97-4.092-10.653-11.984-11.8l.1-2a1.3,1.3,0,0,0-1.982-1.163L11.774,12.02a1.3,1.3,0,0,0-.091,2.138ZM9.435,7.871V23.512a2.049,2.049,0,0,0,2.046,2.048H26.961a.851.851,0,0,1,.641.291l3.29,3.758v-3.2a.852.852,0,0,1,.852-.852h1.48a2.05,2.05,0,0,0,2.047-2.048V7.871a2.049,2.049,0,0,0-2.047-2.048H11.482A2.049,2.049,0,0,0,9.435,7.871Zm2.046,19.393H26.575L31.1,32.437a.852.852,0,0,0,.641.291.823.823,0,0,0,.3-.055.851.851,0,0,0,.553-.8V27.265h.628a3.756,3.756,0,0,0,3.751-3.752V7.871a3.755,3.755,0,0,0-3.751-3.752H11.482A3.755,3.755,0,0,0,7.731,7.871V23.512a3.756,3.756,0,0,0,3.751,3.752Zm9.1,7.253h-1.4v-1.7h1.4v-1.4h1.7v1.4h1.4v1.7h-1.4v1.4h-1.7Zm26.5,0h-1.4v-1.7h1.4v-1.4h1.7v1.4h1.4v1.7h-1.4v1.4h-1.7ZM59.627,63.743V55.453a15.706,15.706,0,0,1,3.918,8.289Zm-26.5,0V55.453a15.639,15.639,0,0,1,3.094,5.08V60.6h.025a15.926,15.926,0,0,1,.8,3.141Zm-21.7,0V61.454H31.426v2.289H11.432Zm-1.7-8.29v8.29H5.811a15.712,15.712,0,0,1,3.917-8.29Zm4.626-13.975c0-.163.008-.327.018-.492H28.486c.012.164.02.329.02.492a7.076,7.076,0,1,1-14.153,0Zm-2.032-2.488a.3.3,0,0,1,.293-.292H30.244a.292.292,0,1,1,0,.584H12.615a.3.3,0,0,1-.293-.292Zm9.107-8.965A7.832,7.832,0,0,1,29.2,36.993H13.656a7.83,7.83,0,0,1,7.773-6.968Zm-10,28.9H31.426v.821H11.432v-.821Zm5.934-8.1a16.143,16.143,0,0,1,8.127,0,5.9,5.9,0,0,1-4.063,1.755A5.9,5.9,0,0,1,17.366,50.832Zm4.054,3.458a7.656,7.656,0,0,1-5.826-2.882,15.726,15.726,0,0,0-4.162,2.43v3.386H31.426V53.839a15.706,15.706,0,0,0-4.16-2.43,7.657,7.657,0,0,1-5.826,2.882H21.42Zm14.8,1.207c-.162.179-.321.364-.475.551q.246.349.475.711Zm4.626-14.02c0-.163.006-.327.018-.492H54.983c.012.164.018.329.018.492a7.076,7.076,0,1,1-14.151,0Zm-2.032-2.488a.3.3,0,0,1,.292-.292h17.63a.292.292,0,0,1,0,.584H39.111A.3.3,0,0,1,38.819,38.989Zm9.107-8.965a7.83,7.83,0,0,0-7.773,6.968H55.7a7.83,7.83,0,0,0-7.773-6.968Zm10,29.725H37.928v-.821H57.923ZM43.864,50.834a16.1,16.1,0,0,1,8.125,0,5.581,5.581,0,0,1-8.125,0Zm4.05,3.456a7.66,7.66,0,0,1-5.821-2.875,15.62,15.62,0,0,0-4.165,2.455v3.354H57.923V53.839a15.736,15.736,0,0,0-4.16-2.43,7.659,7.659,0,0,1-5.826,2.882h-.022Zm-9.146,9.452a17.49,17.49,0,0,0-.467-2.289H57.923v2.289Zm26.584.775a.853.853,0,0,1-.848.929H4.852A.854.854,0,0,1,4,64.518,17.508,17.508,0,0,1,17.145,49.138a8.787,8.787,0,0,1-4.5-7.661c0-.163.006-.327.014-.492h-.049a1.995,1.995,0,0,1-.68-3.871,9.522,9.522,0,0,1,18.989,0,1.995,1.995,0,0,1-.68,3.871h-.05c.009.164.016.329.016.492a8.786,8.786,0,0,1-4.5,7.661,17.44,17.44,0,0,1,7.552,4.079,17.722,17.722,0,0,1,1.413,1.456,17.337,17.337,0,0,1,8.956-5.54,8.784,8.784,0,0,1-4.488-7.656c0-.163.006-.327.015-.492h-.05a1.995,1.995,0,0,1-.68-3.871,9.522,9.522,0,0,1,18.989,0,1.995,1.995,0,0,1-.679,3.871h-.051c.009.164.015.329.015.492a8.785,8.785,0,0,1-4.5,7.661A17.507,17.507,0,0,1,65.353,64.518Z" transform="translate(-3.999 -4.119)" fill="#0b0a0a" fill-rule="evenodd"/>
    </g>
  </g>
</svg>
