<svg xmlns="http://www.w3.org/2000/svg" xmlns:xlink="http://www.w3.org/1999/xlink" width="108" height="108" viewBox="0 0 108 108">
  <defs>
    <filter id="Trazado_982547" x="0" y="0" width="108" height="108" filterUnits="userSpaceOnUse">
      <feOffset dy="3" input="SourceAlpha"/>
      <feGaussianBlur stdDeviation="3" result="blur"/>
      <feFlood flood-opacity="0.161"/>
      <feComposite operator="in" in2="blur"/>
      <feComposite in="SourceGraphic"/>
    </filter>
  </defs>
  <g id="Grupo_1168669" data-name="Grupo 1168669" transform="translate(-166 -4450)">
    <g id="Grupo_1166592" data-name="Grupo 1166592" transform="translate(0 2001)">
      <g id="Grupo_1166229" data-name="Grupo 1166229">
        <g id="Grupo_1164717" data-name="Grupo 1164717" transform="translate(-5 -1469)">
          <g id="Grupo_1161419" data-name="Grupo 1161419" transform="translate(0 -5495)">
            <g id="Grupo_1160581" data-name="Grupo 1160581" transform="translate(0 7864)">
              <g id="Grupo_1153955" data-name="Grupo 1153955" transform="translate(-83 1036)">
                <g id="Grupo_1149598" data-name="Grupo 1149598" transform="translate(80 315)">
                  <g id="Grupo_1148770" data-name="Grupo 1148770" transform="translate(-27 -2583)">
                    <g id="Grupo_1146954" data-name="Grupo 1146954" transform="translate(-415 -1202)">
                      <g transform="matrix(1, 0, 0, 1, 616, 3983)" filter="url(#Trazado_982547)">
                        <g id="Trazado_982547-2" data-name="Trazado 982547" transform="translate(9 6)" fill="#fef7ea">
                          <path d="M 45 88.5 C 39.12687683105469 88.5 33.43022537231445 87.35007476806641 28.06830024719238 85.08217620849609 C 22.88852500915527 82.89131164550781 18.23629951477051 79.75458526611328 14.2408504486084 75.75914764404297 C 10.24541282653809 71.76370239257812 7.108687400817871 67.11147308349609 4.917825222015381 61.93170166015625 C 2.649924993515015 56.56977462768555 1.5 50.87312316894531 1.5 45 C 1.5 39.12687683105469 2.649924993515015 33.43022537231445 4.917825222015381 28.06830024719238 C 7.108687400817871 22.88852500915527 10.24541282653809 18.23629951477051 14.2408504486084 14.2408504486084 C 18.23629951477051 10.24541282653809 22.88852500915527 7.108687400817871 28.06830024719238 4.917825222015381 C 33.43022537231445 2.649924993515015 39.12687683105469 1.5 45 1.5 C 50.87312316894531 1.5 56.56977462768555 2.649924993515015 61.93170166015625 4.917825222015381 C 67.11147308349609 7.108687400817871 71.76370239257812 10.24541282653809 75.75914764404297 14.2408504486084 C 79.75458526611328 18.23629951477051 82.89131164550781 22.88852500915527 85.08217620849609 28.06830024719238 C 87.35007476806641 33.43022537231445 88.5 39.12687683105469 88.5 45 C 88.5 50.87312316894531 87.35007476806641 56.56977462768555 85.08217620849609 61.93170166015625 C 82.89131164550781 67.11147308349609 79.75458526611328 71.76370239257812 75.75914764404297 75.75914764404297 C 71.76370239257812 79.75458526611328 67.11147308349609 82.89131164550781 61.93170166015625 85.08217620849609 C 56.56977462768555 87.35007476806641 50.87312316894531 88.5 45 88.5 Z" stroke="none"/>
                          <path d="M 45 3 C 39.32871246337891 3 33.82865524291992 4.110054016113281 28.65262985229492 6.299339294433594 C 23.65165710449219 8.414573669433594 19.15968322753906 11.44334411621094 15.301513671875 15.301513671875 C 11.44334411621094 19.15968322753906 8.414573669433594 23.65165710449219 6.299339294433594 28.65262985229492 C 4.110054016113281 33.82865524291992 3 39.32871246337891 3 45 C 3 50.67128753662109 4.110054016113281 56.17134475708008 6.299339294433594 61.34737396240234 C 8.414573669433594 66.34834289550781 11.44334411621094 70.84031677246094 15.301513671875 74.698486328125 C 19.15968322753906 78.55665588378906 23.65165710449219 81.58542633056641 28.65262985229492 83.70066070556641 C 33.82865524291992 85.88994598388672 39.32871246337891 87 45 87 C 50.67128753662109 87 56.17134475708008 85.88994598388672 61.34737396240234 83.70066070556641 C 66.34834289550781 81.58542633056641 70.84031677246094 78.55665588378906 74.698486328125 74.698486328125 C 78.55665588378906 70.84031677246094 81.58542633056641 66.34834289550781 83.70066070556641 61.34737396240234 C 85.88994598388672 56.17134475708008 87 50.67128753662109 87 45 C 87 39.32871246337891 85.88994598388672 33.82865524291992 83.70066070556641 28.65262985229492 C 81.58542633056641 23.65165710449219 78.55665588378906 19.15968322753906 74.698486328125 15.301513671875 C 70.84031677246094 11.44334411621094 66.34834289550781 8.414573669433594 61.34737396240234 6.299339294433594 C 56.17134475708008 4.110054016113281 50.67128753662109 3 45 3 M 45 0 C 69.85281372070312 0 90 20.14718627929688 90 45 C 90 69.85281372070312 69.85281372070312 90 45 90 C 20.14718627929688 90 0 69.85281372070312 0 45 C 0 20.14718627929688 20.14718627929688 0 45 0 Z" stroke="none" fill="#e44b36"/>
                        </g>
                      </g>
                    </g>
                  </g>
                </g>
              </g>
            </g>
          </g>
        </g>
      </g>
    </g>
    <g id="paramedic_9746749" transform="translate(173.193 4469.5)">
      <path id="Trazado_1023837" data-name="Trazado 1023837" d="M57.768,272.046,69.13,276.46a5.647,5.647,0,0,1,3.567,5.386v6.893a2.808,2.808,0,0,1-2.729,2.87H30.352a2.808,2.808,0,0,1-2.729-2.87v-6.893a5.648,5.648,0,0,1,3.566-5.386l11.362-4.414a5.474,5.474,0,0,1,.965-.282v-9.556H56.8v9.556A5.475,5.475,0,0,1,57.768,272.046Z" transform="translate(-6.125 -230.456)" fill="#f54756" fill-rule="evenodd"/>
      <path id="Trazado_1023838" data-name="Trazado 1023838" d="M172.157,266.3a13.257,13.257,0,0,1-13.288.007v-4.1h13.288Z" transform="translate(-121.478 -230.456)" fill="#dd404d" fill-rule="evenodd"/>
      <path id="Trazado_1023839" data-name="Trazado 1023839" d="M27.623,426.9H72.7v3.971H27.623Z" transform="translate(-6.125 -375.208)" fill="#fed402"/>
      <path id="Trazado_1023840" data-name="Trazado 1023840" d="M95.686,418.288a4,4,0,1,0-4-4A4,4,0,0,0,95.686,418.288Z" transform="translate(-62.431 -360.609)" fill="#b23945" fill-rule="evenodd"/>
      <path id="Trazado_1023841" data-name="Trazado 1023841" d="M315.765,335.6h19.521a.475.475,0,0,0,.477-.474V318.982a.478.478,0,0,0-.477-.477H315.765a.481.481,0,0,0-.477.477v16.147a.478.478,0,0,0,.477.474Z" transform="translate(-258.956 -279.936)" fill="#f54756" fill-rule="evenodd"/>
      <path id="Trazado_1023842" data-name="Trazado 1023842" d="M361.7,430.788h8.173a.611.611,0,0,1,.608.608v3a1.74,1.74,0,0,1-1.737,1.733h-5.911a1.74,1.74,0,0,1-1.736-1.733v-3a.608.608,0,0,1,.6-.608Z" transform="translate(-299.22 -378.622)" fill="#ffd18d" fill-rule="evenodd"/>
      <path id="Trazado_1023843" data-name="Trazado 1023843" d="M361.7,430.788h4.088v5.338h-2.956a1.74,1.74,0,0,1-1.737-1.733v-3a.608.608,0,0,1,.6-.608Z" transform="translate(-299.22 -378.622)" fill="#e6bc7f" fill-rule="evenodd"/>
      <path id="Trazado_1023844" data-name="Trazado 1023844" d="M315.765,318.505h19.521a.478.478,0,0,1,.477.477v2.437H315.288v-2.437A.481.481,0,0,1,315.765,318.505Z" transform="translate(-258.956 -279.936)" fill="#dd404d" fill-rule="evenodd"/>
      <path id="Trazado_1023845" data-name="Trazado 1023845" d="M191,283.015h5.084a.241.241,0,0,1,.24.24v7.191a.239.239,0,0,1-.24.24H191a.239.239,0,0,1-.24-.24v-7.191a.241.241,0,0,1,.24-.24Z" transform="translate(-149.506 -248.744)" fill="#fed402" fill-rule="evenodd"/>
      <path id="Trazado_1023846" data-name="Trazado 1023846" d="M196.323,286.085a13.333,13.333,0,0,1-5.564,0v-2.832a.241.241,0,0,1,.24-.24h5.084a.241.241,0,0,1,.24.24Z" transform="translate(-149.506 -248.744)" fill="#e5bf02" fill-rule="evenodd"/>
      <path id="Trazado_1023847" data-name="Trazado 1023847" d="M96.279,78.662h28.436v14.2H96.279Z" transform="translate(-66.467 -69.136)" fill="#554e56"/>
      <g id="Grupo_1168319" data-name="Grupo 1168319" transform="translate(21.497 0.848)">
        <path id="Trazado_1023848" data-name="Trazado 1023848" d="M114.357,7.814l8.362,3.5a3.194,3.194,0,0,1,1.994,2.993v6.975H96.277V14.311a3.191,3.191,0,0,1,1.991-2.993l8.365-3.5a9.657,9.657,0,0,1,7.723,0Z" transform="translate(-87.963 -7.007)" fill="#f54756" fill-rule="evenodd"/>
        <path id="Trazado_1023849" data-name="Trazado 1023849" d="M106.454,178.564H77.517a2.3,2.3,0,1,1,0-4.6h28.937a2.3,2.3,0,0,1,0,4.6Z" transform="translate(-69.453 -153.746)" fill="#fbbd80" fill-rule="evenodd"/>
        <path id="Trazado_1023850" data-name="Trazado 1023850" d="M114.064,115.711h21.808v5.345a1.775,1.775,0,0,0,1.321,1.713v3.244a12.222,12.222,0,1,1-24.444,0v-3.247a1.775,1.775,0,0,0,1.315-1.709Z" transform="translate(-102.44 -102.547)" fill="#ffd18d" fill-rule="evenodd"/>
        <path id="Trazado_1023851" data-name="Trazado 1023851" d="M71.135,98.641h34.522C105.657,93.138,71.135,92.455,71.135,98.641Z" transform="translate(-65.865 -83.688)" fill="#dd404d" fill-rule="evenodd"/>
        <path id="Trazado_1023854" data-name="Trazado 1023854" d="M77.489,103.821v-2.907a21.416,21.416,0,0,0-3.309.862c-1.888.683-3.045,1.586-3.045,2.719h6.354Z" transform="translate(-65.865 -89.542)" fill="#c73a45" fill-rule="evenodd"/>
        <path id="Trazado_1023855" data-name="Trazado 1023855" d="M96.277,19.235a21.417,21.417,0,0,1,3.309-.862V15.064a3.187,3.187,0,0,1,1.991-2.993l8.365-3.508a9.825,9.825,0,0,1,4.322-.793,9.634,9.634,0,0,0-7.631.038l-8.365,3.5a3.191,3.191,0,0,0-1.991,2.994Z" transform="translate(-87.963 -7.001)" fill="#dd404d" fill-rule="evenodd"/>
        <path id="Trazado_1023856" data-name="Trazado 1023856" d="M115.248,138.313V130.48h-1.184v3.556a1.775,1.775,0,0,1-1.315,1.709v3.247a12.5,12.5,0,0,0,.075,1.352,12.274,12.274,0,0,0,9.371,10.548,12.093,12.093,0,0,0,5.564,0,11.908,11.908,0,0,0,1.637-.508,12.274,12.274,0,0,1-1.637.148c-.1,0-.192,0-.292,0a12.094,12.094,0,0,1-5.273-1.2,12.3,12.3,0,0,1-6.776-8.983,12.465,12.465,0,0,1-.172-1.943v-.089Z" transform="translate(-102.44 -115.527)" fill="#e6bc7f" fill-rule="evenodd"/>
        <path id="Trazado_1023857" data-name="Trazado 1023857" d="M30.8,465.186V459.7H27.623v2.616a2.808,2.808,0,0,0,2.729,2.87Z" transform="translate(-27.623 -404.881)" fill="#dd404d" fill-rule="evenodd"/>
        <path id="Trazado_1023858" data-name="Trazado 1023858" d="M27.619,430.872H30.8v-2.6a6.43,6.43,0,0,1,.151-1.374h-3.33Z" transform="translate(-27.619 -376.053)" fill="#e5bf02" fill-rule="evenodd"/>
        <path id="Trazado_1023859" data-name="Trazado 1023859" d="M27.623,311.924h3.33a5.561,5.561,0,0,1,3.416-4.013L45.731,303.5a5.775,5.775,0,0,1,.965-.279v-5.81a13.292,13.292,0,0,1-3.179-1.325v5.454a5.473,5.473,0,0,0-.965.282l-11.363,4.414a5.648,5.648,0,0,0-3.566,5.386Z" transform="translate(-27.623 -261.077)" fill="#dd404d" fill-rule="evenodd"/>
        <path id="Trazado_1023860" data-name="Trazado 1023860" d="M318.968,352.784V342.572h-3.68v13.71a.478.478,0,0,0,.47.474h3.209Z" transform="translate(-280.453 -301.936)" fill="#dd404d" fill-rule="evenodd"/>
        <path id="Trazado_1023861" data-name="Trazado 1023861" d="M315.288,321.419h3.68v-2.914h-3.2a.481.481,0,0,0-.477.477Z" transform="translate(-280.453 -280.784)" fill="#c73a45" fill-rule="evenodd"/>
      </g>
      <path id="Trazado_1023862" data-name="Trazado 1023862" d="M40.641,6.317a.848.848,0,0,1,.848-.848h1.692V3.777a.848.848,0,0,1,1.7,0V5.469h1.692a.848.848,0,0,1,0,1.7H44.876v1.7a.848.848,0,1,1-1.7,0v-1.7H41.488a.848.848,0,0,1-.848-.848ZM77.652,38.571v17.1a.848.848,0,0,1-.848.848H72a2.588,2.588,0,0,1-2.473,1.836H67.415A3.648,3.648,0,0,1,63.843,62H24.227a3.652,3.652,0,0,1-3.573-3.718V51.391a6.525,6.525,0,0,1,4.1-6.176L36.119,40.8q.21-.083.427-.151V35.022a13.09,13.09,0,0,1-5.387-8.444h-1.6a3.147,3.147,0,0,1-.6-6.238V16.652h-2.2a.848.848,0,0,1-.848-.848c0-1.345,1.022-2.449,3.044-3.3V8.156a4.029,4.029,0,0,1,2.512-3.775L39.839.874a10.481,10.481,0,0,1,8.378,0l8.365,3.508a4.029,4.029,0,0,1,2.511,3.775v4.535c2.042.824,3.045,1.853,3.045,3.112a.848.848,0,0,1-.848.848h-2.2V20.34a3.147,3.147,0,0,1-.6,6.238H56.9a13.089,13.089,0,0,1-5.374,8.435V40.65q.218.068.431.152l3.531,1.37v-3.6a.848.848,0,0,1,.848-.848h5l.693-2.934a2.421,2.421,0,0,1,2.287-2.1h4.5a2.421,2.421,0,0,1,2.288,2.1l.693,2.933h5a.848.848,0,0,1,.847.848Zm-14.573-.848h6.98l-.6-2.544c-.056-.24-.23-.8-.637-.8h-4.5c-.407,0-.581.555-.637.794Zm-5.9,1.7v1.215H75.956V39.419H57.181Zm-1.7,15.4V52.54h-10.6v2.279Zm-33.136,0h6.2a4.823,4.823,0,0,1,0-2.279h-6.2Zm10.9,2.011a3.149,3.149,0,1,0-3.147-3.151,3.149,3.149,0,0,0,3.147,3.151ZM38.1,53.68a4.837,4.837,0,0,1-.137,1.14h5.223V52.54H37.964a4.836,4.836,0,0,1,.137,1.14ZM49.83,41.309V36.023a12.979,12.979,0,0,1-2.166.846v5.076a.848.848,0,0,1-.848.848H44.883v8.053h10.6V43.991l-4.147-1.609a4.614,4.614,0,0,0-.821-.239.848.848,0,0,1-.689-.833ZM42.1,41.1h3.868V37.239a13.112,13.112,0,0,1-3.868,0ZM58.5,21.978H57.1v2.337c0,.19-.005.378-.013.566H58.5a1.452,1.452,0,1,0,0-2.9Zm-1.1-5.327H55.774v2.708a.929.929,0,0,0,.692.894.833.833,0,0,1,.082.03H57.4ZM30.659,11.923q.489-.139,1.027-.265a53.637,53.637,0,0,1,11.584-1.09A62.211,62.211,0,0,1,55.79,11.72q.864.189,1.608.4V8.156a2.33,2.33,0,0,0-1.47-2.211L47.562,2.437a8.84,8.84,0,0,0-7.067,0L32.13,5.946a2.33,2.33,0,0,0-1.471,2.211Zm-2.574,3.032H59.776a12.5,12.5,0,0,0-4.349-1.58A60.466,60.466,0,0,0,43.27,12.264a51.912,51.912,0,0,0-11.2,1.045,9.681,9.681,0,0,0-3.988,1.647Zm2.574,1.7v3.632H31.5a.836.836,0,0,1,.09-.033.925.925,0,0,0,.684-.891V16.652Zm.315,8.231c-.008-.188-.013-.377-.013-.566V21.979h-1.4a1.452,1.452,0,1,0,0,2.9ZM37.755,33.8a.849.849,0,0,1,.193.126,11.311,11.311,0,0,0,3.471,1.464l.029.007a11.414,11.414,0,0,0,5.13.007q.039-.011.08-.019a11.309,11.309,0,0,0,3.471-1.471.851.851,0,0,1,.174-.114,11.384,11.384,0,0,0,5.019-8.15v0a11.433,11.433,0,0,0,.078-1.325V21.633a2.624,2.624,0,0,1-1.321-2.273V16.652H33.968V19.36a2.623,2.623,0,0,1-1.311,2.268v2.688a11.458,11.458,0,0,0,.078,1.325v0A11.383,11.383,0,0,0,37.755,33.8ZM22.379,50.845h6.952a4.839,4.839,0,0,1,7.849,0h6.008V42.792H41.252a.848.848,0,0,1-.848-.848V36.871a12.972,12.972,0,0,1-2.162-.842v5.28a.848.848,0,0,1-.689.833,4.593,4.593,0,0,0-.816.238L25.372,46.794a4.729,4.729,0,0,0-2.993,4.05Zm1.848,9.46H43.187v-3.79H37.181a4.837,4.837,0,0,1-7.851,0H22.35v1.768A1.956,1.956,0,0,0,24.227,60.3Zm41.491-1.953h-2.1a2.588,2.588,0,0,1-2.473-1.836H44.883V60.3h18.96a1.949,1.949,0,0,0,1.874-1.953Zm4.7-5.337H62.725v2.753a.89.89,0,0,0,.889.889h5.911a.89.89,0,0,0,.889-.889Zm5.543,1.8V42.329H57.181v12.49h3.848V52.166a.848.848,0,0,1,.848-.848h9.384a.848.848,0,0,1,.848.848v2.653Zm-6.731-8.842H67.417V44.169a.848.848,0,0,0-1.7,0v1.809H63.912a.848.848,0,0,0,0,1.7h1.809v1.809a.848.848,0,1,0,1.7,0V47.673h1.809a.848.848,0,0,0,0-1.7Z" transform="translate(0 0)"/>
    </g>
  </g>
</svg>
