<svg xmlns="http://www.w3.org/2000/svg" xmlns:xlink="http://www.w3.org/1999/xlink" width="108" height="108" viewBox="0 0 108 108">
  <defs>
    <filter id="Trazado_982547" x="0" y="0" width="108" height="108" filterUnits="userSpaceOnUse">
      <feOffset dy="3" input="SourceAlpha"/>
      <feGaussianBlur stdDeviation="3" result="blur"/>
      <feFlood flood-opacity="0.161"/>
      <feComposite operator="in" in2="blur"/>
      <feComposite in="SourceGraphic"/>
    </filter>
  </defs>
  <g id="Grupo_1166135" data-name="Grupo 1166135" transform="translate(-166 -1348)">
    <g id="Grupo_1164547" data-name="Grupo 1164547" transform="translate(-5 -2570)">
      <g id="Grupo_1161419" data-name="Grupo 1161419" transform="translate(0 -5495)">
        <g id="Grupo_1160581" data-name="Grupo 1160581" transform="translate(0 7864)">
          <g id="Grupo_1153955" data-name="Grupo 1153955" transform="translate(-83 1036)">
            <g id="Grupo_1149598" data-name="Grupo 1149598" transform="translate(80 315)">
              <g id="Grupo_1148770" data-name="Grupo 1148770" transform="translate(-27 -2583)">
                <g id="Grupo_1146954" data-name="Grupo 1146954" transform="translate(-415 -1202)">
                  <g transform="matrix(1, 0, 0, 1, 616, 3983)" filter="url(#Trazado_982547)">
                    <g id="Trazado_982547-2" data-name="Trazado 982547" transform="translate(9 6)" fill="#fcebe9">
                      <path d="M 45 88.5 C 39.12687683105469 88.5 33.43022537231445 87.35007476806641 28.06830024719238 85.08217620849609 C 22.88852500915527 82.89131164550781 18.23629951477051 79.75458526611328 14.2408504486084 75.75914764404297 C 10.24541282653809 71.76370239257812 7.108687400817871 67.11147308349609 4.917825222015381 61.93170166015625 C 2.649924993515015 56.56977462768555 1.5 50.87312316894531 1.5 45 C 1.5 39.12687683105469 2.649924993515015 33.43022537231445 4.917825222015381 28.06830024719238 C 7.108687400817871 22.88852500915527 10.24541282653809 18.23629951477051 14.2408504486084 14.2408504486084 C 18.23629951477051 10.24541282653809 22.88852500915527 7.108687400817871 28.06830024719238 4.917825222015381 C 33.43022537231445 2.649924993515015 39.12687683105469 1.5 45 1.5 C 50.87312316894531 1.5 56.56977462768555 2.649924993515015 61.93170166015625 4.917825222015381 C 67.11147308349609 7.108687400817871 71.76370239257812 10.24541282653809 75.75914764404297 14.2408504486084 C 79.75458526611328 18.23629951477051 82.89131164550781 22.88852500915527 85.08217620849609 28.06830024719238 C 87.35007476806641 33.43022537231445 88.5 39.12687683105469 88.5 45 C 88.5 50.87312316894531 87.35007476806641 56.56977462768555 85.08217620849609 61.93170166015625 C 82.89131164550781 67.11147308349609 79.75458526611328 71.76370239257812 75.75914764404297 75.75914764404297 C 71.76370239257812 79.75458526611328 67.11147308349609 82.89131164550781 61.93170166015625 85.08217620849609 C 56.56977462768555 87.35007476806641 50.87312316894531 88.5 45 88.5 Z" stroke="none"/>
                      <path d="M 45 3 C 39.32871246337891 3 33.82865524291992 4.110054016113281 28.65262985229492 6.299339294433594 C 23.65165710449219 8.414573669433594 19.15968322753906 11.44334411621094 15.301513671875 15.301513671875 C 11.44334411621094 19.15968322753906 8.414573669433594 23.65165710449219 6.299339294433594 28.65262985229492 C 4.110054016113281 33.82865524291992 3 39.32871246337891 3 45 C 3 50.67128753662109 4.110054016113281 56.17134475708008 6.299339294433594 61.34737396240234 C 8.414573669433594 66.34834289550781 11.44334411621094 70.84031677246094 15.301513671875 74.698486328125 C 19.15968322753906 78.55665588378906 23.65165710449219 81.58542633056641 28.65262985229492 83.70066070556641 C 33.82865524291992 85.88994598388672 39.32871246337891 87 45 87 C 50.67128753662109 87 56.17134475708008 85.88994598388672 61.34737396240234 83.70066070556641 C 66.34834289550781 81.58542633056641 70.84031677246094 78.55665588378906 74.698486328125 74.698486328125 C 78.55665588378906 70.84031677246094 81.58542633056641 66.34834289550781 83.70066070556641 61.34737396240234 C 85.88994598388672 56.17134475708008 87 50.67128753662109 87 45 C 87 39.32871246337891 85.88994598388672 33.82865524291992 83.70066070556641 28.65262985229492 C 81.58542633056641 23.65165710449219 78.55665588378906 19.15968322753906 74.698486328125 15.301513671875 C 70.84031677246094 11.44334411621094 66.34834289550781 8.414573669433594 61.34737396240234 6.299339294433594 C 56.17134475708008 4.110054016113281 50.67128753662109 3 45 3 M 45 0 C 69.85281372070312 0 90 20.14718627929688 90 45 C 90 69.85281372070312 69.85281372070312 90 45 90 C 20.14718627929688 90 0 69.85281372070312 0 45 C 0 20.14718627929688 20.14718627929688 0 45 0 Z" stroke="none" fill="#e44b36"/>
                    </g>
                  </g>
                </g>
              </g>
            </g>
          </g>
        </g>
      </g>
    </g>
    <g id="Filled_outline" data-name="Filled outline" transform="translate(172.113 1349.114)">
      <path id="Trazado_1022282" data-name="Trazado 1022282" d="M176.89,55.953l-.34,3.056-.229,2.059H147.494l-.229-2.059-.34-3.056a15.841,15.841,0,0,1,1.184-7.988,15.856,15.856,0,0,0,1.261-7.031l-.179-3.562a12.732,12.732,0,1,1,25.433,0l-.179,3.562a15.856,15.856,0,0,0,1.261,7.031A15.833,15.833,0,0,1,176.89,55.953Z" transform="translate(-113.991 -6.975)" fill="#8f4d2e"/>
      <path id="Trazado_1022283" data-name="Trazado 1022283" d="M257.427,55.947,257.087,59H245.533V47.679l2.059-4.118V35.324A11.336,11.336,0,0,0,239.26,24.4a12.746,12.746,0,0,1,15.9,12.967l-.179,3.562a15.856,15.856,0,0,0,1.261,7.031A15.833,15.833,0,0,1,257.427,55.947Z" transform="translate(-194.528 -6.97)" fill="#82462a"/>
      <path id="Trazado_1022284" data-name="Trazado 1022284" d="M220.767,224.236a1.441,1.441,0,0,1-1.441-1.441V216h-8.236v6.8a1.441,1.441,0,0,1-1.441,1.441H208v6.177h14.414v-6.177Z" transform="translate(-167.291 -174.261)" fill="#fec9a3"/>
      <path id="Trazado_1022285" data-name="Trazado 1022285" d="M236.739,221.148a5.649,5.649,0,0,0,3.5-1.262V216H232v3.885a5.649,5.649,0,0,0,3.5,1.263Z" transform="translate(-188.202 -174.261)" fill="#feb784"/>
      <path id="Trazado_1022286" data-name="Trazado 1022286" d="M210.532,86.177v5.148a9.266,9.266,0,1,1-18.532,0V86.177a13.968,13.968,0,0,0,4.749-5.379l.4-.8.584.488a25.706,25.706,0,0,0,12.8,5.69Z" transform="translate(-153.35 -55.764)" fill="#fec9a3"/>
      <path id="Trazado_1022287" data-name="Trazado 1022287" d="M285.251,121.631v5.148a9.27,9.27,0,0,1-7.5,9.1,11.284,11.284,0,0,0,3.378-8.067V120.69A25.677,25.677,0,0,0,285.251,121.631Z" transform="translate(-228.069 -91.217)" fill="#fec093"/>
      <path id="Trazado_1022288" data-name="Trazado 1022288" d="M224,312h10.3v7.207H224Z" transform="translate(-181.232 -257.906)" fill="#e0e0de"/>
      <path id="Trazado_1022289" data-name="Trazado 1022289" d="M124.6,306.726a3.125,3.125,0,0,1-3.471-2.073l-6.8-12.757a8.018,8.018,0,0,1-1.436,7.666V307.8H94.358v-8.236a8.031,8.031,0,0,1-1.421-7.762l-6.911,12.853a3.124,3.124,0,1,1-5.932-1.961l7.56-18.816A6.175,6.175,0,0,1,93.386,280h4.06l6.177,11.325L109.8,280h4.045a6.183,6.183,0,0,1,5.74,3.9l7.473,18.8a3.126,3.126,0,0,1-2.462,4.035Z" transform="translate(-55.707 -230.025)" fill="#ec8c8c"/>
      <path id="Trazado_1022290" data-name="Trazado 1022290" d="M74.161,393.653,74.9,384h6.177v9.919a3.465,3.465,0,1,1-6.92-.266Z" transform="translate(-50.667 -320.64)" fill="#f59898"/>
      <path id="Trazado_1022291" data-name="Trazado 1022291" d="M33.629,266.893a2,2,0,0,0-1.306,2.839l.943,1.884h-3.69a6.177,6.177,0,0,1-2.763-.652l-1.026-.513a1.235,1.235,0,0,0-1.788,1.1v2.906a2.059,2.059,0,0,0,1.138,1.842l1.676.838a6.178,6.178,0,0,0,2.763.652h7.808v-6.177l-1.41-3.525a2,2,0,0,0-2.345-1.2Z" transform="translate(-6.971 -218.552)" fill="#fec9a3"/>
      <path id="Trazado_1022292" data-name="Trazado 1022292" d="M80,352h6.177v4.118H80Z" transform="translate(-55.764 -292.759)" fill="#e0e0de"/>
      <path id="Trazado_1022293" data-name="Trazado 1022293" d="M224.531,310.42a3.125,3.125,0,0,1-3.471-2.073l-6.8-12.757a8.018,8.018,0,0,1-1.436,7.666v8.236H194.63c8.5-5.549,15.667-12.591,21.685-27.252a6.167,6.167,0,0,1,3.2,3.35l7.473,18.8a3.126,3.126,0,0,1-2.462,4.035Z" transform="translate(-155.641 -233.719)" fill="#e07f7f"/>
      <path id="Trazado_1022294" data-name="Trazado 1022294" d="M306.3,352.473,296,350.414V336l10.3,2.059Z" transform="translate(-243.966 -278.818)" fill="#a36548"/>
      <path id="Trazado_1022295" data-name="Trazado 1022295" d="M408,352.473l10.3-2.059V336L408,338.059Z" transform="translate(-341.552 -278.818)" fill="#8f4d2e"/>
      <path id="Trazado_1022296" data-name="Trazado 1022296" d="M376,352h4.118v14.414H376Z" transform="translate(-313.67 -292.759)" fill="#95573a"/>
      <path id="Trazado_1022297" data-name="Trazado 1022297" d="M308.355,317.148a3.646,3.646,0,0,0-3.047-3.6L296,312v3.089l10.3,2.059h2.059a3.646,3.646,0,0,1,3.047-3.6L320.709,312v3.089l-10.3,2.059Z" transform="translate(-243.966 -257.906)" fill="#d4bd81"/>
      <path id="Trazado_1022298" data-name="Trazado 1022298" d="M437.317,422.081l-4.118.686a1.03,1.03,0,0,1-1.2-1.016v-3.827a1.34,1.34,0,0,1,1.12-1.322l3.5-.583a1.34,1.34,0,0,1,1.561,1.322v3.723A1.03,1.03,0,0,1,437.317,422.081Z" transform="translate(-362.463 -348.524)" fill="#fec9a3"/>
      <path id="Trazado_1022302" data-name="Trazado 1022302" d="M77.409,53.309a1.031,1.031,0,0,0-.835-.23L67.266,54.63a4.684,4.684,0,0,0-1.725.654l-.709-1.791a6.857,6.857,0,0,0-1.181-1.973l.269-2.435a17.836,17.836,0,0,0,.109-1.868,16.8,16.8,0,0,0-1.37-6.634,14.871,14.871,0,0,1-1.174-6.576l.175-3.564c.011-.225.022-.457.022-.687a13.762,13.762,0,1,0-27.508.688L34.347,34c.01.265.02.516.02.764a14.677,14.677,0,0,1-1.193,5.823,16.823,16.823,0,0,0-1.261,8.509l.268,2.4a6.99,6.99,0,0,0-.815,1.179L29.96,49.158a3.032,3.032,0,1,0-5.528,2.482l.2.394H22.606a5.173,5.173,0,0,1-2.3-.543l-1.026-.513A2.265,2.265,0,0,0,16,53V55.91a3.072,3.072,0,0,0,1.707,2.763l1.676.838a7.243,7.243,0,0,0,3.223.761h.6V63.32l-.74,9.615a4.495,4.495,0,0,0,4.481,4.839q.114,0,.227-.006c.066,0,.131.006.2.006a4.144,4.144,0,0,0,3.893-2.723l4.7-8.738A9.005,9.005,0,0,0,37.621,69.9v7.876H39.68V69.537a1.03,1.03,0,0,0-.239-.659,7.02,7.02,0,0,1,.9-9.875l-1.318-1.582a9.075,9.075,0,0,0-1.279,1.306,1.059,1.059,0,0,0-.106.129h0l-.018.032-.013.023a9.015,9.015,0,0,0-1.338,2.5l-4.82,8.963V57.865l1.463-3.643a4.935,4.935,0,0,1,1.083-1.662A5.211,5.211,0,0,1,37.682,51h3.445l5.885,10.789a1.03,1.03,0,0,0,1.808,0L51,57.788V71.6a1.03,1.03,0,0,0,.828,1.01l4.32.864v4.3h2.059V73.881l3.939.787c.026,0,.145.017.179.017h1.948l.2.368a4.171,4.171,0,0,0,3.908,2.72,3.876,3.876,0,0,0,.679-.056,4.173,4.173,0,0,0,3.223-2.688l2.738-.456a2.051,2.051,0,0,0,1.716-1.926l.206-.041a1.03,1.03,0,0,0,.828-1.01v-17.5a1.03,1.03,0,0,0-.364-.785ZM43.357,50.792a2.473,2.473,0,0,0,1.471-2.258V45.383a10.3,10.3,0,0,0,6.177,0v3.151a2.473,2.473,0,0,0,1.471,2.257l-1.239,2.273H44.6Zm4.56-6.994a8.246,8.246,0,0,1-8.236-8.236V30.952a15.04,15.04,0,0,0,4.456-5.1,26.669,26.669,0,0,0,12.017,5.44v4.27A8.246,8.246,0,0,1,47.916,43.8Zm13.914,8.78.019.02a4.771,4.771,0,0,1,1.068,1.649l.442,1.117a4.683,4.683,0,0,0-1.848-.734L53.46,53.287,54.7,51H58.14A5.1,5.1,0,0,1,61.83,52.578Zm.6,5.634-4.684-.937-4.684-.937v-1.03l8.109,1.351a2.608,2.608,0,0,1,1.978,1.552Zm5.174-1.551,8.109-1.352v1.03l-4.842.969-4.526.9h-.719a2.608,2.608,0,0,1,1.977-1.551ZM20.3,57.668l-1.676-.838a1.024,1.024,0,0,1-.569-.921V53a.206.206,0,0,1,.3-.184l1.026.513a7.243,7.243,0,0,0,3.223.761H26.3a1.03,1.03,0,0,0,.921-1.49l-.942-1.885a.973.973,0,1,1,1.774-.8l1.336,3.341v4.949H22.606a5.173,5.173,0,0,1-2.3-.543Zm9.08,2.6V62.33H25.266V60.271ZM24.52,73.092l.669-8.7h4.194v8.89a2.437,2.437,0,0,1-2.259,2.427,1.049,1.049,0,0,0-.116.006c-.02,0-.04,0-.06,0a2.435,2.435,0,0,1-2.428-2.622ZM37.637,58.857a1.029,1.029,0,0,1,.066-.08l-.062.081Zm-3.56-8.938-.118-1.058a14.761,14.761,0,0,1,1.107-7.467,16.724,16.724,0,0,0,1.36-6.635c0-.288-.011-.57-.022-.854l-.175-3.563a11.7,11.7,0,1,1,23.393-.587c0,.181-.009.38-.019.588l-.175,3.56a16.938,16.938,0,0,0,1.337,7.489,14.756,14.756,0,0,1,1.2,5.825,15.772,15.772,0,0,1-.1,1.647l-.117,1.061a7.2,7.2,0,0,0-3.616-.979H53.476a.417.417,0,0,1-.412-.412V44.472a10.3,10.3,0,0,0,5.148-8.91V30.414a1.03,1.03,0,0,0-.884-1.019,24.616,24.616,0,0,1-12.286-5.462l-.585-.487a1.03,1.03,0,0,0-1.58.33l-.4.8a12.971,12.971,0,0,1-4.4,4.983,1.03,1.03,0,0,0-.459.857v5.148a10.3,10.3,0,0,0,5.148,8.91v4.062a.417.417,0,0,1-.412.412H37.682a7.253,7.253,0,0,0-3.605.973ZM47.916,59.15l-2.2-4.027h4.393Zm5.148-.712L61.3,60.085V72.4l-8.236-1.647Zm10.3,1.833h2.059V72.626H63.36Zm5.35,15.418a1.841,1.841,0,0,1-.325.026,2.109,2.109,0,0,1-1.815-1.037l.058-.009.023,0h.009l2.116-.423a2.032,2.032,0,0,0,1.037.9A2.146,2.146,0,0,1,68.709,75.689Zm5.976-3.147-4.118.686V69.4a.31.31,0,0,1,.26-.306l3.5-.583a.337.337,0,0,1,.053,0,.311.311,0,0,1,.309.311v3.723Zm-.7-6.061-3.5.583a2.362,2.362,0,0,0-1.98,2.338v2.793l-1.03.206V60.085l8.236-1.647v8.427a2.363,2.363,0,0,0-1.73-.384Z" transform="translate(0)"/>
    </g>
  </g>
</svg>
