<svg xmlns="http://www.w3.org/2000/svg" xmlns:xlink="http://www.w3.org/1999/xlink" width="113" height="113" viewBox="0 0 113 113">
  <defs>
    <filter id="Trazado_982547" x="0" y="0" width="113" height="113" filterUnits="userSpaceOnUse">
      <feOffset dy="3" input="SourceAlpha"/>
      <feGaussianBlur stdDeviation="3" result="blur"/>
      <feFlood flood-opacity="0.161"/>
      <feComposite operator="in" in2="blur"/>
      <feComposite in="SourceGraphic"/>
    </filter>
  </defs>
  <g id="Grupo_1171050" data-name="Grupo 1171050" transform="translate(-324 -9574.313)">
    <g id="Grupo_1168546" data-name="Grupo 1168546" transform="translate(333 9580.313)">
      <g transform="matrix(1, 0, 0, 1, -9, -6)" filter="url(#Trazado_982547)">
        <g id="Trazado_982547-2" data-name="Trazado 982547" transform="translate(9 6)" fill="#e8e7f2">
          <path d="M 47.5 93.5 C 41.28937149047852 93.5 35.26533508300781 92.28397369384766 29.59518623352051 89.88570404052734 C 24.11771965026855 87.56893157958984 19.19813346862793 84.25196075439453 14.97309303283691 80.02691650390625 C 10.74804019927979 75.80186462402344 7.431066513061523 70.88229370117188 5.114293098449707 65.40481567382812 C 2.716026782989502 59.73468017578125 1.5 53.71062850952148 1.5 47.5 C 1.5 41.28937149047852 2.716026782989502 35.26533508300781 5.114293098449707 29.59518623352051 C 7.431066513061523 24.11771965026855 10.74804019927979 19.19813346862793 14.97309303283691 14.97309303283691 C 19.19813346862793 10.74804019927979 24.11771965026855 7.431066513061523 29.59518623352051 5.114293098449707 C 35.26533508300781 2.716026782989502 41.28937149047852 1.5 47.5 1.5 C 53.71062850952148 1.5 59.73468017578125 2.716026782989502 65.40481567382812 5.114293098449707 C 70.88229370117188 7.431066513061523 75.80186462402344 10.74804019927979 80.02691650390625 14.97309303283691 C 84.25196075439453 19.19813346862793 87.56893157958984 24.11771965026855 89.88570404052734 29.59518623352051 C 92.28397369384766 35.26533508300781 93.5 41.28937149047852 93.5 47.5 C 93.5 53.71062850952148 92.28397369384766 59.73468017578125 89.88570404052734 65.40481567382812 C 87.56893157958984 70.88229370117188 84.25196075439453 75.80186462402344 80.02691650390625 80.02691650390625 C 75.80186462402344 84.25196075439453 70.88229370117188 87.56893157958984 65.40481567382812 89.88570404052734 C 59.73468017578125 92.28397369384766 53.71062850952148 93.5 47.5 93.5 Z" stroke="none"/>
          <path d="M 47.5 3 C 41.49121475219727 3 35.66376876831055 4.176155090332031 30.17950439453125 6.495796203613281 C 24.88084411621094 8.736953735351562 20.12152099609375 11.94598388671875 16.03375244140625 16.03375244140625 C 11.94598388671875 20.12152099609375 8.736953735351562 24.88084411621094 6.495796203613281 30.17950439453125 C 4.176155090332031 35.66376876831055 3 41.49121475219727 3 47.5 C 3 53.50878524780273 4.176155090332031 59.33623123168945 6.495796203613281 64.82049560546875 C 8.736953735351562 70.11915588378906 11.94598388671875 74.87847900390625 16.03375244140625 78.96624755859375 C 20.12152099609375 83.05401611328125 24.88084411621094 86.26304626464844 30.17950439453125 88.50419616699219 C 35.66376876831055 90.82384490966797 41.49121475219727 92 47.5 92 C 53.50878524780273 92 59.33623123168945 90.82384490966797 64.82049560546875 88.50419616699219 C 70.11915588378906 86.26304626464844 74.87847900390625 83.05401611328125 78.96624755859375 78.96624755859375 C 83.05401611328125 74.87847900390625 86.26304626464844 70.11915588378906 88.50419616699219 64.82049560546875 C 90.82384490966797 59.33623123168945 92 53.50878524780273 92 47.5 C 92 41.49121475219727 90.82384490966797 35.66376876831055 88.50419616699219 30.17950439453125 C 86.26304626464844 24.88084411621094 83.05401611328125 20.12152099609375 78.96624755859375 16.03375244140625 C 74.87847900390625 11.94598388671875 70.11915588378906 8.736953735351562 64.82049560546875 6.495796203613281 C 59.33623123168945 4.176155090332031 53.50878524780273 3 47.5 3 M 47.5 0 C 73.7335205078125 0 95 21.2664794921875 95 47.5 C 95 73.7335205078125 73.7335205078125 95 47.5 95 C 21.2664794921875 95 0 73.7335205078125 0 47.5 C 0 21.2664794921875 21.2664794921875 0 47.5 0 Z" stroke="none" fill="#292584"/>
        </g>
      </g>
    </g>
    <g id="walkie-talkie_3445329" transform="translate(349 9596)">
      <path id="Trazado_1024377" data-name="Trazado 1024377" d="M16,16V4a2,2,0,0,1,4,0V16" fill="#939393"/>
      <path id="Trazado_1024378" data-name="Trazado 1024378" d="M20,8H16V4a2,2,0,0,1,4,0Z" fill="#ccc"/>
      <path id="Trazado_1024379" data-name="Trazado 1024379" d="M16,38V60a2,2,0,0,0,2,2H36a2,2,0,0,0,2-2V38a2,2,0,0,1,2-2,2,2,0,0,0,2-2V18a2,2,0,0,0-2-2H14a2,2,0,0,0-2,2V34a2,2,0,0,0,2,2A2,2,0,0,1,16,38Z" fill="#a72b25"/>
      <rect id="Rectángulo_414379" data-name="Rectángulo 414379" width="22" height="12" rx="2" transform="translate(16 20)" fill="#ccc"/>
      <path id="Trazado_1024380" data-name="Trazado 1024380" d="M20,37h4v4H20Z" fill="#c1c1c1"/>
      <path id="Trazado_1024381" data-name="Trazado 1024381" d="M30,37h4v4H30Z" fill="#c1c1c1"/>
      <g id="Grupo_1171049" data-name="Grupo 1171049">
        <path id="Trazado_1024382" data-name="Trazado 1024382" d="M19,44H35v2H19Z" fill="#d23f34"/>
        <path id="Trazado_1024383" data-name="Trazado 1024383" d="M19,48H35v2H19Z" fill="#d23f34"/>
        <path id="Trazado_1024384" data-name="Trazado 1024384" d="M19,52H35v2H19Z" fill="#d23f34"/>
        <path id="Trazado_1024385" data-name="Trazado 1024385" d="M19,56H35v2H19Z" fill="#d23f34"/>
      </g>
      <path id="Trazado_1024386" data-name="Trazado 1024386" d="M32,16V15a3,3,0,0,1,6,0v1" fill="#ccc"/>
      <path id="Trazado_1024387" data-name="Trazado 1024387" d="M26,16V15a3,3,0,0,1,6,0v1" fill="#939393"/>
      <path id="Trazado_1024388" data-name="Trazado 1024388" d="M42,20h2a2,2,0,0,1,2,2v8a2,2,0,0,1-2,2H42" fill="#d23f34"/>
      <path id="Trazado_1024389" data-name="Trazado 1024389" d="M12,20H10a2,2,0,0,0-2,2v8a2,2,0,0,0,2,2h2" fill="#d23f34"/>
      <path id="Trazado_1024390" data-name="Trazado 1024390" d="M45,15h-.023a1,1,0,0,1-.948-.757l-2.167-8.67-.914,2.741A1,1,0,0,1,40,9H32V7h7.278l1.773-5.316A1.086,1.086,0,0,1,42.038,1a1,1,0,0,1,.932.757l2.117,8.471,1.955-6.516a1,1,0,0,1,.782-.7A1.018,1.018,0,0,1,48.8,3.4L51.5,7H56V9H51a1,1,0,0,1-.8-.4L48.388,6.184l-2.432,8.1A1,1,0,0,1,45,15Z" fill="#f9d266"/>
      <path id="Trazado_1024391" data-name="Trazado 1024391" d="M18,20a2,2,0,0,0-2,2v8a2,2,0,0,0,2,2H28.266a18.961,18.961,0,0,0,7.108-12Z" fill="#e2e7f6"/>
      <path id="Trazado_1024392" data-name="Trazado 1024392" d="M36,19H18a3,3,0,0,0-3,3v8a3,3,0,0,0,3,3H36a3,3,0,0,0,3-3V22A3,3,0,0,0,36,19Zm1,11a1,1,0,0,1-1,1H18a1,1,0,0,1-1-1V22a1,1,0,0,1,1-1H36a1,1,0,0,1,1,1Z"/>
      <path id="Trazado_1024393" data-name="Trazado 1024393" d="M24,42a1,1,0,0,0,1-1V37a1,1,0,0,0-1-1H20a1,1,0,0,0-1,1v4a1,1,0,0,0,1,1Zm-3-4h2v2H21Z"/>
      <path id="Trazado_1024394" data-name="Trazado 1024394" d="M34,36H30a1,1,0,0,0-1,1v4a1,1,0,0,0,1,1h4a1,1,0,0,0,1-1V37A1,1,0,0,0,34,36Zm-1,4H31V38h2Z"/>
      <path id="Trazado_1024395" data-name="Trazado 1024395" d="M19,44H35v2H19Z"/>
      <path id="Trazado_1024396" data-name="Trazado 1024396" d="M19,48H35v2H19Z"/>
      <path id="Trazado_1024397" data-name="Trazado 1024397" d="M19,52H35v2H19Z"/>
      <path id="Trazado_1024398" data-name="Trazado 1024398" d="M19,56H35v2H19Z"/>
      <path id="Trazado_1024399" data-name="Trazado 1024399" d="M44,19H43V18a3,3,0,0,0-3-3H39a3.983,3.983,0,0,0-7-2.617A3.983,3.983,0,0,0,25,15H21V4a3,3,0,0,0-6,0V15H14a3,3,0,0,0-3,3v1H10a3,3,0,0,0-3,3v8a3,3,0,0,0,3,3h1v1a3,3,0,0,0,3,3,1,1,0,0,1,1,1V60a3,3,0,0,0,3,3H36a3,3,0,0,0,3-3V38a1,1,0,0,1,1-1,3,3,0,0,0,3-3V33h1a3,3,0,0,0,3-3V22A3,3,0,0,0,44,19Zm-9-6a2,2,0,0,1,2,2H33A2,2,0,0,1,35,13Zm-8,2a2,2,0,0,1,4,0ZM18,3a1,1,0,0,1,1,1V7H17V4A1,1,0,0,1,18,3ZM17,9h2v6H17ZM10,31a1,1,0,0,1-1-1V22a1,1,0,0,1,1-1h1V31Zm31,3a1,1,0,0,1-1,1,3,3,0,0,0-3,3V60a1,1,0,0,1-1,1H18a1,1,0,0,1-1-1V38a3,3,0,0,0-3-3,1,1,0,0,1-1-1V18a1,1,0,0,1,1-1H40a1,1,0,0,1,1,1Zm4-4a1,1,0,0,1-1,1H43V21h1a1,1,0,0,1,1,1Z"/>
      <path id="Trazado_1024400" data-name="Trazado 1024400" d="M51.5,7,48.8,3.4a1.018,1.018,0,0,0-.976-.384,1,1,0,0,0-.782.7l-1.955,6.516L42.97,1.756A1,1,0,0,0,42.038,1a1.086,1.086,0,0,0-.987.684L39.278,7H32V9h8a1,1,0,0,0,.948-.684l.914-2.741,2.166,8.669a1,1,0,0,0,.948.757H45a1,1,0,0,0,.957-.712l2.432-8.1L50.2,8.6A1,1,0,0,0,51,9h5V7Z"/>
    </g>
  </g>
</svg>
