<svg xmlns="http://www.w3.org/2000/svg" width="51.843" height="38.691" viewBox="0 0 51.843 38.691">
  <g id="sprinkler_6004589" transform="translate(-3.203 -20)">
    <path id="Trazado_1023985" data-name="Trazado 1023985" d="M29.625,59.051c6.391,0,11.59-4.449,11.59-9.919,0-4.168-2.708-6.213-5.091-8.017a22.94,22.94,0,0,1-2.007-1.635c-1.691-1.619-1.368-4.671-1.024-6.346a1.749,1.749,0,0,0-.693-1.779,1.819,1.819,0,0,0-1.986-.118c-2,1.117-4.582,2.95-5.513,5.333-1.86,4.752-.344,7.982.724,9.484a.555.555,0,0,1,.1.432.52.52,0,0,1-.244.343l-.115.074a.668.668,0,0,1-.8-.054,5.114,5.114,0,0,1-1.524-3.6,1.792,1.792,0,0,0-1.413-1.65,1.813,1.813,0,0,0-2.008.9,12.232,12.232,0,0,0-1.542,7.545C18.631,55.182,23.593,59.051,29.625,59.051ZM21.146,43.757a6.932,6.932,0,0,0,2.112,4.512,2.589,2.589,0,0,0,3.152.263l.115-.074a2.441,2.441,0,0,0,1.1-1.6,2.475,2.475,0,0,0-.425-1.924c-1.029-1.445-1.951-3.947-.5-7.656.724-1.849,3-3.4,4.438-4.226-.387,2.118-.609,5.672,1.644,7.827a24.774,24.774,0,0,0,2.178,1.782c2.22,1.68,4.32,3.267,4.32,6.473,0,4.406-4.332,7.985-9.655,7.985-4.957,0-9.183-3.192-9.62-7.275a10.342,10.342,0,0,1,1.14-6.084Z" transform="translate(-0.484 -0.36)"/>
    <path id="Trazado_1023987" data-name="Trazado 1023987" d="M29.967,23.869a.967.967,0,0,0,.967-.967V20.967a.967.967,0,0,0-1.935,0V22.9A.967.967,0,0,0,29.967,23.869Z" transform="translate(-0.844 0)"/>
    <path id="Trazado_1023988" data-name="Trazado 1023988" d="M29,28.9a.967.967,0,1,0,1.935,0V26.967a.967.967,0,1,0-1.935,0Z" transform="translate(-0.844 -0.196)"/>
    <path id="Trazado_1023989" data-name="Trazado 1023989" d="M24.826,23.646a.955.955,0,0,0,.371.075.967.967,0,0,0,.893-.6l.745-1.786a.967.967,0,0,0-1.786-.745l-.744,1.786A.967.967,0,0,0,24.826,23.646Z" transform="translate(-0.688 0)"/>
    <path id="Trazado_1023990" data-name="Trazado 1023990" d="M22.742,26.133,22,27.918a.967.967,0,1,0,1.786.745l.744-1.787a.967.967,0,1,0-1.785-.744Z" transform="translate(-0.613 -0.18)"/>
    <path id="Trazado_1023991" data-name="Trazado 1023991" d="M21.7,31.151a.967.967,0,0,0-1.265.52l-.745,1.786a.967.967,0,0,0,1.786.745l.745-1.786A.967.967,0,0,0,21.7,31.151Z" transform="translate(-0.537 -0.363)"/>
    <path id="Trazado_1023992" data-name="Trazado 1023992" d="M18.275,40.336a.967.967,0,0,0,.892-.6l.745-1.786a.967.967,0,0,0-1.786-.745L17.382,39a.967.967,0,0,0,.893,1.34Z" transform="translate(-0.462 -0.544)"/>
    <path id="Trazado_1023993" data-name="Trazado 1023993" d="M15.595,45.8a.955.955,0,0,0,.372.074.967.967,0,0,0,.893-.595l.744-1.786a.967.967,0,1,0-1.785-.745l-.745,1.786a.967.967,0,0,0,.52,1.265Z" transform="translate(-0.386 -0.724)"/>
    <path id="Trazado_1023994" data-name="Trazado 1023994" d="M20.186,20.342l-1.25,1.477a.968.968,0,1,0,1.478,1.25l1.25-1.477a.968.968,0,1,0-1.478-1.25Z" transform="translate(-0.507)"/>
    <path id="Trazado_1023995" data-name="Trazado 1023995" d="M15.8,27.991a.967.967,0,0,0,.74-.342l1.25-1.476a.968.968,0,1,0-1.478-1.25L15.06,26.4a.967.967,0,0,0,.738,1.592Z" transform="translate(-0.381 -0.15)"/>
    <path id="Trazado_1023996" data-name="Trazado 1023996" d="M12.434,29.5l-1.25,1.477a.968.968,0,1,0,1.478,1.25l1.25-1.477a.968.968,0,1,0-1.478-1.25Z" transform="translate(-0.254 -0.3)"/>
    <path id="Trazado_1023997" data-name="Trazado 1023997" d="M8.558,34.082l-1.25,1.477a.968.968,0,1,0,1.478,1.25l1.25-1.477a.968.968,0,1,0-1.478-1.25Z" transform="translate(-0.127 -0.45)"/>
    <path id="Trazado_1023998" data-name="Trazado 1023998" d="M4.681,38.662l-1.25,1.476a.968.968,0,0,0,1.478,1.25l1.25-1.476a.968.968,0,0,0-1.478-1.25Z" transform="translate(0 -0.6)"/>
    <path id="Trazado_1023999" data-name="Trazado 1023999" d="M39.706,20.342a.968.968,0,0,0-1.478,1.25l1.25,1.477a.968.968,0,1,0,1.478-1.25Z" transform="translate(-1.139)"/>
    <path id="Trazado_1024000" data-name="Trazado 1024000" d="M44.832,26.4l-1.25-1.476a.968.968,0,1,0-1.478,1.25l1.246,1.476a.968.968,0,0,0,1.478-1.25Z" transform="translate(-1.266 -0.15)"/>
    <path id="Trazado_1024001" data-name="Trazado 1024001" d="M47.97,32.572a.967.967,0,0,0,.738-1.592L47.458,29.5a.968.968,0,1,0-1.478,1.25l1.25,1.477a.967.967,0,0,0,.74.342Z" transform="translate(-1.393 -0.3)"/>
    <path id="Trazado_1024002" data-name="Trazado 1024002" d="M51.846,37.152a.967.967,0,0,0,.738-1.592l-1.25-1.477a.968.968,0,1,0-1.478,1.25l1.25,1.477A.967.967,0,0,0,51.846,37.152Z" transform="translate(-1.519 -0.45)"/>
    <path id="Trazado_1024003" data-name="Trazado 1024003" d="M55.725,41.731a.967.967,0,0,0,.738-1.592l-1.25-1.476a.968.968,0,0,0-1.478,1.25l1.25,1.476A.967.967,0,0,0,55.725,41.731Z" transform="translate(-1.646 -0.6)"/>
    <path id="Trazado_1024004" data-name="Trazado 1024004" d="M34.86,20.595a.967.967,0,1,0-1.786.745l.745,1.786a.967.967,0,0,0,.893.6.955.955,0,0,0,.371-.075.967.967,0,0,0,.52-1.265Z" transform="translate(-0.975 0)"/>
    <path id="Trazado_1024005" data-name="Trazado 1024005" d="M37.167,26.135a.967.967,0,0,0-1.785.744l.744,1.787a.967.967,0,0,0,1.786-.745Z" transform="translate(-1.051 -0.182)"/>
    <path id="Trazado_1024006" data-name="Trazado 1024006" d="M37.689,32.417l.745,1.786a.967.967,0,0,0,1.786-.745l-.745-1.786a.967.967,0,1,0-1.786.745Z" transform="translate(-1.126 -0.363)"/>
    <path id="Trazado_1024007" data-name="Trazado 1024007" d="M40.518,36.689A.967.967,0,0,0,40,37.955l.745,1.786A.967.967,0,1,0,42.527,39l-.744-1.787A.967.967,0,0,0,40.518,36.689Z" transform="translate(-1.202 -0.544)"/>
    <path id="Trazado_1024008" data-name="Trazado 1024008" d="M42.826,42.228a.967.967,0,0,0-.52,1.265l.744,1.786a.967.967,0,0,0,.893.595.955.955,0,0,0,.372-.074.967.967,0,0,0,.52-1.265l-.745-1.786A.967.967,0,0,0,42.826,42.228Z" transform="translate(-1.277 -0.725)"/>
  </g>
</svg>
