<svg xmlns="http://www.w3.org/2000/svg" width="36.053" height="36.055" viewBox="0 0 36.053 36.055">
  <g id="glass_15127509" transform="translate(0.087 0.09)">
    <path id="Trazado_1023979" data-name="Trazado 1023979" d="M34.71,30.22l-6.769-5.173a15.627,15.627,0,1,0-2.893,2.892l5.174,6.772a3.208,3.208,0,0,0,2.33,1.246q.105.007.211.007A3.2,3.2,0,0,0,34.71,30.22ZM1.165,15.564a14.4,14.4,0,1,1,14.4,14.4,14.4,14.4,0,0,1-14.4-14.4ZM34.181,34.178a2.04,2.04,0,0,1-1.55.583,2.005,2.005,0,0,1-1.456-.78l-5.2-6.807a15.742,15.742,0,0,0,1.2-1.2l6.807,5.2a2,2,0,0,1,.2,3Z" transform="translate(0)"/>
    <path id="Trazado_1023980" data-name="Trazado 1023980" d="M12.245,25.115A1.732,1.732,0,0,0,13.759,26H27.044a1.732,1.732,0,0,0,1.514-.886,1.825,1.825,0,0,0,0-1.825L21.912,11.884a1.733,1.733,0,0,0-3.02,0L12.25,23.29a1.825,1.825,0,0,0-.005,1.825Zm1.042-1.221,6.645-11.412a.533.533,0,0,1,.941,0l6.643,11.41a.614.614,0,0,1,0,.623.543.543,0,0,1-.473.284H13.759a.545.545,0,0,1-.473-.284.615.615,0,0,1,0-.623Z" transform="translate(-4.836 -4.437)"/>
    <path id="Trazado_1023981" data-name="Trazado 1023981" d="M17.191,4a.6.6,0,0,0,0,1.2,11.994,11.994,0,1,1-2.855.343.6.6,0,1,0-.286-1.166A13.206,13.206,0,1,0,17.191,4Z" transform="translate(-1.626 -1.636)"/>
    <path id="Trazado_1023982" data-name="Trazado 1023982" d="M54.024,53.176a.6.6,0,1,0-.848.848l.6.6a.6.6,0,1,0,.848-.848Z" transform="translate(-21.234 -21.235)"/>
    <path id="Trazado_1023983" data-name="Trazado 1023983" d="M25.6,23.4a.6.6,0,0,0,.6-.6V18.6a.6.6,0,1,0-1.2,0v4.2A.6.6,0,0,0,25.6,23.4Z" transform="translate(-10.034 -7.236)"/>
    <path id="Trazado_1023984" data-name="Trazado 1023984" d="M25.6,30.8a.6.6,0,0,0,.6-.6v-.6a.6.6,0,1,0-1.2,0v.6A.6.6,0,0,0,25.6,30.8Z" transform="translate(-10.034 -11.636)"/>
  </g>
</svg>
